<svg width="140" height="41" viewBox="0 0 140 41" fill="none" xmlns="http://www.w3.org/2000/svg">
<path fill-rule="evenodd" clip-rule="evenodd" d="M12.9052 1.49381V2.76079L13.3462 2.80253C13.6456 2.83072 13.928 2.74709 14.2258 2.54213L14.6644 2.24012H69.8199H124.975V2.82172C124.975 3.52977 124.906 3.62494 124.574 3.37635C124.352 3.21058 116.729 3.18374 68.6406 3.17971C38.0184 3.17716 12.0512 3.17608 10.9354 3.17729L8.90687 3.17971L8.90862 6.16627C8.90968 7.80894 8.95073 9.22517 9 9.31349C9.28424 9.82383 9.93984 7.98384 9.94207 6.66962C9.9429 6.18976 9.94842 5.46493 9.95442 5.05889L9.96524 4.32064L66.6677 4.35648L123.37 4.39232L123.818 4.05447C124.064 3.8687 124.425 3.71662 124.62 3.71662H124.975V5.19312C124.975 6.306 125.013 6.66962 125.126 6.66962C125.21 6.66962 126.268 7.80572 127.478 9.19443L129.679 11.7192V14.0584V16.3977L128.026 18.2887L126.372 20.1799L128.026 22.0399L129.679 23.8997L129.681 25.3182C129.683 26.9472 129.752 27.3706 130.006 27.3135C130.29 27.2502 130.725 25.7743 130.732 24.8514L130.738 24.0401L132.447 22.1059L134.156 20.1717L132.447 18.2177L130.738 16.2636L130.739 14.5203C130.741 13.4515 130.782 12.8498 130.846 12.9653C130.903 13.0689 132.317 14.7159 133.987 16.6254L137.024 20.0972L130.994 26.9812L124.964 33.8651L124.999 34.7894L125.034 35.7137L125.446 35.8459L125.857 35.9781L125.328 36.079C125.037 36.1344 100.165 36.1855 70.0575 36.1926C16.8738 36.2053 15.3078 36.2126 15.0313 36.4553L14.7466 36.705L15.3487 36.7996C15.6799 36.8516 16.0129 36.9795 16.0888 37.0838C16.2073 37.2467 24.2972 37.2734 73.4821 37.2734H130.738V34.5426C130.738 31.9682 130.724 31.7976 130.499 31.565C130.281 31.3398 130.244 31.3368 130.074 31.5311C129.801 31.8423 129.69 32.7018 129.684 34.5553L129.679 36.1996L128.062 36.1977C126.408 36.1959 125.916 36.1297 125.916 35.9085C125.916 35.8395 126.075 35.7198 126.269 35.6426C126.575 35.5208 126.622 35.4365 126.622 35.0075C126.622 34.5331 126.875 34.2231 132.792 27.4703C136.185 23.597 139.043 20.4085 139.142 20.3846C139.241 20.3607 139.322 20.2992 139.322 20.2478C139.322 20.1965 137.391 17.9529 135.03 15.262L130.738 10.3695V6.77458V3.17971H129.046C127.535 3.17971 127.324 3.20816 127.076 3.44373L126.798 3.70762L127.202 3.71219C127.455 3.71501 127.711 3.8295 127.888 4.01863C128.119 4.26708 128.303 4.32064 128.924 4.32064H129.679L129.679 6.73485L129.679 9.14893L128.146 7.40599L126.612 5.66291L126.646 2.94468L126.681 0.22644L69.7929 0.226574L12.9052 0.226709V1.49381ZM12.9052 5.25459C12.9052 5.79352 12.8524 5.85835 6.61372 12.9783C3.15342 16.9274 0.322266 20.204 0.322266 20.2596C0.322266 20.3153 0.388473 20.3611 0.469262 20.3615C0.550169 20.3619 2.46842 22.4766 4.73216 25.0609L8.84807 29.7597L8.88275 33.5165L8.91735 37.2734H10.1913C11.1359 37.2734 11.5003 37.2251 11.601 37.0867C11.6757 36.9841 11.9778 36.8587 12.2725 36.8082C12.7924 36.7192 12.8022 36.7089 12.6033 36.4581C12.4261 36.2346 12.2333 36.1996 11.1818 36.1996H9.96524V33.6164V31.0332L11.444 32.7211L12.9227 34.4089L12.9099 37.3177L12.8969 40.2264H69.7594H126.622V39.1775V38.1285L126.194 37.8957C125.723 37.6395 125.121 37.7051 125.014 38.0243C124.959 38.1861 117.062 38.213 69.7445 38.213H14.5387L14.56 35.9392L14.5812 33.6653L12.2752 31.0064L9.96923 28.3473L9.94865 26.5353C9.93736 25.5386 9.93067 24.6478 9.93361 24.5554C9.94019 24.3546 9.77332 24.3333 9.67125 24.5218C9.63127 24.5957 9.54541 24.6561 9.48038 24.6561C9.32939 24.6561 13.0219 20.4295 13.258 20.3322C13.3821 20.2809 12.9089 19.6482 11.6606 18.196L9.88692 16.1326L9.92384 14.972C9.95912 13.8658 9.94726 13.8011 9.6722 13.5953C9.39608 13.3888 9.3749 13.3945 9.18392 13.7272C9.05268 13.9557 8.96672 14.4498 8.93285 15.1708L8.88123 16.2669L7.18948 18.2226L5.49772 20.1783L7.34928 22.2985C8.36767 23.4645 9.13477 24.378 9.05386 24.3282C8.9405 24.2582 8.90687 24.5623 8.90687 25.6549C8.90687 26.4343 8.87817 27.0722 8.84313 27.0722C8.77598 27.0722 2.67421 20.1234 2.67421 20.0468C2.67421 20.0223 5.34649 16.9572 8.61276 13.2353L14.5513 6.46828L14.5514 5.75674C14.5515 5.06896 14.5376 5.03862 14.1356 4.84681C13.9069 4.73768 13.5364 4.66252 13.3124 4.67983C12.9194 4.71003 12.9052 4.73003 12.9052 5.25459ZM10.7611 18.7859L11.9644 20.164L10.6676 21.6382L9.37103 23.1125L8.1165 21.6644L6.86209 20.2164L8.08817 18.8121C8.76247 18.0397 9.36903 17.4078 9.43606 17.4078C9.50309 17.4078 10.0993 18.0279 10.7611 18.7859ZM131.556 18.8121L132.782 20.2164L131.528 21.6644L130.273 23.1125L128.977 21.6382L127.68 20.164L128.883 18.7859C129.545 18.0279 130.141 17.4078 130.208 17.4078C130.275 17.4078 130.882 18.0397 131.556 18.8121ZM9.92915 29.1837C9.89928 29.3143 9.87294 29.2399 9.87059 29.0185C9.86823 28.797 9.89257 28.6901 9.92479 28.781C9.95701 28.8719 9.95902 29.0531 9.92915 29.1837Z" fill="#05B4C7"/>
</svg>
