<svg width="40" height="45" viewBox="0 0 40 45" fill="none" xmlns="http://www.w3.org/2000/svg">
<path d="M10.9963 15.9399C11.0885 15.0038 11.1346 14.5358 11.2157 14.1361C11.9118 10.7042 14.7589 8.12387 18.2426 7.76779C18.6483 7.72632 19.1186 7.72632 20.0591 7.72632V7.72632C20.9997 7.72632 21.47 7.72632 21.8757 7.76779C25.3593 8.12387 28.2065 10.7042 28.9026 14.1361C28.9836 14.5358 29.0298 15.0038 29.122 15.9399L29.6672 21.4717C29.8073 22.8931 29.8774 23.6039 30.0701 24.2865C30.097 24.3818 30.1256 24.4765 30.156 24.5707C30.3739 25.2458 30.7095 25.8762 31.3806 27.1371L33.3506 30.8385C34.0494 32.1515 34.3988 32.8079 34.1074 33.2931C33.816 33.7782 33.0724 33.7782 31.5851 33.7782H8.53322C7.04591 33.7782 6.30226 33.7782 6.0109 33.2931C5.71953 32.8079 6.06892 32.1515 6.7677 30.8385L8.73772 27.1371C9.40881 25.8762 9.74435 25.2458 9.96224 24.5707C9.99265 24.4765 10.0213 24.3818 10.0482 24.2865C10.2409 23.6039 10.3109 22.8931 10.451 21.4717L10.9963 15.9399Z" stroke="#00EAFD"/>
<path d="M15.2764 34.5335C15.5586 35.9184 16.1803 37.1422 17.0451 38.015C17.91 38.8878 18.9696 39.3608 20.0597 39.3608C21.1498 39.3608 22.2095 38.8878 23.0743 38.015C23.9391 37.1422 24.5608 35.9184 24.843 34.5336" stroke="#00EAFD" stroke-linecap="round"/>
</svg>
