<svg width="173" height="139" viewBox="0 0 173 139" fill="none" xmlns="http://www.w3.org/2000/svg">
<g filter="url(#filter0_d_80_4251)">
<path d="M148.15 40.7503C145.834 33.5591 143.175 26.4858 140.637 19.3724C139.969 17.3836 139.134 15.4541 138.128 13.6144C138.281 12.3607 135.749 13.2794 135.006 13.3138C134.291 13.4469 133.583 13.604 132.874 13.7571C130.888 12.9876 128.719 12.5507 126.634 12.1331C124.158 12.1555 121.757 12.7535 119.428 13.5696C119.352 13.4333 119.218 13.3243 119.004 13.3074C117.993 13.1639 116.593 12.501 115.647 12.7054C115.636 12.7142 115.616 12.7239 115.604 12.7327C115.466 12.7623 115.328 12.816 115.199 12.893C102.366 17.9679 91.3141 26.6565 81.7759 36.501C80.0492 38.3359 78.325 40.1956 76.854 42.2453C74.1959 34.7487 70.6272 27.5134 65.9402 21.075C59.9082 13.1559 52.4452 6.40162 43.8481 1.36836C43.5306 1.20403 43.2348 0.959544 42.8861 0.880987C42.822 0.86736 42.7611 0.872173 42.7018 0.884999C42.6929 0.884999 42.6873 0.880987 42.6785 0.880987C42.2833 0.874574 42.1158 1.21526 42.1599 1.51987C42.1318 1.76596 42.2521 2.01847 42.5126 2.09702C42.499 2.15714 42.4853 2.20283 42.4749 2.27097C44.3499 6.71425 45.5202 12.8633 46.6817 18.1251C43.7006 16.9018 40.6376 15.8702 37.5274 15.0261C33.8248 14.1451 30.0789 13.1175 26.2489 13.1102C25.7511 13.1575 25.198 13.0782 24.709 13.196C24.5912 13.1263 24.4477 13.0966 24.2938 13.1439C21.016 16.0297 18.5286 19.8453 16.2681 23.5728C15.707 24.6958 14.7347 25.9238 14.3162 27.1206C12.9663 27.2289 11.6156 27.3499 10.2673 27.4846C9.94829 27.3451 9.54508 27.6401 9.65811 28.0024C14.5415 40.9202 20.6144 53.418 25.4 65.3891C31.6076 79.7202 36.523 93.6071 43.121 107.876C43.303 108.18 43.3839 108.599 43.7527 108.716C43.8152 108.722 43.8689 108.717 43.9218 108.713C44.0412 108.784 44.1831 108.814 44.3346 108.769C51.9627 107.24 60.6144 107.053 68.7899 108.004C75.832 108.563 83.3911 110.298 89.5642 113.395C89.852 113.508 90.1526 113.727 90.458 113.855C90.8789 115.012 91.2933 116.171 91.7189 117.327C92.0973 117.987 92.0941 119.035 92.7851 119.424C92.8861 119.452 92.9879 119.444 93.0825 119.414C93.2925 119.523 93.5602 119.537 93.7879 119.581C94.24 119.626 94.6945 119.792 95.1498 119.721C95.1594 119.719 95.1626 119.711 95.1706 119.708C98.0404 119.945 100.965 119.581 103.687 118.649C104.386 118.36 105.135 118.09 105.772 117.668C105.898 117.664 106.027 117.616 106.129 117.505C106.277 117.392 106.397 117.27 106.508 117.145C106.649 117.08 106.748 116.951 106.786 116.761C107.373 115.78 107.224 114.543 107.179 113.357C107.111 112.369 107.16 111.371 107.059 110.387C107.058 110.383 107.054 110.38 107.053 110.376C113.109 104.563 119.818 99.9847 127.254 95.8436C137.539 89.8564 148.643 86.1041 160.617 84.2589C161.017 84.1282 161.483 84.2524 162.028 84.0569C162.379 84.1971 162.81 83.8757 162.686 83.4829C158.547 69.0028 152.793 55.0621 148.15 40.7503ZM87.6837 32.0665C95.5891 24.7431 104.949 18.1114 114.788 14.3431C115.182 14.1259 115.731 14.0321 116.095 13.7531C116.712 13.8028 117.34 13.9231 118.06 14.0754C117.376 14.3399 116.698 14.6132 116.03 14.8954C114.694 15.5503 113.227 16.008 111.963 16.7728C111.684 17.1006 112.119 17.6032 112.488 17.3708C116.776 15.414 121.849 13.2978 126.508 13.2072C127.614 13.3066 129.341 13.7756 130.901 14.2132C115.888 17.8862 102.247 26.0289 90.0468 35.3595C87.359 37.5783 84.7803 39.9735 82.5911 42.691C82.2288 43.2048 81.7799 43.8188 81.5242 44.4409C80.2376 43.8284 78.8957 43.1334 77.4737 43.1198C80.1943 39.1351 84.0019 35.5303 87.6837 32.0665ZM31.7791 71.5527C26.0413 58.5411 20.0773 43.8717 14.8188 31.5647C15.3527 32.085 17.8745 31.2433 18.5831 31.3299C24.5374 30.7158 32.2593 30.7335 36.7619 32.4537C38.0148 34.0914 39.8024 36.4585 42.2729 37.289C44.5583 38.2268 47.0993 38.8473 49.5426 38.1771C51.1611 37.8036 53.7374 36.5715 54.046 36.3832C57.8953 38.0168 62.8653 40.5194 66.7562 43.1118C68.1655 44.1306 69.3005 44.8465 70.4604 46.1795C70.4901 46.2132 70.5085 46.2549 70.5342 46.291C70.5518 46.4192 70.6039 46.5419 70.6985 46.6284C70.2055 47.3988 69.719 48.1731 69.2316 48.9459C69.1803 49.0276 69.1306 49.1062 69.0793 49.1872C68.842 49.5623 68.6055 49.9391 68.3643 50.311C68.3226 50.3559 68.3138 50.3904 68.317 50.4184C68.2841 50.4745 68.2456 50.5354 68.2136 50.5908C68.1695 50.7423 68.2023 50.8745 68.2737 50.9795C68.2785 51.022 68.3073 51.0613 68.3202 51.103C68.3049 51.1783 68.3017 51.2577 68.3298 51.3443C71.1731 59.3074 73.8352 67.3346 76.8869 75.2256C77.4264 76.6669 77.8705 78.1555 78.4268 79.5839C78.4404 79.6031 78.4653 79.6031 78.4813 79.6184C81.6933 89.1446 85.0071 98.6404 88.4019 108.105C84.842 106.606 80.1262 105.672 76.8789 105.061C76.2656 104.01 73.0576 101.267 70.7923 100.837C68.1807 100.243 64.547 100.826 63.456 103.594C60.7763 103.549 56.7178 103.346 53.5787 103.602C50.9863 103.809 48.3699 104.198 45.8448 104.789C44.5038 101.977 43.3799 99.4677 42.2561 96.7406C39.3366 89.9743 36.434 82.5338 33.2934 75.2128C32.7627 74.1635 32.3627 72.9627 31.804 71.9054C31.8424 71.7931 31.8521 71.6705 31.7791 71.5527ZM69.9883 49.62C70.2224 49.7707 70.4941 49.8557 70.7691 49.8934C72.7346 50.1371 74.7266 50.008 76.7001 50.1411C78.3955 50.1483 80.1214 50.2116 81.8023 49.9855C81.9971 49.9278 82.1759 49.8316 82.341 49.7146C82.3947 49.9455 82.4468 50.1763 82.5005 50.4072C80.7963 51.0132 78.2119 50.8513 75.9346 50.8593C73.9137 50.7527 70.8156 50.8368 69.4136 50.5282C69.6059 50.2276 69.7959 49.923 69.9883 49.62ZM78.3314 44.2076C79.5851 44.626 80.3017 44.9924 81.4143 45.5158C81.626 46.5491 81.8512 47.5783 82.0869 48.6052C81.9907 48.634 81.9025 48.6781 81.824 48.7423C81.824 48.7423 81.8224 48.7431 81.8095 48.7535C81.1947 49.2104 79.7807 49.022 78.3811 49.1142C75.8184 49.0613 72.9182 49.3868 70.7747 48.8761C70.7146 48.8457 70.6608 48.808 70.6079 48.7687C70.5919 48.7551 70.5751 48.7415 70.5542 48.7262C70.5663 48.7054 70.5799 48.6862 70.5927 48.6653C71.355 47.5607 72.1406 46.5106 72.8059 45.6882C72.8588 45.6288 72.9198 45.5615 72.9783 45.495C73.3093 45.4437 73.5386 45.1367 73.844 45.0116C74.9021 44.4946 77.3318 44.004 78.3314 44.2076ZM43.9467 2.83209C44.0829 2.91546 44.228 2.99321 44.3498 3.0878C55.125 9.60483 64.1342 18.6301 70.1366 29.7972C71.9875 33.1038 73.4039 36.2188 74.6777 39.5006C74.83 39.7956 74.9711 40.186 75.1113 40.6004C68.3995 32.8769 60.9679 25.5495 51.9779 20.5699C50.636 19.8589 49.2613 19.22 47.8705 18.6164C47.8849 18.5579 47.8905 18.4954 47.8825 18.4281C47.9603 17.8862 45.6188 6.90423 43.9467 2.83209ZM17.8232 22.9403C17.8264 22.9403 17.828 22.9435 17.8312 22.9435C20.6785 22.9218 24.5158 23.2305 26.8405 23.5543C28.2136 23.7267 29.5876 23.9695 30.9535 24.1451C31.3936 24.1122 31.4408 23.4293 31.0096 23.3283C27.428 22.7663 23.2413 22.0898 19.2837 21.9062C19.0328 21.9214 18.7579 21.8878 18.4845 21.8677C19.5146 20.2717 20.612 18.7471 21.8328 17.297C21.8369 17.2994 21.8393 17.3026 21.8433 17.305C28.8805 17.7347 35.8352 19.1415 42.7787 21.4822C42.8188 21.4998 42.7555 21.4726 42.7282 21.4605C43.0352 21.5527 43.3182 21.8237 43.6477 21.7643C43.9996 21.6786 44.0725 21.1599 43.7495 20.9852C40.7731 19.7555 37.6108 19.0245 34.4877 18.2701C30.6296 17.3002 26.689 16.481 22.7074 16.3054C23.3359 15.6096 23.986 14.9243 24.6841 14.2629C25.7254 14.3712 26.8316 14.1531 27.8898 14.3022C36.1863 15.2168 45.331 17.8894 52.8388 22.1291C58.4524 25.378 63.1546 29.5351 67.8841 34.1595C70.1615 36.4505 72.8909 39.5038 74.5639 41.6409C75.0865 42.3383 75.4624 42.8104 75.8504 43.3082C75.0384 43.4693 74.2496 43.7066 73.5915 43.9759C73.549 43.6513 73.2636 43.3371 72.9759 43.1815C72.8829 43.131 72.7939 43.1086 72.7105 43.1014C72.3242 42.6453 71.6476 42.1948 71.3815 41.9046C65.8985 37.6777 59.8328 34.0898 53.3631 31.5992C44.406 28.2974 34.8813 26.9723 25.3695 26.7631C22.0597 26.6645 18.7547 26.8016 15.4561 27.0413C16.2208 25.6224 17.008 24.2645 17.8232 22.9403ZM69.1226 106.852C63.2741 106.201 57.3719 106.005 51.5106 106.633C49.1907 106.842 46.8573 107.038 44.5823 107.567C44.4701 107.6 44.3466 107.622 44.2248 107.647C40.2408 99.5582 37.2982 91.1374 33.7511 82.5667C28.1743 69.1623 22.2986 54.9851 16.002 41.4276C14.2184 37.6817 12.8557 33.4429 11.222 29.6465C11.0345 29.2625 10.9238 28.8256 10.7804 28.4096C24.915 27.0629 38.8332 27.786 52.1807 32.392C58.337 34.5731 64.3635 38.1491 69.8857 42.2862C69.6172 42.0601 70.2095 42.5499 70.3707 42.6669C70.7755 42.986 71.1554 43.3347 71.533 43.685C71.5338 43.6866 71.533 43.6882 71.5338 43.6898C71.5859 43.7691 71.6452 43.8429 71.7013 43.9206C71.7342 44.0633 71.8144 44.1892 71.9474 44.2605C72.0051 44.3359 72.0532 44.416 72.1093 44.4922C71.8312 44.8962 71.5683 45.3106 71.2989 45.721C71.2917 45.7178 71.2821 45.7186 71.2749 45.7154C70.0324 44.0689 68.1478 42.9892 66.4861 41.8084C62.6104 39.4084 58.5126 37.3667 54.4043 35.402C53.9106 35.2369 53.436 35.5126 52.9911 35.697C52.1118 36.1579 49.3743 37.3026 48.1991 37.3411C46.1078 37.6296 43.8328 36.8208 42.1551 36.0986C39.941 35.1198 38.9719 33.4613 37.4897 31.6665C31.642 29.5768 25.0874 29.895 18.9535 30.287C18.1359 30.3591 17.3807 30.4473 16.6689 30.5411C16.1495 30.3968 15.4874 30.3904 15.0264 30.2405C14.4036 30.1154 13.2565 30.0505 13.501 31.0116C15.6717 36.4441 18.2008 42.1515 20.705 47.8421C23.7367 54.6789 26.2809 61.3467 29.4136 68.3839C29.8104 69.0773 30.1647 70.2284 30.5751 71.1318C30.5775 71.1903 30.5807 71.2496 30.6152 71.305C35.3543 81.7082 39.1899 92.5442 43.8913 103.043C44.3138 103.844 44.6408 104.737 45.1611 105.468C45.1915 105.493 45.2284 105.493 45.2613 105.509C45.3607 105.664 45.537 105.768 45.751 105.703C51.6965 104.252 57.5675 104.383 63.828 104.514C64.2007 104.431 64.357 104.082 64.4597 103.751C64.5462 103.3 65.7791 102.219 66.4212 102.054C68.256 101.426 69.6364 101.454 71.4841 102.144C72.9711 102.686 74.7891 104.178 76.1414 105.813C76.2761 105.951 76.4484 106.046 76.636 106.086C76.7057 106.102 76.8917 106.126 76.9895 106.138C79.7366 106.514 82.446 107.102 85.0672 108.014C86.5606 108.459 87.6508 108.883 88.8676 109.418C89.1859 110.299 89.4897 111.185 89.8087 112.064C83.2789 109.122 76.2616 107.395 69.1226 106.852ZM105.513 116.522C105.03 116.955 104.177 117.313 103.8 117.479C100.833 118.611 97.5843 118.929 94.7915 118.551C94.2199 118.38 93.7109 118.336 93.3598 118.059C93.3189 118.022 93.2789 117.98 93.2444 117.937C93.2252 117.908 93.2035 117.875 93.1827 117.84C93.0937 117.714 93.0576 117.549 92.9815 117.417C92.5318 115.988 92.0428 114.565 91.5121 113.148C91.5041 113.123 91.4977 113.099 91.4849 113.076C90.9959 111.771 90.4941 110.468 90.0043 109.163C90.0187 108.98 89.9618 108.842 89.852 108.739C89.4705 107.711 89.0897 106.683 88.7458 105.65C85.9835 97.5342 82.8652 89.5502 79.9891 81.4765C79.5586 80.5282 79.432 79.3811 78.9021 78.5098C78.2689 76.6092 77.6091 74.7166 76.9294 72.832C74.9069 67.5679 72.9093 62.2917 71.2564 56.897C70.6713 55.1703 70.1366 53.4132 69.537 51.693C70.9647 51.9447 72.4885 51.7475 73.929 51.8597C76.6985 51.8348 79.5121 52.0593 82.2456 51.5302C82.4244 51.4813 82.6095 51.4276 82.7931 51.3651C85.7959 57.8501 87.8857 65.4605 90.531 72.5082C93.8993 80.513 96.4652 88.8064 99.0961 97.0725C101.199 103.547 103.597 109.921 105.598 116.43C105.57 116.459 105.543 116.487 105.513 116.522ZM106.122 114.385C105.846 113.529 105.571 112.672 105.285 111.817C105.422 111.841 105.563 111.824 105.672 111.71C105.812 111.569 105.955 111.44 106.096 111.301C106.157 112.031 106.158 113.341 106.122 114.385ZM105.864 107.686C102.458 97.9454 98.9446 86.909 94.9414 77.042C94.8179 76.7559 94.7121 76.4617 94.5967 76.1715C92.3482 69.5984 89.836 63.1158 87.6733 56.5106C87.3887 55.931 87.4015 55.1479 86.9694 54.6733C86.648 54.4737 86.2087 54.8032 86.3226 55.1711C88.4123 61.2777 90.4612 67.4725 92.7266 73.5118C96.7209 84.8392 101.077 96.0608 104.532 107.577C104.938 108.658 105.204 109.74 105.672 110.437C105.438 110.641 105.195 110.842 105.038 111.088C102.311 102.981 99.2861 94.9763 96.7378 86.8088C94.6239 80.1114 91.6676 73.7234 89.4544 67.0637C87.6492 61.5767 85.8961 56.0553 83.6765 50.7166C83.6652 50.6958 83.6484 50.6861 83.6356 50.6693C83.6324 50.6164 83.6324 50.5627 83.6131 50.513C83.6244 50.4401 83.6227 50.3639 83.6003 50.2902C83.4264 49.5198 83.2444 48.7527 83.0656 47.9823C83.9418 49.8004 84.6095 51.5912 85.428 53.6096C85.5153 54.1563 86.3658 54.0521 86.232 53.4813C85.4248 51.5198 84.7178 49.4829 83.8729 47.5238C84.3715 46.3527 84.8492 45.6617 85.626 44.8136C90.0147 39.9743 94.7971 36.3639 100.532 33.2842C106.95 34.125 110.831 31.0621 113.585 25.507C113.648 25.3916 113.674 25.285 113.678 25.1848C120.129 21.9792 127.215 19.4068 134.63 17.4349C138.238 26.004 141.626 36.0104 145.269 44.9515C145.296 44.9683 145.324 44.9603 145.353 44.9723C147.568 50.5715 149.712 56.3879 152.017 62.2837C154.094 67.4412 157.022 76.3599 157.739 79.9815C154.197 80.4713 150.659 81.3667 147.253 82.4833C143.769 83.7362 140.318 85.0805 136.969 86.6605C136.9 86.6204 136.824 86.5891 136.736 86.5811C129.986 85.3587 123.33 88.024 120.561 94.5562C120.17 95.4933 120.261 95.5534 119.416 96.258C119.266 96.4448 119.041 96.5915 118.842 96.7542C115.163 99.4901 111.011 102.749 107.47 106.07C106.965 106.594 106.313 107.089 105.864 107.686ZM138.568 89.0316C131.163 92.1338 124.19 96.262 117.502 100.682C113.578 103.309 109.931 106.33 106.537 109.61C106.442 109.341 106.345 109.06 106.25 108.789C106.286 108.768 106.331 108.764 106.363 108.729C110.566 103.932 115.542 100.571 120.348 96.7719C120.358 96.7542 120.356 96.7374 120.363 96.719C120.561 96.5675 120.761 96.4015 120.991 96.161C121.493 95.0436 121.696 94.3021 122.436 93.1518C124.97 89.0909 129.493 87.0773 134.499 87.5222C135.147 87.5061 135.624 87.6416 136.096 87.7074C136.225 87.8613 136.432 87.9438 136.655 87.81C136.727 87.7747 136.803 87.7418 136.873 87.7074C136.909 87.7017 136.943 87.7073 136.981 87.6993C137.031 87.6713 137.07 87.636 137.106 87.5991C143.542 84.4945 151.007 81.8845 157.856 81.0156C157.952 81.0116 158.031 80.9795 158.103 80.9354C158.353 81.0428 158.698 80.9979 158.907 80.7623C159.404 80.1042 158.65 78.9787 158.581 78.2164C156.383 69.6104 152.84 61.4557 149.672 53.1815C148.6 50.1058 147.391 47.6617 146.333 44.7783C146.001 43.8669 145.616 42.9771 145.197 42.1034C142.441 34.6044 139.498 27.1687 136.651 19.7042C136.209 18.602 135.79 17.491 135.281 16.4176C135.216 16.3054 135.109 16.2229 134.984 16.1884C134.849 16.1483 134.727 16.186 134.62 16.2501C134.618 16.2501 134.617 16.2493 134.615 16.2493C130.624 17.3259 126.609 18.4425 122.786 20.0545C119.419 21.4437 116.121 22.9892 112.868 24.622C112.807 24.6565 112.761 24.6998 112.727 24.7463C112.628 24.8265 112.539 24.9315 112.487 25.095C110.759 28.2982 108.761 30.9603 105.673 31.8733C104.129 32.3142 103.145 32.3607 101.445 32.2757C101.248 32.2918 101.034 32.2445 100.821 32.2164C100.65 32.0561 100.392 31.9952 100.113 32.1699C95.4472 34.7551 91.1001 37.923 87.2588 41.6272C85.9554 42.9996 84.5823 44.3495 83.5634 45.9551C83.5017 46.0922 83.424 46.23 83.3454 46.3695C83.0921 45.8413 82.842 45.3122 82.5542 44.8048C82.5302 44.7848 82.5053 44.7783 82.4813 44.7647C83.4953 42.7647 85.161 41.3419 86.8588 39.5904C91.5402 35.1182 96.6913 31.5968 102.366 28.0986C112.746 21.7667 123.116 16.6734 135.161 14.5507C135.936 14.4088 136.516 14.3166 137.075 14.2389C137.119 14.3535 137.176 14.4625 137.238 14.5587C139.126 18.0754 140.044 21.8645 141.62 25.8477C144.395 33.3451 146.876 40.9443 149.469 48.5058C152.09 55.523 154.803 62.5058 157.161 69.6184C158.621 73.7619 159.926 77.9575 161.261 82.1426C161.372 82.3839 161.432 82.6589 161.494 82.933C153.654 84.0496 145.904 86.0416 138.568 89.0316Z" fill="#05B4C7" fill-opacity="0.5"/>
<path d="M138.292 50.5347C137.225 50.7327 135.048 51.451 133.579 51.8422C130.955 52.5692 128.332 53.2995 125.696 53.9792C125.524 53.1367 125.324 52.3007 125.126 51.4646C124.572 49.568 124.403 47.4846 123.423 45.7484C123.136 45.3484 122.554 45.4165 122.322 45.8373C121.214 47.4582 120.029 49.5415 119.142 50.8794C116.951 48.1876 115.108 45.2361 113.203 42.3416C112.621 41.5784 112.074 40.1468 111.368 39.6313C111.261 39.6089 111.17 39.6466 111.092 39.7027C110.845 39.6842 110.612 39.9255 110.715 40.1796C111.52 44.0826 113.024 49.1544 114.338 53.5888C113.128 53.467 110.326 53.4429 108.627 53.6385C108.084 53.6009 107.703 54.0337 108.064 54.5227C109.336 56.0385 110.716 57.5391 112.169 59.0862C112.164 59.2009 112.203 59.3187 112.319 59.4149C112.708 59.7908 113.102 60.166 113.513 60.5179C110.164 62.7079 106.038 65.3387 102.368 67.5431C101.455 68.0161 101.864 68.7319 102.798 68.5924C106.495 68.4954 110.197 68.5099 113.898 68.5075C114.327 68.4802 115.412 68.5275 115.759 68.5267C115.798 68.6301 115.844 68.7455 115.863 68.7912C115.899 68.8642 115.913 68.9123 115.928 68.9556C115.929 70.7223 116.013 72.4874 115.999 74.2542C116.059 75.1511 115.721 78.5267 117.388 77.6008C119.128 76.3159 120.745 73.8469 122.025 72.594C123.503 74.7263 125.615 77.8846 127.313 80.3231C127.411 80.4425 127.482 80.5988 127.576 80.7295C127.631 80.9042 127.779 81.0461 128.014 81.0229C128.149 81.0133 128.234 80.9491 128.297 80.8698C128.454 80.8746 128.612 80.8177 128.696 80.6678C128.855 80.4561 128.728 80.1892 128.668 79.9648C128.681 80.0361 128.637 79.8253 128.572 79.5447C128.564 79.1471 128.428 78.7191 128.449 78.3335C128.308 75.5375 127.742 71.0822 127.664 69.2121C128.132 69.0846 131.63 68.2413 133.189 67.9079C134.136 67.6521 135.128 67.4614 135.977 66.9475C136.284 66.7495 136.683 66.4914 136.639 66.0754C136.599 65.7259 136.264 65.5399 135.995 65.3676C133.696 63.9592 131.279 62.76 128.902 61.4886C132.122 58.2037 135.748 55.4638 138.704 51.6794C139.077 51.2305 139.07 50.3921 138.292 50.5347ZM129.294 59.8854C128.776 60.3864 128.521 60.562 127.932 61.164C127.773 61.3668 127.759 61.653 127.905 61.8662C129.772 63.249 132.122 64.081 134.103 65.3403C134.524 65.5728 135.114 65.9247 135.465 66.1435C135.367 66.2053 135.318 66.2269 135.163 66.2982C132.442 67.362 129.888 67.4021 127.044 68.461C126.78 68.6542 126.703 68.9956 126.706 69.3083C126.8 71.0004 126.929 72.695 127.072 74.3824C127.225 75.9576 127.286 77.5439 127.512 79.1103C125.827 76.6213 124.148 74.1211 122.45 71.6473C122.055 71.2978 121.558 71.6329 121.272 71.96C119.799 73.5263 118.445 75.5856 117.021 76.7744C116.769 75.7996 116.882 74.3191 116.886 73.0998C116.875 71.6361 116.875 70.174 116.899 68.7119C116.922 68.5099 116.837 68.3095 116.691 68.1884C116.644 68.0049 116.558 67.8341 116.408 67.7067C115.755 67.3892 114.587 67.5672 113.536 67.5287C111.258 67.4926 108.985 67.6489 106.708 67.6337C105.831 67.6417 104.595 67.6658 103.613 67.7059C105.387 66.5844 107.579 65.1447 109.403 64.0201C111.049 62.95 112.867 61.6161 114.406 60.9147C114.226 61.0037 114.431 60.9219 114.499 60.8498C114.621 60.748 114.678 60.566 114.635 60.4113C114.613 60.255 114.485 60.146 114.373 60.0449C114.11 59.8478 113.854 59.6441 113.604 59.4301C113.589 59.3708 113.565 59.3115 113.516 59.2562C111.977 57.6794 110.199 55.7941 109.002 54.4169C110.029 54.3367 111.057 54.2782 112.087 54.2942C112.939 54.3063 113.668 54.3464 114.71 54.453C115.064 54.5355 115.423 54.2181 115.286 53.8534C114.189 50.1275 113.009 46.4225 112.017 42.6678C111.933 42.3279 111.84 41.871 111.736 41.382C113.53 44.1059 115.277 46.8602 117.137 49.5391C117.678 50.283 118.205 51.0389 118.798 51.7411C118.909 51.8381 119.06 51.8806 119.206 51.867C119.557 51.8317 119.751 51.5055 119.926 51.2377C120.999 49.5704 121.852 47.988 122.89 46.5548C122.89 46.5548 122.89 46.5564 122.891 46.5572C123.881 49.2385 124.276 51.778 124.854 54.348C124.72 54.5612 124.752 54.8305 124.957 54.9564C124.998 54.9892 125.048 55.0037 125.104 55.0189C125.108 55.0189 125.109 55.0197 125.111 55.0197C125.158 55.0317 125.198 55.0558 125.255 55.0494C125.326 55.0445 125.385 55.0245 125.435 54.9965C129.327 53.9536 133.968 52.6446 137.556 51.6385C135.318 54.5139 132.021 57.2963 129.294 59.8854Z" fill="#05B4C7" fill-opacity="0.5"/>
<path d="M62.7443 77.7004C59.4072 79.3934 54.7531 79.5513 51.4361 77.197C49.3295 75.7902 47.7367 73.7397 46.5279 71.2267C45.8577 69.8439 45.3255 68.6359 45.105 66.9261C44.8854 64.5991 45.2381 60.9245 46.2185 58.6952C46.2473 58.6415 46.2754 58.583 46.2978 58.5237C46.3531 58.4756 46.406 58.4219 46.4637 58.3746C46.5375 58.3001 46.5599 58.1862 46.5367 58.0836C46.402 57.7862 46.1768 57.8496 45.9395 58.0227C45.8192 58.0403 45.7022 58.1494 45.5916 58.3281C45.4176 58.5021 45.2565 58.6768 45.1451 58.7474C44.0838 59.7566 43.1716 60.9349 42.4637 62.2399C38.6762 68.9301 41.3631 78.0612 47.2405 82.4299C48.4365 83.2083 49.6886 84.0451 51.0513 84.4515C51.5074 84.6239 51.9715 84.7738 52.4477 84.8652C56.1038 85.5602 60.1711 84.1044 62.2866 80.8283C62.7178 80.1854 63.0321 79.4592 63.2485 78.7088C63.279 78.5718 63.3222 78.4091 63.3206 78.2592C63.3319 78.2359 63.3455 78.2159 63.3519 78.1878C63.4521 77.8287 63.0497 77.5024 62.7443 77.7004ZM62.1776 79.104C61.885 79.8199 61.4545 80.4828 61.1667 80.8283C58.5303 84.1638 53.6766 85.0407 50.1399 83.2259C49.796 83.0704 49.4641 82.8948 49.1387 82.7056C47.21 81.4808 45.4657 79.8255 44.3106 77.997C41.6878 73.8071 40.6417 68.9261 42.3619 64.1854C42.8261 62.8467 43.8128 61.1666 44.782 60.0331C44.8758 59.9209 44.9816 59.8215 45.0786 59.7125C44.6906 61.1962 44.4485 63.1626 44.4405 63.4952C44.3187 64.9333 44.2152 66.3994 44.4694 67.8303C44.7459 69.3061 45.3191 70.7105 45.9852 72.0379C48.071 76.3513 52.188 79.6908 56.9206 79.8062C58.4309 79.7998 59.9723 79.7036 61.4224 79.2371C61.707 79.1505 61.986 79.0431 62.2577 78.9205C62.2256 79.0343 62.2 79.1097 62.1776 79.104Z" fill="#05B4C7" fill-opacity="0.5"/>
<path d="M71.2903 31.788C66.9231 22.7194 59.7344 13.4674 50.8887 8.45654C54.4358 11.7591 58.2995 14.7379 61.4714 18.4253C65.0514 22.4501 67.8313 27.1948 70.8582 31.9243C71.3215 32.6273 71.8538 33.4425 72.2842 34.0774C71.9692 33.3062 71.6382 32.5431 71.2903 31.788Z" fill="#05B4C7" fill-opacity="0.5"/>
<path d="M75.3092 41.5C75.1777 41.1818 75.0422 40.8667 74.8972 40.5549C74.005 38.7722 72.9396 37.0808 71.7396 35.4872C71.2098 34.6319 70.6406 33.8038 70.041 32.999C70.0659 33.0255 70.0899 33.0527 70.1156 33.08C70.5597 33.5649 71.0262 34.0756 71.4559 34.5477C71.229 34.1653 71.003 33.7838 70.7697 33.4054C70.1837 32.4555 69.5633 31.5297 68.9252 30.6158C68.9693 30.6696 69.011 30.7225 69.0575 30.7754C69.4527 31.367 69.8503 31.9585 70.2503 32.5493C70.6599 33.1465 71.1737 33.9088 71.54 34.397C71.3565 33.9946 71.1729 33.5906 70.9885 33.1882C68.942 28.5509 65.8751 24.4595 62.6495 20.583C59.932 17.468 57.1152 14.3177 53.5609 12.1389C55.7685 14.4339 58.0659 16.6471 60.2142 18.9982C59.9785 18.7618 59.7469 18.5213 59.5088 18.2888C57.3389 16.2199 55.2282 14.0187 52.6687 12.4283C55.6643 15.6435 58.9116 18.6183 61.8567 21.8824C62.5276 22.6319 63.1577 23.379 63.7653 24.1237C62.4763 22.6816 61.1385 21.2812 59.7581 19.9273C57.4439 17.7405 55.3012 15.1802 52.3801 13.7902C53.3765 14.5333 54.1677 15.5097 55.0431 16.3842C57.5008 18.8603 60.025 21.2724 62.3657 23.8607C63.4631 25.0736 64.4883 26.3465 65.5072 27.6243C64.9332 26.9918 64.3569 26.3609 63.7837 25.7309C60.5196 22.3153 57.4399 18.5694 53.3709 16.0772C56.0507 18.8555 58.7713 21.5986 61.3934 24.4307C58.991 22.1517 56.7537 19.577 53.7525 18.0676C55.73 19.9112 57.6459 21.8215 59.5489 23.7469C57.2908 21.9056 54.9124 20.1878 52.1621 19.2211C54.7938 21.0407 57.3685 23.0543 59.9056 25.1978C59.7854 25.1289 59.6659 25.0559 59.5441 24.9894C61.1409 26.4371 62.8138 27.7998 64.4499 29.2026C65.3853 30.0555 66.3176 30.9172 67.2467 31.7934C68.498 33.205 69.7453 34.6215 71.0438 35.9826C72.1452 37.3565 73.2018 38.7433 74.2366 39.9874C74.6046 40.4699 74.9934 41.0303 75.3092 41.5Z" fill="#05B4C7" fill-opacity="0.5"/>
<path d="M67.4668 37.5017C66.3894 36.6039 65.2496 35.8071 64.0632 35.0832C64.5065 35.3245 64.965 35.577 65.3321 35.771C64.9017 35.4448 64.4696 35.1217 64.0359 34.8027C61.6961 33.0279 59.0973 31.6668 56.4376 30.4444C57.0396 30.7001 57.6488 30.9526 58.2307 31.2187C60.5682 32.3891 62.8351 33.7061 65.1325 34.9526C65.68 35.3494 66.2516 35.7662 66.7341 36.1069C66.25 35.6371 65.765 35.169 65.276 34.7041C62.3309 31.6949 58.6171 29.654 54.9498 27.662C54.6724 27.5185 54.3911 27.3758 54.1121 27.2323C56.8568 28.5542 59.5686 29.9418 62.1746 31.5361C61.8628 31.2291 61.5405 30.9357 61.2111 30.6512C61.3666 30.749 61.5213 30.85 61.6776 30.9478C61.8716 31.0768 62.0929 31.2331 62.2628 31.3462C62.0207 31.1081 61.7778 30.8716 61.5285 30.64C60.9297 30.0901 60.3101 29.5618 59.6792 29.0512C61.8981 30.6792 63.9365 32.373 66.4127 33.884C66.775 34.1887 67.1429 34.5037 67.4027 34.7145C67.1413 34.3915 66.8776 34.0692 66.6067 33.7526C63.9814 30.5598 60.7301 28.0011 57.4283 25.5466C53.9414 23.0712 50.1995 20.6183 45.9598 19.7197C48.9802 21.2155 51.9398 22.8612 54.7871 24.6664C55.3305 25.036 55.8468 25.4271 56.375 25.8095C54.5642 24.7209 52.6828 23.771 50.7582 22.9462C48.448 21.6861 46.0143 20.6632 43.5414 19.9754C45.9838 21.3911 48.4231 22.8356 50.9498 24.0957C52.3943 24.9654 53.8195 25.8704 55.2376 26.7891C52.0929 25.25 48.6997 24.1414 45.4259 23.1281C46.5819 23.6909 47.745 24.2368 48.9097 24.7818C46.9049 23.981 44.8327 23.3871 42.6484 23.242C48.0648 24.9999 53.2616 27.4191 58.2107 30.3738C57.4949 30.0412 56.7702 29.7269 56.0392 29.4376C52.8921 28.1021 49.644 27.0127 46.3037 26.28C45.9678 26.2031 45.571 26.1141 45.2768 26.0572C45.6552 26.1983 46.0312 26.3418 46.4071 26.4869C47.151 26.7867 47.9029 27.0744 48.6524 27.3646C45.9342 26.4949 43.147 25.8728 40.2885 25.7662C43.9462 26.7586 47.656 27.6083 51.2007 28.9694C53.6087 29.9049 55.9935 31.0015 58.3798 32.1742C57.7834 31.9337 57.1854 31.7013 56.5882 31.4736C53.4548 30.2359 50.2323 29.2227 46.9434 28.5141C44.0151 27.7678 41.0396 27.2484 38.0039 27.3943C43.6752 28.4564 49.3346 29.6452 54.7582 31.6564C59.0163 33.1602 62.8953 35.2283 66.9401 37.6035C67.6087 37.973 68.4512 38.47 69.0123 38.7786C68.5041 38.3466 67.9902 37.9185 67.4668 37.5017Z" fill="#05B4C7" fill-opacity="0.5"/>
<path d="M74.8105 44.2535C74.9051 44.1998 74.9981 44.1437 75.0975 44.0996C75.1937 44.0555 75.2923 44.013 75.3917 43.9721C75.176 43.7381 74.9676 43.4976 74.744 43.2699C74.9788 43.4984 75.2105 43.7244 75.4438 43.9529C75.6434 43.8743 75.8486 43.815 76.065 43.8166C76.0802 43.8134 76.0939 43.8118 76.1099 43.8094C75.7965 43.4174 75.4911 43.0214 75.164 42.6423C75.552 43.0246 75.9343 43.399 76.3175 43.7765C76.36 43.7693 76.4025 43.7637 76.4442 43.7565C76.4834 43.7493 76.5219 43.7453 76.5612 43.7381H76.5628C74.3784 40.5373 71.7187 37.6387 68.3015 35.7349C69.3788 36.8571 70.4891 37.981 71.6049 39.1024C70.271 37.9818 68.841 36.9806 67.2891 36.1677C69.5744 38.2503 71.8678 40.4667 74.1171 42.6591C72.6093 41.2162 70.9404 39.9585 69.0165 39.1361C70.8859 40.7745 72.8594 42.6166 74.8105 44.2535Z" fill="#05B4C7" fill-opacity="0.5"/>
<path d="M41.721 18.5017C42.905 18.8135 44.0954 19.1013 45.3042 19.3089C43.9134 18.6436 42.485 18.0792 41.0309 17.5935C41.3964 17.6864 41.7611 17.7826 42.1274 17.874C39.0004 16.2524 35.5391 15.5317 32.1531 14.662C29.5375 14.0784 26.8698 13.5638 24.1868 13.3281C24.0289 13.5221 23.8581 13.7025 23.6834 13.8788C25.7595 14.149 27.814 14.4672 30.113 14.864C31.6778 15.2031 33.2321 15.5862 34.784 15.9806C34.3695 15.8997 33.9551 15.8211 33.5375 15.749C30.1451 15.0243 26.7102 14.468 23.2465 14.3173C23.083 14.48 22.9251 14.6476 22.7728 14.8223C24.3102 15.0331 25.8269 15.2408 27.3251 15.4604C25.709 15.2896 24.1098 15.1854 22.5235 15.1157C22.4096 15.2608 22.2974 15.4067 22.1836 15.5518C25.8493 16.1097 29.4902 16.8319 33.111 17.6327C36.3335 18.3582 39.5094 19.3249 42.7888 19.7706C41.0926 19.1125 39.3651 18.5498 37.6208 18.0391C39.7154 18.5217 41.8092 19.0099 43.9487 19.272C43.2176 18.9995 42.4705 18.7494 41.721 18.5017Z" fill="#05B4C7" fill-opacity="0.5"/>
<path d="M23.7055 18.6693C26.1087 18.929 28.4735 19.2088 30.7773 19.5991C34.8109 20.2861 38.7652 21.3611 42.7837 22.1298C38.7957 20.2516 34.435 19.4629 30.1312 18.6701C26.9809 18.1643 23.8017 17.6593 20.6114 17.5847C20.4358 17.8164 20.2643 18.0496 20.0927 18.2821C20.9416 18.3735 21.8001 18.4681 22.6426 18.5571C21.7737 18.4705 20.9023 18.4104 20.0302 18.3647C19.8659 18.5883 19.6951 18.8088 19.5332 19.0348C22.7781 19.4468 26.0198 19.7001 29.255 20.2645C33.3015 20.9378 37.2614 22.0304 41.2871 22.8064C37.8137 21.252 34.0807 20.4929 30.3709 19.7354C28.1649 19.3017 25.9412 18.929 23.7055 18.6693Z" fill="#05B4C7" fill-opacity="0.5"/>
<path d="M32.1834 22.6016C36.0872 23.3263 39.9285 24.3651 43.8676 24.8918C41.0475 23.788 38.1185 23.0056 35.1566 22.3651C36.088 22.4878 37.0251 22.5824 37.9662 22.6345C34.8319 21.4954 31.5461 20.9062 28.2844 20.269C25.3754 19.6108 22.2948 19.2918 19.3145 19.3463C19.0492 19.7167 18.791 20.0918 18.5329 20.467C20.468 20.7547 22.4023 21.0417 24.3365 21.3367C22.274 21.0714 20.2003 20.9503 18.1417 21.0265C18.1329 21.0401 18.1233 21.0529 18.1137 21.0649C18.0231 21.2012 17.9413 21.3423 17.8516 21.4794C22.9105 21.9908 27.6375 22.8958 32.7413 23.0738C30.7758 22.5415 28.7614 22.0702 26.7293 21.7078C28.5505 21.9948 30.3678 22.2882 32.1834 22.6016Z" fill="#05B4C7" fill-opacity="0.5"/>
<path d="M28.573 23.9643C24.706 23.3775 20.6451 22.9575 16.7397 23.2469C16.6371 23.4176 16.5385 23.5915 16.4375 23.7631C19.6688 23.9747 22.9056 24.1254 26.1305 24.4236C30.1738 24.8749 34.3757 25.6284 38.6932 25.8801C35.4122 24.8004 31.9645 24.5134 28.573 23.9643Z" fill="#05B4C7" fill-opacity="0.5"/>
<path d="M31.2571 26.2496C33.3709 26.4949 35.484 26.7393 37.6154 26.773C34.0018 25.7494 30.2759 25.2748 26.5413 24.955C22.9405 24.6183 19.2226 24.5814 15.6587 25.0961C15.6058 25.1866 15.5521 25.2756 15.5008 25.3654C18.6319 25.5361 21.7669 25.5706 24.8972 25.7117C24.6271 25.7045 24.3585 25.6965 24.0892 25.6925C21.0727 25.6027 17.9481 25.6644 15.0014 26.2271C14.9677 26.2872 14.9325 26.3466 14.898 26.4067C15.5553 26.4187 16.2134 26.4315 16.8699 26.4444C16.1301 26.5165 15.3966 26.648 14.6703 26.8003L14.5918 26.9357C16.7152 27.1321 18.9493 27.0592 20.9293 26.7273C20.5749 26.6279 20.2166 26.5582 19.8567 26.5029C24.4387 26.5919 29.0214 26.6784 33.6034 26.7097C32.825 26.5269 32.0427 26.3754 31.2571 26.2496Z" fill="#05B4C7" fill-opacity="0.5"/>
<path d="M47.7457 8.38379C48.9713 9.21986 50.2306 10.0102 51.4915 10.7694C50.2322 9.54692 48.9152 8.3894 47.5485 7.29121C48.3773 7.7866 49.2134 8.26997 50.0334 8.75333C48.9937 7.80584 47.9292 6.87678 46.8238 6.00384C47.8867 6.64512 48.9585 7.27437 50.0358 7.89241C48.1072 6.01345 45.906 4.44713 43.6022 3.06436C43.1805 2.78541 42.7525 3.45073 43.1942 3.70885C43.4619 3.88921 43.7417 4.05274 44.0118 4.22829C43.8234 4.30764 43.6936 4.50564 43.7954 4.73169C43.9557 4.86476 44.132 4.98179 44.298 5.11005C44.1104 5.17097 43.9837 5.34492 44.0759 5.60304C44.411 5.89001 44.7653 6.16015 45.114 6.4359C45.0074 6.36536 44.9072 6.2852 44.7982 6.21626C44.5705 6.16977 44.3397 6.37819 44.3461 6.60744C44.5761 7.24953 45.4242 7.52768 45.9052 7.99581C47.8146 9.45633 49.7713 10.8688 51.9076 11.9806C50.5433 10.771 49.1709 9.5381 47.7457 8.38379Z" fill="#05B4C7" fill-opacity="0.5"/>
<path d="M46.9819 9.89586C48.4465 10.9997 49.9703 12.0233 51.6032 12.8618C49.5719 11.0991 47.6144 9.15117 45.3571 7.70027C45.1326 7.65458 44.9066 7.85979 44.9122 8.08504C44.9852 8.39686 45.2569 8.59727 45.5359 8.78805C45.3828 8.77442 45.2248 8.85619 45.1463 8.99005C45.0517 9.14637 45.0805 9.3636 45.2104 9.49106C45.6425 9.88304 46.0914 10.2534 46.5371 10.6293C48.3687 12.2261 50.3407 13.6522 52.4481 14.8642C50.6966 13.1383 48.8769 11.4662 46.9819 9.89586Z" fill="#05B4C7" fill-opacity="0.5"/>
<path d="M50.3938 15.6098C51.1987 16.1301 52.0227 16.6166 52.898 17.015C51.751 16.082 50.6423 15.1048 49.5201 14.1421C50.4772 14.7705 51.4616 15.3549 52.4916 15.8575C50.2023 13.9144 47.973 11.8046 45.4335 10.2094C45.2123 10.1645 44.9886 10.3665 44.9942 10.5902C45.2131 11.2066 46.0371 11.5281 46.5029 11.981C46.3506 12.0667 46.2455 12.2431 46.3033 12.4315C46.3522 12.5693 46.458 12.6687 46.5742 12.7609C46.4283 12.8523 46.3337 13.0295 46.3858 13.2042C46.4796 13.399 46.648 13.5409 46.8243 13.6764C46.6031 13.6699 46.385 13.8535 46.393 14.0852C46.3914 14.3393 46.6263 14.4748 46.7898 14.6319C46.8772 14.7072 46.9662 14.7794 47.0536 14.8539C46.8107 14.8852 46.5999 15.1313 46.68 15.3958C48.2135 17.0792 50.373 18.1902 52.389 19.2331C51.7413 18.6567 51.1001 18.0699 50.4524 17.4904C51.1722 17.9754 51.9081 18.4355 52.6856 18.825C51.4055 17.7028 50.1974 16.49 48.9333 15.3469C50.1518 16.2487 51.4239 17.0719 52.7465 17.8158C51.9602 17.096 51.1834 16.3449 50.3938 15.6098Z" fill="#05B4C7" fill-opacity="0.5"/>
<path d="M47.5302 16.5464C47.2505 16.3163 46.7591 16.1849 46.6228 16.6338C46.5154 17.0442 46.9956 17.2157 47.2521 17.4266C48.6966 18.3652 50.2333 19.1765 51.8437 19.7921C50.3615 18.6738 49.1663 17.5821 47.5302 16.5464Z" fill="#05B4C7" fill-opacity="0.5"/>
<path d="M48.1771 18.0534C47.9711 17.9572 47.7683 17.7712 47.5286 17.8394C45.8453 18.6209 51.4557 20.3115 52.0456 20.5632C50.7727 19.7023 49.5166 18.8093 48.1771 18.0534Z" fill="#05B4C7" fill-opacity="0.5"/>
<path d="M124.796 14.7138C121.604 15.6445 118.522 16.8782 115.523 18.2962C117.5 17.3399 119.475 16.3788 121.418 15.3664C119.751 15.8273 118.129 16.406 116.535 17.0569C117.968 16.3499 119.395 15.6301 120.797 14.8581C120.982 14.7668 121.169 14.6786 121.358 14.588C123.537 13.78 125.709 12.9712 127.817 12.1511C124.541 12.681 121.348 13.6044 118.301 14.9239C118.111 15.0032 117.918 15.0842 117.727 15.1635C117.811 15.1227 117.906 15.0754 117.987 15.0361C113.344 16.1022 108.851 18.0934 105.071 21.0112C107.564 20.0509 110.442 18.7146 113.103 17.4297C112.772 17.6357 112.437 17.8345 112.121 18.0645C113.141 17.6653 114.182 17.271 115.221 16.8782C111.502 18.5287 107.879 20.4132 104.357 22.4349C101.147 24.3964 97.7222 26.1647 95.1074 28.9238C96.7715 27.8946 98.4389 26.8637 100.111 25.8441C99.5635 26.2457 99.024 26.6617 98.5102 27.1114C101.997 25.3479 105.363 23.3615 108.84 21.578C110.563 20.6986 112.307 19.8537 114.05 19.0112C113.43 19.3191 112.813 19.6317 112.199 19.9531C109.2 21.5323 106.094 23 103.454 25.1595C105.982 24.0413 108.424 22.7523 110.878 21.4842C115.686 19.6445 120.917 17.4313 125.167 15.3327C123.719 15.7295 122.276 16.1808 120.846 16.6786C122.184 16.0413 123.513 15.396 124.796 14.7138Z" fill="#05B4C7" fill-opacity="0.5"/>
<path d="M103.087 22.1094C97.7512 24.83 93.0939 28.7178 88.726 32.7931C88.2105 33.1667 87.7039 33.5587 87.1997 33.9547C90.1536 31.0729 93.4073 28.5142 96.257 25.5226C91.3673 28.7835 87.1099 32.9086 82.9633 37.0488C80.924 39.234 78.7805 41.3599 76.9023 43.6909C76.9801 43.6805 77.057 43.6645 77.1324 43.6581C77.5773 43.6164 78.039 43.6356 78.4983 43.7061C79.5388 42.4789 80.5825 41.2516 81.6703 40.0637C82.031 39.6789 82.4029 39.3045 82.7709 38.927C81.3609 40.4773 80.0045 42.0733 78.7637 43.7583C79.0122 43.808 79.2591 43.8713 79.5019 43.9514C80.8863 42.2472 82.2907 40.5615 83.8458 39.008C87.0907 35.5691 90.7115 32.523 94.3588 29.5234C93.2005 30.0829 92.1184 30.7611 91.0811 31.505C94.9656 28.0276 98.96 25.3062 103.087 22.1094Z" fill="#05B4C7" fill-opacity="0.5"/>
<path d="M84.8599 38.1138C83.0186 39.9992 81.215 41.9343 79.5156 43.9535C79.7697 44.0377 80.019 44.1339 80.2579 44.2493C80.5192 43.9511 80.779 43.6553 81.0395 43.3571C80.7894 43.6577 80.5465 43.9631 80.3044 44.2693C80.6731 44.4497 81.0162 44.6701 81.332 44.9202C82.9296 43.2008 84.4727 41.4349 85.7016 39.4228C85.5004 39.6032 85.3032 39.7892 85.1052 39.9735C85.4787 39.5703 85.8459 39.1615 86.2266 38.7639C88.326 36.594 90.7389 34.7335 92.694 32.4249C91.098 33.5006 89.5773 34.6766 88.1296 35.9367C90.0743 34.1387 92.0863 32.416 94.0527 30.6421C90.5553 32.5459 87.6583 35.3202 84.8599 38.1138Z" fill="#05B4C7" fill-opacity="0.5"/>
<path d="M119.3 13.5555L119.242 13.5379C119.203 13.5322 119.161 13.529 119.12 13.5226C118.563 13.4385 118.036 13.2709 117.516 13.0737C114.601 14.0108 111.808 15.319 109.155 16.8789C105.314 18.9976 101.515 21.2725 98.2031 24.1671C102.387 21.8745 106.36 19.2124 110.587 16.9976C109.632 17.5964 108.709 18.2529 107.841 18.9871C111.577 17.0561 115.478 15.2605 119.3 13.5555Z" fill="#05B4C7" fill-opacity="0.5"/>
<path d="M90.3527 110.921C90.4032 110.673 90.1883 110.501 89.9823 110.416C89.6376 110.245 89.2801 110.101 88.921 109.961C89.119 109.907 89.2721 109.714 89.2056 109.494C88.998 109.069 88.3928 109.039 87.9984 108.846C84.9611 107.83 81.8124 106.959 78.5964 106.842C80.0256 107.232 81.4517 107.641 82.8745 108.066C81.0268 107.589 79.1535 107.222 77.2521 107.051C78.1787 107.363 79.1391 107.666 80.1106 107.967C78.8609 107.67 77.5944 107.459 76.3086 107.384C80.9595 108.805 85.301 110.315 89.5631 112.221C89.8781 112.394 90.2861 112.087 90.1803 111.734C90.1346 111.568 89.9887 111.467 89.8356 111.407C88.7014 110.918 87.5399 110.498 86.4024 110.017C85.9326 109.839 85.4597 109.663 84.9851 109.49C86.6749 110.038 88.3014 110.608 89.7475 111.233C89.9903 111.362 90.3318 111.205 90.3527 110.921Z" fill="#05B4C7" fill-opacity="0.5"/>
<path d="M57.2357 104.919C60.5359 104.849 63.8297 105.205 67.1307 105.193C61.651 103.925 55.8714 103.799 50.346 104.863C48.7107 104.971 47.0522 105.1 45.4906 105.559C45.3624 105.306 45.2422 105.052 45.1067 104.804C45.1877 104.663 45.1957 104.477 45.0834 104.324C41.3985 97.0163 38.6217 89.8988 34.9199 82.6804C35.7696 85.9053 37.2574 88.896 38.5576 91.9526C39.5139 94.4728 40.9007 97.4139 42.1969 100.143C42.5119 101.137 42.875 102.111 43.279 103.069C40.7692 97.866 38.6113 92.5001 36.2049 87.2472C36.786 90.2604 38.0566 93.0548 39.2029 95.882C39.8353 97.4211 40.4766 98.9586 41.1412 100.484C41.1203 100.55 41.1091 100.62 41.1283 100.687C41.2927 101.226 41.465 101.763 41.6422 102.298C42.273 104.26 43.1331 106.149 44.2738 107.868C44.0606 107.169 43.8434 106.469 43.6253 105.771C43.6606 105.841 43.6943 105.913 43.7303 105.983C43.7768 106.092 43.8281 106.202 43.8722 106.312C43.9965 106.532 44.0863 106.714 44.1688 106.869C44.0494 107.116 44.0125 107.346 44.3067 107.484C44.2939 107.677 44.4101 107.88 44.6097 107.93C47.6999 107.292 50.4606 106.593 53.4281 106.424C56.4942 106.227 59.5724 106.438 62.6321 106.09C61.267 105.924 59.877 105.788 58.4806 105.698C60.9391 105.732 63.3984 105.847 65.8554 105.9C63.0337 105.174 60.1351 105.011 57.2357 104.919Z" fill="#05B4C7" fill-opacity="0.5"/>
<path d="M34.7473 30.0536C30.3473 28.7774 25.7172 29.0147 21.1721 29.296C24.3417 29.0243 27.5697 28.7974 30.728 28.5225C25.8815 27.9902 21.0086 28.3918 16.1717 28.8391C14.9108 28.9762 13.6435 29.0932 12.3898 29.2952C12.3826 29.284 12.3729 29.2728 12.3649 29.2632C15.2675 28.9345 18.7441 28.5025 21.6819 28.0431C18.3329 27.7754 14.9565 27.9742 11.6226 28.3702C11.0623 27.7562 10.5012 27.3554 10.3144 28.1473C10.3657 28.3005 10.4339 28.4512 10.4924 28.6027C10.1685 28.864 10.2335 29.4147 10.789 29.4371C10.8018 29.4355 10.8154 29.4339 10.8283 29.4331C11.29 30.4656 11.8335 31.474 12.2551 32.5209C14.1293 36.5546 15.7076 40.7534 18.0066 44.573C18.0042 44.565 18.0018 44.5562 17.9986 44.5473C18.9397 46.7541 19.896 48.9545 20.8988 51.1365C22.1998 54.2267 23.5866 57.7137 25.302 60.9088C24.4643 58.1193 23.4599 55.4499 22.3882 52.8303C22.8018 53.6399 23.2306 54.4407 23.6884 55.2271C21.205 47.4636 17.0599 40.1746 14.2287 32.8752C14.1733 32.7566 14.11 32.5874 14.0411 32.4159C14.316 32.3485 14.4755 32.0151 14.3056 31.7666C14.1172 31.4956 13.9192 31.2311 13.7204 30.9658C15.6587 30.6989 17.2258 30.4672 19.326 30.2981C24.4547 29.8403 29.6098 29.7778 34.7473 30.0536Z" fill="#05B4C7" fill-opacity="0.5"/>
<path d="M72.3823 44.6205C68.9915 41.4486 65.1615 38.6606 60.9723 36.6237C58.331 35.2522 55.5967 34.0065 52.6484 33.4758C55.0284 34.5187 57.3931 35.6329 59.7098 36.8337C58.541 36.3873 57.3386 36.0321 56.0937 35.8205C57.8524 36.5877 59.608 37.4309 61.3338 38.3343C61.0556 38.2293 60.7775 38.1203 60.4977 38.0217C64.3118 40.6245 68.3695 42.784 71.5518 45.7684C71.8075 46.0409 72.3021 45.8365 72.2925 45.4622C72.2805 45.3796 72.2468 45.3083 72.2115 45.2361C72.4192 45.1239 72.5482 44.8586 72.3823 44.6205Z" fill="#05B4C7" fill-opacity="0.5"/>
<path d="M117.889 99.6356C114.863 101.219 112.291 103.472 109.736 105.706C108.327 106.967 106.936 108.271 105.661 109.674C105.489 109.264 105.271 108.885 104.92 108.917C104.503 107.517 104.087 106.116 103.663 104.718C102.142 99.9153 100.658 95.0865 98.4531 90.5454C99.2331 94.2849 100.606 97.86 101.708 101.511C102.726 104.656 103.603 107.847 104.568 111.01C104.54 111.147 104.59 111.272 104.682 111.365C104.941 112.209 105.2 113.052 105.481 113.889C105.538 114.024 105.575 114.172 105.68 114.279C105.687 114.283 105.69 114.284 105.695 114.288C105.81 114.417 105.989 114.5 106.163 114.45C106.678 114.278 106.359 113.679 106.309 113.305C106.159 112.639 105.929 111.79 105.732 111.022C105.898 110.956 106.019 110.803 106.011 110.609C109.673 106.641 113.906 103.268 117.889 99.6356Z" fill="#05B4C7" fill-opacity="0.5"/>
<path d="M91.4064 69.9548C89.9427 65.2574 88.519 60.5432 86.6385 55.9885C85.6068 53.2903 84.4092 49.6301 83.1531 47.5468C83.218 47.9155 83.299 48.2794 83.376 48.645C83.1194 47.9756 82.8525 47.3127 82.5519 46.6714C82.6593 46.6666 82.7627 46.6169 82.8237 46.5047C83.0721 46.1616 83.3327 45.8281 83.5972 45.4971C83.7599 45.6887 84.0798 45.7448 84.2729 45.5388C85.4313 44.2169 86.5182 42.8326 87.7727 41.5989C87.194 41.95 86.6305 42.3284 86.0846 42.7267C90.7771 38.0414 96.8236 34.4414 102.017 30.1785C98.228 31.9797 95.0056 34.6995 91.6325 37.1476C91.6325 37.1476 91.6309 37.1492 91.6293 37.15C93.2862 35.752 94.9767 34.3965 96.6697 33.045C92.7114 34.9648 89.4289 37.9612 86.2297 40.9271C85.1379 41.9692 84.0814 43.0522 83.1178 44.2137C82.8661 44.5512 82.2401 45.1219 82.7226 45.4626C82.5359 45.7336 82.3427 45.9989 82.1719 46.2802C82.1551 46.3668 82.1751 46.4414 82.2144 46.5039C82.2096 46.5047 82.208 46.5063 82.2048 46.5079C82.4533 46.9328 82.6305 47.437 82.6128 47.9315C82.6112 47.9804 82.6 48.0285 82.5952 48.0782C82.4926 47.5227 82.2954 46.9672 81.9948 46.479C80.3764 43.2991 75.7639 42.9047 73.0273 45.0987C71.7295 46.1031 70.7876 47.5885 70.3379 49.1484C71.3471 47.4482 73.3311 45.8714 74.6673 45.3023C75.7695 44.9528 76.6673 44.8622 77.8922 44.8245C79.0505 45.0386 80.0389 45.5155 80.5912 46.1985C81.1523 46.9608 81.2333 47.2438 81.4754 48.1672C81.5731 48.5352 81.5491 48.9352 81.7094 49.2822C81.8657 49.5716 82.2914 49.6301 82.5166 49.3905C82.5735 49.3063 82.6112 49.2382 82.6401 49.1748C84.0493 52.932 85.723 56.5864 87.1074 60.3532C88.5551 64.2185 89.5202 68.2802 91.4497 71.946C91.1018 70.5904 90.7218 69.2421 90.3315 67.8979C90.6633 68.5969 91.0144 69.2854 91.4064 69.9548Z" fill="#05B4C7" fill-opacity="0.5"/>
<path d="M161.593 82.1662C161.592 82.1542 161.585 82.1438 161.582 82.1325C161.369 81.541 161.036 80.8949 160.997 80.6143C159.868 77.5281 158.798 74.4075 157.24 71.5049C157.734 73.4656 158.322 75.3975 158.953 77.3165C158.802 76.9959 158.652 76.676 158.496 76.3594C158.964 78.0003 159.173 79.7261 159.617 81.3686C158.116 81.0399 155.958 81.5754 154.778 81.7534C154.772 81.7534 154.767 81.759 154.759 81.759C154.728 81.7638 154.697 81.767 154.668 81.7718C154.697 81.7614 154.716 81.7646 154.741 81.7646C154.609 81.7734 154.506 81.8448 154.44 81.9458C153.198 82.159 151.973 82.4724 150.771 82.8612C147.048 84.0227 143.306 85.2331 139.832 87.0239C142.734 86.3073 145.569 85.3349 148.426 84.4532C148.689 84.4227 148.95 84.3914 149.211 84.3554C145.272 85.3967 141.361 86.6832 137.82 88.7121C141.509 87.6427 145.125 86.3273 148.833 85.3221C152.951 84.2039 156.667 83.6556 160.726 83.2628C160.845 83.2652 160.943 83.2187 161.027 83.1546C161.085 83.2299 161.155 83.2941 161.256 83.3261C161.897 83.3935 161.825 82.8171 161.593 82.1662Z" fill="#05B4C7" fill-opacity="0.5"/>
<path d="M138.567 20.2436C138.029 18.7959 137.484 17.349 136.878 15.9285C136.923 15.9197 136.966 15.9085 137.008 15.8997C137.117 15.882 137.198 15.8299 137.26 15.7642C137.426 16.2099 137.597 16.6572 137.759 17.1061C138.81 20.0424 139.856 22.9794 140.894 25.9213C143.054 31.6335 144.757 37.5157 147.069 43.1694C145.852 36.4287 143.215 30.052 140.997 23.5983C140.149 21.1806 139.301 18.7638 138.414 16.3614C138.186 15.9879 138.045 14.9474 137.635 14.6965C137.743 14.4215 137.583 14.0576 137.182 14.1001C134.058 14.7165 130.951 15.4668 127.917 16.4392C124.373 17.5782 120.83 18.7702 117.597 20.6436C119.831 19.9141 122.056 19.1606 124.29 18.4359C123.278 18.8279 122.29 19.2816 121.331 19.8019C119.455 20.5209 117.617 21.3281 115.834 22.2652C120.402 21.0035 124.774 19.1189 129.391 18.0111C129.566 17.9686 129.655 17.8123 129.655 17.656C131.56 17.1598 133.466 16.682 135.388 16.2604C136.618 19.8259 137.937 23.4684 139.66 26.8456C139.236 25.2688 138.793 23.6985 138.313 22.1378C140.082 27.0131 141.89 31.8804 143.966 36.4736C142.642 30.9201 140.365 25.6536 138.567 20.2436Z" fill="#05B4C7" fill-opacity="0.5"/>
<path d="M44.7109 38.8431C47.232 39.9894 50.3951 39.5581 52.6236 38.1833C49.9294 38.5842 47.6167 39.2326 44.7109 38.8431Z" fill="#05B4C7" fill-opacity="0.5"/>
<path d="M47.5449 39.954C49.0688 40.2458 50.6495 39.8474 51.9593 39.1147C50.4596 39.2406 49.0239 39.7079 47.5449 39.954Z" fill="#05B4C7" fill-opacity="0.5"/>
<path d="M49.0254 40.5876C49.9793 40.6894 50.9765 40.4561 51.8094 40.0393C50.8506 40.0433 49.9344 40.3094 49.0254 40.5876Z" fill="#05B4C7" fill-opacity="0.5"/>
<path d="M36.543 33.4363C37.5851 35.8138 39.5097 37.6752 41.7863 38.8703C40.1366 36.9641 38.2255 35.3112 36.543 33.4363Z" fill="#05B4C7" fill-opacity="0.5"/>
<path d="M37.1895 35.5303C37.6087 36.6052 38.3935 37.5447 39.3225 38.1916C38.7646 37.1864 37.9766 36.3559 37.1895 35.5303Z" fill="#05B4C7" fill-opacity="0.5"/>
<path d="M36.6816 36.4302C36.9366 37.1668 37.4656 37.7809 38.0901 38.2202C37.7037 37.5604 37.1826 37.0025 36.6816 36.4302Z" fill="#05B4C7" fill-opacity="0.5"/>
<path d="M70.6113 99.6511C72.7612 100.78 74.7476 102.251 76.8686 103.414C75.3745 101.414 73.0843 100.017 70.6113 99.6511Z" fill="#05B4C7" fill-opacity="0.5"/>
<path d="M72.793 99.5745C73.9721 100.382 75.1898 101.267 76.5132 101.756C75.5304 100.661 74.2447 99.8606 72.793 99.5745Z" fill="#05B4C7" fill-opacity="0.5"/>
<path d="M74.3984 99.3101C74.9796 99.7341 75.6642 100.161 76.3383 100.318C75.802 99.8038 75.1263 99.4527 74.3984 99.3101Z" fill="#05B4C7" fill-opacity="0.5"/>
<path d="M67.1718 99.7128C65.4203 99.7705 63.7161 100.736 62.6973 102.15C63.4588 101.579 64.8271 101.007 65.0612 100.911C65.9782 100.522 66.6107 100.236 67.7923 99.817C68.4744 99.6166 67.4395 99.7304 67.1718 99.7128Z" fill="#05B4C7" fill-opacity="0.5"/>
<path d="M63.0605 100.607C63.8501 100.143 64.5692 99.655 65.1327 99.0242C64.2966 99.3304 63.5912 99.8979 63.0605 100.607Z" fill="#05B4C7" fill-opacity="0.5"/>
<path d="M62.5176 99.0572C62.8005 98.9345 63.1244 98.7462 63.3096 98.5361C63.009 98.646 62.7412 98.8303 62.5176 99.0572Z" fill="#05B4C7" fill-opacity="0.5"/>
<path d="M121.719 90.0672C120.693 91.3233 120.086 92.868 119.588 94.395C121.088 91.8059 122.521 89.9189 124.07 87.9902C124.115 87.9301 124.156 87.8908 124.183 87.8459C123.286 88.4944 122.44 89.2263 121.719 90.0672Z" fill="#05B4C7" fill-opacity="0.5"/>
<path d="M119.783 91.3703C120.723 90.4452 121.496 89.3671 122.44 88.4492C121.196 89.0015 120.311 90.1727 119.783 91.3703Z" fill="#05B4C7" fill-opacity="0.5"/>
<path d="M118.977 90.5652C119.799 89.9071 120.418 88.9997 121.128 88.3296C120.229 88.7264 119.454 89.6859 118.977 90.5652Z" fill="#05B4C7" fill-opacity="0.5"/>
<path d="M127.229 86.2892C130.195 85.7722 133.47 85.4019 136.608 85.7209C133.731 84.4656 129.515 84.9626 127.229 86.2892Z" fill="#05B4C7" fill-opacity="0.5"/>
<path d="M129.684 84.5011C131.579 84.3649 133.49 84.3424 135.385 84.4963C133.582 83.7084 131.438 83.6851 129.684 84.5011Z" fill="#05B4C7" fill-opacity="0.5"/>
<path d="M131.525 83.3654C132.329 83.4448 133.103 83.3213 133.867 83.2604C133.105 83.0792 132.248 83.1722 131.525 83.3654Z" fill="#05B4C7" fill-opacity="0.5"/>
<path d="M109.604 32.2702C109.444 32.497 108.999 32.9604 109.381 32.6461C111.791 30.9844 113.577 28.5347 114.45 25.7419C112.284 29.051 111.798 29.4333 109.604 32.2702Z" fill="#05B4C7" fill-opacity="0.5"/>
<path d="M110.869 33.3846C112.589 31.7621 114.122 29.8487 114.767 27.5369C113.535 29.4278 111.727 31.5513 110.869 33.3846Z" fill="#05B4C7" fill-opacity="0.5"/>
<path d="M113.617 31.8467C114.291 31.2078 114.808 30.3998 115.003 29.4844C114.517 30.2387 113.919 31.0459 113.617 31.8467Z" fill="#05B4C7" fill-opacity="0.5"/>
<path d="M101.289 34.4729C103.39 34.7727 105.687 34.4833 107.501 33.3354C105.49 33.907 103.301 34.0312 101.289 34.4729Z" fill="#05B4C7" fill-opacity="0.5"/>
<path d="M102.203 35.8957C103.216 35.9807 104.228 35.8196 105.185 35.4909C104.2 35.4733 103.077 35.5775 102.203 35.8957Z" fill="#05B4C7" fill-opacity="0.5"/>
<path d="M103.053 37.3315C103.555 37.3347 104.067 37.2369 104.491 36.9587C104.01 37.0549 103.488 37.1263 103.053 37.3315Z" fill="#05B4C7" fill-opacity="0.5"/>
<path d="M90.266 106.277C88.9041 102.624 87.5342 98.9819 85.8652 95.4548C87.5117 101.929 90.129 108.094 92.4223 114.353C92.965 115.934 93.5775 117.493 94.2668 119.016C94.3903 119.428 95.0155 119.447 95.1262 119.016C93.6929 114.751 91.8845 110.511 90.266 106.277Z" fill="#05B4C7" fill-opacity="0.5"/>
<path d="M96.7085 118.68C94.2075 112.819 91.8187 106.121 89.1895 100.275C90.2412 105.085 92.1682 109.621 93.8957 114.214C94.6091 115.899 95.1389 117.731 96.0945 119.284C96.4856 119.587 96.9474 119.084 96.7085 118.68Z" fill="#05B4C7" fill-opacity="0.5"/>
<path d="M98.3375 118.948C96.1051 114.279 94.7319 110.001 92.166 105.171C93.463 109.718 95.1007 114.155 97.1007 118.44C97.3299 118.811 97.3884 119.392 97.8189 119.576C98.1756 119.682 98.5115 119.282 98.3375 118.948Z" fill="#05B4C7" fill-opacity="0.5"/>
<path d="M99.6389 118.791C98.0445 114.803 96.6032 111.325 94.8613 107.467C95.5828 110.997 96.806 114.38 98.2152 117.687C98.495 118.181 98.5936 119.062 99.0994 119.329C99.416 119.422 99.7351 119.108 99.6389 118.791Z" fill="#05B4C7" fill-opacity="0.5"/>
<path d="M105.75 116.939C102.994 109.753 100.279 102.55 97.6055 95.332C99.0467 102.665 102.138 109.532 104.696 116.518C104.834 116.811 104.888 117.177 105.125 117.406C105.428 117.661 105.898 117.31 105.75 116.939Z" fill="#05B4C7" fill-opacity="0.5"/>
<path d="M104.986 117.287C103.049 112.947 101.436 108.275 99.2578 103.833C100.297 107.759 101.72 111.563 103.26 115.316C103.569 116.085 103.879 116.854 104.211 117.614C104.285 117.746 104.429 117.82 104.578 117.825C104.848 117.831 105.065 117.547 104.986 117.287Z" fill="#05B4C7" fill-opacity="0.5"/>
<path d="M103.202 116.13C101.958 112.851 100.725 109.559 99.0156 106.486C99.9567 109.616 100.977 112.717 102.127 115.776C102.455 116.639 102.77 117.514 103.202 118.332C103.317 118.543 103.635 118.61 103.82 118.45C103.958 118.358 104.015 118.165 103.971 118.007C103.658 117.212 103.52 116.949 103.202 116.13Z" fill="#05B4C7" fill-opacity="0.5"/>
<path d="M98.6992 109.041C99.6676 112.205 100.724 115.343 102.107 118.355C102.208 118.788 102.846 118.845 102.969 118.398C101.893 115.223 100.375 112.211 98.6992 109.041Z" fill="#05B4C7" fill-opacity="0.5"/>
<path d="M101.935 118.349C100.775 115.578 99.5192 112.848 98.1797 110.161C98.9661 113.07 99.8791 115.944 101.163 118.675C101.394 119.095 102.074 118.811 101.935 118.349Z" fill="#05B4C7" fill-opacity="0.5"/>
<path d="M100.914 118.702C99.9252 116.31 98.7332 113.576 97.4707 110.968C98.2002 113.739 98.8895 116.621 100.251 119.145C100.546 119.403 101.032 119.075 100.914 118.702Z" fill="#05B4C7" fill-opacity="0.5"/>
<path d="M89.4559 63.3092C88.785 59.8639 87.7413 56.5228 86.5765 53.2194C85.8142 50.7938 84.9789 48.3906 84.0804 46.0066C84.0948 46.2479 84.1309 46.4843 84.1533 46.7256C84.1124 46.6278 84.0772 46.526 84.0347 46.429C83.8351 45.9986 83.1409 46.1364 83.1505 46.6238C84.0411 49.0158 84.8844 51.4342 85.7485 53.8439C86.3337 55.7493 86.9557 57.6475 87.4158 59.5713C87.5441 59.8839 87.5473 60.308 87.8383 60.5156C87.9793 60.603 88.1405 60.5877 88.2719 60.5148C88.6519 61.4527 89.0415 62.3865 89.4559 63.3092Z" fill="#05B4C7" fill-opacity="0.5"/>
<path d="M84.0372 55.4125C83.4127 53.9864 82.9711 52.4233 82.1478 51.1079C81.8801 50.8786 81.4384 51.1696 81.5458 51.5103C84.9061 59.4477 87.9234 68.3952 91.5787 76.6012C89.6476 69.3475 86.5895 62.4578 84.0372 55.4125Z" fill="#05B4C7" fill-opacity="0.5"/>
<path d="M89.1758 73.309C89.1792 73.3185 89.1827 73.3271 89.1878 73.3374C89.1861 73.3279 89.1818 73.3004 89.1758 73.309Z" fill="#05B4C7" fill-opacity="0.5"/>
<path d="M82.795 54.9047C82.1433 53.4161 81.8267 52.2746 81.0435 50.8518C80.7116 50.5953 80.3189 51.0065 80.4912 51.3608C83.171 57.4017 85.3417 63.8329 88.2098 70.047C86.8359 64.8494 84.7581 59.8979 82.795 54.9047Z" fill="#05B4C7" fill-opacity="0.5"/>
<path d="M86.2028 67.9555C84.9371 63.6261 83.2874 59.4385 81.5407 55.283C80.9619 53.9467 80.5162 52.503 79.7691 51.2606C79.5278 51.0537 79.1663 51.2638 79.1495 51.5435C79.091 51.4088 79.0196 51.2806 78.8665 51.2437C78.6036 51.1668 78.3367 51.4281 78.4168 51.6942C80.1491 55.8096 81.5807 60.0622 83.6329 64.0373C82.4681 60.1816 81.1479 56.378 79.6048 52.6585C81.8789 57.6918 83.596 62.7668 86.2028 67.9555Z" fill="#05B4C7" fill-opacity="0.5"/>
<path d="M70.1993 51.2324C70.0045 51.0648 69.6751 51.1786 69.6133 51.4255C69.5604 51.6612 69.7352 51.8752 69.8025 52.0933C72.5729 58.6608 74.447 65.5722 77.3223 72.0949C75.3953 65.0183 73.0875 57.9562 70.1993 51.2324Z" fill="#05B4C7" fill-opacity="0.5"/>
<path d="M72.477 54.1725C72.1612 53.3212 71.863 52.4627 71.5159 51.625C71.4734 51.5248 71.3844 51.4479 71.2802 51.419C70.9732 51.3333 70.7191 51.6731 70.8642 51.9521C72.9419 56.9669 74.4225 62.2022 76.4954 67.217C75.5247 62.7625 74.0882 58.4322 72.477 54.1725Z" fill="#05B4C7" fill-opacity="0.5"/>
<path d="M72.334 51.4023C72.1456 51.2396 71.8265 51.3518 71.7656 51.5907C71.8458 52.3193 72.2907 53.0047 72.4831 53.7229C73.6286 57.0536 74.8678 60.3626 76.4502 63.5145C75.1901 59.4552 73.9853 55.3029 72.334 51.4023Z" fill="#05B4C7" fill-opacity="0.5"/>
<path d="M74.1924 53.5354C73.907 52.822 73.6697 52.0789 73.3451 51.3863C73.1791 51.1403 72.7631 51.2276 72.6934 51.513C74.1723 55.7318 75.9046 59.9611 77.7106 64.0805C76.8096 60.4797 75.5262 56.9944 74.1924 53.5354Z" fill="#05B4C7" fill-opacity="0.5"/>
<path d="M78.3214 62.0778C77.1871 58.7046 76.0874 55.3122 74.6429 52.0537C74.5146 51.7716 74.388 51.2738 73.9791 51.4437C73.6481 51.5784 73.7571 51.9471 73.9006 52.1868C73.9871 52.3599 74.3671 53.2417 74.299 53.087C75.5447 56.1235 76.7495 59.1912 78.3214 62.0778Z" fill="#05B4C7" fill-opacity="0.5"/>
<path d="M78.6531 52.6098C78.4302 52.2307 78.3998 51.6263 77.9854 51.4187C77.7858 51.3641 77.5717 51.4844 77.5156 51.6848C78.6122 54.8479 80.0703 58.7317 81.7625 62.0335C80.8302 58.8599 79.9172 55.6744 78.6531 52.6098Z" fill="#05B4C7" fill-opacity="0.5"/>
<path d="M77.387 51.6845C77.3116 51.4272 77.1128 51.1106 76.8034 51.2524C76.4219 51.4128 76.6359 51.8392 76.7457 52.1166C77.8303 55.0424 78.8884 57.9923 80.3249 60.7707C79.4768 57.7005 78.5974 54.6368 77.387 51.6845Z" fill="#05B4C7" fill-opacity="0.5"/>
<path d="M79.0153 59.6389C78.2762 56.9167 77.5772 54.1768 76.5047 51.562C76.4333 51.3536 76.3243 51.1115 76.0678 51.1163C75.7752 51.1652 75.6919 51.3311 75.7071 51.5411C75.5909 51.3263 75.3191 51.2045 75.1107 51.3792C74.7556 51.6622 75.1315 52.1055 75.2221 52.4373C76.0662 54.5688 76.9568 56.6882 78.0141 58.7243C77.6686 57.4586 77.3311 56.188 76.9472 54.9343C77.5676 56.5311 78.2418 58.1095 79.0153 59.6389Z" fill="#05B4C7" fill-opacity="0.5"/>
<path d="M120.182 74.0254C120.182 74.0272 120.18 74.0291 120.18 74.0309C120.18 74.0356 120.18 74.0402 120.18 74.0458C120.18 74.0421 120.182 74.0328 120.182 74.0254Z" fill="#05B4C7" fill-opacity="0.5"/>
<path d="M120.18 74.0264C120.18 74.0166 120.186 74.0085 120.186 73.9996C120.199 73.9014 120.183 73.989 120.18 74.0264Z" fill="#05B4C7" fill-opacity="0.5"/>
<path d="M131.783 68.1865C131.768 68.1921 131.76 68.1995 131.746 68.2043C131.829 68.1735 131.824 68.1751 131.783 68.1865Z" fill="#05B4C7" fill-opacity="0.5"/>
<path d="M131.791 68.1868C131.925 68.1363 131.989 68.0473 132.028 67.9487C132.083 68.0601 132.166 68.1307 132.257 68.1763C132.442 68.1018 132.634 68.0505 132.839 68.0305C132.902 67.9198 132.922 67.7707 132.842 67.5824C132.831 67.5543 132.817 67.5198 132.806 67.491C133.131 67.6313 133.521 67.3114 133.412 66.9587C133.36 66.8064 133.3 66.6389 133.238 66.4665C133.433 66.7263 133.635 66.9796 133.852 67.2224C133.947 67.293 133.903 67.3299 134.207 67.3852C134.963 67.309 134.577 66.3944 134.486 65.907C134.561 65.9615 134.639 66.0144 134.712 66.0697C135.023 66.4345 135.652 66.2758 135.541 65.7475C135.293 65.3034 134.63 64.9339 134.175 64.7126C134.001 64.6477 133.781 64.6838 133.656 64.8249C133.55 64.8641 133.532 65.1174 133.528 65.2281C133.528 65.2385 133.532 65.2489 133.534 65.2585C133.531 65.2681 133.536 65.3058 133.55 65.3868C133.251 64.9555 132.947 64.4954 132.612 64.0072C132.378 63.7242 132.248 63.2914 131.888 63.1511C131.168 63.0774 131.342 63.7812 131.486 64.0497C131.642 64.4024 131.761 64.7808 131.872 65.1631C131.67 64.6749 131.463 64.1812 131.27 63.7018C131.138 63.3571 130.985 62.7479 130.496 62.9996C130.244 63.1423 130.276 63.4445 130.393 63.6681L130.599 64.2068C130.328 63.6016 130.044 63.0124 129.771 62.5259C129.629 62.2966 129.516 62.0337 129.296 61.8693C129.07 61.7202 128.72 61.8669 128.711 62.1507C128.75 62.3423 128.802 62.5667 128.859 62.804C128.712 62.5275 128.567 62.2485 128.417 61.9719C128.518 61.8397 128.557 61.6617 128.452 61.4958C128.425 61.4405 128.403 61.3836 128.377 61.3275C128.449 61.3884 128.534 61.4317 128.643 61.4301C129.566 61.2697 128.736 60.182 128.632 59.6481C127.953 57.8589 127.33 56.0337 126.544 54.2934C126.255 53.871 125.548 54.2253 125.702 54.7134C126.406 56.3864 127.038 58.0882 127.696 59.7796C126.897 57.9575 126.125 56.1235 125.325 54.3038C125.236 54.1475 125.094 54.0994 124.956 54.1138C124.724 53.4918 124.498 52.869 124.262 52.2485C124.292 52.2485 124.32 52.2549 124.352 52.2453C124.917 51.9904 124.352 51.2561 124.317 50.8177C123.869 49.3467 123.52 47.8253 123.028 46.376C122.848 46.113 122.473 46.2124 122.349 46.4505C122.172 46.4657 121.997 46.594 121.995 46.7944C121.729 46.7038 121.403 46.9692 121.5 47.2682C121.565 47.4269 121.625 47.5888 121.69 47.7475C121.688 47.7443 121.685 47.7403 121.683 47.7371C121.403 47.4958 120.946 47.8028 121.058 48.1547C121.099 48.2565 121.142 48.3575 121.183 48.4601C121.001 48.501 120.843 48.6509 120.832 48.8433C120.567 48.7848 120.242 49.0293 120.341 49.3435C120.387 49.4653 120.435 49.5872 120.481 49.709C120.324 49.7034 120.167 49.7852 120.117 49.9736C120.171 50.1211 120.229 50.2734 120.284 50.4217C120.245 50.501 120.219 50.5956 120.234 50.7247C120.473 51.3451 120.737 51.9543 120.99 52.5692C120.719 52.0433 120.445 51.5199 120.163 51.0012C120.112 50.9146 120.028 50.8513 119.933 50.8249C119.613 50.7279 119.319 51.1054 119.498 51.39C119.672 51.7114 119.836 52.0385 120.007 52.3623C119.289 51.192 118.759 50.6389 118.575 51.1287C117.965 50.0185 117.272 48.5114 116.463 47.7387C116.252 47.6746 116.057 47.8341 116.011 48.0289C115.052 46.0938 114.136 44.1251 112.85 42.3952C112.725 42.2894 112.574 42.3014 112.452 42.372C112.235 41.8766 112.15 41.0117 111.529 41.1744C111.282 41.2746 111.266 41.5191 111.326 41.7435C111.326 41.7443 111.326 41.7443 111.326 41.7451C111.328 41.7499 111.33 41.7539 111.331 41.7587C111.344 41.8004 111.355 41.8437 111.372 41.8838C111.759 43.0012 112.183 44.1066 112.584 45.2201C113.209 46.986 113.811 48.7607 114.416 50.5347C114.101 50.6253 114.156 51.014 114.211 51.277C114.963 56.1603 116.382 60.8826 118.04 65.5214C117.791 64.885 117.551 64.2525 117.318 63.6361C116.085 60.5202 115.583 57.1663 114.426 54.0385C114.243 53.5736 113.526 53.6938 113.553 54.2124C113.565 54.3183 113.585 54.4241 113.6 54.5307C113.387 53.9551 113.076 53.5022 112.559 54.0489C112.407 54.7752 112.696 55.5551 112.841 56.2918C112.819 56.2405 112.796 56.1844 112.775 56.1347C112.511 55.5319 112.211 54.768 111.86 53.9223C111.766 53.7299 111.54 53.6152 111.33 53.6754C111.117 53.7291 111.017 53.9375 111.02 54.1467C110.954 54.0225 110.895 53.8942 110.827 53.7748C110.509 53.4998 110.023 53.9287 110.248 54.2822C110.383 54.5683 110.544 54.9323 110.718 55.3259C110.471 54.9227 110.231 54.5211 110 54.2124C109.959 54.1275 109.917 54.077 109.878 54.0617C109.786 53.9535 109.698 53.8557 109.609 53.79C108.957 53.7202 109.074 54.3623 109.371 54.7182C109.474 54.8802 109.573 55.1207 109.75 55.204C110.199 55.883 110.884 56.8794 111.204 57.402C111.563 57.8886 111.862 58.4561 112.336 58.8377C112.474 58.9162 112.637 58.8954 112.762 58.8168C112.983 58.8866 113.001 58.7607 112.941 58.574C113.258 59.2393 113.615 59.8774 114.067 60.4529C114.235 60.5812 114.485 60.5379 114.627 60.3864C114.66 60.4858 114.692 60.5772 114.727 60.675C114.702 60.6838 114.676 60.6854 114.654 60.6998C114.194 61.0613 114.681 61.8934 114.755 62.3703C115.504 64.6421 116.459 67.0966 117.421 69.4196C117.375 69.4068 117.331 69.4036 117.285 69.4116C117.147 69.1655 117.008 68.9323 116.864 68.7311C115.863 66.3423 115.035 63.7523 114.279 61.1471C114.223 60.917 114.033 60.6814 113.772 60.7279C113.195 60.8513 113.481 61.5968 113.512 62.0064C113.658 62.8705 113.832 63.7291 114.031 64.5828C113.685 63.6946 113.402 62.7687 113.131 61.7331C113.023 61.1928 112.265 61.3154 112.349 61.8661C112.372 62.0497 112.406 62.2309 112.432 62.4136C112.385 62.287 112.336 62.1611 112.271 62.0433C112.098 61.7475 111.632 61.8044 111.543 62.1387C111.512 62.6012 111.54 63.0741 111.605 63.5495C111.492 63.2112 111.374 62.8762 111.203 62.5707C111.007 62.3623 110.629 62.4713 110.567 62.7495C110.563 62.9836 110.575 63.2168 110.598 63.4501C110.522 63.176 110.273 62.9114 109.981 63.0774C109.794 63.1824 109.764 63.4028 109.756 63.5984C109.764 64.0321 109.8 64.4641 109.846 64.8946C109.732 64.5539 109.621 64.2156 109.52 63.899C109.48 63.7459 109.352 63.6072 109.189 63.5984C108.852 63.5719 108.748 63.7956 108.77 64.0465C108.691 64.016 108.598 64.0128 108.481 64.0577C108.273 64.1331 108.218 64.3423 108.248 64.5403C108.195 64.5018 108.138 64.4665 108.071 64.4633C107.621 64.4345 107.593 64.7944 107.668 65.1391C107.624 65.1142 107.577 65.0958 107.525 65.0934C107.236 65.0709 107.117 65.2184 107.09 65.4156C106.949 65.2922 106.713 65.2906 106.581 65.4301C106.433 65.5848 106.469 65.7884 106.514 65.9872C106.372 65.7403 106.139 65.5559 105.871 65.7956C105.666 66.0192 105.801 66.3663 105.856 66.6276C105.871 66.6733 105.888 66.7206 105.904 66.7671C105.869 66.7126 105.839 66.6557 105.795 66.6092C105.584 66.4248 105.226 66.5531 105.158 66.8192C105.128 66.9771 105.173 67.1319 105.226 67.2834C105.189 67.184 105.155 67.0814 105.103 66.9884C104.958 66.6557 104.445 66.6798 104.352 67.0373C104.329 67.2329 104.374 67.422 104.434 67.6112C104.395 67.5198 104.349 67.4325 104.275 67.3707C104.074 67.1968 103.734 67.3178 103.67 67.5711C103.623 67.7828 103.791 68.0778 103.875 68.2541C104.091 68.5691 104.59 68.3399 104.555 67.9912C104.576 68.0545 104.595 68.1194 104.609 68.182C104.749 68.7198 105.589 68.4874 105.435 67.9543C105.403 67.8284 105.368 67.701 105.334 67.5751C105.433 67.7804 105.448 68.0561 105.66 68.1828C105.962 68.3727 106.37 68.0593 106.264 67.7178C106.245 67.6753 106.233 67.6281 106.217 67.584C106.324 67.8204 106.448 68.0473 106.611 68.2421C106.819 68.4232 107.095 68.3086 107.21 68.1082C107.368 68.5619 108.106 68.3503 107.966 67.8653C107.95 67.8301 107.939 67.7916 107.925 67.7555C107.956 67.8132 107.982 67.8725 108.011 67.9303C108.062 68.0192 108.149 68.0858 108.248 68.113C108.45 68.1756 108.638 68.0521 108.715 67.8814C108.934 68.1563 109.378 67.9976 109.417 67.6834C109.447 67.7443 109.472 67.8076 109.503 67.8685C109.654 68.206 110.046 68.1363 110.207 67.9118C110.284 68.0874 110.377 68.2533 110.523 68.3727C110.77 68.5266 111.11 68.311 111.084 68.024C110.946 67.2112 110.797 66.497 110.682 65.7932C110.959 66.5026 111.264 67.2 111.628 67.8669C111.704 68.1707 112.46 68.2974 112.367 67.608C112.244 67.2625 112.13 66.9018 112.021 66.5395C112.163 66.8353 112.307 67.1166 112.456 67.3627C112.576 67.5455 112.685 67.7812 112.908 67.8525C113.334 67.9367 113.436 67.5022 113.386 67.3747C113.272 67.0092 113.147 66.6068 113.022 66.1948C113.145 66.4994 113.269 66.7952 113.394 67.0677C113.601 67.4477 113.831 68.4232 114.413 67.9856C114.546 67.8589 114.551 67.6609 114.484 67.5014C114.393 67.2705 114.318 67.0341 114.239 66.7992C114.674 67.6048 115.114 68.0914 115.47 67.7555C115.532 67.693 115.565 67.6128 115.579 67.5295C115.792 68.093 116.005 68.6317 116.207 69.1102C116.179 69.9824 116.827 71.6874 116.901 72.0713C116.926 72.1242 116.951 72.1988 116.982 72.283C116.951 72.2918 116.923 72.2862 116.89 72.3014C116.657 72.4417 116.638 72.7359 116.66 72.9796C116.727 73.7274 116.904 74.7856 117.064 75.6465C116.971 75.6946 116.893 75.7731 116.864 75.8797C116.818 76.1803 117.027 76.4625 117.125 76.7375C117.298 77.2425 117.871 77.5695 118.123 76.9531C118.068 76.2709 117.922 75.5559 117.782 74.8705C117.845 75.002 117.918 75.1302 117.988 75.2593C118.072 75.4405 118.157 75.6032 118.244 75.7315C118.265 75.7699 118.288 75.8076 118.308 75.8477C118.296 75.826 118.296 75.8108 118.292 75.7924C118.534 76.1162 118.787 76.1892 119.034 75.7675C119.068 75.6401 119.029 75.5238 118.967 75.4172C118.902 75.2665 118.831 75.1198 118.766 74.9691C118.581 74.5387 118.386 74.0473 118.195 73.5246C118.413 74.0729 118.645 74.5876 118.881 75.0148C119.199 75.2898 119.685 74.8601 119.46 74.5058C119.437 74.4585 119.414 74.404 119.391 74.3543C119.417 74.3703 119.439 74.3912 119.466 74.4048C119.77 74.5812 120.16 74.3775 120.186 74.0288C120.215 73.8461 120.178 73.6665 120.118 73.4918C120.296 73.6409 120.583 73.6553 120.727 73.4437C120.779 73.3755 120.8 73.3042 120.809 73.2329C120.895 73.1968 120.985 73.1463 121.091 73.0773C121.14 73.1343 121.179 73.1968 121.229 73.2521C121.433 73.3779 121.73 73.2986 121.841 73.0862C121.901 72.8946 121.864 72.683 121.784 72.4625C121.795 72.4176 121.799 72.3719 121.794 72.327C122.058 72.2565 122.276 71.9791 122.094 71.6761C122.057 71.5936 122.023 71.5182 121.989 71.4445C123.373 73.9615 125.374 76.7471 126.831 78.6733C127.035 78.8914 127.132 79.2417 127.427 79.3475C127.641 79.4108 127.886 79.2713 127.941 79.0549C127.948 78.715 127.693 78.3952 127.456 78.1315C127.428 78.0745 127.403 78.0184 127.376 77.9615C127.568 78.0689 127.836 78.0457 127.952 77.8268C128.096 77.5711 127.914 77.3018 127.852 77.0469C127.334 75.4549 126.788 73.8717 126.229 72.2926C126.272 72.3623 126.313 72.4329 126.37 72.4906C126.404 72.5106 126.44 72.5154 126.476 72.5226C126.64 73.0493 126.809 73.5727 126.971 74.1042C127.117 74.6645 128.014 74.4337 127.847 73.8621C126.34 68.481 124.328 63.2633 122.013 58.1812C122.014 58.1836 122.017 58.1868 122.019 58.19C123.897 62.21 125.436 65.7852 126.928 69.9455C127.266 70.3551 127.833 69.9014 127.597 69.4429C127.607 69.2449 127.004 67.6297 126.109 65.4349C126.609 66.5042 127.116 67.5687 127.65 68.6188C127.972 68.8954 128.464 68.4761 128.26 68.1098C128.437 68.1339 128.637 68.1563 128.704 68.1587C129.191 68.1627 129.71 68.311 130.184 68.1771C130.155 68.1932 130.135 68.2052 130.159 68.2028C130.179 68.198 130.191 68.1796 130.209 68.1731C130.214 68.1715 130.22 68.1723 130.225 68.1707C130.238 68.1635 130.247 68.1531 130.258 68.1451C130.321 68.1114 130.378 68.0761 130.417 68.0208C130.468 67.9848 130.512 67.9415 130.546 67.8894C130.642 67.7363 130.611 67.5607 130.515 67.4293C130.603 67.2785 130.585 67.107 130.559 66.7006C130.514 66.3808 130.455 66.0633 130.393 65.7459C130.493 65.996 130.593 66.2461 130.691 66.4898C130.601 66.6341 130.591 66.8273 130.746 66.9675C130.844 67.0493 130.845 67.0461 130.817 67.0148C130.832 67.0268 130.841 67.0437 130.857 67.0541C130.863 67.0581 130.868 67.0621 130.874 67.0661C130.884 67.0758 130.894 67.087 130.902 67.0966C130.889 67.1271 130.882 67.1447 130.894 67.1254C130.806 67.301 130.737 67.491 130.756 67.6874C130.761 67.9198 130.914 68.1267 131.136 68.194C131.339 68.2453 131.389 68.2212 131.403 68.2357C131.47 68.2758 131.71 68.2092 131.791 68.1868ZM118.239 59.095C117.318 56.6734 116.459 54.2317 115.613 51.7844C115.622 51.81 115.632 51.8325 115.641 51.8565C117.533 57.1351 119.381 62.4289 121.617 67.5767C122.593 70.02 123.615 72.481 124.91 74.7775C121.75 69.9984 120.122 64.6573 118.239 59.095ZM118.589 57.212C118.308 56.3688 117.996 55.5094 117.671 54.6453C119.6 59.0148 121.413 63.3579 123.21 67.8076C123.94 69.4389 124.635 71.6104 125.342 73.5254C122.933 68.1804 120.726 62.9098 118.589 57.212ZM124.113 66.5587C122.535 62.4762 120.832 58.4425 119.036 54.4513C120.934 58.4233 122.575 62.4224 124.113 66.5587ZM128.639 67.293C128.591 67.2938 128.567 67.2874 128.529 67.2842C128.527 67.281 128.527 67.2778 128.526 67.2745C128.103 66.291 127.663 65.317 127.219 64.3447C127.238 64.3359 127.254 64.3198 127.271 64.3078C127.692 65.301 128.141 66.2966 128.662 67.2954C128.654 67.2946 128.646 67.2946 128.639 67.293Z" fill="#05B4C7" fill-opacity="0.5"/>
<path d="M133.524 65.23C133.524 65.2203 133.52 65.2113 133.52 65.2024C133.524 65.312 133.521 65.2958 133.524 65.23Z" fill="#05B4C7" fill-opacity="0.5"/>
<path d="M130.365 59.5647C130.407 59.483 130.461 59.406 130.518 59.3307C130.5 59.2256 130.471 59.119 130.447 59.0244C130.284 58.4168 130.057 57.8293 129.842 57.2393C129.441 56.1611 129.038 55.0814 128.585 54.0248C128.524 53.8485 128.415 53.6818 128.224 53.6353C127.878 53.5343 127.527 53.8798 127.632 54.2285C127.694 54.3727 127.748 54.5202 127.808 54.6661C127.694 54.4224 127.579 54.1796 127.442 53.9511C127.119 53.6721 126.593 54.0289 126.721 54.4345C127.613 56.3198 128.143 58.6493 129.102 60.4112C130.023 60.6773 129.805 59.7755 129.482 58.9162C129.589 59.1599 129.691 59.4068 129.809 59.6457C129.894 59.7964 130.083 59.8661 130.246 59.826C130.281 59.7347 130.324 59.6457 130.365 59.5647Z" fill="#05B4C7" fill-opacity="0.5"/>
<path d="M137.414 51.0773C137.292 51.1327 137.156 51.2 137.017 51.2705C136.799 51.1326 136.572 51.2617 136.364 51.5134C136.245 51.6176 136.084 51.7531 135.969 51.8493C135.679 52.0232 135.439 52.1811 135.322 52.2797C135.284 52.3198 135.26 52.3639 135.239 52.4064C135.068 52.4344 134.943 52.5459 134.857 52.6918C134.824 52.6164 134.792 52.5419 134.761 52.4657C134.77 52.4697 134.631 52.0513 134.479 52.02C134.107 51.7843 133.602 52.1731 133.733 52.5964C133.809 52.8032 133.885 53.018 133.964 53.2304C133.907 53.3298 133.877 53.4485 133.886 53.5615C133.831 53.4461 133.772 53.3314 133.717 53.2176C133.55 52.9499 133.392 52.6148 133.152 52.3968C133.114 52.3254 133.067 52.2597 132.991 52.2156C132.674 52.0152 132.245 52.3455 132.355 52.7046C132.6 53.4645 132.719 54.2645 132.88 55.0493C132.685 54.4088 132.435 53.7739 132.203 53.1687C131.985 52.8489 131.493 53.0429 131.457 53.3763C131.261 53.0429 130.809 53.0172 130.627 53.3002C130.554 53.1302 130.469 52.9691 130.336 52.8481C130.011 52.6437 129.57 52.9811 129.684 53.3491C130.165 54.5058 130.508 55.713 130.841 56.9178C130.906 57.0813 130.952 57.3226 131.013 57.5551C131 57.6008 131.002 57.6433 131.002 57.6857C130.692 56.6052 130.362 55.5286 129.975 54.4729C129.785 54.1258 129.751 53.5751 129.338 53.4252C128.944 53.3034 128.582 53.7739 128.8 54.1242C129.352 55.3691 129.975 57.5888 130.558 59.2865C130.592 59.2449 130.626 59.2016 130.661 59.1623C130.774 59.0389 130.923 58.9226 131.064 58.8393C131.143 58.792 131.225 58.7711 131.306 58.7431C131.239 58.5218 131.163 58.3054 131.14 58.1531C131.122 58.089 131.102 58.0256 131.085 57.9623C131.118 58.0016 131.164 58.0288 131.211 58.0529C131.336 58.2356 131.52 58.3238 131.814 58.1972C132.004 58.0889 132.047 57.9238 132.034 57.7435C132.35 57.4076 133.199 56.9026 133.135 56.4553C133.166 56.4216 133.2 56.3879 133.231 56.3535C133.249 56.4064 133.262 56.4609 133.282 56.513C133.433 56.735 133.796 56.7046 133.925 56.4737C134.022 56.2421 133.96 55.9799 133.922 55.729C134.185 55.9278 134.517 55.6898 134.528 55.5134C134.58 55.3018 134.598 54.8593 134.606 54.4865C134.611 54.4914 134.612 54.497 134.617 54.5018C134.965 54.8272 135.324 54.7583 135.443 54.4C135.454 54.2116 135.509 53.9174 135.539 53.6938C135.546 53.7002 135.554 53.7026 135.562 53.709C135.57 53.7146 135.574 53.7226 135.582 53.7282C135.587 53.7306 135.592 53.7298 135.597 53.7322C135.829 53.8974 136.176 53.8413 136.318 53.5831C136.456 53.1896 136.601 52.804 136.757 52.4938C137.092 52.315 137.429 52.1387 137.75 51.9343C137.747 51.9391 137.732 51.9415 137.719 51.9463C137.797 51.9166 137.869 51.8725 137.914 51.8044C138.196 51.4725 137.824 50.9419 137.414 51.0773Z" fill="#05B4C7" fill-opacity="0.5"/>
<path d="M60.6504 80.4054C59.5666 80.6908 58.7971 80.8207 57.7983 80.7918C59.1931 80.7918 60.5879 80.464 61.8648 79.9133C62.0933 79.773 62.4147 79.6736 62.5157 79.4066C62.6063 79.1028 62.2488 78.8271 61.9786 78.9938C56.959 81.8619 50.4227 78.4215 47.4344 73.8283C45.2676 70.706 44.3851 67.4548 44.4019 63.7626C44.4789 62.4199 44.5702 61.5982 44.8861 60.3197C44.9061 60.2387 44.9318 60.1554 44.9422 60.072C44.9783 60.0047 45.0151 59.9365 45.0408 59.866C45.1217 59.4724 44.5221 59.2592 44.333 59.6207C43.7558 60.4672 43.3598 61.397 43.0985 62.3662C42.9165 62.282 42.6785 62.3093 42.5719 62.5081C41.9426 64.1361 41.666 65.8347 41.6933 67.5285C41.242 68.0119 41.4809 69.983 41.731 71.381C41.4031 71.4748 41.5266 72.0888 41.5963 72.4279C42.5887 78.2924 47.2292 83.9157 53.4087 84.4231C54.4131 84.5489 55.5041 84.5938 56.4636 84.2563C56.5646 84.185 56.6023 84.0824 56.6015 83.9798C57.3718 83.9301 58.1382 83.8138 58.8652 83.5525C59.1907 83.4066 59.5586 83.2824 59.8239 83.0459C59.9121 82.9401 59.9169 82.8159 59.8768 82.7092C59.961 82.6499 60.0299 82.5722 60.0716 82.4648C60.1117 82.1994 60.0171 82.0535 59.848 81.9822C60.058 81.9229 60.2688 81.8748 60.478 81.7994C61.0937 81.5317 61.7766 81.3209 62.2857 80.8736C62.3714 80.7726 62.3802 80.6563 62.349 80.5505C62.3834 80.5 62.4243 80.4519 62.4396 80.3878C62.4003 79.4371 61.1514 80.3718 60.6504 80.4054ZM43.5779 64.6459C43.5811 64.5089 43.5931 64.3606 43.6083 64.2035C43.6067 64.799 43.6332 65.3954 43.7061 65.9894C43.8704 68.0295 44.4684 70.0728 45.3943 71.9694C44.1582 69.6976 43.4544 67.1822 43.5779 64.6459ZM43.6917 70.5169C45.8704 75.7169 50.434 80.1962 56.0259 81.4243C51.0969 80.6972 46.2215 76.3549 44.2264 72.2491C43.8736 71.3674 43.6027 70.5185 43.4047 69.6784C43.4945 69.9614 43.5883 70.2427 43.6917 70.5169ZM53.3462 81.6247C49.674 80.5738 46.6167 78.0223 44.7089 74.7926C46.8316 77.6191 49.9081 80.3581 53.3462 81.6247ZM45.2356 78.7165C45.4937 79.0363 45.7582 79.3505 46.0364 79.6511C47.6869 81.2287 49.6692 82.5417 51.8328 83.3056C51.2011 83.1501 50.6103 82.973 50.135 82.799C48.1213 81.8724 46.5005 80.4231 45.2356 78.7165ZM46.0612 78.3822C45.6716 77.8828 45.2789 77.3241 44.9005 76.7317C47.3302 80.0527 50.9438 82.5 55.056 83.0106C55.6604 83.1157 56.2704 83.1702 56.8813 83.1742C53.0368 83.5854 48.7049 81.4331 46.0612 78.3822Z" fill="#05B4C7" fill-opacity="0.5"/>
<path d="M48.9909 85.2929C48.4474 84.5747 47.1119 84.0087 46.7793 83.6087C46.3344 83.2472 45.9264 82.8416 45.5568 82.4031C45.3997 82.2196 45.2586 81.9622 44.9837 81.9751C44.5725 81.9606 44.3448 82.5089 44.6454 82.7911C45.451 83.8717 46.5188 84.7133 47.6514 85.4284C47.9216 85.5759 48.1652 85.8179 48.4683 85.8853C48.7913 85.9542 49.0871 85.6023 48.9909 85.2929Z" fill="#05B4C7" fill-opacity="0.5"/>
<path d="M46.6273 85.4581C46.1744 85.1247 46.1006 85.0798 45.6156 84.6349C45.3904 84.4457 45.2277 84.101 44.899 84.0994C44.495 84.085 44.2714 84.6237 44.5671 84.9018C45.0241 85.4084 45.5491 85.8445 46.1094 86.2309C46.3579 86.4537 46.7748 86.5571 46.9695 86.214C47.1563 85.8966 46.9054 85.604 46.6273 85.4581Z" fill="#05B4C7" fill-opacity="0.5"/>
<path d="M64.4083 80.2294C64.0283 80.0555 63.7935 80.4467 63.6796 80.7529C63.5137 81.1088 63.3085 81.4439 63.0881 81.7685C62.4596 82.3449 63.1257 83.1978 63.6957 82.5405C64.0468 82.0451 64.3834 81.5336 64.5951 80.9613C64.7402 80.7112 64.7121 80.3393 64.4083 80.2294Z" fill="#05B4C7" fill-opacity="0.5"/>
<path d="M64.7983 81.9943C64.5498 82.0994 64.2909 82.3639 64.2757 82.6444C64.2612 83.0516 64.8047 83.2761 65.0845 82.9787C65.5406 82.6156 65.4709 81.903 64.7983 81.9943Z" fill="#05B4C7" fill-opacity="0.5"/>
<path d="M41.7357 61.3774C41.1369 60.7506 40.7457 61.7726 40.5197 62.2255C40.0604 63.1377 39.6075 64.0604 39.3045 65.0383C39.1754 65.6275 38.8323 66.4331 38.9862 67.0111C39.169 67.3461 39.7133 67.2764 39.8039 66.9045C40.082 65.1562 40.6071 64.0948 41.4023 62.6023C41.549 62.2207 42.0435 61.7846 41.7357 61.3774Z" fill="#05B4C7" fill-opacity="0.5"/>
<path d="M38.2931 63.1802C38.0703 63.565 37.8843 64.0788 37.8418 64.5205C37.8811 65.0327 38.6715 65.0824 38.7885 64.5854C38.8799 64.2103 39.1172 63.8455 39.1139 63.46C39.0883 63.0688 38.556 62.9012 38.2931 63.1802Z" fill="#05B4C7" fill-opacity="0.5"/>
<path d="M76.1626 45.4497C75.3498 45.4818 74.5771 45.9467 73.8492 46.2834C73.3346 46.5944 72.7582 46.9206 72.3959 47.4032C72.2075 47.788 72.7566 48.1535 73.0468 47.8425C73.5574 47.3142 74.5835 46.7732 75.1767 46.5535C75.563 46.3483 76.1113 46.3844 76.4031 46.0445C76.5394 45.8241 76.4111 45.5154 76.1626 45.4497Z" fill="#05B4C7" fill-opacity="0.5"/>
<path d="M75.9104 46.4424C75.4247 46.719 73.9257 46.9619 74.2912 47.737C74.6583 48.2773 75.2475 47.6769 75.6676 47.5126C75.981 47.3547 76.0203 47.3394 76.1453 47.2929C76.6984 47.1495 76.4587 46.2837 75.9104 46.4424Z" fill="#05B4C7" fill-opacity="0.5"/>
<path d="M76.1265 47.7698C75.6912 48.0928 76.2075 48.7261 76.6035 48.3558C77.0411 48.0335 76.5233 47.3979 76.1265 47.7698Z" fill="#05B4C7" fill-opacity="0.5"/>
</g>
<defs>
<filter id="filter0_d_80_4251" x="0.32958" y="0.872803" width="171.687" height="137.524" filterUnits="userSpaceOnUse" color-interpolation-filters="sRGB">
<feFlood flood-opacity="0" result="BackgroundImageFix"/>
<feColorMatrix in="SourceAlpha" type="matrix" values="0 0 0 0 0 0 0 0 0 0 0 0 0 0 0 0 0 0 127 0" result="hardAlpha"/>
<feOffset dy="9.30909"/>
<feGaussianBlur stdDeviation="4.65455"/>
<feComposite in2="hardAlpha" operator="out"/>
<feColorMatrix type="matrix" values="0 0 0 0 0.0196078 0 0 0 0 0.705882 0 0 0 0 0.780392 0 0 0 0.5 0"/>
<feBlend mode="normal" in2="BackgroundImageFix" result="effect1_dropShadow_80_4251"/>
<feBlend mode="normal" in="SourceGraphic" in2="effect1_dropShadow_80_4251" result="shape"/>
</filter>
</defs>
</svg>
