<svg width="201" height="21" viewBox="0 0 201 21" fill="none" xmlns="http://www.w3.org/2000/svg">
<path fill-rule="evenodd" clip-rule="evenodd" d="M89.3138 0.961236C86.2607 3.04457 85.7783 6.15397 88.1001 8.78445C89.1153 9.93464 89.5169 10.0991 91.3254 10.1024C92.4616 10.1048 93.3878 10.2915 93.3838 10.5175C93.3622 11.6756 91.6856 14.4458 90.411 15.4299C88.7896 16.6821 85.8168 17.7114 83.8223 17.7114C82.5639 17.7114 82.451 17.5782 81.4395 14.8984C79.5546 9.90463 77.5226 7.92326 73.123 6.78951C71.2023 6.29457 69.7295 6.19221 67.5283 6.40104L64.5405 6.68468L66.1359 7.85458C67.8275 9.09521 68.7517 10.1821 67.767 9.7731C63.747 8.10331 57.4584 7.55163 54.1226 8.57685C52.9499 8.93696 51.2887 10.1554 48.8438 12.4488C44.9972 16.0564 42.2762 17.5983 39.0809 17.9815C36.4906 18.2922 33.2052 17.3274 30.5455 15.4751L28.5055 14.0545L28.0076 15.2708C27.7128 15.991 27.6154 17.1564 27.7688 18.127L28.0279 19.7668H14.014C1.82769 19.7668 0 19.8473 0 20.3834C0 20.9297 11.4375 21 100.5 21C189.562 21 201 20.9297 201 20.3834C201 19.8473 199.17 19.7668 186.964 19.7668H172.929L173.118 18.0193C173.223 17.0582 173.093 15.7399 172.831 15.0899L172.354 13.9081L171.077 14.9958C167.405 18.1233 162.153 18.8328 157.818 16.7861C156.406 16.1197 154.269 14.5309 152.539 12.8623C148.865 9.31761 148.103 8.849 145.003 8.23156C142.142 7.66181 136.393 8.24387 134.358 9.30938C133.04 9.99958 132.782 10.0354 132.782 9.5285C132.782 9.32378 133.607 8.60316 134.614 7.92735L136.447 6.69866L133.295 6.43062C129.767 6.13053 126.334 6.82895 123.924 8.33636C122.261 9.3768 120.63 11.8663 119.362 15.2988L118.433 17.8121L116.206 17.5794C112.152 17.156 108.383 14.3467 107.781 11.3007C107.539 10.0744 107.573 10.0382 108.792 10.2195C111.734 10.6565 114.103 8.49752 114.103 5.37909C114.103 -0.451206 106.024 -2.02152 102.193 3.0635C101.597 3.85482 101.109 4.68849 101.109 4.91623C101.109 6.05245 100.281 5.56573 99.1896 3.78906C97.0351 0.280107 92.2996 -1.07565 89.3138 0.961236ZM89.3646 2.74368C87.7586 4.11174 87.6173 6.40678 89.0548 7.77402C90.2665 8.92627 91.1533 8.98422 90.5657 7.87267C89.4929 5.8436 90.5093 2.91263 92.2854 2.91263C93.1998 2.91263 93.5222 2.22818 92.7491 1.9281C91.5394 1.45782 90.6112 1.68145 89.3646 2.74368ZM108.111 1.95236C107.395 2.24463 107.902 2.91263 108.839 2.91263C110.507 2.91263 111.259 5.58134 110.259 7.94832C109.774 9.09728 111.074 8.83254 112.043 7.58451C113.251 6.03064 113.126 4.32631 111.698 2.88097C110.591 1.75996 109.362 1.4418 108.111 1.95236ZM96.1129 3.63202C96.5774 5.3943 96.3301 7.10396 95.4336 8.33185C94.9816 8.95052 94.6121 10.0904 94.6121 10.8653C94.6121 12.9606 92.421 16.0235 89.9424 17.3928C88.8257 18.0094 87.6031 18.5187 87.2255 18.5241C86.8478 18.529 86.408 18.7477 86.2481 19.0096C85.9029 19.5752 91.0501 19.2011 92.7816 18.5348C94.3283 17.9395 97.1735 14.8589 98.2439 12.621C99.5587 9.87093 99.3244 6.18932 97.6974 4.02952C96.3346 2.22078 95.6987 2.06129 96.1129 3.63202ZM103.151 4.19436C101.518 6.47748 101.241 8.26238 102.094 11.0038C102.91 13.624 105.603 17.1281 107.607 18.1759C109.126 18.9701 115.426 19.7598 114.712 19.0663C114.489 18.8497 113.575 18.4612 112.682 18.2035C109.46 17.2736 106.831 14.1683 106.158 10.4982C105.994 9.60455 105.607 8.48108 105.299 8.00176C104.638 6.97243 104.472 5.2085 104.887 3.63202C105.323 1.97743 104.561 2.22448 103.151 4.19436ZM91.7494 4.78714C90.9661 5.74289 91.7258 7.60218 92.9732 7.78182C94.165 7.95365 95.0182 6.91858 95.0182 5.30059C95.0182 4.26303 94.8793 4.14586 93.6465 4.14586C92.8924 4.14586 92.0385 4.43444 91.7494 4.78714ZM105.982 5.53448C105.982 7.20427 106.826 8.02972 108.183 7.68482C110.435 7.11302 109.769 4.14586 107.389 4.14586C106.061 4.14586 105.982 4.22437 105.982 5.53448ZM72.6848 8.2406C72.6848 8.46381 73.1871 8.91354 73.8015 9.23994C75.3518 10.0637 77.6428 12.6021 79.0052 15.0061C80.456 17.565 80.789 16.7852 79.4717 13.9143C78.0826 10.8867 76.8137 9.58111 74.1763 8.46545C73.3443 8.11357 72.6848 8.01409 72.6848 8.2406ZM125.947 8.9156C123.517 10.1418 122.237 11.6603 121.044 14.7311C120.127 17.0915 120.579 17.697 121.657 15.5532C122.921 13.0403 125.005 10.518 126.66 9.4956C127.57 8.93366 128.315 8.33226 128.315 8.1596C128.315 7.7214 128.314 7.72183 125.947 8.9156ZM69.8424 8.88762C69.8424 9.01629 70.2391 9.81954 70.7244 10.6729C71.4882 12.0163 76.7223 16.0671 77.6948 16.0671C78.1423 16.0671 76.7536 13.9726 75.1504 12.2293C73.8555 10.8209 69.8424 8.29485 69.8424 8.88762ZM128.683 9.89599C127.881 10.3256 126.546 11.3631 125.717 12.2021C124.205 13.733 122.755 16.0671 123.315 16.0671C123.481 16.0671 124.919 15.1882 126.513 14.1145C128.356 12.8722 129.716 11.6011 130.25 10.6203C131.201 8.8753 130.873 8.72401 128.683 9.89599ZM54.3167 10.074C53.4644 10.3819 51.3025 12.057 49.3822 13.897C46.8866 16.2887 45.3245 17.4282 43.5898 18.1225C40.4006 19.3989 40.0948 19.7668 42.2238 19.7668C44.4389 19.7668 46.7055 18.6754 49.3364 16.3425C54.9611 11.3545 60.3438 11.1374 67.1579 15.6231C71.2965 18.3481 74.1312 19.4675 77.4337 19.6821C79.1916 19.7964 80.4 19.7142 80.4 19.4798C80.4 19.2628 79.4539 18.6371 78.2974 18.09C77.141 17.5424 74.2632 15.7477 71.902 14.1013C66.7255 10.4917 63.92 9.48164 59.1407 9.50795C57.3215 9.51781 55.1507 9.77269 54.3167 10.074ZM137.045 9.88161C134.762 10.4579 132.938 11.4367 128.487 14.4721C126.041 16.1407 123.265 17.8577 122.32 18.2877C121.374 18.7177 120.6 19.2262 120.6 19.4182C120.6 19.9834 124.753 19.8169 126.922 19.1641C128.023 18.8328 130.894 17.3759 133.3 15.9261C138.412 12.8471 140.437 12.1734 143.683 12.471C146.512 12.7308 148.576 13.7375 151.504 16.285C154.626 19.0022 156.398 19.8375 158.694 19.6743C160.172 19.5691 160.416 19.4609 159.785 19.1909C155.568 17.3829 154.404 16.6245 151.29 13.6557C148.982 11.4544 147.322 10.2146 146.297 9.92643C144.569 9.44053 138.901 9.41299 137.045 9.88161ZM99.4576 13.3618C98.9939 14.3611 97.7136 16.1292 96.6132 17.2913C95.5127 18.4534 94.6121 19.4856 94.6121 19.5855C94.6121 19.685 97.2616 19.7668 100.5 19.7668C103.738 19.7668 106.388 19.6829 106.388 19.581C106.388 19.4786 105.463 18.4583 104.332 17.3135C103.201 16.1686 101.913 14.4026 101.47 13.3889C101.027 12.3748 100.583 11.5452 100.483 11.5452C100.383 11.5452 99.9213 12.3629 99.4576 13.3618ZM55.9401 14.244C54.9745 14.7742 53.6 16.7092 53.6 17.5379C53.6 17.8512 57.3824 14.4285 57.5928 13.9246C57.7946 13.4415 57.1871 13.5591 55.9401 14.244ZM144.988 15.6124C146.203 16.7186 147.256 17.5683 147.329 17.5005C147.711 17.1404 146.004 14.7615 144.977 14.2242C142.764 13.0654 142.768 13.5907 144.988 15.6124ZM58.251 15.6165C57.5912 16.0301 56.6085 16.8559 56.0672 17.4512C54.4787 19.1974 56.0424 18.7999 58.1158 16.9303C60.0665 15.1713 60.1428 14.4302 58.251 15.6165ZM141.309 15.1738C141.309 15.8065 144.503 18.5335 145.244 18.5335C145.791 18.5335 145.713 18.3066 144.855 17.3998C143.579 16.0515 141.309 14.6267 141.309 15.1738ZM50.1716 17.5383C49.068 18.5261 48.2741 19.4453 48.4081 19.581C48.8109 19.9883 51.1096 18.5882 51.8072 17.5104C52.9816 15.6959 52.2165 15.709 50.1716 17.5383ZM61.7212 16.04C60.8928 16.2952 57.6606 19.1021 57.6606 19.5657C57.6606 19.6365 60.4929 19.717 63.9545 19.745C67.4162 19.7734 70.2485 19.65 70.2485 19.4712C70.2485 18.9035 64.5567 15.6544 63.6272 15.6914C63.1371 15.7107 62.2795 15.8677 61.7212 16.04ZM133.497 17.399C131.992 18.3621 130.758 19.2887 130.756 19.4585C130.751 19.8136 142.68 19.886 143.029 19.5329C143.156 19.4042 142.5 18.5899 141.572 17.7233C140.323 16.5579 139.408 16.0827 138.058 15.8977C136.404 15.6712 135.977 15.8118 133.497 17.399ZM148.212 15.901C148.212 16.5575 150.039 18.6186 151.124 19.1867C153.078 20.2095 152.947 19.5316 150.804 17.5359C148.933 15.7929 148.212 15.3382 148.212 15.901ZM29.0224 16.9069C28.7613 17.3344 29.5377 18.9972 30.2109 19.4523C30.8882 19.9102 35.3273 19.8264 35.3273 19.3557C35.3273 19.1296 34.9805 18.9446 34.5566 18.9446C34.1322 18.9446 32.7654 18.4016 31.5188 17.7377C30.2722 17.0738 29.1491 16.6997 29.0224 16.9069ZM169.327 17.7435C168.099 18.3967 166.774 18.9339 166.383 18.9376C165.993 18.9413 165.673 19.1296 165.673 19.3557C165.673 20.0562 170.403 19.8527 171.126 19.121C171.627 18.6129 172.093 16.3511 171.662 16.5172C171.606 16.539 170.556 17.0907 169.327 17.7435Z" fill="#F58807"/>
</svg>
