<svg width="20" height="16" viewBox="0 0 20 16" fill="none" xmlns="http://www.w3.org/2000/svg">
<path fill-rule="evenodd" clip-rule="evenodd" d="M1.15975 0.0331054C1.08252 0.0560984 1.01763 0.0999768 1.0155 0.13057C1.0082 0.23653 9.25486 8.95293 9.49823 9.09651C9.80108 9.27516 10.1953 9.28345 10.5005 9.11759C10.6245 9.05008 11.2324 8.45392 11.8511 7.79275C12.4699 7.13157 14.3415 5.14439 16.0102 3.37687C18.3566 0.891386 19.0277 0.145963 18.9717 0.0871395C18.9164 0.0290821 16.8138 0.0087072 10.0997 0.00117059C5.25997 -0.00432219 1.23698 0.0100485 1.15975 0.0331054ZM0.103254 1.01312C0.0386106 1.13211 0.019819 2.46091 0.00619705 7.86702C-0.00906687 13.9108 -0.00109911 14.6001 0.087383 14.8452C0.141324 14.9947 0.206212 15.1036 0.231449 15.0872C0.256747 15.0708 1.77645 13.4613 3.60861 11.5105L6.93973 7.96365L3.60964 4.43442C1.77803 2.49336 0.257903 0.896306 0.231449 0.885384C0.204996 0.874462 0.147282 0.931945 0.103254 1.01312ZM16.4153 4.43135L13.0628 7.98946L15.5774 10.6427C16.9604 12.102 18.4788 13.7126 18.9516 14.2218L19.8112 15.1478L19.9056 14.9105C19.9889 14.7012 20 13.8844 20 7.97439C20 1.44233 19.9853 0.873311 19.8171 0.873311C19.79 0.873311 18.2592 2.47446 16.4153 4.43135ZM4.30686 12.2534C2.48595 14.1891 0.988136 15.794 0.978406 15.8197C0.968676 15.8454 1.02341 15.8908 1.10003 15.9207C1.17666 15.9506 5.09772 15.9836 9.81355 15.994C18.245 16.0127 19.0738 15.9965 19.0152 15.8142C19.005 15.7824 17.5083 14.1738 15.6893 12.2394L12.382 8.7223L11.7973 9.32408C11.1508 9.98953 10.8956 10.1546 10.3542 10.2577C9.57936 10.4053 9.02372 10.1649 8.19885 9.32536L7.61761 8.7338L4.30686 12.2534Z" fill="#F58807"/>
</svg>
