<svg width="20" height="19" viewBox="0 0 20 19" fill="none" xmlns="http://www.w3.org/2000/svg">
<path d="M9.07575 5.71579C9.58405 4.44858 9.83821 3.81497 10.2511 3.72716C10.3597 3.70407 10.4719 3.70407 10.5805 3.72716C10.9934 3.81497 11.2476 4.44858 11.7559 5.71579C12.0449 6.43642 12.1895 6.79674 12.4599 7.04182C12.5358 7.11056 12.6181 7.17178 12.7058 7.22462C13.0184 7.41302 13.4086 7.44797 14.189 7.51786C15.5101 7.63617 16.1706 7.69533 16.3724 8.07196C16.4141 8.14996 16.4425 8.23442 16.4564 8.32182C16.5233 8.7438 16.0377 9.18559 15.0664 10.0692L14.7967 10.3146C14.3427 10.7277 14.1157 10.9342 13.9843 11.192C13.9056 11.3466 13.8528 11.5131 13.828 11.6849C13.7868 11.9712 13.8532 12.2709 13.9862 12.8701L14.0337 13.0843C14.2722 14.159 14.3914 14.6963 14.2425 14.9605C14.1089 15.1977 13.8626 15.3496 13.5906 15.3626C13.2878 15.3771 12.8611 15.0294 12.0077 14.334C11.4454 13.8758 11.1643 13.6467 10.8522 13.5572C10.567 13.4755 10.2646 13.4755 9.97939 13.5572C9.66731 13.6467 9.38618 13.8758 8.82393 14.334C7.97054 15.0294 7.54384 15.3771 7.24101 15.3626C6.96899 15.3496 6.72275 15.1977 6.58906 14.9605C6.44024 14.6963 6.55946 14.159 6.79791 13.0843L6.84541 12.8701C6.97837 12.2709 7.04486 11.9712 7.0036 11.6849C6.97885 11.5131 6.92604 11.3466 6.84726 11.192C6.71595 10.9342 6.48892 10.7277 6.03486 10.3146L5.76516 10.0692C4.79396 9.18559 4.30835 8.7438 4.37523 8.32182C4.38908 8.23442 4.41748 8.14996 4.45926 8.07196C4.66097 7.69533 5.32153 7.63617 6.64263 7.51786C7.42304 7.44797 7.81325 7.41302 8.12583 7.22462C8.2135 7.17178 8.29585 7.11056 8.3717 7.04182C8.64215 6.79674 8.78668 6.43642 9.07575 5.71579Z" fill="#C2BD68" stroke="#C2BD68" stroke-width="2"/>
</svg>
