<svg width="20" height="20" viewBox="0 0 20 20" fill="none" xmlns="http://www.w3.org/2000/svg">
<path d="M8.482 6.0101C8.9903 4.74289 9.24446 4.10928 9.65737 4.02147C9.76595 3.99838 9.87816 3.99838 9.98674 4.02147C10.3997 4.10928 10.6538 4.74289 11.1621 6.0101C11.4512 6.73074 11.5957 7.09106 11.8662 7.33613C11.942 7.40487 12.0244 7.46609 12.112 7.51893C12.4246 7.70733 12.8148 7.74228 13.5952 7.81217C14.9163 7.93049 15.5769 7.98964 15.7786 8.36627C15.8204 8.44428 15.8488 8.52873 15.8626 8.61613C15.9295 9.03811 15.4439 9.47991 14.4727 10.3635L14.203 10.6089C13.7489 11.022 13.5219 11.2285 13.3906 11.4863C13.3118 11.6409 13.259 11.8074 13.2343 11.9792C13.193 12.2655 13.2595 12.5652 13.3924 13.1645L13.44 13.3786C13.6784 14.4533 13.7976 14.9906 13.6488 15.2548C13.5151 15.492 13.2689 15.6439 12.9969 15.6569C12.694 15.6714 12.2673 15.3237 11.4139 14.6283C10.8517 14.1701 10.5706 13.941 10.2585 13.8516C9.97327 13.7698 9.67084 13.7698 9.38564 13.8516C9.07356 13.941 8.79243 14.1701 8.23018 14.6283C7.37679 15.3237 6.95009 15.6714 6.64726 15.6569C6.37524 15.6439 6.129 15.492 5.99531 15.2548C5.84649 14.9906 5.96571 14.4533 6.20416 13.3786L6.25166 13.1645C6.38462 12.5652 6.45111 12.2655 6.40985 11.9792C6.3851 11.8074 6.33229 11.6409 6.25351 11.4863C6.1222 11.2285 5.89517 11.022 5.44111 10.6089L5.17141 10.3635C4.20021 9.47991 3.7146 9.03811 3.78148 8.61613C3.79533 8.52873 3.82373 8.44428 3.86551 8.36627C4.06722 7.98964 4.72778 7.93049 6.04888 7.81217C6.82929 7.74228 7.2195 7.70733 7.53208 7.51893C7.61975 7.46609 7.7021 7.40487 7.77796 7.33613C8.0484 7.09106 8.19293 6.73074 8.482 6.0101Z" fill="#C2BD68" stroke="#C2BD68" stroke-width="2"/>
</svg>
