<svg width="20" height="19" viewBox="0 0 20 19" fill="none" xmlns="http://www.w3.org/2000/svg">
<path d="M9.03473 5.71579C9.54304 4.44858 9.79719 3.81497 10.2101 3.72716C10.3187 3.70407 10.4309 3.70407 10.5395 3.72716C10.9524 3.81497 11.2065 4.44858 11.7148 5.71579C12.0039 6.43642 12.1484 6.79674 12.4189 7.04182C12.4947 7.11056 12.5771 7.17178 12.6648 7.22462C12.9773 7.41302 13.3676 7.44797 14.148 7.51786C15.4691 7.63617 16.1296 7.69533 16.3313 8.07196C16.3731 8.14996 16.4015 8.23442 16.4154 8.32182C16.4822 8.7438 15.9966 9.18559 15.0254 10.0692L14.7557 10.3146C14.3017 10.7277 14.0746 10.9342 13.9433 11.192C13.8646 11.3466 13.8117 11.5131 13.787 11.6849C13.7457 11.9712 13.8122 12.2709 13.9452 12.8701L13.9927 13.0843C14.2311 14.159 14.3504 14.6963 14.2015 14.9605C14.0678 15.1977 13.8216 15.3496 13.5496 15.3626C13.2468 15.3771 12.8201 15.0294 11.9667 14.334C11.4044 13.8758 11.1233 13.6467 10.8112 13.5572C10.526 13.4755 10.2236 13.4755 9.93837 13.5572C9.62629 13.6467 9.34517 13.8758 8.78292 14.334C7.92952 15.0294 7.50282 15.3771 7.19999 15.3626C6.92798 15.3496 6.68173 15.1977 6.54805 14.9605C6.39922 14.6963 6.51844 14.159 6.75689 13.0843L6.8044 12.8701C6.93736 12.2709 7.00384 11.9712 6.96258 11.6849C6.93784 11.5131 6.88502 11.3466 6.80625 11.192C6.67493 10.9342 6.4479 10.7277 5.99385 10.3146L5.72415 10.0692C4.75294 9.18559 4.26734 8.7438 4.33421 8.32182C4.34806 8.23442 4.37647 8.14996 4.41824 8.07196C4.61996 7.69533 5.28051 7.63617 6.60161 7.51786C7.38203 7.44797 7.77223 7.41302 8.08481 7.22462C8.17249 7.17178 8.25483 7.11056 8.33069 7.04182C8.60113 6.79674 8.74566 6.43642 9.03473 5.71579Z" fill="#C2BD68" stroke="#C2BD68" stroke-width="2"/>
</svg>
