<svg width="20" height="20" viewBox="0 0 20 20" fill="none" xmlns="http://www.w3.org/2000/svg">
<path d="M8.18719 5.54109C8.80992 3.98863 9.12129 3.2124 9.65671 3.2124C10.1921 3.2124 10.5035 3.98863 11.1262 5.54109L11.1552 5.61338C11.507 6.49044 11.6829 6.92897 12.0414 7.19552C12.4 7.46206 12.8706 7.50421 13.8118 7.5885L13.982 7.60374C15.5224 7.7417 16.2926 7.81068 16.4574 8.30071C16.6222 8.79074 16.0502 9.31113 14.9062 10.3519L14.5244 10.6993C13.9453 11.2262 13.6558 11.4896 13.5208 11.8349C13.4956 11.8993 13.4747 11.9653 13.4582 12.0324C13.3694 12.3923 13.4542 12.7745 13.6238 13.5388L13.6766 13.7767C13.9883 15.1814 14.1441 15.8838 13.872 16.1867C13.7703 16.2999 13.6382 16.3814 13.4914 16.4215C13.0986 16.5287 12.5409 16.0742 11.4255 15.1653C10.693 14.5685 10.3268 14.2701 9.90636 14.2029C9.74097 14.1765 9.57245 14.1765 9.40706 14.2029C8.98661 14.2701 8.62039 14.5685 7.88796 15.1653C6.77254 16.0742 6.21483 16.5287 5.82201 16.4215C5.67522 16.3814 5.54308 16.2999 5.44141 16.1867C5.16933 15.8838 5.32516 15.1814 5.63682 13.7767L5.68961 13.5388C5.85919 12.7745 5.94398 12.3923 5.85527 12.0324C5.83872 11.9653 5.81779 11.8993 5.79262 11.8349C5.65766 11.4896 5.3681 11.2262 4.789 10.6993L4.40719 10.3519C3.2632 9.31114 2.6912 8.79074 2.85601 8.30071C3.02082 7.81068 3.79103 7.7417 5.33147 7.60374L5.50163 7.5885C6.44285 7.50421 6.91347 7.46206 7.27197 7.19552C7.63048 6.92897 7.80638 6.49044 8.1582 5.61338L8.18719 5.54109Z" stroke="#C2BD68"/>
</svg>
