<svg width="20" height="20" viewBox="0 0 20 20" fill="none" xmlns="http://www.w3.org/2000/svg">
<path d="M8.39801 6.0101C8.90632 4.74289 9.16047 4.10928 9.57339 4.02147C9.68196 3.99838 9.79418 3.99838 9.90275 4.02147C10.3157 4.10928 10.5698 4.74289 11.0781 6.0101C11.3672 6.73074 11.5117 7.09106 11.7822 7.33613C11.858 7.40487 11.9404 7.46609 12.028 7.51893C12.3406 7.70733 12.7308 7.74228 13.5112 7.81217C14.8323 7.93049 15.4929 7.98964 15.6946 8.36627C15.7364 8.44428 15.7648 8.52873 15.7786 8.61613C15.8455 9.03811 15.3599 9.47991 14.3887 10.3635L14.119 10.6089C13.665 11.022 13.4379 11.2285 13.3066 11.4863C13.2278 11.6409 13.175 11.8074 13.1503 11.9792C13.109 12.2655 13.1755 12.5652 13.3085 13.1645L13.356 13.3786C13.5944 14.4533 13.7136 14.9906 13.5648 15.2548C13.4311 15.492 13.1849 15.6439 12.9129 15.6569C12.61 15.6714 12.1833 15.3237 11.3299 14.6283C10.7677 14.1701 10.4866 13.941 10.1745 13.8516C9.88929 13.7698 9.58685 13.7698 9.30166 13.8516C8.98957 13.941 8.70845 14.1701 8.1462 14.6283C7.2928 15.3237 6.8661 15.6714 6.56327 15.6569C6.29126 15.6439 6.04501 15.492 5.91133 15.2548C5.7625 14.9906 5.88172 14.4533 6.12017 13.3786L6.16768 13.1645C6.30064 12.5652 6.36712 12.2655 6.32587 11.9792C6.30112 11.8074 6.2483 11.6409 6.16953 11.4863C6.03821 11.2285 5.81118 11.022 5.35713 10.6089L5.08743 10.3635C4.11622 9.47991 3.63062 9.03811 3.69749 8.61613C3.71134 8.52873 3.73975 8.44428 3.78152 8.36627C3.98324 7.98964 4.64379 7.93049 5.96489 7.81217C6.74531 7.74228 7.13551 7.70733 7.44809 7.51893C7.53577 7.46609 7.61811 7.40487 7.69397 7.33613C7.96441 7.09106 8.10895 6.73074 8.39801 6.0101Z" fill="#C2BD68" stroke="#C2BD68" stroke-width="2"/>
</svg>
