<svg width="20" height="19" viewBox="0 0 20 19" fill="none" xmlns="http://www.w3.org/2000/svg">
<path d="M9.03473 5.71566C9.54304 4.44845 9.79719 3.81485 10.2101 3.72703C10.3187 3.70394 10.4309 3.70394 10.5395 3.72703C10.9524 3.81485 11.2065 4.44845 11.7148 5.71566C12.0039 6.4363 12.1484 6.79662 12.4189 7.0417C12.4947 7.11044 12.5771 7.17166 12.6648 7.2245C12.9773 7.4129 13.3676 7.44784 14.148 7.51774C15.4691 7.63605 16.1296 7.69521 16.3313 8.07184C16.3731 8.14984 16.4015 8.2343 16.4154 8.32169C16.4822 8.74367 15.9966 9.18547 15.0254 10.0691L14.7557 10.3144C14.3017 10.7275 14.0746 10.9341 13.9433 11.1919C13.8646 11.3465 13.8117 11.513 13.787 11.6848C13.7457 11.9711 13.8122 12.2707 13.9452 12.87L13.9927 13.0841C14.2311 14.1588 14.3504 14.6962 14.2015 14.9603C14.0678 15.1976 13.8216 15.3495 13.5496 15.3625C13.2468 15.3769 12.8201 15.0292 11.9667 14.3338C11.4044 13.8757 11.1233 13.6466 10.8112 13.5571C10.526 13.4753 10.2236 13.4753 9.93837 13.5571C9.62629 13.6466 9.34517 13.8757 8.78292 14.3338C7.92952 15.0292 7.50282 15.3769 7.19999 15.3625C6.92798 15.3495 6.68173 15.1976 6.54805 14.9603C6.39922 14.6962 6.51844 14.1588 6.75689 13.0841L6.8044 12.87C6.93736 12.2707 7.00384 11.9711 6.96258 11.6848C6.93784 11.513 6.88502 11.3465 6.80625 11.1919C6.67493 10.9341 6.4479 10.7275 5.99385 10.3144L5.72415 10.0691C4.75294 9.18547 4.26734 8.74367 4.33421 8.32169C4.34806 8.2343 4.37647 8.14984 4.41824 8.07184C4.61996 7.69521 5.28051 7.63605 6.60161 7.51774C7.38203 7.44784 7.77223 7.4129 8.08481 7.2245C8.17249 7.17166 8.25483 7.11044 8.33069 7.0417C8.60113 6.79662 8.74566 6.4363 9.03473 5.71566Z" fill="#C2BD68" stroke="#C2BD68" stroke-width="2"/>
</svg>
