<svg width="19" height="19" viewBox="0 0 19 19" fill="none" xmlns="http://www.w3.org/2000/svg">
<path d="M8.15973 5.71579C8.66804 4.44858 8.92219 3.81497 9.33511 3.72716C9.44368 3.70407 9.5559 3.70407 9.66447 3.72716C10.0774 3.81497 10.3315 4.44858 10.8398 5.71579C11.1289 6.43642 11.2734 6.79674 11.5439 7.04182C11.6197 7.11056 11.7021 7.17178 11.7898 7.22462C12.1023 7.41302 12.4926 7.44797 13.273 7.51786C14.5941 7.63617 15.2546 7.69533 15.4563 8.07196C15.4981 8.14996 15.5265 8.23442 15.5404 8.32182C15.6072 8.7438 15.1216 9.18559 14.1504 10.0692L13.8807 10.3146C13.4267 10.7277 13.1996 10.9342 13.0683 11.192C12.9896 11.3466 12.9367 11.5131 12.912 11.6849C12.8707 11.9712 12.9372 12.2709 13.0702 12.8701L13.1177 13.0843C13.3561 14.159 13.4754 14.6963 13.3265 14.9605C13.1928 15.1977 12.9466 15.3496 12.6746 15.3626C12.3718 15.3771 11.9451 15.0294 11.0917 14.334C10.5294 13.8758 10.2483 13.6467 9.9362 13.5572C9.65101 13.4755 9.34857 13.4755 9.06337 13.5572C8.75129 13.6467 8.47017 13.8758 7.90792 14.334C7.05452 15.0294 6.62782 15.3771 6.32499 15.3626C6.05298 15.3496 5.80673 15.1977 5.67305 14.9605C5.52422 14.6963 5.64344 14.159 5.88189 13.0843L5.9294 12.8701C6.06236 12.2709 6.12884 11.9712 6.08758 11.6849C6.06284 11.5131 6.01002 11.3466 5.93125 11.192C5.79993 10.9342 5.5729 10.7277 5.11885 10.3146L4.84915 10.0692C3.87794 9.18559 3.39234 8.7438 3.45921 8.32182C3.47306 8.23442 3.50147 8.14996 3.54324 8.07196C3.74496 7.69533 4.40551 7.63617 5.72661 7.51786C6.50703 7.44797 6.89723 7.41302 7.20981 7.22462C7.29749 7.17178 7.37983 7.11056 7.45569 7.04182C7.72613 6.79674 7.87066 6.43642 8.15973 5.71579Z" fill="#C2BD68" stroke="#C2BD68" stroke-width="2"/>
</svg>
