<svg width="20" height="19" viewBox="0 0 20 19" fill="none" xmlns="http://www.w3.org/2000/svg">
<path d="M8.86493 5.24678C9.48766 3.69432 9.79902 2.91809 10.3344 2.91809C10.8699 2.91809 11.1812 3.69432 11.804 5.24678L11.833 5.31907C12.1848 6.19613 12.3607 6.63466 12.7192 6.90121C13.0777 7.16775 13.5483 7.2099 14.4895 7.29419L14.6597 7.30943C16.2001 7.44739 16.9703 7.51637 17.1351 8.0064C17.3 8.49643 16.728 9.01682 15.584 10.0576L15.2022 10.405C14.6231 10.9318 14.3335 11.1953 14.1985 11.5406C14.1734 11.605 14.1524 11.6709 14.1359 11.7381C14.0472 12.098 14.132 12.4802 14.3015 13.2445L14.3543 13.4824C14.666 14.8871 14.8218 15.5895 14.5497 15.8924C14.4481 16.0056 14.3159 16.0871 14.1691 16.1272C13.7763 16.2343 13.2186 15.7799 12.1032 14.871C11.3708 14.2742 11.0045 13.9758 10.5841 13.9086C10.4187 13.8822 10.2502 13.8822 10.0848 13.9086C9.66434 13.9758 9.29813 14.2742 8.5657 14.871C7.45028 15.7799 6.89257 16.2343 6.49974 16.1272C6.35295 16.0871 6.22082 16.0056 6.11915 15.8924C5.84707 15.5895 6.0029 14.8871 6.31456 13.4824L6.36734 13.2445C6.53692 12.4802 6.62171 12.098 6.533 11.7381C6.51646 11.6709 6.49553 11.605 6.47035 11.5406C6.33539 11.1953 6.04584 10.9318 5.46673 10.405L5.08492 10.0576C3.94093 9.01682 3.36893 8.49643 3.53374 8.0064C3.69855 7.51637 4.46877 7.44739 6.0092 7.30943L6.17936 7.29419C7.12059 7.2099 7.5912 7.16775 7.94971 6.90121C8.30821 6.63466 8.48412 6.19613 8.83593 5.31907L8.86493 5.24678Z" stroke="#C2BD68"/>
</svg>
