<svg width="20" height="20" viewBox="0 0 20 20" fill="none" xmlns="http://www.w3.org/2000/svg">
<path d="M8.44098 6.0101C8.94929 4.74289 9.20344 4.10928 9.61636 4.02147C9.72493 3.99838 9.83715 3.99838 9.94572 4.02147C10.3586 4.10928 10.6128 4.74289 11.1211 6.0101C11.4102 6.73074 11.5547 7.09106 11.8251 7.33613C11.901 7.40487 11.9833 7.46609 12.071 7.51893C12.3836 7.70733 12.7738 7.74228 13.5542 7.81217C14.8753 7.93049 15.5359 7.98964 15.7376 8.36627C15.7794 8.44428 15.8078 8.52873 15.8216 8.61613C15.8885 9.03811 15.4029 9.47991 14.4317 10.3635L14.162 10.6089C13.7079 11.022 13.4809 11.2285 13.3496 11.4863C13.2708 11.6409 13.218 11.8074 13.1932 11.9792C13.152 12.2655 13.2185 12.5652 13.3514 13.1645L13.3989 13.3786C13.6374 14.4533 13.7566 14.9906 13.6078 15.2548C13.4741 15.492 13.2279 15.6439 12.9558 15.6569C12.653 15.6714 12.2263 15.3237 11.3729 14.6283C10.8107 14.1701 10.5295 13.941 10.2175 13.8516C9.93226 13.7698 9.62982 13.7698 9.34462 13.8516C9.03254 13.941 8.75142 14.1701 8.18917 14.6283C7.33577 15.3237 6.90907 15.6714 6.60624 15.6569C6.33423 15.6439 6.08798 15.492 5.9543 15.2548C5.80547 14.9906 5.92469 14.4533 6.16314 13.3786L6.21065 13.1645C6.34361 12.5652 6.41009 12.2655 6.36883 11.9792C6.34409 11.8074 6.29127 11.6409 6.2125 11.4863C6.08118 11.2285 5.85415 11.022 5.4001 10.6089L5.1304 10.3635C4.15919 9.47991 3.67359 9.03811 3.74046 8.61613C3.75431 8.52873 3.78272 8.44428 3.82449 8.36627C4.02621 7.98964 4.68676 7.93049 6.00786 7.81217C6.78828 7.74228 7.17848 7.70733 7.49106 7.51893C7.57874 7.46609 7.66108 7.40487 7.73694 7.33613C8.00738 7.09106 8.15191 6.73074 8.44098 6.0101Z" fill="#C2BD68" stroke="#C2BD68" stroke-width="2"/>
</svg>
