<svg width="20" height="19" viewBox="0 0 20 19" fill="none" xmlns="http://www.w3.org/2000/svg">
<path d="M8.86493 5.2469C9.48766 3.69444 9.79902 2.91821 10.3344 2.91821C10.8699 2.91821 11.1812 3.69444 11.804 5.2469L11.833 5.31919C12.1848 6.19625 12.3607 6.63478 12.7192 6.90133C13.0777 7.16787 13.5483 7.21002 14.4895 7.29432L14.6597 7.30955C16.2001 7.44751 16.9703 7.51649 17.1351 8.00652C17.3 8.49655 16.728 9.01695 15.584 10.0577L15.2022 10.4051C14.6231 10.932 14.3335 11.1954 14.1985 11.5407C14.1734 11.6051 14.1524 11.6711 14.1359 11.7382C14.0472 12.0981 14.132 12.4803 14.3015 13.2446L14.3543 13.4826C14.666 14.8872 14.8218 15.5896 14.5497 15.8925C14.4481 16.0057 14.3159 16.0872 14.1691 16.1273C13.7763 16.2345 13.2186 15.78 12.1032 14.8711C11.3708 14.2743 11.0045 13.9759 10.5841 13.9087C10.4187 13.8823 10.2502 13.8823 10.0848 13.9087C9.66434 13.9759 9.29813 14.2743 8.5657 14.8711C7.45028 15.78 6.89257 16.2345 6.49974 16.1273C6.35295 16.0872 6.22082 16.0057 6.11915 15.8925C5.84707 15.5896 6.0029 14.8872 6.31456 13.4826L6.36734 13.2446C6.53692 12.4803 6.62171 12.0981 6.533 11.7382C6.51646 11.6711 6.49553 11.6051 6.47035 11.5407C6.33539 11.1954 6.04584 10.932 5.46673 10.4051L5.08492 10.0577C3.94093 9.01695 3.36893 8.49655 3.53374 8.00652C3.69855 7.51649 4.46877 7.44751 6.0092 7.30955L6.17936 7.29432C7.12059 7.21002 7.5912 7.16787 7.94971 6.90133C8.30821 6.63478 8.48412 6.19625 8.83593 5.31919L8.86493 5.2469Z" stroke="#C2BD68"/>
</svg>
