<svg width="20" height="20" viewBox="0 0 20 20" fill="none" xmlns="http://www.w3.org/2000/svg">
<path d="M8.357 6.0101C8.8653 4.74289 9.11946 4.10928 9.53237 4.02147C9.64095 3.99838 9.75316 3.99838 9.86174 4.02147C10.2747 4.10928 10.5288 4.74289 11.0371 6.0101C11.3262 6.73074 11.4707 7.09106 11.7412 7.33613C11.817 7.40487 11.8994 7.46609 11.987 7.51893C12.2996 7.70733 12.6898 7.74228 13.4702 7.81217C14.7913 7.93049 15.4519 7.98964 15.6536 8.36627C15.6954 8.44428 15.7238 8.52873 15.7376 8.61613C15.8045 9.03811 15.3189 9.47991 14.3477 10.3635L14.078 10.6089C13.6239 11.022 13.3969 11.2285 13.2656 11.4863C13.1868 11.6409 13.134 11.8074 13.1093 11.9792C13.068 12.2655 13.1345 12.5652 13.2674 13.1645L13.315 13.3786C13.5534 14.4533 13.6726 14.9906 13.5238 15.2548C13.3901 15.492 13.1439 15.6439 12.8719 15.6569C12.569 15.6714 12.1423 15.3237 11.2889 14.6283C10.7267 14.1701 10.4456 13.941 10.1335 13.8516C9.84827 13.7698 9.54584 13.7698 9.26064 13.8516C8.94856 13.941 8.66743 14.1701 8.10518 14.6283C7.25179 15.3237 6.82509 15.6714 6.52226 15.6569C6.25024 15.6439 6.004 15.492 5.87031 15.2548C5.72149 14.9906 5.84071 14.4533 6.07916 13.3786L6.12666 13.1645C6.25962 12.5652 6.32611 12.2655 6.28485 11.9792C6.2601 11.8074 6.20729 11.6409 6.12851 11.4863C5.9972 11.2285 5.77017 11.022 5.31611 10.6089L5.04641 10.3635C4.07521 9.47991 3.5896 9.03811 3.65648 8.61613C3.67033 8.52873 3.69873 8.44428 3.74051 8.36627C3.94222 7.98964 4.60278 7.93049 5.92388 7.81217C6.70429 7.74228 7.0945 7.70733 7.40708 7.51893C7.49475 7.46609 7.5771 7.40487 7.65296 7.33613C7.9234 7.09106 8.06793 6.73074 8.357 6.0101Z" fill="#C2BD68" stroke="#C2BD68" stroke-width="2"/>
</svg>
