<svg width="20" height="19" viewBox="0 0 20 19" fill="none" xmlns="http://www.w3.org/2000/svg">
<path d="M9.07575 5.71566C9.58405 4.44845 9.83821 3.81485 10.2511 3.72703C10.3597 3.70394 10.4719 3.70394 10.5805 3.72703C10.9934 3.81485 11.2476 4.44845 11.7559 5.71566C12.0449 6.4363 12.1895 6.79662 12.4599 7.0417C12.5358 7.11044 12.6181 7.17166 12.7058 7.2245C13.0184 7.4129 13.4086 7.44784 14.189 7.51774C15.5101 7.63605 16.1706 7.69521 16.3724 8.07184C16.4141 8.14984 16.4425 8.2343 16.4564 8.32169C16.5233 8.74367 16.0377 9.18547 15.0664 10.0691L14.7967 10.3144C14.3427 10.7275 14.1157 10.9341 13.9843 11.1919C13.9056 11.3465 13.8528 11.513 13.828 11.6848C13.7868 11.9711 13.8532 12.2707 13.9862 12.87L14.0337 13.0841C14.2722 14.1588 14.3914 14.6962 14.2425 14.9603C14.1089 15.1976 13.8626 15.3495 13.5906 15.3625C13.2878 15.3769 12.8611 15.0292 12.0077 14.3338C11.4454 13.8757 11.1643 13.6466 10.8522 13.5571C10.567 13.4753 10.2646 13.4753 9.97939 13.5571C9.66731 13.6466 9.38618 13.8757 8.82393 14.3338C7.97054 15.0292 7.54384 15.3769 7.24101 15.3625C6.96899 15.3495 6.72275 15.1976 6.58906 14.9603C6.44024 14.6962 6.55946 14.1588 6.79791 13.0841L6.84541 12.87C6.97837 12.2707 7.04486 11.9711 7.0036 11.6848C6.97885 11.513 6.92604 11.3465 6.84726 11.1919C6.71595 10.9341 6.48892 10.7275 6.03486 10.3144L5.76516 10.0691C4.79396 9.18547 4.30835 8.74367 4.37523 8.32169C4.38908 8.2343 4.41748 8.14984 4.45926 8.07184C4.66097 7.69521 5.32153 7.63605 6.64263 7.51774C7.42304 7.44784 7.81325 7.4129 8.12583 7.2245C8.2135 7.17166 8.29585 7.11044 8.3717 7.0417C8.64215 6.79662 8.78668 6.4363 9.07575 5.71566Z" fill="#C2BD68" stroke="#C2BD68" stroke-width="2"/>
</svg>
