<svg width="20" height="19" viewBox="0 0 20 19" fill="none" xmlns="http://www.w3.org/2000/svg">
<path d="M9.11871 5.71566C9.62702 4.44845 9.88118 3.81485 10.2941 3.72703C10.4027 3.70394 10.5149 3.70394 10.6235 3.72703C11.0364 3.81485 11.2905 4.44845 11.7988 5.71566C12.0879 6.4363 12.2324 6.79662 12.5029 7.0417C12.5787 7.11044 12.6611 7.17166 12.7487 7.2245C13.0613 7.4129 13.4515 7.44784 14.2319 7.51774C15.5531 7.63605 16.2136 7.69521 16.4153 8.07184C16.4571 8.14984 16.4855 8.2343 16.4994 8.32169C16.5662 8.74367 16.0806 9.18547 15.1094 10.0691L14.8397 10.3144C14.3857 10.7275 14.1586 10.9341 14.0273 11.1919C13.9485 11.3465 13.8957 11.513 13.871 11.6848C13.8297 11.9711 13.8962 12.2707 14.0292 12.87L14.0767 13.0841C14.3151 14.1588 14.4343 14.6962 14.2855 14.9603C14.1518 15.1976 13.9056 15.3495 13.6336 15.3625C13.3307 15.3769 12.904 15.0292 12.0506 14.3338C11.4884 13.8757 11.2073 13.6466 10.8952 13.5571C10.61 13.4753 10.3076 13.4753 10.0224 13.5571C9.71028 13.6466 9.42915 13.8757 8.8669 14.3338C8.01351 15.0292 7.58681 15.3769 7.28398 15.3625C7.01196 15.3495 6.76572 15.1976 6.63203 14.9603C6.4832 14.6962 6.60243 14.1588 6.84087 13.0841L6.88838 12.87C7.02134 12.2707 7.08782 11.9711 7.04657 11.6848C7.02182 11.513 6.969 11.3465 6.89023 11.1919C6.75892 10.9341 6.53189 10.7275 6.07783 10.3144L5.80813 10.0691C4.83692 9.18547 4.35132 8.74367 4.4182 8.32169C4.43205 8.2343 4.46045 8.14984 4.50223 8.07184C4.70394 7.69521 5.36449 7.63605 6.6856 7.51774C7.46601 7.44784 7.85622 7.4129 8.1688 7.2245C8.25647 7.17166 8.33882 7.11044 8.41467 7.0417C8.68512 6.79662 8.82965 6.4363 9.11871 5.71566Z" fill="#C2BD68" stroke="#C2BD68" stroke-width="2"/>
</svg>
