<svg width="19" height="19" viewBox="0 0 19 19" fill="none" xmlns="http://www.w3.org/2000/svg">
<path d="M8.15973 5.71566C8.66804 4.44845 8.92219 3.81485 9.33511 3.72703C9.44368 3.70394 9.5559 3.70394 9.66447 3.72703C10.0774 3.81485 10.3315 4.44845 10.8398 5.71566C11.1289 6.4363 11.2734 6.79662 11.5439 7.0417C11.6197 7.11044 11.7021 7.17166 11.7898 7.2245C12.1023 7.4129 12.4926 7.44784 13.273 7.51774C14.5941 7.63605 15.2546 7.69521 15.4563 8.07184C15.4981 8.14984 15.5265 8.2343 15.5404 8.32169C15.6072 8.74367 15.1216 9.18547 14.1504 10.0691L13.8807 10.3144C13.4267 10.7275 13.1996 10.9341 13.0683 11.1919C12.9896 11.3465 12.9367 11.513 12.912 11.6848C12.8707 11.9711 12.9372 12.2707 13.0702 12.87L13.1177 13.0841C13.3561 14.1588 13.4754 14.6962 13.3265 14.9603C13.1928 15.1976 12.9466 15.3495 12.6746 15.3625C12.3718 15.3769 11.9451 15.0292 11.0917 14.3338C10.5294 13.8757 10.2483 13.6466 9.9362 13.5571C9.65101 13.4753 9.34857 13.4753 9.06337 13.5571C8.75129 13.6466 8.47017 13.8757 7.90792 14.3338C7.05452 15.0292 6.62782 15.3769 6.32499 15.3625C6.05298 15.3495 5.80673 15.1976 5.67305 14.9603C5.52422 14.6962 5.64344 14.1588 5.88189 13.0841L5.9294 12.87C6.06236 12.2707 6.12884 11.9711 6.08758 11.6848C6.06284 11.513 6.01002 11.3465 5.93125 11.1919C5.79993 10.9341 5.5729 10.7275 5.11885 10.3144L4.84915 10.0691C3.87794 9.18547 3.39234 8.74367 3.45921 8.32169C3.47306 8.2343 3.50147 8.14984 3.54324 8.07184C3.74496 7.69521 4.40551 7.63605 5.72661 7.51774C6.50703 7.44784 6.89723 7.4129 7.20981 7.2245C7.29749 7.17166 7.37983 7.11044 7.45569 7.0417C7.72613 6.79662 7.87066 6.4363 8.15973 5.71566Z" fill="#C2BD68" stroke="#C2BD68" stroke-width="2"/>
</svg>
