<svg width="18" height="17" viewBox="0 0 18 17" fill="none" xmlns="http://www.w3.org/2000/svg">
<path fill-rule="evenodd" clip-rule="evenodd" d="M2.10036 0.048854C1.92528 0.142371 1.8982 0.246423 1.8982 0.824971V1.35166H0.993129C0.335972 1.35166 0.0765186 1.36281 0.0459638 1.39231C-0.0153213 1.45148 -0.0153213 16.9002 0.0459638 16.9594C0.0784831 16.9908 2.11215 17 8.98597 17C17.5616 17 17.886 16.9978 17.9419 16.9381C17.9956 16.8808 18 16.2902 18 9.12882C18 4.35597 17.9875 1.38902 17.9673 1.40101C17.9494 1.41175 17.9248 1.40501 17.9127 1.38608C17.8987 1.36419 17.5592 1.35166 16.9806 1.35166H16.0706V0.824971C16.0706 -0.0159071 16.0766 -0.0113345 14.9957 0.0034332L14.2405 0.0137638L14.1382 0.124386L14.0359 0.235008V0.793336V1.35166H12.0211H10.0064L9.99527 0.776536L9.98418 0.201408L9.8869 0.107586L9.78966 0.0137638H8.9844H8.17913L8.08189 0.107586L7.98461 0.201408L7.97352 0.776536L7.96244 1.35166H5.94764H3.93285V0.793336V0.235008L3.83055 0.124386L3.72826 0.0137638L2.96232 0.00566868C2.33242 -0.00100388 2.17933 0.00668479 2.10036 0.048854ZM2.25728 0.29601C2.22269 0.317213 2.21501 0.575546 2.2222 1.47248L2.23146 2.62182L2.91296 2.63103C3.43474 2.63811 3.60113 2.63015 3.62281 2.59716C3.63839 2.57345 3.65136 2.05543 3.65168 1.44599C3.65217 0.384853 3.64933 0.336452 3.58436 0.302852C3.50445 0.261563 2.32344 0.255466 2.25728 0.29601ZM14.3754 0.310134C14.3207 0.348814 14.3163 0.450495 14.3248 1.48715L14.3341 2.62182L15.0181 2.63103C15.6302 2.6393 15.7067 2.63418 15.746 2.58223C15.779 2.5386 15.79 2.2571 15.79 1.44921C15.79 0.517119 15.7826 0.367172 15.7348 0.321006C15.6888 0.276636 15.5763 0.267795 15.0575 0.267795C14.615 0.267795 14.4179 0.280023 14.3754 0.310134ZM8.269 0.35525C8.24122 0.425193 8.24122 2.51523 8.269 2.58517C8.28742 2.63154 8.38382 2.63876 8.9844 2.63876C9.58497 2.63876 9.68137 2.63154 9.69979 2.58517C9.72757 2.51523 9.72757 0.425193 9.69979 0.35525C9.68137 0.308881 9.58497 0.301666 8.9844 0.301666C8.38382 0.301666 8.28742 0.308881 8.269 0.35525ZM0.021092 9.17583C0.021092 13.4512 0.0251963 15.2002 0.0301777 13.0625C0.0351591 10.9248 0.0351591 7.42681 0.0301777 5.28915C0.0251963 3.15146 0.021092 4.90048 0.021092 9.17583ZM0.284509 3.2315V4.80649H8.9844H17.6843V3.2315V1.6565H16.8799H16.0755L16.0643 2.18096L16.0531 2.70538L15.9384 2.81604L15.8238 2.92666L15.186 2.93797C14.4047 2.95182 14.2669 2.93475 14.1355 2.80781L14.0359 2.71171V2.18411V1.6565H12.0188H10.0017V2.14932C10.0017 2.93235 10.0092 2.92666 8.9844 2.92666C7.95963 2.92666 7.96707 2.93235 7.96707 2.14932V1.6565H5.94996H3.93285V2.16782C3.93285 2.93082 3.91689 2.94322 2.93306 2.94322C2.25837 2.94322 2.11587 2.91717 1.98814 2.77065C1.90041 2.66995 1.8982 2.65508 1.8982 2.16196V1.6565H1.09135H0.284509V3.2315ZM0.284509 10.8978V16.6842L1.36322 16.7066C1.95654 16.7189 5.87145 16.7289 10.0631 16.729L17.6843 16.729V10.9202V5.11133H8.9844H0.284509V10.8978ZM5.41323 5.96487C5.38194 5.99509 5.37114 6.3422 5.37114 7.3173C5.37114 8.46465 5.37805 8.63573 5.42625 8.6823C5.47455 8.72891 5.65571 8.73551 6.88439 8.73551C7.78444 8.73551 8.31173 8.72294 8.35527 8.70045C8.42059 8.66669 8.42311 8.61564 8.42311 7.33546C8.42311 6.34623 8.41234 5.99512 8.38101 5.96487C8.3205 5.90645 5.47374 5.90645 5.41323 5.96487ZM9.44167 5.98974C9.41848 6.0316 9.40536 6.51897 9.40536 7.33932C9.40536 8.54031 9.4095 8.62702 9.46952 8.67945C9.52695 8.72965 9.67976 8.73551 10.9276 8.73551C11.8215 8.73551 12.346 8.72294 12.3895 8.70045C12.4548 8.66669 12.4573 8.61564 12.4573 7.33546C12.4573 6.34623 12.4466 5.99512 12.4152 5.96487C12.3838 5.93456 12.0047 5.92423 10.9256 5.92423C9.53028 5.92423 9.47668 5.9266 9.44167 5.98974ZM13.5168 5.96487C13.4563 6.02323 13.4563 8.63651 13.5168 8.69487C13.5481 8.72515 13.9231 8.73551 14.9876 8.73551C16.2397 8.73551 16.4232 8.72894 16.4715 8.6823C16.5197 8.63573 16.5266 8.46465 16.5266 7.3173C16.5266 6.3422 16.5158 5.99509 16.4845 5.96487C16.424 5.90645 13.5773 5.90645 13.5168 5.96487ZM5.68686 7.31293V8.43067H6.91466H8.14247V7.31293V6.1952H6.91466H5.68686V7.31293ZM9.72108 7.31293V8.43067H10.9489H12.1767V7.31293V6.1952H10.9489H9.72108V7.31293ZM13.7553 7.31293V8.43067H14.9831H16.2109V7.31293V6.1952H14.9831H13.7553V7.31293ZM7.14283 7.24506L6.82872 7.54976L6.63388 7.36361C6.52671 7.26121 6.41505 7.17745 6.38569 7.17745C6.31244 7.17745 6.24814 7.24563 6.24814 7.32333C6.24814 7.41397 6.73228 7.88874 6.82468 7.88874C6.9108 7.88874 7.68643 7.15506 7.68643 7.0736C7.68643 7.04502 7.66748 7.00335 7.64433 6.981C7.55207 6.89192 7.45325 6.94394 7.14283 7.24506ZM11.2132 7.24404L10.9001 7.54773L10.6991 7.36259C10.5885 7.26077 10.4685 7.17745 10.4323 7.17745C10.3521 7.17745 10.2824 7.24008 10.2824 7.31202C10.2824 7.39114 10.8144 7.88874 10.899 7.88874C10.9434 7.88874 11.1183 7.74391 11.363 7.50444C11.579 7.29305 11.7557 7.10913 11.7557 7.09575C11.7557 7.08234 11.7394 7.0419 11.7194 7.00586C11.6481 6.87725 11.5378 6.92918 11.2132 7.24404ZM15.2471 7.24387L14.9322 7.54976L14.7374 7.36361C14.5184 7.15438 14.4092 7.12661 14.3445 7.26369C14.3062 7.34484 14.3201 7.3656 14.5813 7.61933C14.7505 7.78367 14.8871 7.88874 14.9316 7.88874C14.9781 7.88874 15.1471 7.74922 15.3979 7.5038C15.7502 7.15899 15.788 7.11045 15.7605 7.03807C15.7418 6.98899 15.6968 6.9535 15.6458 6.94764C15.5805 6.94012 15.4922 7.00576 15.2471 7.24387ZM1.44338 9.61392C1.42019 9.65578 1.40707 10.144 1.40707 10.9663C1.40707 12.0911 1.41402 12.2599 1.46219 12.3065C1.51053 12.3531 1.694 12.3597 2.94608 12.3597C4.01059 12.3597 4.38559 12.3493 4.41695 12.319C4.4774 12.2607 4.4774 9.64742 4.41695 9.58906C4.38556 9.55874 4.00641 9.54841 2.92727 9.54841C1.532 9.54841 1.47839 9.55078 1.44338 9.61392ZM5.41323 9.58906C5.35279 9.64742 5.35279 12.2607 5.41323 12.319C5.47374 12.3775 8.3205 12.3775 8.38101 12.319C8.44146 12.2607 8.44146 9.64742 8.38101 9.58906C8.3205 9.53063 5.47374 9.53063 5.41323 9.58906ZM9.46047 9.60162C9.41227 9.64816 9.40536 9.81812 9.40536 10.9541C9.40536 12.09 9.41227 12.2599 9.46047 12.3065C9.50881 12.3531 9.69228 12.3597 10.9444 12.3597C12.0089 12.3597 12.3839 12.3493 12.4152 12.319C12.4757 12.2607 12.4757 9.64742 12.4152 9.58906C12.3839 9.55878 12.0089 9.54841 10.9444 9.54841C9.69228 9.54841 9.50881 9.55498 9.46047 9.60162ZM13.4947 9.60162C13.4465 9.64816 13.4396 9.81812 13.4396 10.9541C13.4396 12.09 13.4465 12.2599 13.4947 12.3065C13.543 12.3531 13.7265 12.3597 14.9786 12.3597C16.0431 12.3597 16.4181 12.3493 16.4495 12.319C16.5099 12.2607 16.5099 9.64742 16.4495 9.58906C16.4181 9.55878 16.0431 9.54841 14.9786 9.54841C13.7265 9.54841 13.543 9.55498 13.4947 9.60162ZM1.68772 10.9371V12.0549H2.93306H4.17841V11.5522C4.17841 11.2758 4.16803 10.7728 4.15533 10.4345L4.13224 9.81938H2.90998H1.68772V10.9371ZM5.68686 10.9371V12.0549H6.91466H8.14247V10.9371V9.81938H6.91466H5.68686V10.9371ZM9.72108 10.9371V12.0549H10.9489H12.1767V10.9371V9.81938H10.9489H9.72108V10.9371ZM13.7553 10.9371V12.0549H14.9831H16.2109V10.9371V9.81938H14.9831H13.7553V10.9371ZM3.20514 10.8772L2.88132 11.1899L2.67814 10.9957C2.46008 10.7874 2.42444 10.7726 2.33919 10.8548C2.24647 10.9444 2.2745 11.0025 2.53557 11.2625C2.72111 11.4472 2.81095 11.5129 2.8782 11.5129C2.94738 11.5129 3.06009 11.425 3.34585 11.1483C3.71661 10.7892 3.77411 10.6958 3.68027 10.6052C3.59839 10.5261 3.52553 10.5679 3.20514 10.8772ZM7.1704 10.876L6.84777 11.1875L6.63827 10.9946C6.52303 10.8884 6.41291 10.8016 6.39358 10.8016C6.33826 10.8016 6.24814 10.9023 6.24814 10.9641C6.24814 11.0558 6.74116 11.5129 6.83994 11.5129C6.94136 11.5129 7.64209 10.8659 7.67415 10.7427C7.69713 10.6542 7.63482 10.5645 7.55035 10.5645C7.51881 10.5645 7.34783 10.7047 7.1704 10.876ZM11.2046 10.876L10.882 11.1875L10.6688 10.9912C10.4669 10.8053 10.4514 10.7974 10.3777 10.8444C10.2372 10.934 10.2638 11.0103 10.5176 11.2465C10.91 11.6115 10.8543 11.6181 11.3398 11.1493C11.6748 10.8259 11.7531 10.7325 11.7332 10.6804C11.7038 10.6038 11.6533 10.5658 11.5801 10.565C11.551 10.5648 11.3821 10.7047 11.2046 10.876ZM15.2388 10.876L14.9162 11.1875L14.703 10.9912C14.501 10.8052 14.4857 10.7974 14.4119 10.8446C14.2695 10.9357 14.295 11.002 14.5673 11.2498C14.7092 11.3789 14.8541 11.4996 14.8893 11.5182C14.9433 11.5466 15.0164 11.4919 15.3541 11.1702C15.7514 10.7918 15.8102 10.6992 15.7128 10.6052C15.6309 10.5262 15.5581 10.5678 15.2388 10.876ZM1.44338 12.9671C1.42019 13.009 1.40707 13.4934 1.40707 14.3073C1.40707 15.1211 1.42019 15.6056 1.44338 15.6474C1.47839 15.7105 1.532 15.7129 2.92727 15.7129C4.00641 15.7129 4.38556 15.7026 4.41695 15.6723C4.4774 15.6139 4.4774 13.0006 4.41695 12.9423C4.38556 12.912 4.00641 12.9016 2.92727 12.9016C1.532 12.9016 1.47839 12.904 1.44338 12.9671ZM5.41323 12.9423C5.35279 13.0006 5.35279 15.6139 5.41323 15.6723C5.47374 15.7307 8.3205 15.7307 8.38101 15.6723C8.44146 15.6139 8.44146 13.0006 8.38101 12.9423C8.3205 12.8838 5.47374 12.8838 5.41323 12.9423ZM9.46047 12.9548C9.4123 13.0014 9.40536 13.1702 9.40536 14.295C9.40536 15.1173 9.41848 15.6055 9.44167 15.6474C9.47668 15.7105 9.53028 15.7129 10.9256 15.7129C12.0047 15.7129 12.3838 15.7026 12.4152 15.6723C12.4757 15.6139 12.4757 13.0006 12.4152 12.9423C12.3839 12.912 12.0089 12.9016 10.9444 12.9016C9.69228 12.9016 9.50881 12.9082 9.46047 12.9548ZM1.68772 14.3242V15.4419H2.93306H4.17841L4.1783 14.9085C4.17823 14.6151 4.16785 14.1121 4.15526 13.7907L4.13228 13.2065H2.91002H1.68772V14.3242ZM5.68686 14.3242V15.4419H6.91466H8.14247V14.3242V13.2065H6.91466H5.68686V14.3242ZM9.72108 14.3242V15.4419H10.9489H12.1767V14.3242V13.2065H10.9489H9.72108V14.3242ZM3.20518 14.2303L2.88142 14.543L2.69564 14.3658C2.59058 14.2656 2.47797 14.1887 2.43636 14.1887C2.34087 14.1887 2.27261 14.2698 2.29941 14.3514C2.32607 14.4325 2.82263 14.9 2.88209 14.9C2.96053 14.9 3.72237 14.1478 3.72237 14.0703C3.72237 13.9862 3.66013 13.9178 3.58355 13.9178C3.55353 13.9178 3.38325 14.0584 3.20518 14.2303ZM7.1704 14.2293L6.84777 14.5407L6.63827 14.3478C6.40944 14.1371 6.41396 14.1393 6.31599 14.1899C6.18436 14.2579 6.23562 14.3684 6.52475 14.6401C6.67689 14.7831 6.82139 14.9 6.84587 14.9C6.92452 14.9 7.68643 14.148 7.68643 14.0703C7.68643 13.9862 7.6242 13.9178 7.54762 13.9178C7.51759 13.9178 7.34783 14.0579 7.1704 14.2293ZM11.2108 14.2255L10.8799 14.5388L10.6714 14.3468C10.5568 14.2413 10.4471 14.1548 10.4278 14.1548C10.3731 14.1548 10.2824 14.2553 10.2824 14.3158C10.2824 14.3824 10.8115 14.9 10.8795 14.9C10.9063 14.9 11.1168 14.7179 11.3474 14.4952C11.7554 14.1013 11.7652 14.0884 11.7131 14.0126C11.6171 13.8727 11.556 13.8986 11.2108 14.2255Z" fill="#05B4C7"/>
</svg>
