<svg width="23" height="23" viewBox="0 0 23 23" fill="none" xmlns="http://www.w3.org/2000/svg">
<circle cx="11.8405" cy="11.8405" r="10.8405" stroke="#F58807" stroke-width="0.5"/>
<path d="M8.57596 19.601C8.84662 18.6222 9.11906 18.1441 10.5385 16.158C12.0803 14.0005 12.3998 13.2273 12.4652 11.4944C12.5109 10.2839 12.4823 10.0459 12.1528 8.89294C11.9532 8.195 11.7132 7.50545 11.6195 7.36075C11.4542 7.10571 11.4465 7.10878 11.3673 7.46481C11.3134 7.70745 11.3483 7.9401 11.4703 8.15009C11.5719 8.32505 11.7636 8.83245 11.8965 9.27762C12.3322 10.7377 12.1704 12.3848 11.407 14.2594C11.004 15.2488 10.8461 15.4612 10.6268 15.3082C10.5184 15.2325 10.5988 14.918 10.9402 14.0833C11.5011 12.7111 11.668 11.9648 11.6589 10.8691C11.6518 10.0203 11.2517 8.48854 11.0166 8.41085C10.9517 8.3894 10.7179 8.72785 10.497 9.16303C10.2762 9.59821 9.74242 10.4851 9.31087 11.1339L8.52615 12.3134L9.43422 12.2541C10.2606 12.2 10.349 12.2185 10.4165 12.4587C10.5602 12.9693 10.3929 13.1188 9.58236 13.2042C8.76801 13.29 7.87009 13.6925 7.187 14.2775C6.7139 14.6827 6.51335 14.7091 6.21589 14.4052C6.09715 14.2839 6 14.136 6 14.0765C6 14.017 6.34928 13.5316 6.77622 12.9978C9.12424 10.0623 10.5133 7.60752 11.2119 5.15899C11.4988 4.15326 11.8027 3.79002 12.0814 4.11954C12.1649 4.21841 12.3479 4.77884 12.4879 5.36512C12.812 6.7221 13.6042 8.61499 14.3744 9.87243C14.7046 10.4118 15.5845 11.5268 16.3294 12.3503C17.4719 13.6129 17.666 13.8857 17.5683 14.0917C17.3972 14.4525 17.2245 14.4715 16.5897 14.1992C16.2746 14.0641 15.6884 13.921 15.2873 13.8813C14.0887 13.7628 14.0266 13.7344 14.0266 13.3063C14.0266 12.8525 14.3115 12.7236 15.03 12.8523L15.5021 12.9371L14.8136 12.0963C14.435 11.6339 13.9897 11.0246 13.8242 10.7421C13.6586 10.4596 13.5087 10.2286 13.491 10.2286C13.4733 10.2286 13.4866 10.5744 13.5206 10.9969C13.6481 12.5848 13.0862 14.0763 11.6025 16.0886C9.89941 18.3984 9.44732 19.2886 9.34427 20.5352" stroke="#F58807" stroke-opacity="0.5" stroke-width="0.5"/>
</svg>
