<svg width="33" height="27" viewBox="0 0 33 27" fill="none" xmlns="http://www.w3.org/2000/svg">
<path fill-rule="evenodd" clip-rule="evenodd" d="M0.996614 1.05011V2.10034H0.498307H0V14.056V26.0117H7.13045H14.2608L14.334 26.3018C14.4877 26.9111 14.7439 26.9957 16.4471 26.9998C18.1576 27.0038 18.3528 26.9447 18.6017 26.3467L18.7411 26.0117H25.8706H33L32.9718 14.0836L32.9436 2.15544L32.4176 2.12183L31.8917 2.08822V1.04747V0.00671879H25.6959C21.7482 0.00671879 19.3015 0.049142 18.9527 0.123521C18.1246 0.300267 17.2909 0.851003 16.8075 1.54069C16.5772 1.86917 16.3888 2.08436 16.3888 2.01891C16.3888 1.95335 16.1843 1.64239 15.9344 1.3278C15.5966 0.902461 15.2914 0.66687 14.744 0.408803L14.008 0.0618142L7.50229 0.0308499L0.996614 0V1.05011ZM1.43955 10.8605V21.2735H6.80045C12.5013 21.2735 13.1084 21.3175 14.3955 21.8237C14.7305 21.9555 15.2911 22.2579 15.6413 22.4957L16.278 22.9281V12.975C16.278 1.97527 16.2998 2.33119 15.575 1.48856C15.3683 1.24824 14.9561 0.928135 14.659 0.777173C14.124 0.505222 14.0865 0.502248 10.8262 0.470402L7.53363 0.438228L7.50418 3.32699L7.47461 6.21575L6.73712 5.31736L5.99962 4.41887L5.24219 5.35306L4.48476 6.28726L4.45531 3.36732L4.42574 0.447482H2.9327H1.43955V10.8605ZM18.6588 0.582685C17.7218 0.91513 16.9338 1.75985 16.7294 2.6513C16.6562 2.97019 16.6147 6.68098 16.6129 13.0499L16.6102 22.9525L16.9823 22.6702C17.5208 22.2614 18.5676 21.7529 19.3279 21.5305C19.9106 21.3602 20.6568 21.3333 25.7182 21.3001L31.4487 21.2625V10.855V0.447482L25.2199 0.456185C21.1009 0.461915 18.8785 0.50478 18.6588 0.582685ZM4.54013 8.65669C4.54013 8.80082 5.09381 8.82198 8.85879 8.82198C12.6238 8.82198 13.1775 8.80082 13.1775 8.65669C13.1775 8.51256 12.6238 8.49141 8.85879 8.49141C5.09381 8.49141 4.54013 8.51256 4.54013 8.65669ZM20.9289 8.65669C20.9289 8.80082 21.4826 8.82198 25.2476 8.82198C29.0126 8.82198 29.5662 8.80082 29.5662 8.65669C29.5662 8.51256 29.0126 8.49141 25.2476 8.49141C21.4826 8.49141 20.9289 8.51256 20.9289 8.65669ZM4.54013 10.3647C4.54013 10.5851 4.58786 10.5873 8.83111 10.5588C12.5586 10.5337 13.1221 10.5082 13.1221 10.3647C13.1221 10.2211 12.5586 10.1956 8.83111 10.1705C4.58786 10.142 4.54013 10.1442 4.54013 10.3647ZM20.9289 10.3647C20.9289 10.5851 20.9766 10.5873 25.2199 10.5588C28.9473 10.5337 29.5109 10.5082 29.5109 10.3647C29.5109 10.2211 28.9473 10.1956 25.2199 10.1705C20.9766 10.142 20.9289 10.1442 20.9289 10.3647ZM4.54013 12.0726C4.54013 12.2167 5.09381 12.2379 8.85879 12.2379C12.6238 12.2379 13.1775 12.2167 13.1775 12.0726C13.1775 11.9285 12.6238 11.9073 8.85879 11.9073C5.09381 11.9073 4.54013 11.9285 4.54013 12.0726ZM20.9289 12.0726C20.9289 12.2167 21.4826 12.2379 25.2476 12.2379C29.0126 12.2379 29.5662 12.2167 29.5662 12.0726C29.5662 11.9285 29.0126 11.9073 25.2476 11.9073C21.4826 11.9073 20.9289 11.9285 20.9289 12.0726ZM4.54013 13.7255C4.54013 13.8696 5.09381 13.8908 8.85879 13.8908C12.6238 13.8908 13.1775 13.8696 13.1775 13.7255C13.1775 13.5813 12.6238 13.5602 8.85879 13.5602C5.09381 13.5602 4.54013 13.5813 4.54013 13.7255ZM20.9289 13.7517C20.9288 13.9343 21.1863 13.9441 25.2559 13.9158C28.6143 13.8924 29.5729 13.8554 29.5378 13.7505C29.5032 13.6475 28.4737 13.6085 25.2107 13.5864C21.1848 13.5593 20.9289 13.5692 20.9289 13.7517ZM4.54013 15.4885C4.54013 15.6313 4.94 15.6538 7.47461 15.6538C10.0092 15.6538 10.4091 15.6313 10.4091 15.4885C10.4091 15.3457 10.0092 15.3232 7.47461 15.3232C4.94 15.3232 4.54013 15.3457 4.54013 15.4885ZM20.9289 15.4885C20.9289 15.6313 21.3288 15.6538 23.8634 15.6538C26.398 15.6538 26.7979 15.6313 26.7979 15.4885C26.7979 15.3457 26.398 15.3232 23.8634 15.3232C21.3288 15.3232 20.9289 15.3457 20.9289 15.4885ZM1.43955 22.4811V23.257H8.63732C12.8036 23.257 15.8351 23.2154 15.8351 23.1582C15.8351 22.9963 14.7651 22.363 13.9724 22.0559L13.2328 21.7694L7.33619 21.7373L1.43955 21.7053V22.4811ZM19.2679 21.9727C18.3357 22.2494 17.0532 22.9523 17.0532 23.1864C17.0532 23.2252 18.1744 23.257 19.5447 23.257C21.6856 23.257 22.0363 23.2802 22.0363 23.4223C22.0363 23.5647 21.661 23.5875 19.3232 23.5875C17.8311 23.5875 16.6102 23.6289 16.6102 23.6793C16.6102 23.7299 16.5355 23.7712 16.4441 23.7712C16.3528 23.7712 16.278 23.7299 16.278 23.6793C16.278 23.6289 12.9394 23.5875 8.85879 23.5875H1.43955V24.1385V24.6895H16.4441H31.4487V24.1385V23.5875H29.1787C27.2346 23.5875 26.9086 23.5639 26.9086 23.4223C26.9086 23.2807 27.2346 23.257 29.1787 23.257H31.4487V22.4856V21.7143L25.7736 21.7202C20.2277 21.726 20.0795 21.7317 19.2679 21.9727ZM25.4413 23.2349C24.9742 23.2592 24.8046 23.3105 24.8046 23.4278C24.8046 23.551 24.9694 23.5875 25.5244 23.5875C26.0773 23.5875 26.2442 23.5507 26.2442 23.4288C26.2442 23.2132 26.1761 23.1968 25.4413 23.2349Z" fill="#05B4C7"/>
</svg>
