<svg width="669" height="979" viewBox="0 0 669 979" fill="none" xmlns="http://www.w3.org/2000/svg">
<g filter="url(#filter0_d_26_4285)">
<path fill-rule="evenodd" clip-rule="evenodd" d="M650.516 0.359504C647.288 1.30396 644.587 7.40554 646.752 8.86076C647.521 9.37786 630.969 34.9892 604.785 73.7958C581.004 109.041 561.751 136.906 562.002 135.718C562.91 131.408 557.212 129.884 552.266 133.115C549.608 134.852 543.73 136.889 539.205 137.642C528.966 139.344 522.589 143.366 517.038 151.624C508.843 163.814 510.076 181.04 519.851 190.88L523.653 194.707L505.511 221.692C494.025 238.777 487.869 249.013 488.731 249.593C489.592 250.172 496.723 240.645 508.159 223.634L526.225 196.762L533.052 199.102C545.804 203.474 560.923 198.074 568.819 186.328C574.115 178.452 575.449 172.366 573.845 163.394C572.29 154.69 573.393 155.193 585.456 168.695C616.451 203.387 630.724 255.894 620.705 298.369C615.095 322.15 611.813 329.478 596.563 352.256C587.373 365.981 583.663 372.385 586.288 369.991C594.928 362.108 612.238 334.453 617.643 319.895C630.178 286.134 629.901 246.878 616.896 214.019C606.13 186.814 594.553 171.163 568.236 148.239L562.315 143.079L606.23 77.7582C646.36 18.0663 650.493 12.3517 654.192 11.4383C657.257 10.6815 658.264 9.64528 658.342 7.172C658.474 2.84112 654.339 -0.760842 650.516 0.359504ZM537.253 130.705C533.567 129.09 530.007 127.876 529.34 128.006C528.026 128.261 542.129 135.566 543.601 135.39C545.774 135.133 543.459 133.422 537.253 130.705ZM562.485 156.29C560.023 157.323 557.104 157.561 555.999 156.818C554.32 155.689 551.864 158.625 541.148 174.565L528.306 193.666L532.003 194.783C546.352 199.119 558.823 195.317 566.185 184.366C570.115 178.521 571.72 171.582 570.661 165.015C569.215 156.049 567.477 154.192 562.485 156.29ZM535.613 142.085C515.868 147.275 508.77 171.266 522.256 187.229L525.835 191.462L538.07 173.263L550.306 155.062L547.638 150.211C546.17 147.543 545.37 144.763 545.859 144.036C547.751 141.221 542.619 140.243 535.613 142.085ZM291.417 116.085C290.517 116.494 286.45 120.153 282.377 124.218C278.304 128.283 274.241 131.58 273.35 131.544C272.456 131.509 269.794 127.049 267.432 121.63C265.071 116.212 262.838 112.231 262.471 112.783C262.101 113.335 261.566 118.644 261.281 124.582L260.761 135.378L250.561 130.966C233.503 123.585 232.66 123.848 241.907 133.659C246.472 138.502 251.159 143.104 252.322 143.885C255.042 145.714 254.43 146.497 248.442 148.859C245.743 149.923 240.42 152.247 236.612 154.024L229.69 157.256L235.488 157.387C238.675 157.459 244.353 157.523 248.103 157.528C256.21 157.542 256.343 158.259 250.705 171.772C248.479 177.109 247.088 181.766 247.615 182.12C248.141 182.475 251.899 179.394 255.964 175.276C266.637 164.463 266.83 164.466 271.746 175.546C274.093 180.837 276.397 185.092 276.867 185C277.335 184.909 277.88 179.802 278.075 173.652L278.429 162.47L290.253 167.152C296.754 169.727 302.6 171.731 303.241 171.607C303.884 171.483 300.209 166.923 295.076 161.475L285.744 151.569L295.511 147.62C300.884 145.45 305.184 143.188 305.066 142.596C304.95 142.004 300.009 141.402 294.086 141.26L283.321 141.002L288.186 128.172C290.862 121.118 292.316 115.679 291.417 116.085ZM283.342 128.271C279.294 130.18 274.06 136.499 274.934 138.423C276.648 142.195 280.423 139.829 282.801 133.49C284.046 130.174 284.29 127.826 283.342 128.271ZM472.018 261.677C469.861 262.21 467.676 263.27 467.162 264.034C466.649 264.798 461.234 262.6 455.127 259.149C414.658 236.279 355.869 224.904 309.699 231.013C299.556 232.356 297.345 232.051 293.094 228.725C286.277 223.393 279.209 224.745 275.868 232.02C273.725 236.683 271.682 237.832 256.029 243.162C213.618 257.607 174.159 284.634 146.466 318.205C137.859 328.642 136.397 329.772 129.864 331.042C125.923 331.809 121.829 333.733 120.763 335.319C118.847 338.168 119.89 348.593 122.25 350.18C122.923 350.632 120.425 356.387 116.7 362.969C108.88 376.789 98.1639 405.659 94.3758 423.11C88.512 450.129 86.7078 481.762 89.7935 503.387C90.695 509.708 90.5248 514.404 89.3952 514.358C86.4048 514.24 82.4471 521.086 82.5499 526.196C82.6288 530.03 83.71 531.356 89.581 534.81C93.395 537.055 96.8404 538.222 97.2349 537.403C97.628 536.583 99.214 535.106 100.757 534.119C107.863 529.577 105.348 516.318 96.9976 514.302C93.628 513.49 92.8089 512.085 91.8092 505.404C88.435 482.862 91.9366 439.267 99.2161 413.235C103.11 399.307 112.796 375.185 120.006 361.465C124.492 352.925 124.76 352.703 130.858 352.438C139.433 352.064 143.024 346.612 140.486 337.811L138.604 331.279L149.027 319.127C178.064 285.274 214.589 260.566 257.614 245.667C272.948 240.358 274.615 240.149 276.811 243.245C282.179 250.82 292.248 249.505 296.32 240.696C298.981 234.94 299.232 234.833 313.182 233.618C361.877 229.369 405.469 237.551 447.881 258.901L462.651 266.334L463.697 272.572C465.042 280.581 469.094 283.208 477.216 281.339L483.703 279.847L494.902 289.288C510.751 302.648 523.436 315.667 534.496 329.928C547.696 346.943 547.982 347.232 542.452 337.979C532.83 321.88 505.724 292.567 491.786 283.191C486.644 279.732 485.484 277.973 484.778 272.564C483.792 265.003 478.126 260.169 472.018 261.677ZM264.183 126.724C264.101 128.025 264.051 132.871 264.073 137.493L264.112 145.897L256.314 149.034C243.463 154.204 243.419 154.399 255.032 154.678L266.212 154.946L270.389 164.994L274.567 175.042L274.94 167.685C275.144 163.638 275.134 158.751 274.916 156.824C274.569 153.764 275.832 152.753 284.938 148.811L295.355 144.3L289.646 144.18C286.505 144.113 282.174 144.069 280.021 144.081C274.375 144.115 272.82 142.599 269.241 133.575C265.788 124.866 264.416 123.009 264.183 126.724ZM253.225 135.493L246.13 132.963L251.636 138.821C256.202 143.677 257.497 144.429 259.219 143.223C262.706 140.777 260.666 138.148 253.225 135.493ZM279.412 155.198C277.942 157.386 282.479 160.945 289.766 163.318C293.451 164.52 293.382 164.223 288.992 160.06C282.067 153.49 280.944 152.92 279.412 155.198ZM262.197 158.081C259.754 157.984 254.159 168.054 255.283 170.526C256.049 172.212 265.24 161.872 264.839 159.776C264.67 158.894 263.481 158.132 262.197 158.081ZM551.286 353.537C551.089 353.83 551.633 355.073 552.496 356.3C553.397 357.578 554.096 357.717 554.136 356.628C554.205 354.799 552.026 352.437 551.286 353.537ZM577.983 375.802C576.985 377.428 577.092 377.967 578.253 377.177C579.306 376.461 580.045 375.256 579.896 374.502C579.747 373.747 578.887 374.332 577.983 375.802ZM556.242 362.337C560.467 370.553 572.562 400.982 574.786 408.99C577.101 417.325 576.986 418.107 572.76 422.635C565.46 430.456 568.791 441.143 578.85 442.169C583.053 442.598 583.739 446.132 584.616 471.934C585.719 504.303 581.01 532.735 569.219 564.916C561.401 586.252 549.13 609.567 546.611 607.873C543.647 605.881 535.949 608.625 533.254 612.634C531.282 615.567 531.121 618.282 532.665 622.589C534.762 628.435 534.702 628.616 527.955 636.731C497.556 673.293 459.97 698.448 412.309 714.127C396.533 719.318 396.051 719.347 390.737 715.459C383.935 710.484 376.803 711.95 373.133 719.08C370.989 723.245 369.431 723.778 356.562 724.765C315.285 727.926 270.904 719.789 233.823 702.261C212.61 692.234 209.796 690.007 208.216 681.999C206.492 673.264 202.678 670.799 193.983 672.801L187.019 674.404L174.828 663.803C154.907 646.482 137.77 625.865 123.847 602.472C119.973 595.964 116.37 590.725 115.838 590.828C114.149 591.155 134.603 623.984 143.495 635.217C153.285 647.583 166.017 660.62 178.193 670.744C185.265 676.624 186.502 678.384 185.944 681.771C184.495 690.56 195.66 697.923 203.229 693.168C205.965 691.447 208.086 692.118 218.418 697.972C259.007 720.962 314.655 732.43 361.396 727.435C370.03 726.513 371.516 726.84 373.886 730.185C379.321 737.854 392.88 735.013 394.459 725.875C395.03 722.583 397.083 721.466 408.467 718.267C452.274 705.95 492.836 680.306 524.479 644.923C536.167 631.854 537.941 630.439 543.814 629.504C552.009 628.196 554.6 624.33 552.936 615.895C551.762 609.946 552.415 607.684 558.976 594.972C581.789 550.772 591.125 501.3 585.683 453.455C584.652 444.39 585.028 441.865 587.825 439.093C590.268 436.67 591.093 434.088 590.77 429.858C590.397 424.938 589.47 423.545 585.074 421.279C580.422 418.881 579.191 416.654 574.275 401.75C568.783 385.104 558.36 361.405 555.836 359.823C555.117 359.373 555.3 360.503 556.242 362.337ZM578.433 422.762C577.081 423.209 574.942 424.338 573.679 425.273C571.728 426.717 572.256 427.404 577.197 429.846C580.766 431.609 583.364 433.909 583.923 435.801C584.693 438.407 585.178 438.374 587.046 435.594C588.262 433.786 589.015 431.079 588.719 429.578C588.014 426.005 581.561 421.728 578.433 422.762ZM278.738 232.645C275.032 238.159 279.696 245.693 286.547 245.258C293.204 244.835 294.682 240.24 288.613 238.842C287.297 238.539 284.914 236.458 283.321 234.218C280.784 230.658 280.208 230.459 278.738 232.645ZM405.521 349.886C404.315 351.648 402.776 351.49 399.469 349.267C397.031 347.628 392.485 345.461 389.367 344.451C385.457 343.184 383.848 342.069 384.182 340.861C384.473 339.805 383.518 339.466 381.787 340.01C380.204 340.507 374.948 339.772 370.108 338.377C361.658 335.942 361.292 335.686 360.955 331.954C360.617 328.226 360.584 328.213 360.135 331.659C359.722 334.82 358.265 335.143 348.013 334.352C341.604 333.858 331.209 333.762 324.912 334.136C318.616 334.51 312.718 334.316 311.806 333.703C310.894 333.09 310.12 333.338 310.085 334.254C310.052 335.171 308.077 336.2 305.7 336.54C300.59 337.273 301.675 340.075 292.879 303.445C289.653 290.006 286.33 279.143 285.494 279.304C284.658 279.468 284.307 281.01 284.715 282.735C285.123 284.458 288.347 297.445 291.881 311.592C295.415 325.741 297.682 337.808 296.916 338.409C293.513 341.081 290.469 340.934 288.92 338.022C288.055 336.397 283.91 324.499 279.708 311.582C270.921 284.572 270.402 283.268 269.185 285.077C268.689 285.816 270.007 291.461 272.114 297.627C284.517 333.908 286.822 341.169 286.223 342.06C285.858 342.603 283.808 343.298 281.666 343.605C278.031 344.126 277.031 342.423 266.696 318.095C260.603 303.757 254.755 291.435 253.699 290.716C251.026 288.891 250.897 288.534 263.746 318.343C270.09 333.063 275.36 345.41 275.457 345.781C275.746 346.889 268.329 349.816 267.184 349.046C266.604 348.657 260.449 337.386 253.505 324.002C246.562 310.619 239.813 299.213 238.506 298.658C237.2 298.101 242.569 309.508 250.438 324.007C258.308 338.504 264.323 351.019 263.808 351.822C263.291 352.622 261.404 353.803 259.614 354.443C256.634 355.512 255.074 353.575 241.192 331.594C232.85 318.384 225.346 307.119 224.517 306.562C220.927 304.148 224.758 311.186 238.904 332.986C247.169 345.72 253.99 356.449 254.065 356.826C254.14 357.204 252.537 358.689 250.504 360.123L246.808 362.733L228.753 338.875C208.446 312.038 210.166 314.062 209.054 315.717C208.594 316.401 216.303 327.426 226.188 340.214C244.357 363.721 245.399 366.076 238.894 368.916C237.22 369.647 235.702 368.678 232.345 364.738C218.94 348.995 197.513 326.638 196.338 327.168C195.589 327.506 203.971 337.569 214.964 349.532L234.952 371.281L232.337 375.171C230.898 377.31 229.274 378.736 228.724 378.339C228.175 377.942 218.477 368.883 207.173 358.208C195.868 347.532 185.838 338.741 184.884 338.669C181.794 338.443 186.718 343.63 207.066 362.041L227.038 380.113L224.369 384.081L221.701 388.05L211.045 379.644C188.25 361.662 172.82 350.59 174.709 353.572C175.764 355.237 182.786 361.33 190.315 367.111C197.843 372.893 207.274 380.364 211.275 383.712C218.261 389.56 218.445 389.953 215.927 393.698L213.307 397.596L188.802 381.122C171.392 369.417 163.998 365.095 163.259 366.193C162.497 367.327 168.873 371.834 187.208 383.126L212.197 398.512L210.057 402.992C207.62 408.089 210.761 409.306 173.686 388.905C163.767 383.447 155.235 379.048 154.726 379.13C151.652 379.624 156.795 383.047 177.3 394.154C208.168 410.873 206.973 409.957 203.903 414.525L201.353 418.317L174.893 406.14C160.341 399.442 147.756 394.27 146.925 394.644C144.58 395.703 147.892 397.421 175.092 409.255C189.048 415.328 200.53 420.608 200.607 420.991C200.682 421.373 200.097 423.481 199.308 425.675C197.882 429.639 197.694 429.602 169.889 419.693C154.497 414.209 141.595 410.178 141.218 410.738C140.143 412.338 141.391 412.857 169.929 422.689C184.746 427.792 196.88 432.179 196.894 432.439C196.907 432.696 196.246 434.714 195.422 436.922C193.957 440.856 193.35 440.785 165.425 433.441C149.75 429.32 136.601 426.427 136.206 427.014C135.185 428.533 133.938 428.139 164.917 436.076C193.703 443.451 195.546 444.428 191.708 450.261C190.736 451.735 181.746 450.915 163.334 447.672C148.51 445.06 135.453 443.071 134.317 443.252C128.689 444.144 135.196 445.832 161.794 450.375C177.776 453.104 190.877 455.599 190.907 455.919C190.937 456.239 190.76 458.298 190.513 460.494C190.017 464.933 192.986 464.887 150.842 461.108C128.47 459.102 129.414 459.113 129.757 460.852C129.899 461.575 134.509 462.545 140.003 463.006C145.496 463.467 158.965 464.599 169.934 465.521L189.879 467.198L189.441 471.582C189.175 474.257 188.208 476.083 186.961 476.271C185.837 476.437 172.739 476.501 157.851 476.408C142.965 476.318 130.36 476.873 129.842 477.643C128.725 479.305 126.772 479.208 161.215 479.184L188.602 479.166L189.553 484.008C190.171 487.164 189.765 488.848 188.384 488.841C179.373 488.799 131.257 493.18 130.639 494.1C130.209 494.739 130.065 495.403 130.321 495.575C130.575 495.746 143.795 494.876 159.698 493.64C175.601 492.404 189.078 491.707 189.647 492.089C190.218 492.473 190.501 494.597 190.282 496.811C189.921 500.423 188.768 501.012 179.099 502.522C141.038 508.466 131.256 510.339 131.514 511.636C131.671 512.44 137.05 512.204 143.465 511.111C149.881 510.019 163.118 507.744 172.883 506.056C190.196 503.064 190.674 503.094 192.139 507.259C192.965 509.608 192.774 511.959 191.714 512.484C190.654 513.008 180.664 515.607 169.516 518.261C142.878 524.599 135.672 526.723 135.954 528.155C136.082 528.807 149.303 526.093 165.332 522.127C194.363 514.942 194.48 514.932 195.363 519.407C196.341 524.357 197.053 524.033 154.595 537.951C147.312 540.337 141.116 543.152 140.825 544.205C140.432 545.63 176.278 534.433 195.676 527.069C197.387 526.42 201.169 533.258 200.033 534.947C199.673 535.484 190.269 539.815 179.137 544.575C150.022 557.022 145.676 559.126 147.109 560.09C147.813 560.563 159.972 555.894 174.128 549.715C188.285 543.534 200.542 538.504 201.367 538.539C202.191 538.57 203.544 540.354 204.376 542.501C205.879 546.386 205.826 546.436 193.011 553.014C169.108 565.285 153.317 574.258 153.551 575.439C153.847 576.941 160.297 573.881 185.936 560.072C197.352 553.921 207.154 549.201 207.719 549.581C208.282 549.96 209.292 551.78 209.963 553.625C211.097 556.743 209.45 558.102 186.633 572.871C173.131 581.612 162.174 589.221 162.284 589.781C162.618 591.469 163.489 590.978 188.445 575.065C210.249 561.162 212.799 559.947 215.431 562.201C217.03 563.571 218.423 565.116 218.524 565.635C218.628 566.155 208.179 574.693 195.308 584.608C182.437 594.524 172.028 603.254 172.177 604.008C172.582 606.063 172.386 606.199 197.09 586.792C217.105 571.069 220.38 569.02 222.407 570.956C223.688 572.179 224.912 573.981 225.127 574.96C225.342 575.94 216.33 585.044 205.1 595.193C184.221 614.061 180.29 618.17 183.953 617.29C185.083 617.018 193.549 609.779 202.77 601.201C229.092 576.711 228.046 577.452 231.463 580.836C235.108 584.444 235.383 584.035 214.067 606.688C195.158 626.786 192.61 629.909 195.741 629.158C196.872 628.887 205.079 620.699 213.98 610.961C237.729 584.982 236.026 586.354 240.652 589.464C244.479 592.037 244.475 592.34 240.537 596.78C232.286 606.083 207.345 638.627 207.576 639.789C208.099 642.437 210.627 639.632 228.171 616.947L246.447 593.313L249.65 596.146L252.852 598.981L236.642 623.896C226.844 638.952 220.956 649.165 221.761 649.706C222.579 650.256 229.609 640.904 240.038 625.392L256.986 600.183L260.437 603.128L263.889 606.072L250.194 631.364C242.66 645.274 236.213 657.182 235.866 657.827C235.519 658.47 235.915 659.024 236.745 659.056C237.576 659.091 242.579 651.091 247.864 641.28C253.149 631.47 259.45 619.772 261.869 615.283C266.105 607.418 266.407 607.183 270.184 608.795C272.343 609.717 273.901 611.33 273.656 612.389C273.411 613.445 268.289 625.515 262.274 639.21C252.01 662.584 250.493 666.93 252.765 666.443C253.275 666.332 258.918 654.233 265.307 639.553L276.923 612.863L280.919 613.866C283.118 614.418 285.018 615.388 285.143 616.022C285.269 616.655 281.205 629.271 276.114 644.059C271.023 658.846 266.953 671.426 267.068 672.012C267.764 675.541 270.292 669.726 278.821 644.966C286.786 621.84 288.826 617.25 291.12 617.299C297.101 617.429 296.976 621.199 290.102 647.906C286.23 662.956 283.188 675.92 283.346 676.714C284.114 680.605 287.268 671.25 293.295 647.209C299.587 622.107 300.107 620.773 303.628 620.638C305.669 620.561 307.762 620.782 308.281 621.13C308.8 621.479 306.97 634.865 304.214 650.875C299.871 676.111 299.211 684.434 301.876 680.402C302.249 679.839 304.629 666.581 307.169 650.94L311.784 622.5L316.383 622.93C321.872 623.445 321.661 619.91 318.38 656.403C317.006 671.686 316.627 683.617 317.541 682.914C318.453 682.21 320.252 668.558 321.537 652.574C322.823 636.593 324.224 623.474 324.653 623.425C325.079 623.377 327.242 623.542 329.458 623.795C333.257 624.228 333.471 625.924 333.178 653.135C332.822 686.181 332.714 683.948 334.656 683.57C335.475 683.411 336.062 670.015 335.959 653.804C335.782 625.82 335.971 624.298 339.696 623.765C341.854 623.455 344.006 623.463 344.479 623.78C344.953 624.099 346.409 637.636 347.717 653.865C349.024 670.091 350.741 682.869 351.536 682.258C352.328 681.647 351.822 668.163 350.412 652.293L347.845 623.439L352.629 622.537L357.411 621.632L358.95 631.538C364.064 664.478 367.248 680.77 368.523 680.52C369.322 680.366 368.742 673.447 367.235 665.145C362.742 640.412 360.321 624.426 360.787 622.591C361.402 620.171 380.67 616.474 381.632 618.592C382.066 619.546 382.456 619.386 382.498 618.235C382.598 615.546 403.982 606.089 404.574 608.472C404.819 609.461 405.09 609.272 405.176 608.056C405.356 605.495 412.636 600.603 414.451 601.823C415.123 602.275 415.701 601.9 415.735 600.989C415.818 598.763 431.594 587.114 434.423 587.187C436.087 587.231 436.267 586.972 435.121 586.178C433.99 585.396 434.983 583.819 438.844 580.272C447.097 572.691 464.37 545.727 469.517 532.387C472.009 525.931 474.788 519.371 475.696 517.813C476.602 516.253 477.154 514.406 476.92 513.707C475.894 510.62 480.462 479.83 482.054 479.112C483.028 478.671 482.891 478.275 481.75 478.23C479.26 478.131 478.608 466.779 481.058 466.172C481.997 465.939 481.742 465.675 480.492 465.585C479.138 465.487 478.258 463.228 478.315 460.002C478.368 457.021 477.676 451.974 476.774 448.785L475.135 442.989L480.657 441.539L486.179 440.09L480.039 440.891L473.899 441.691L473.121 435.254C472.693 431.713 471.965 428.609 471.501 428.355C471.037 428.102 468.962 424.134 466.888 419.539C463.653 412.372 463.567 411.039 466.28 410.154C469.112 409.231 469.044 409.152 465.643 409.401C462.332 409.643 461.476 409.037 458.945 404.663C455.224 398.226 450.563 390.984 449.109 389.384C448.484 388.696 444.649 384.477 440.586 380.009C436.523 375.542 427.334 367.379 420.166 361.87C412.998 356.362 407.134 350.88 407.136 349.688C407.139 348.356 406.52 348.43 405.521 349.886ZM454.837 386.623C453.808 387.086 453.062 387.955 453.18 388.55C453.297 389.146 454.39 388.934 455.609 388.08C458.137 386.306 457.636 385.358 454.837 386.623ZM398.651 352.628C344.714 326.392 283.211 334.477 239.179 373.59C223.845 387.21 208.286 410.39 201.336 429.962C186.587 471.503 190.46 512.74 212.627 550.156C224.27 569.806 236.551 582.736 255.98 595.799C275.615 608.999 292.372 615.51 314.994 618.724C363.897 625.677 411.99 607.277 443.283 569.638C483.14 521.703 487.244 453.758 453.399 402.186C440.126 381.959 418.259 362.166 398.651 352.628ZM308.97 322.926C309.754 327.247 310.7 330.988 311.074 331.24C311.448 331.491 311.115 328.162 310.332 323.841C309.549 319.519 308.602 315.778 308.228 315.527C307.854 315.275 308.187 318.604 308.97 322.926ZM470.686 552.262C471.403 553.314 472.611 554.055 473.366 553.908C474.121 553.761 473.533 552.901 472.059 551.995C470.429 550.993 469.89 551.098 470.686 552.262ZM544.667 610.373C538.783 608.324 535.641 612.282 540.431 615.71C542.503 617.194 545.497 619.505 547.087 620.848C549.057 622.511 550.276 622.57 550.918 621.03C552.384 617.511 549.104 611.917 544.667 610.373ZM459.299 560.378C460.017 561.43 461.225 562.171 461.98 562.024C462.735 561.878 462.147 561.017 460.673 560.111C459.043 559.11 458.504 559.215 459.299 560.378ZM122.27 338.956C120.372 341.78 121.874 345.984 125.7 348.556C129.525 351.128 133.985 350.933 135.884 348.108C136.699 346.896 134.942 344.912 130.264 341.767C125.586 338.623 123.086 337.744 122.27 338.956ZM444.246 579.829C444.964 580.881 446.171 581.622 446.926 581.475C447.681 581.328 447.094 580.468 445.619 579.562C443.99 578.561 443.451 578.666 444.246 579.829ZM371.352 627.061C371.856 630.111 372.574 632.812 372.948 633.063C373.323 633.315 373.217 631.026 372.713 627.977C372.209 624.927 371.491 622.226 371.117 621.975C370.742 621.723 370.848 624.012 371.352 627.061ZM93.3321 516.544C89.8012 516.768 85.3573 520.235 87.012 521.475C87.5455 521.875 89.26 522.498 90.821 522.857C92.382 523.217 94.9648 525.343 96.5581 527.584C99.0944 531.144 99.6708 531.342 101.14 529.156C104.847 523.642 100.183 516.109 93.3321 516.544ZM375.201 718.362C373.293 721.2 375.114 729.147 378.137 731.179C381.161 733.212 387.912 731.797 390 728.692C391.275 726.795 390.825 726.339 387.063 725.71C383.726 725.152 382.02 723.996 380.211 721.062C377.133 716.068 376.847 715.913 375.201 718.362ZM413.028 782.729C401.216 794.941 401.645 794.806 398.297 787.384C392.771 775.132 392.942 775.333 392.842 781.063C392.792 783.969 392.713 788.434 392.668 790.988L392.588 795.633L381.363 791.274C375.19 788.876 369.295 786.348 368.263 785.654C367.232 784.962 366.043 784.907 365.621 785.535C365.2 786.162 368.473 790.222 372.898 794.557C385.742 807.144 385.694 806.981 377.483 810.27C373.628 811.812 370.577 813.599 370.703 814.238C370.829 814.877 374.334 815.388 378.49 815.371C387.343 815.339 387.326 815.17 380.216 831.64C377.767 837.312 376.18 842.234 376.689 842.576C377.199 842.919 381.157 839.591 385.485 835.183C398.152 822.283 397.78 822.362 401.694 831.739C403.545 836.177 405.438 839.737 405.897 839.647C406.357 839.557 406.591 835.57 406.416 830.786C406.11 822.348 406.207 822.113 409.601 822.938C411.525 823.405 417.536 825.769 422.959 828.19C428.382 830.612 433.14 832.113 433.533 831.528C433.928 830.942 430.631 826.916 426.207 822.579C413.289 809.914 413.391 810.257 421.548 806.99C425.397 805.449 428.442 803.666 428.316 803.027C428.19 802.389 424.692 801.878 420.543 801.894C411.764 801.926 411.812 802.376 418.835 785.647C421.231 779.94 422.789 774.998 422.298 774.668C421.807 774.338 417.634 777.965 413.028 782.729ZM107.375 572.806C106.873 573.552 107.112 574.6 107.904 575.133C108.696 575.665 109.378 575.236 109.417 574.178C109.456 573.12 109.219 572.074 108.888 571.851C108.558 571.629 107.877 572.059 107.375 572.806ZM111.892 583.728C112.529 585.207 113.662 586.828 114.411 587.332C115.16 587.835 115.252 587.037 114.615 585.558C113.978 584.08 112.845 582.458 112.096 581.955C111.347 581.451 111.256 582.249 111.892 583.728ZM406.595 793.682C403.57 797.07 400.677 799.56 400.165 799.216C399.653 798.872 398.45 796.565 397.492 794.089L395.751 789.587L395.85 794.409C395.903 797.061 395.666 799.648 395.323 800.158C394.98 800.669 391.354 799.447 387.265 797.444C383.176 795.44 379.497 794.297 379.089 794.904C378.681 795.511 381.128 798.487 384.527 801.517C387.925 804.547 390.425 807.444 390.082 807.955C389.739 808.465 387.433 809.661 384.957 810.612L380.454 812.34L385.28 812.253C387.935 812.207 390.56 812.473 391.117 812.848C391.674 813.222 390.482 816.856 388.467 820.923C386.454 824.991 385.282 828.639 385.865 829.031C386.448 829.423 389.399 826.971 392.423 823.583C395.448 820.195 398.342 817.705 398.854 818.049C399.366 818.393 400.543 820.635 401.47 823.031L403.156 827.386L403.208 822.409C403.269 816.698 404.369 816.479 412.987 820.471C416.432 822.066 419.556 822.916 419.93 822.361C420.303 821.806 418.336 819.233 415.559 816.645C408.609 810.171 408.397 809.07 413.663 806.858L418.252 804.931L413.583 805.014C411.014 805.059 408.515 804.83 408.029 804.504C407.545 804.178 408.794 800.582 410.807 796.514C412.822 792.447 413.935 788.76 413.282 788.32C412.63 787.882 409.62 790.294 406.595 793.682ZM196.91 675.497C189.064 675.637 186.607 682.949 192.125 689.736C197.089 695.842 209.065 687.142 205.341 680.136C203.101 675.923 202.155 675.402 196.91 675.497ZM73.4562 600.766C63.3128 611.579 49.4094 634.35 43.9725 649.059C21.8754 708.833 40.8169 777.752 90.0818 816.838L100.073 824.763L59.5227 885.079C24.1153 937.746 18.5264 945.48 15.4486 946.08C8.54422 947.424 9.11111 957.53 16.104 957.748C20.6674 957.89 23.2375 955.029 22.3915 950.748C21.7855 947.671 26.8399 939.574 62.2628 886.884L102.83 826.542L112.765 831.892C118.231 834.835 124.853 837.887 127.478 838.675C130.976 839.723 130.103 838.978 124.217 835.893L116.178 831.679L122.854 830.955C131.911 829.97 139.243 825.303 144.86 816.949C153.05 804.766 152.632 792.745 143.547 779.165L139.131 772.567L160.806 740.318C174.643 719.726 181.986 707.737 181.118 707.153C180.251 706.57 172.265 717.38 159.107 736.952C140.742 764.27 138.356 767.325 137.54 764.566C136.789 762.029 135.836 761.579 132.289 762.087C129.906 762.429 127.266 763.733 126.424 764.986C125.582 766.238 121.262 767.568 116.823 767.941C106.577 768.801 99.1588 773.199 93.3315 781.867C87.5233 790.506 86.1479 796.389 87.7887 805.571C88.5036 809.577 88.7021 812.592 88.2311 812.276C83.4391 809.054 69.3429 792.281 62.4659 781.617C36.5994 741.513 31.2929 695.436 47.1503 648.63C49.8064 640.789 54.2521 632.868 65.0219 616.781C72.9077 605.004 79.2419 595.291 79.1003 595.196C78.9587 595.101 76.4191 597.609 73.4562 600.766ZM115.246 771.918C93.884 773.921 83.2184 803.137 98.3053 818.325L101.94 821.985L114.377 803.486C121.371 793.083 126.264 784.617 125.558 784.142C124.866 783.677 123.528 780.619 122.584 777.344L120.868 771.392L115.246 771.918ZM140.395 787.234C139.205 788.069 136.208 788.416 133.737 788.002C129.255 787.254 129.214 787.298 116.953 805.535L104.663 823.816L109.425 825.8C129.209 834.048 151.072 814.401 145.985 792.944C144.374 786.154 143.381 785.139 140.395 787.234Z" fill="#05B4C7" fill-opacity="0.5" shape-rendering="crispEdges"/>
</g>
<defs>
<filter id="filter0_d_26_4285" x="0.135078" y="0.152832" width="668.629" height="978.44" filterUnits="userSpaceOnUse" color-interpolation-filters="sRGB">
<feFlood flood-opacity="0" result="BackgroundImageFix"/>
<feColorMatrix in="SourceAlpha" type="matrix" values="0 0 0 0 0 0 0 0 0 0 0 0 0 0 0 0 0 0 127 0" result="hardAlpha"/>
<feOffset dy="10.4196"/>
<feGaussianBlur stdDeviation="5.2098"/>
<feComposite in2="hardAlpha" operator="out"/>
<feColorMatrix type="matrix" values="0 0 0 0 0.0196078 0 0 0 0 0.705882 0 0 0 0 0.780392 0 0 0 0.5 0"/>
<feBlend mode="normal" in2="BackgroundImageFix" result="effect1_dropShadow_26_4285"/>
<feBlend mode="normal" in="SourceGraphic" in2="effect1_dropShadow_26_4285" result="shape"/>
</filter>
</defs>
</svg>
