<svg width="27" height="20" viewBox="0 0 27 20" fill="none" xmlns="http://www.w3.org/2000/svg">
<path fill-rule="evenodd" clip-rule="evenodd" d="M0.0397545 0.0401843C0.0178803 0.0622346 0 4.54624 0 10.0045V19.9287L0.136907 19.9634C0.322212 20.0104 26.783 20.013 26.9042 19.966C26.9917 19.9321 27 19.0624 27 9.96443V0H13.5398C6.13657 0 0.0615691 0.0180736 0.0397545 0.0401843ZM1.37086 0.745135C1.37086 0.76839 1.88863 1.21753 3.18874 2.32204C3.6149 2.68412 4.03063 3.03856 4.11258 3.10965C4.38473 3.34582 5.5738 4.36369 5.89923 4.63902C6.4207 5.08027 7.52567 6.02729 7.71854 6.19833C7.81689 6.28557 8.31063 6.70916 8.81577 7.13969C9.32084 7.57021 10.2211 8.3427 10.8163 8.8563C12.4878 10.2987 13.4666 11.1156 13.5235 11.1156C13.5519 11.1156 14.0656 10.6953 14.6649 10.1817C15.2642 9.66813 15.9313 9.1 16.1471 8.9192C16.3631 8.73846 16.5696 8.56224 16.6061 8.5276C16.6425 8.49302 17.0691 8.12581 17.5541 7.71161C18.4715 6.9281 19.7093 5.86649 19.9669 5.64231C20.113 5.51513 20.2977 5.35776 20.8871 4.85832C21.049 4.72113 21.3865 4.43267 21.6371 4.21729C21.8878 4.00191 22.3962 3.56813 22.767 3.25334C23.1377 2.93855 23.4707 2.65231 23.5069 2.61725C23.5432 2.58218 23.8411 2.32638 24.1689 2.04876C25.2087 1.16813 25.5987 0.825082 25.6192 0.77333C25.6302 0.745616 20.1787 0.722964 13.5049 0.722964C6.83118 0.722964 1.37086 0.732965 1.37086 0.745135ZM0.715232 9.95364V18.7651L1.41556 18.063C1.80071 17.6769 2.38887 17.0944 2.72253 16.7686C4.55209 14.9823 10.1935 9.31346 10.1791 9.27574C10.1698 9.2514 9.80016 8.92486 9.35761 8.55001C8.91506 8.17521 8.27314 7.62317 7.93108 7.3232C7.58902 7.02323 7.22337 6.71001 7.1184 6.62717C6.92559 6.47486 5.16254 4.96766 4.88742 4.71987C4.80546 4.64607 4.42734 4.31977 4.0472 3.9948C3.66699 3.66982 3.0243 3.11929 2.61894 2.77136C2.21364 2.42344 1.61946 1.91453 1.29862 1.64053L0.715232 1.14222V9.95364ZM25.9493 1.46099C25.7851 1.60179 25.5067 1.83904 25.3308 1.98815C25.1548 2.13726 24.7124 2.51682 24.3477 2.83161C23.983 3.1464 23.5407 3.52595 23.3648 3.67507C23.1891 3.82418 22.6666 4.27151 22.2038 4.66914C19.9184 6.63289 19.0915 7.34182 18.298 8.01791C17.8227 8.42289 17.3063 8.86359 17.1507 8.99728C16.995 9.13091 16.8675 9.27141 16.8675 9.30936C16.8675 9.34738 17.3479 9.85068 17.935 10.4278C18.5221 11.0049 20.5001 12.9707 22.3307 14.7962C25.7764 18.2325 26.2258 18.672 26.2974 18.6749C26.3208 18.6758 26.3414 14.7454 26.3432 9.94075C26.345 5.13605 26.3243 1.20494 26.2972 1.20494C26.27 1.20494 26.1135 1.32019 25.9493 1.46099ZM9.18745 11.3407C8.31397 12.2168 6.98674 13.5412 6.23807 14.2838C5.48934 15.0265 4.05441 16.4531 3.04933 17.4541L1.22185 19.2742L13.4851 19.2766C20.2299 19.2779 25.7483 19.2628 25.7483 19.2429C25.7483 19.223 24.8171 18.2809 23.6788 17.1493C22.5405 16.0177 20.7099 14.1942 19.6109 13.0972C17.7352 11.225 16.3103 9.82459 16.2566 9.80067C16.2436 9.79489 15.6628 10.2781 14.966 10.8746C14.2692 11.471 13.6489 11.9829 13.5874 12.0122C13.5002 12.0537 13.4066 12.0076 13.1601 11.8018C12.8289 11.5254 11.2383 10.1584 10.9457 9.89876L10.7755 9.74778L9.18745 11.3407Z" fill="#05B4C7"/>
</svg>
