<svg width="29" height="27" viewBox="0 0 29 27" fill="none" xmlns="http://www.w3.org/2000/svg">
<path fill-rule="evenodd" clip-rule="evenodd" d="M19.745 0.0770558C15.8995 0.57325 12.2306 2.26388 9.45171 4.8204C8.78485 5.43388 7.73551 6.57815 7.61523 6.82303C7.56066 6.93402 7.34948 7.94484 7.14588 9.06931C6.94235 10.1938 6.75629 11.1368 6.73247 11.1648C6.66805 11.2408 6.47378 10.586 6.47378 10.2929C6.47378 9.93533 6.31873 9.60022 6.11778 9.52364C5.78717 9.39766 5.28001 9.75359 4.6079 10.5833C3.29107 12.2089 2.62149 13.881 2.46547 15.9335C2.38565 16.9841 2.44981 17.7202 2.63755 17.9084C2.82593 18.0973 3.19034 18.1016 3.37426 17.9172C3.49875 17.7924 3.51002 17.6982 3.52484 16.6548C3.54219 15.432 3.62363 14.9123 3.95386 13.9165C4.22161 13.1093 4.62325 12.3326 5.10748 11.6858L5.52355 11.13L5.62021 11.3815C5.74509 11.7064 6.21728 12.4271 6.45241 12.6518C6.70094 12.8893 7.05143 13.028 7.23069 12.9597C7.3087 12.93 7.4216 12.8306 7.48161 12.7388C7.5492 12.6354 7.78154 11.5459 8.09313 9.87153L8.59568 7.17111L9.36257 6.40024C10.092 5.66702 10.2611 5.52695 10.1955 5.7105C10.0968 5.98641 9.96651 7.05876 9.96424 7.61376C9.96133 8.31823 10.0774 8.75874 10.2969 8.87648C10.4996 8.98532 10.7805 8.94819 10.9251 8.79346C11.0512 8.6584 11.0612 8.57668 11.0578 7.70631C11.0538 6.65856 11.1397 6.14361 11.4562 5.32153C11.8054 4.4141 12.01 4.15838 12.7649 3.68587C13.4722 3.24309 14.8862 2.48884 14.9288 2.53155C14.9427 2.54544 14.8492 2.79954 14.7209 3.09622C14.4131 3.80822 14.392 4.21095 14.6505 4.43409C14.7504 4.52035 14.9056 4.5909 14.9954 4.5909C15.2252 4.5909 15.5075 4.28397 15.5637 3.97314C15.6535 3.4763 16.1009 2.66622 16.5479 2.19112C17.0111 1.69882 17.0926 1.66176 18.2827 1.4013C21.2057 0.761733 24.4603 0.976632 27.2662 1.99453L27.8222 2.19625L27.6958 2.53362C27.3022 3.58475 26.5498 4.94567 25.8423 5.88607C25.3597 6.52771 25.3059 6.78441 25.6009 7.03884C25.8539 7.25698 26.1304 7.23413 26.3594 6.97614C27.2446 5.97869 28.306 4.08069 28.816 2.58289C29.0973 1.75698 29.0737 1.61114 28.6222 1.38319C27.7409 0.938273 25.994 0.414105 24.5715 0.167792C23.5638 -0.00673563 20.7975 -0.0587243 19.745 0.0770558ZM18.1864 5.70129C16.9776 6.52363 15.0457 7.98748 13.8539 8.98422C9.88597 12.3027 6.23347 16.3559 3.37905 20.6081C1.79091 22.974 0 26.1002 0 26.5065C0 26.9103 0.543215 27.1563 0.840037 26.887C0.911313 26.8223 1.13395 26.4597 1.33476 26.0811C1.83506 25.138 2.65412 23.7194 3.19377 22.8615C3.44075 22.4688 3.71905 22.0222 3.81215 21.8689C3.91871 21.6935 4.0173 21.6007 4.07848 21.6182C4.13189 21.6334 4.43693 21.7233 4.75628 21.8177C6.4708 22.3245 8.59407 22.3027 10.3327 21.7604C11.0154 21.5474 11.1996 21.4035 11.1996 21.0832C11.1996 20.8097 11.1087 20.7058 10.5778 20.3735C10.2923 20.1947 9.96152 19.9083 10.0405 19.9083C10.0549 19.9083 10.2951 19.9522 10.5741 20.0057C10.8532 20.0593 11.3573 20.1031 11.6943 20.1031C13.0169 20.1031 13.9164 19.7303 15.3105 18.604C17.2028 17.0753 19.181 15.3432 19.9307 14.5586C20.307 14.1648 20.3393 14.109 20.3013 13.9188C20.2251 13.5367 20.0745 13.455 19.4044 13.4321C18.7143 13.4085 18.183 13.2866 17.6959 13.04L17.3527 12.8662L18.1635 12.8878C20.4868 12.9496 22.1212 12.2313 23.5939 10.501C24.1916 9.79883 24.8593 8.82124 24.8593 8.6484C24.8593 8.47322 24.6455 8.23937 24.4375 8.18706C24.3392 8.16233 24.0979 8.21172 23.808 8.3159C22.7398 8.69987 22.3383 8.76315 20.8457 8.78295L19.4541 8.80138L19.3082 8.97143C19.1113 9.201 19.1237 9.42992 19.345 9.65182C19.5024 9.80967 19.5982 9.84154 20.0398 9.88301C20.624 9.93792 22.1829 9.88146 22.5434 9.79234C22.7568 9.73957 22.778 9.74496 22.7274 9.83914C22.6249 10.03 21.7277 10.854 21.389 11.0683C20.9243 11.3625 20.3766 11.5735 19.7448 11.7019C19.0833 11.8362 17.2531 11.8018 16.3787 11.6386C15.6499 11.5025 15.5592 11.5076 15.3723 11.695C15.1071 11.9608 15.155 12.2183 15.5613 12.7121C16.1424 13.4184 17.0623 14.0256 17.9647 14.2983C18.1784 14.3628 18.3774 14.436 18.4071 14.4609C18.5429 14.5748 14.1382 18.2698 13.4537 18.6162C12.3792 19.16 11.0845 19.1566 9.43184 18.6057C9.11825 18.5011 8.81741 18.4155 8.76329 18.4155C8.60708 18.4155 8.28643 18.7781 8.28643 18.9547C8.28643 19.2022 8.77423 20.1203 9.09682 20.4801C9.2564 20.6581 9.38697 20.8323 9.38697 20.8673C9.38697 21.0376 7.51424 21.1832 6.60642 21.0836C5.92312 21.0087 4.89735 20.7947 4.73479 20.6932C4.66746 20.6511 4.80283 20.4228 5.30798 19.7269C8.95912 14.6967 13.7911 9.98615 18.7548 6.61787C19.1893 6.32307 19.5898 6.01731 19.6449 5.93851C19.7497 5.78845 19.7729 5.58283 19.7048 5.40513C19.6576 5.28168 19.3506 5.11014 19.1769 5.11014C19.1101 5.11014 18.6644 5.37618 18.1864 5.70129Z" fill="#05B4C7"/>
</svg>
