<svg width="25" height="25" viewBox="0 0 25 25" fill="none" xmlns="http://www.w3.org/2000/svg">
<path fill-rule="evenodd" clip-rule="evenodd" d="M1.43989 0.0947883C0.811868 0.295245 0.28001 0.831748 0.0909053 1.45547C-0.00613794 1.77551 -0.00706588 1.88572 0.00577879 11.5651L0.0188188 21.3512L0.175543 21.6819C0.360399 22.0719 0.748523 22.4827 1.09738 22.6575C1.22944 22.7236 2.84137 23.2778 4.67948 23.8889L8.02149 25L8.44859 24.9756C8.96677 24.9461 9.36056 24.7808 9.74922 24.4298C10.2459 23.9812 10.4408 23.395 10.4443 22.3396L10.446 21.8637H12.3971C13.6157 21.8637 14.4454 21.8437 14.6071 21.8105C15.2861 21.6708 16.0217 21.1233 16.3389 20.5215C16.6806 19.8735 16.6729 19.9593 16.6729 16.752V13.8611L16.5133 13.7015C16.3807 13.569 16.3167 13.5419 16.1359 13.5419C15.9631 13.5419 15.8902 13.5698 15.7828 13.6772L15.6473 13.8125L15.6229 16.7277L15.5985 19.6429L15.4627 19.9192C15.3028 20.2446 15.0261 20.5099 14.6774 20.6722L14.4263 20.789L12.4362 20.7894L10.446 20.7899L10.445 12.5047C10.4444 7.31747 10.426 4.09489 10.3958 3.88628C10.3094 3.28886 9.9855 2.77633 9.4703 2.42178C9.31802 2.31699 8.69547 2.08422 7.46678 1.67267L5.68415 1.07555L10.0552 1.07345L14.4263 1.0714L14.7194 1.21016C15.0514 1.36737 15.3346 1.65334 15.492 1.99036C15.5967 2.21454 15.5989 2.26623 15.6229 5.12714C15.6495 8.29256 15.6331 8.12437 15.9305 8.27807C16.1262 8.3792 16.3539 8.32854 16.5301 8.14467L16.6729 7.99566V5.10698C16.6729 2.4415 16.666 2.19565 16.5831 1.92545C16.2871 0.960065 15.5301 0.241995 14.6071 0.0510559C14.4267 0.0137174 12.4366 -0.00170611 8.03824 0.000148612C1.99465 0.00263784 1.71603 0.00664014 1.43989 0.0947883ZM1.63051 1.15242C1.41601 1.26541 1.26685 1.41374 1.1618 1.61844C1.07135 1.79469 1.06886 2.05928 1.06964 11.4534L1.07047 21.1072L1.17953 21.2978C1.39447 21.6733 1.4375 21.6912 4.87831 22.8345C8.65098 24.0881 8.55374 24.0691 9.02416 23.6443C9.40149 23.3037 9.37399 24.1401 9.35978 13.4424L9.34708 3.87779L9.21146 3.64726C9.12721 3.50396 8.99778 3.37203 8.86958 3.29877C8.75618 3.23391 7.23381 2.70619 5.4866 2.12605C2.10229 1.00238 1.97585 0.970461 1.63051 1.15242ZM20.029 6.32119C19.8558 6.44243 19.7607 6.66993 19.7983 6.87321C19.8262 7.02432 20.0759 7.29585 21.4982 8.72203L23.1653 10.3937H18.5614C13.5072 10.3937 13.7551 10.3792 13.5969 10.685C13.5032 10.8659 13.5032 10.9953 13.5969 11.1763C13.7552 11.4821 13.5047 11.4675 18.5872 11.4675H23.2168L21.5078 13.176L19.7986 14.8846V15.108C19.7986 15.2986 19.822 15.3523 19.9581 15.4738C20.081 15.5835 20.165 15.6162 20.3239 15.6162H20.5301L22.765 13.3827L25 11.1491V10.9306V10.7121L22.765 8.47857C20.5597 6.27467 20.5274 6.245 20.3339 6.245C20.2261 6.245 20.0888 6.27926 20.029 6.32119Z" fill="#05B4C7"/>
</svg>
