<svg width="25" height="29" viewBox="0 0 25 29" fill="none" xmlns="http://www.w3.org/2000/svg">
<path d="M17.1648 24.6416L17.2156 25.083L17.2352 25.2549C17.2512 25.3959 17.222 25.5252 17.1922 25.6192C17.1605 25.7188 17.1149 25.8175 17.0652 25.9092C16.9658 26.0927 16.8278 26.2892 16.6727 26.4805C16.3626 26.8626 15.9447 27.2719 15.5252 27.5703C14.9962 27.9466 14.2629 28.2708 13.6336 28.4053C13.3476 28.4664 12.9429 28.4949 12.5633 28.499C12.1831 28.5031 11.7764 28.4838 11.4842 28.4297C10.9189 28.3249 10.1528 28.0143 9.65898 27.6924C9.13192 27.3487 8.61796 26.8429 8.26641 26.3848C8.09195 26.1574 7.93866 25.9182 7.84844 25.6963C7.80395 25.5868 7.76311 25.4529 7.75762 25.3115C7.75209 25.1676 7.78419 24.9622 7.94805 24.7969C8.01542 24.7292 8.08478 24.6983 8.10527 24.6895C8.13449 24.6769 8.15925 24.6697 8.17266 24.666C8.19947 24.6587 8.22218 24.6549 8.23223 24.6533C8.25435 24.6499 8.27509 24.6485 8.28691 24.6475C8.31302 24.6453 8.34372 24.6429 8.3748 24.6416C8.43923 24.6389 8.52968 24.6368 8.63945 24.6348C8.86 24.6307 9.17402 24.6273 9.55742 24.625C10.3258 24.6204 11.3793 24.6198 12.532 24.624L17.1648 24.6416ZM9.56426 25.625C9.33247 25.6264 9.12712 25.6288 8.95391 25.6309C8.98548 25.6767 9.02032 25.7255 9.05937 25.7764C9.35291 26.1589 9.78649 26.5816 10.2049 26.8545C10.5926 27.1073 11.2353 27.3665 11.6658 27.4463C11.8648 27.4832 12.1976 27.5038 12.5525 27.5C12.9082 27.4962 13.2354 27.4682 13.4246 27.4277C13.9189 27.3221 14.5268 27.0542 14.9461 26.7559C15.281 26.5176 15.6341 26.1738 15.8963 25.8506C15.9573 25.7754 16.0101 25.703 16.0564 25.6367L12.5291 25.624C11.3787 25.6198 10.3286 25.6205 9.56426 25.625ZM12.4871 0.500014C12.8347 0.499276 13.2158 0.528002 13.4959 0.601576C14.7912 0.942005 15.9764 2.09832 16.4246 3.41505L16.4666 3.54005L16.8768 3.73927C17.7549 4.16514 18.4048 4.60941 19.0467 5.23048C19.9725 6.12621 20.5324 6.98045 20.9754 8.17482C21.4395 9.42618 21.5836 10.4507 21.6404 12.6465C21.6991 14.9117 21.9058 16.1085 22.3367 17.0361C22.5906 17.5827 22.82 17.9321 23.5574 18.8565C23.894 19.2784 24.1338 19.6139 24.285 19.9424C24.4456 20.2914 24.4954 20.6082 24.4998 20.9736C24.5106 21.8747 24.086 22.6975 23.3455 23.21C23.2613 23.2684 23.0901 23.4259 22.8035 23.5108C22.5483 23.5863 22.1822 23.6204 21.5652 23.6416C20.3066 23.6849 17.7692 23.6747 12.3816 23.666L2.61309 23.6504H2.4998L2.39726 23.6006L2.06914 23.4424C0.967793 22.912 0.327374 21.7364 0.54082 20.5488C0.591769 20.2654 0.653225 20.0335 0.806445 19.7588C0.946475 19.5078 1.15804 19.2313 1.47148 18.8389C2.1722 17.9615 2.42007 17.582 2.67363 17.0361C3.11878 16.0777 3.30268 14.972 3.39531 12.2207C3.42977 11.198 3.48983 10.2973 3.55547 9.93263C4.07616 7.04148 5.50288 5.06746 8.02422 3.79298L8.54082 3.53126L8.62969 3.30275C9.12659 2.01691 10.2336 0.94517 11.4822 0.606459C11.76 0.531135 12.14 0.500761 12.4871 0.500014ZM12.4891 1.50001C12.176 1.5007 11.8974 1.52969 11.7439 1.5713C10.8401 1.81649 9.95932 2.63573 9.5623 3.6631L9.33476 4.25197L9.16387 4.3379L8.47539 4.68556C6.24982 5.81053 5.00813 7.50955 4.53984 10.1094C4.48932 10.3898 4.43029 11.2163 4.39531 12.2539C4.30267 15.0056 4.11901 16.2963 3.57988 17.457C3.27705 18.109 2.97294 18.5612 2.25273 19.4629C1.93126 19.8654 1.77269 20.0791 1.67949 20.2461C1.59968 20.3892 1.56418 20.5033 1.52422 20.7256C1.39522 21.4433 1.78014 22.193 2.50273 22.541L2.7293 22.6504L12.3836 22.666C17.7876 22.6748 20.295 22.685 21.5301 22.6426C22.1595 22.621 22.4032 22.5861 22.5193 22.5518C22.6037 22.5268 22.5661 22.5338 22.7771 22.3877C23.2435 22.0648 23.5066 21.5547 23.4998 20.9854C23.4966 20.7194 23.4637 20.5494 23.3768 20.3604C23.2803 20.1508 23.1072 19.8966 22.7752 19.4805C22.0211 18.5352 21.7345 18.1116 21.4305 17.457C20.9087 16.3338 20.6997 14.963 20.6404 12.6719C20.5916 10.787 20.479 9.86525 20.1785 8.92775L20.0379 8.52247C19.6475 7.47015 19.1714 6.7416 18.3514 5.94826C17.7937 5.40875 17.2337 5.02348 16.4402 4.63869L15.6551 4.25783L15.5877 4.06056L15.4783 3.73732C15.1295 2.71256 14.1877 1.81699 13.242 1.56837C13.0839 1.52685 12.8018 1.49935 12.4891 1.50001Z" fill="#05B4C7"/>
</svg>
