<svg width="22" height="25" viewBox="0 0 22 25" fill="none" xmlns="http://www.w3.org/2000/svg">
<path fill-rule="evenodd" clip-rule="evenodd" d="M9.46405 0.156336C7.61519 0.612601 5.86587 2.04194 5.03798 3.7727C4.52734 4.84039 4.37044 5.53658 4.36851 6.74272C4.36566 8.50183 4.82453 9.8243 5.89817 11.1512C7.91595 13.6451 11.3382 14.3182 14.2368 12.7914C15.1387 12.3165 16.4461 11.006 16.904 10.1182C17.4751 9.01117 17.6971 8.08067 17.6971 6.79465C17.6971 4.81941 17.0911 3.33741 15.7223 1.96509C14.3893 0.628699 12.8335 -0.0169048 10.9874 0.000336276C10.4781 0.00511391 9.79252 0.0753243 9.46405 0.156336ZM9.9594 0.994916C7.83159 1.45793 6.02359 3.17071 5.4725 5.24514C5.25397 6.06762 5.25539 7.59231 5.47536 8.36359C6.0675 10.44 7.80897 12.132 9.80291 12.5679C10.6992 12.7638 12.2774 12.6405 13.0668 12.3128C14.5183 11.7104 15.5127 10.7792 16.1829 9.39493C17.028 7.64944 17.0398 6.00655 16.2199 4.25731C15.4768 2.67218 13.8944 1.38273 12.2722 1.04041C11.7516 0.930521 10.3793 0.903517 9.9594 0.994916ZM4.7035 14.9531C2.91862 15.3843 1.34688 16.74 0.414049 18.6532L0 19.5024L0.220168 19.8656C0.569929 20.4426 2.13291 21.8876 3.13329 22.5591C5.56226 24.1893 7.66491 24.876 10.5707 24.9881C13.6604 25.1072 16.3252 24.3343 18.9676 22.5523C19.9362 21.8992 21.9043 20.0239 21.9911 19.6715C22.1154 19.1669 20.9153 17.2075 19.9382 16.3196C18.8358 15.3181 17.5427 14.8431 15.9236 14.8452C14.894 14.8464 14.485 14.9364 13.0159 15.4841C12.1908 15.7918 11.9917 15.8255 11.0292 15.8213C10.1242 15.8172 9.84162 15.7727 9.19528 15.5319C7.61111 14.9419 7.15978 14.8434 6.09011 14.8543C5.52854 14.8601 4.90451 14.9046 4.7035 14.9531ZM5.40149 15.7821C3.67275 16.0787 2.41053 17.0157 1.42594 18.7331L1.0124 19.4545L1.92354 20.343C4.41904 22.7765 7.60684 24.0885 11.0216 24.0872C14.5297 24.086 17.8702 22.6869 20.2867 20.2069L21.0328 19.4413L20.8556 19.09C20.1844 17.7589 19.216 16.7579 18.0791 16.22C17.3852 15.8916 17.1777 15.8436 16.2761 15.8026C15.1868 15.7529 14.9062 15.808 13.2777 16.3915C11.708 16.9539 10.0999 16.9218 8.48211 16.2958C7.17302 15.7893 6.25343 15.636 5.40149 15.7821Z" fill="#05B4C7"/>
</svg>
