<svg width="29" height="27" viewBox="0 0 29 27" fill="none" xmlns="http://www.w3.org/2000/svg">
<path fill-rule="evenodd" clip-rule="evenodd" d="M22.8523 0.292862C19.7751 0.713791 18.4997 0.876035 18.2699 0.876035C18.1056 0.876035 18.0623 0.814359 18.0623 0.580324V0.284711L13.7463 0.310245L9.43033 0.335878L9.40469 13.4715L9.37894 26.6072H13.7207H18.0623V14.118C18.0623 7.2491 18.0815 1.64787 18.1049 1.67095C18.1284 1.69403 18.2842 2.70678 18.451 3.92164C18.6179 5.1364 19.136 8.91456 19.6024 12.3175C20.0687 15.7205 20.6798 20.1621 20.9602 22.1877C21.2407 24.2133 21.4955 26.1247 21.5264 26.4353C21.5574 26.7458 21.5922 27 21.6035 27C21.8179 27 28.9716 26.0215 28.9995 25.9884C29.0086 25.9776 28.888 25.0407 28.7315 23.9064C28.575 22.772 28.4022 21.5125 28.3474 21.1074C28.2926 20.7023 28.203 20.0393 28.1482 19.6342C28.0935 19.2291 27.9557 18.2347 27.8419 17.4245C27.7282 16.6143 27.5905 15.6199 27.5358 15.2148C27.3422 13.7792 27.2418 13.0449 26.5023 7.65255C26.0913 4.65468 25.6856 1.71907 25.6009 1.12903C25.5162 0.538977 25.4469 0.0417383 25.4469 0.0241586C25.4469 -0.0418388 24.8408 0.0209169 22.8523 0.292862ZM0.0665604 0.35228C0.0299368 0.388225 0 6.31031 0 13.5125V26.6072H3.7422H7.48439V13.447V0.286773H3.80876C1.78707 0.286773 0.103084 0.316237 0.0665604 0.35228ZM24.0291 0.475828C23.7707 0.51138 23.5265 0.572663 23.4865 0.612045C23.4465 0.651428 23.5835 1.93121 23.7911 3.45602C23.9986 4.98094 24.2074 6.51577 24.2549 6.86687C24.3025 7.21797 24.4553 8.32284 24.5944 9.32213C24.7336 10.3214 24.8476 11.1501 24.8478 11.1636C24.848 11.177 24.7584 11.1881 24.6486 11.1881C24.5033 11.1881 24.449 11.1226 24.449 10.9473C24.449 10.8148 24.3596 10.0746 24.2504 9.30229C24.1412 8.52996 24.0038 7.54452 23.9454 7.1124C23.8868 6.68027 23.7983 6.03945 23.7485 5.68834C23.6987 5.33724 23.5653 4.36496 23.452 3.52772C23.3386 2.69047 23.1974 1.69334 23.1382 1.31199L23.0306 0.618429L21.9186 0.760638C21.307 0.838813 20.7888 0.91807 20.7669 0.936631C20.7451 0.955291 20.8237 1.67115 20.9415 2.52754C21.1959 4.37498 21.1972 4.41161 21.0107 4.41161C20.8489 4.41161 20.8274 4.31526 20.6049 2.59472C20.3786 0.84392 20.4366 0.969138 19.8821 1.0318C18.8989 1.14277 18.9346 1.11587 19.01 1.6903C19.0695 2.14275 19.1704 2.87658 19.5594 5.68834C19.6155 6.09346 19.7491 7.06575 19.8564 7.84897C19.9638 8.6322 20.1431 9.93594 20.2551 10.7462C20.3669 11.5564 20.6397 13.5452 20.861 15.1656C21.0823 16.7861 21.3979 19.0842 21.5622 20.2726C21.7266 21.4609 21.906 22.7647 21.9608 23.1698C22.0157 23.5749 22.104 24.2157 22.1571 24.5938C22.2101 24.972 22.2829 25.5626 22.319 25.9063L22.3843 26.5313L23.0923 26.4627C23.4817 26.425 23.8173 26.3774 23.8381 26.3571C23.8588 26.3368 23.8223 25.9538 23.7569 25.506C23.6914 25.0584 23.5951 24.3827 23.5428 24.0046C23.4906 23.6265 23.3588 22.6852 23.2499 21.9129C23.0126 20.23 23.0124 20.2235 23.2016 20.2235C23.2839 20.2235 23.3543 20.2346 23.3579 20.248C23.3615 20.2615 23.5539 21.6205 23.7853 23.268L24.2061 26.2634L24.4523 26.2555C24.8259 26.2433 26.4692 26.0266 26.5127 25.9838C26.5338 25.9631 26.5017 25.6199 26.4415 25.2209C26.3812 24.822 26.2962 24.2599 26.2524 23.9718C26.1897 23.5588 26.2026 23.4367 26.3131 23.3949C26.3904 23.3658 26.4708 23.359 26.4921 23.3799C26.5132 23.4008 26.608 23.9863 26.7026 24.6812L26.8747 25.9445L27.4749 25.8828C27.8051 25.8488 28.0856 25.8101 28.0984 25.7967C28.1198 25.7742 27.9506 24.5105 27.1424 18.6521C26.9747 17.4368 26.7926 16.1109 26.7378 15.7058C26.5568 14.369 26.456 13.6305 25.9536 9.9605C24.5636 -0.191315 24.6468 0.379975 24.561 0.398144C24.5268 0.405313 24.2874 0.440276 24.0291 0.475828ZM25.0838 0.974246C25.1189 1.32535 25.1911 1.92198 25.2442 2.30009C25.2972 2.6782 25.6321 5.1089 25.9885 7.70166C26.3448 10.2944 26.8643 14.0731 27.143 16.0986C27.4217 18.1242 27.6915 20.0909 27.7425 20.469C27.7935 20.8471 27.9715 22.1474 28.138 23.3587C28.3045 24.5698 28.4407 25.5974 28.4407 25.642C28.4407 25.6867 28.4906 25.7233 28.5516 25.7233C28.6226 25.7233 28.6408 25.6084 28.602 25.4041C28.5545 25.1531 27.4923 17.4614 26.9371 13.3488C26.6946 11.5522 26.6399 11.1542 26.4448 9.76408C26.3311 8.95384 26.1963 7.98156 26.1451 7.60345C26.0939 7.22534 26.0072 6.58451 25.9525 6.1794C25.398 2.07715 25.1581 0.461784 25.0949 0.404135C25.0537 0.366619 25.0487 0.623143 25.0838 0.974246ZM0.447565 13.4961C0.447565 20.5721 0.459442 23.4523 0.474011 19.8966C0.488481 16.3409 0.488481 10.5514 0.474011 7.03108C0.459442 3.51072 0.447565 6.42001 0.447565 13.4961ZM0.898127 13.4961V26.3125H1.49688H2.09563V20.9601C2.09563 15.6731 2.09802 15.6076 2.29521 15.6076C2.4924 15.6076 2.4948 15.6731 2.4948 20.9601V26.3125H3.6424H4.79001V24.5447C4.79001 22.8425 4.7974 22.777 4.98959 22.777C5.18179 22.777 5.18918 22.8425 5.18918 24.5447V26.3125H5.88772H6.58626V13.4961V0.679614H5.88772H5.18918V3.78041C5.18918 6.68076 5.1779 6.87915 5.01454 6.84821C4.85338 6.81767 4.83791 6.57901 4.81356 3.74741L4.78722 0.679614H3.6439H2.50058L2.47275 1.9809C2.4497 3.05994 2.41935 3.28219 2.29521 3.28219C2.17107 3.28219 2.14073 3.05994 2.11768 1.9809L2.08984 0.679614H1.49398H0.898127V13.4961ZM6.98543 13.4961C6.98543 21.9749 7.01916 26.3125 7.08522 26.3125C7.15129 26.3125 7.18502 21.9749 7.18502 13.4961C7.18502 5.01727 7.15129 0.679614 7.08522 0.679614C7.01916 0.679614 6.98543 5.01727 6.98543 13.4961ZM9.7796 13.4961C9.7796 24.823 9.79697 26.3125 9.92929 26.3125C10.0616 26.3125 10.079 24.823 10.079 13.4961C10.079 2.16917 10.0616 0.679614 9.92929 0.679614C9.79697 0.679614 9.7796 2.16917 9.7796 13.4961ZM10.4781 1.5144V2.34919H13.7713H17.0644V1.5144V0.679614H13.7713H10.4781V1.5144ZM17.4636 13.4961C17.4636 24.823 17.4809 26.3125 17.6133 26.3125C17.7456 26.3125 17.763 24.823 17.763 13.4961C17.763 2.16917 17.7456 0.679614 17.6133 0.679614C17.4809 0.679614 17.4636 2.16917 17.4636 13.4961ZM18.4619 1.39164C18.4621 1.45921 18.5761 2.332 18.7152 3.33129C18.8542 4.33059 19.0096 5.45755 19.0604 5.83566C19.1112 6.21377 19.2456 7.18605 19.3588 7.99629C19.4721 8.80652 19.6514 10.1103 19.7572 10.8935C19.8631 11.6767 20.29 14.7924 20.7059 17.8173C21.6634 24.7808 21.6292 24.5291 21.7606 25.5759C21.8217 26.0621 21.9126 26.5018 21.9628 26.5531C22.0936 26.687 22.0956 26.7063 21.651 23.486C21.4293 21.8807 21.2062 20.2579 21.1552 19.8797C20.9313 18.2206 20.84 17.5535 20.4567 14.7728C20.2333 13.1523 20.0149 11.5613 19.9713 11.2372C19.1159 4.87821 18.5964 1.26907 18.5363 1.26898C18.4952 1.26898 18.4617 1.32417 18.4619 1.39164ZM10.4781 12.6122V21.1074H13.7713H17.0644V12.6122V4.11698H13.7713H10.4781V12.6122ZM2.11558 5.85923C2.13923 6.30393 2.18245 6.42993 2.32016 6.45576C2.47095 6.48395 2.4948 6.40705 2.4948 5.89193C2.4948 5.3561 2.47404 5.2955 2.29022 5.2955C2.10431 5.2955 2.08834 5.34687 2.11558 5.85923ZM12.2163 7.35488C11.8005 7.52046 11.4761 8.02693 11.4761 8.51072C11.4761 8.95472 11.4928 8.97761 12.6951 10.1744L13.9142 11.388L14.9973 10.3306C15.5931 9.74885 16.1447 9.1537 16.2232 9.00785C16.6727 8.17218 15.8783 7.12516 14.9279 7.30066C14.7285 7.33749 14.415 7.49748 14.2314 7.65618L13.8975 7.94473L13.6216 7.69301C13.1726 7.28357 12.6882 7.167 12.2163 7.35488ZM2.14412 7.47342C2.11588 7.5459 2.10461 8.99637 2.11908 10.6967C2.14353 13.5601 2.1585 13.7905 2.32156 13.8214C2.48722 13.8528 2.496 13.6661 2.47125 10.639C2.45109 8.17317 2.41586 7.4138 2.32026 7.38247C2.2516 7.35998 2.17237 7.40094 2.14412 7.47342ZM21.3554 7.92263C21.3553 8.01711 21.407 8.45906 21.4702 8.90473C21.5738 9.63395 21.6865 9.84755 21.8716 9.66537C21.9165 9.62108 21.8464 8.97682 21.698 8.06995C21.6433 7.73554 21.3556 7.61189 21.3554 7.92263ZM4.79001 12.3175C4.79001 16.6224 4.793 16.6879 4.98959 16.6879C5.18618 16.6879 5.18918 16.6224 5.18918 12.3175C5.18918 8.01269 5.18618 7.94718 4.98959 7.94718C4.793 7.94718 4.79001 8.01269 4.79001 12.3175ZM21.7201 10.7216C21.752 10.9098 22.3607 15.3462 22.6531 17.5227C22.868 19.1228 22.873 19.1432 23.0484 19.1432C23.1989 19.1432 23.2081 19.0708 23.132 18.4802C23.0401 17.7672 22.6145 14.6526 22.4444 13.447C22.2981 12.4102 22.1744 11.5116 22.1029 10.9672C22.0555 10.6057 22.0013 10.5007 21.8621 10.5007C21.7313 10.5007 21.6927 10.5607 21.7201 10.7216ZM24.7816 13.2655C24.849 13.6404 25.4374 17.9334 25.5333 18.7491C25.5824 19.1672 25.6382 19.296 25.7819 19.3231C25.9906 19.3625 25.9993 19.5101 25.6415 16.9334C25.5365 16.1772 25.4 15.1828 25.3382 14.7237C25.1113 13.0407 25.1035 13.0089 24.908 12.9717C24.7482 12.9415 24.7307 12.9822 24.7816 13.2655ZM11.3763 13.4961C11.3763 13.623 11.7089 13.6434 13.7713 13.6434C15.8337 13.6434 16.1663 13.623 16.1663 13.4961C16.1663 13.3692 15.8337 13.3488 13.7713 13.3488C11.7089 13.3488 11.3763 13.3692 11.3763 13.4961ZM11.3763 14.9692C11.3763 15.0961 11.7089 15.1165 13.7713 15.1165C15.8337 15.1165 16.1663 15.0961 16.1663 14.9692C16.1663 14.8423 15.8337 14.8219 13.7713 14.8219C11.7089 14.8219 11.3763 14.8423 11.3763 14.9692ZM11.3763 16.4871C11.3763 16.6729 11.4538 16.6785 13.7449 16.6589C15.912 16.6405 16.1165 16.6242 16.1472 16.4669C16.1786 16.307 16.0128 16.2951 13.7786 16.2951C11.461 16.2951 11.3763 16.3018 11.3763 16.4871ZM4.79001 18.4557C4.79001 19.3723 4.80328 19.4378 4.98959 19.4378C5.17591 19.4378 5.18918 19.3723 5.18918 18.4557C5.18918 17.5391 5.17591 17.4736 4.98959 17.4736C4.80328 17.4736 4.79001 17.5391 4.79001 18.4557ZM11.3763 17.9646C11.3763 18.1517 11.4428 18.1611 12.7734 18.1611C14.1039 18.1611 14.1704 18.1517 14.1704 17.9646C14.1704 17.7776 14.1039 17.7682 12.7734 17.7682C11.4428 17.7682 11.3763 17.7776 11.3763 17.9646ZM25.7975 20.69C25.8845 21.3297 25.9155 21.402 26.1018 21.402C26.2399 21.402 26.2534 21.3254 26.1934 20.8864C26.1104 20.2818 26.0832 20.2235 25.884 20.2235C25.7628 20.2235 25.7462 20.3128 25.7975 20.69ZM10.4781 24.5938V26.3125H13.7713H17.0644V24.5938V22.8752H13.7713H10.4781V24.5938Z" fill="#05B4C7"/>
</svg>
