<svg width="133" height="38" viewBox="0 0 133 38" fill="none" xmlns="http://www.w3.org/2000/svg">
<path fill-rule="evenodd" clip-rule="evenodd" d="M12.0398 1.20401V2.40763L12.4617 2.44729C12.7482 2.47406 13.0185 2.39462 13.3034 2.1999L13.7231 1.91299H66.4977H119.272V2.46552C119.272 3.13817 119.206 3.22857 118.888 2.99242C118.676 2.83493 111.382 2.80943 65.3694 2.8056C36.069 2.80318 11.2226 2.80216 10.155 2.80331L8.21404 2.8056L8.21572 5.64283C8.21673 7.20337 8.25601 8.54879 8.30316 8.6327C8.57512 9.11752 9.20243 7.36953 9.20457 6.12102C9.20535 5.66515 9.21064 4.97656 9.21638 4.59083L9.22673 3.88949L63.4816 3.92354L117.737 3.95758L118.165 3.63663C118.4 3.46014 118.745 3.31567 118.932 3.31567H119.272V4.71834C119.272 5.77558 119.308 6.12102 119.417 6.12102C119.496 6.12102 120.509 7.20031 121.667 8.51959L123.773 10.9182V13.1404V15.3627L122.191 17.1592L120.608 18.9558L122.191 20.7227L123.773 22.4896L123.775 23.8372C123.777 25.3847 123.843 25.7869 124.086 25.7327C124.358 25.6725 124.774 24.2705 124.78 23.3937L124.786 22.623L126.421 20.7855L128.057 18.948L126.421 17.0917L124.786 15.2353L124.788 13.5792C124.789 12.5638 124.828 11.9922 124.889 12.1019C124.944 12.2003 126.297 13.765 127.895 15.579L130.801 18.8772L125.031 25.417L119.261 31.9568L119.295 32.8348L119.329 33.7129L119.723 33.8385L120.116 33.9641L119.61 34.0599C119.331 34.1126 95.5333 34.1611 66.725 34.1679C15.8371 34.1799 14.3387 34.1869 14.0742 34.4174L13.8017 34.6546L14.3778 34.7445C14.6947 34.7939 15.0134 34.9154 15.0859 35.0145C15.1994 35.1693 22.94 35.1946 70.0019 35.1946H124.786V32.6003C124.786 30.1547 124.773 29.9926 124.557 29.7716C124.349 29.5577 124.313 29.5549 124.151 29.7394C123.89 30.0351 123.784 30.8516 123.778 32.6124L123.773 34.1745L122.226 34.1727C120.643 34.1709 120.173 34.1081 120.173 33.8979C120.173 33.8324 120.324 33.7186 120.51 33.6453C120.803 33.5297 120.848 33.4496 120.848 33.042C120.848 32.5913 121.09 32.2968 126.751 25.8816C129.998 22.2021 132.732 19.1729 132.827 19.1502C132.922 19.1275 133 19.0691 133 19.0203C133 18.9716 131.152 16.8401 128.893 14.2838L124.786 9.63587V6.22074V2.8056H123.167C121.722 2.8056 121.519 2.83264 121.282 3.05643L121.016 3.30712L121.403 3.31146C121.645 3.31414 121.89 3.42291 122.059 3.60258C122.281 3.83861 122.456 3.88949 123.051 3.88949H123.773L123.773 6.18299L123.773 8.47636L122.306 6.82057L120.838 5.16465L120.871 2.58232L120.904 0L66.4719 0.000126473L12.0398 0.000254892V1.20401ZM12.0398 4.77674C12.0398 5.28872 11.9892 5.35031 6.01988 12.1143C2.70895 15.8659 0 18.9787 0 19.0315C0 19.0844 0.0633494 19.1279 0.140651 19.1283C0.218066 19.1287 2.05351 21.1377 4.21954 23.5927L8.15778 28.0566L8.19097 31.6256L8.22407 35.1946H9.44301C10.3469 35.1946 10.6956 35.1487 10.7919 35.0173C10.8633 34.9197 11.1524 34.8006 11.4344 34.7527C11.9319 34.6681 11.9412 34.6583 11.7509 34.4201C11.5814 34.2078 11.3969 34.1745 10.3908 34.1745H9.22673V31.7205V29.2664L10.6417 30.8699L12.0565 32.4733L12.0443 35.2367L12.0319 38H66.4398H120.848V37.0035V36.0069L120.438 35.7858C119.988 35.5424 119.412 35.6047 119.309 35.908C119.257 36.0616 111.701 36.0873 66.4256 36.0873H13.6028L13.6232 33.9271L13.6434 31.7669L11.437 29.2409L9.23055 26.7148L9.21086 24.9934C9.20005 24.0466 9.19365 23.2002 9.19646 23.1125C9.20276 22.9218 9.0431 22.9015 8.94543 23.0806C8.90717 23.1508 8.82503 23.2082 8.7628 23.2082C8.61833 23.2082 12.1515 19.1929 12.3773 19.1005C12.4961 19.0518 12.0434 18.4507 10.849 17.0711L9.15179 15.1109L9.18712 14.0083C9.22088 12.9574 9.20952 12.8959 8.94634 12.7005C8.68214 12.5042 8.66187 12.5097 8.47914 12.8257C8.35357 13.0428 8.27131 13.5122 8.23891 14.1971L8.18951 15.2384L6.57078 17.0963L4.95206 18.9542L6.72369 20.9685C7.69812 22.0762 8.43211 22.9439 8.3547 22.8966C8.24622 22.8302 8.21404 23.119 8.21404 24.157C8.21404 24.8975 8.18659 25.5034 8.15306 25.5034C8.08881 25.5034 2.25042 18.9021 2.25042 18.8294C2.25042 18.806 4.80736 15.8942 7.93263 12.3585L13.6148 5.92974L13.6149 5.25378C13.6151 4.60039 13.6018 4.57157 13.2171 4.38935C12.9982 4.28568 12.6438 4.21427 12.4294 4.23072C12.0534 4.25941 12.0398 4.27841 12.0398 4.77674ZM9.98828 17.6315L11.1396 18.9407L9.89881 20.3412L8.65817 21.7417L7.4578 20.3661L6.25753 18.9904L7.43068 17.6564C8.07588 16.9226 8.65625 16.3223 8.72039 16.3223C8.78453 16.3223 9.35502 16.9114 9.98828 17.6315ZM125.569 17.6564L126.742 18.9904L125.542 20.3661L124.342 21.7417L123.101 20.3412L121.86 18.9407L123.012 17.6315C123.645 16.9114 124.215 16.3223 124.28 16.3223C124.344 16.3223 124.924 16.9226 125.569 17.6564ZM9.1922 27.5094C9.16362 27.6335 9.13841 27.5628 9.13616 27.3524C9.13391 27.142 9.1572 27.0405 9.18803 27.1268C9.21886 27.2132 9.22078 27.3853 9.1922 27.5094Z" fill="#05B4C7"/>
</svg>
