<svg width="31" height="36" viewBox="0 0 31 36" fill="none" xmlns="http://www.w3.org/2000/svg">
<path d="M8.42655 12.429C8.77535 8.78339 11.8378 6 15.5 6V6C19.1622 6 22.2246 8.78338 22.5735 12.429L23.0237 17.1344C23.1026 17.9591 23.142 18.3715 23.2229 18.7745C23.3154 19.2353 23.4483 19.6871 23.6201 20.1246C23.7704 20.5072 23.9605 20.8752 24.3408 21.6112L25.6173 24.082C26.2918 25.3874 26.6291 26.0402 26.3369 26.5201C26.0446 27 25.3099 27 23.8405 27H7.15951C5.69008 27 4.95537 27 4.66314 26.5201C4.37091 26.0402 4.70816 25.3874 5.38265 24.082L6.65919 21.6112C7.03947 20.8752 7.22961 20.5072 7.37988 20.1246C7.55168 19.6871 7.6846 19.2353 7.77708 18.7745C7.85798 18.3715 7.89743 17.9591 7.97634 17.1344L8.42655 12.429Z" stroke="#00EAFD"/>
<path d="M11.757 27.6088C11.9778 28.7251 12.4643 29.7116 13.141 30.4151C13.8178 31.1187 14.647 31.5 15.5 31.5C16.353 31.5 17.1822 31.1187 17.8589 30.4151C18.5357 29.7116 19.0222 28.7251 19.243 27.6088" stroke="#00EAFD" stroke-linecap="round"/>
</svg>
