<svg width="119" height="121" viewBox="0 0 119 121" fill="none" xmlns="http://www.w3.org/2000/svg">
<g filter="url(#filter0_d_124_5707)">
<mask id="path-1-outside-1_124_5707" maskUnits="userSpaceOnUse" x="11.8484" y="38.1508" width="70.1581" height="55.6338" fill="black">
<rect fill="white" x="11.8484" y="38.1508" width="70.1581" height="55.6338"/>
<path d="M37.0525 83.5559C38.3773 83.4384 39.4313 83.6889 40.2144 84.3073C41.0341 84.882 41.4956 85.7514 41.5988 86.9157C41.6273 87.2368 41.6156 87.5616 41.5638 87.8898C41.5557 88.2547 41.5222 88.5612 41.4633 88.8091C40.9342 88.7751 40.345 88.7465 39.6956 88.7231C39.0497 88.7399 38.2851 88.7875 37.4019 88.8658C36.1975 88.9726 34.9601 89.1632 33.6897 89.4377C32.4594 89.7086 31.2492 89.9778 30.0591 90.2452C28.8725 90.5527 27.7243 90.8366 26.6144 91.0968C25.5046 91.3571 24.4679 91.5299 23.5044 91.6153C21.9387 91.7542 20.5672 91.5723 19.3897 91.0698C18.2122 90.5673 17.3765 89.8119 16.8825 88.8037C17.0288 88.6289 17.3959 88.4345 17.9839 88.2205C18.6084 87.9629 19.3534 87.6945 20.2188 87.4155C21.1208 87.0927 22.1249 86.7811 23.2312 86.4807C24.3777 86.1768 25.5442 85.871 26.7307 85.5635C27.0792 83.1049 27.4825 80.5808 27.9408 77.9911C28.4356 75.3577 28.9322 72.7444 29.4305 70.1511C29.9655 67.5141 30.5241 64.9155 31.1063 62.3553C31.6885 59.7951 32.2779 57.3151 32.8743 54.9155C31.5663 55.6788 30.2177 56.6683 28.8284 57.884C27.4757 59.0559 26.3184 60.1498 25.3565 61.1657C24.8935 60.964 24.6246 60.4416 24.5499 59.5986C25.8573 57.4596 27.2044 55.5396 28.5911 53.8386C29.9778 52.1377 31.5162 50.3221 33.2063 48.392C33.6087 47.9112 34.0755 47.2427 34.6064 46.3864C35.1776 45.5265 35.6484 44.6755 36.0188 43.8335C36.5951 43.9442 37.3136 44.0626 38.1745 44.1885C39.0318 44.2744 39.8744 44.4222 40.7022 44.632C41.5666 44.7982 42.336 45.0334 43.0104 45.3378C43.7249 45.6386 44.2239 46.0192 44.5075 46.4795C44.0248 46.9674 43.584 47.4718 43.1851 47.9927C42.8263 48.5101 42.5113 49.064 42.24 49.6545C41.5652 51.171 40.8015 53.282 39.949 55.9876C39.133 58.6494 38.3 61.5758 37.45 64.7667C36.6366 67.9139 35.8156 71.2034 34.987 74.6352C34.1949 78.0233 33.4854 81.2017 32.8585 84.1705C33.6945 84.0155 34.4519 83.8876 35.1308 83.7869C35.8499 83.6827 36.4904 83.6057 37.0525 83.5559ZM75.3821 71.9638C75.5814 74.212 75.2812 76.3022 74.4815 78.2343C73.7218 80.1629 72.6398 81.8773 71.2353 83.3775C69.8673 84.834 68.272 86.0072 66.4492 86.8972C64.63 87.8272 62.797 88.3742 60.9503 88.5379C59.1839 88.6945 57.5018 88.6616 55.9041 88.4391C54.3064 88.2166 52.8697 87.7573 51.5942 87.0612C50.3587 86.3615 49.3411 85.3795 48.5411 84.1152C47.7376 82.8108 47.2486 81.175 47.0742 79.2078C46.914 77.4012 47.0893 75.7268 47.5999 74.1844C48.1507 72.6385 48.953 71.1917 50.0069 69.844C51.1009 68.4926 52.4063 67.244 53.9232 66.0979C55.4766 64.9082 57.1794 63.8064 59.0317 62.7925C57.5127 61.6324 56.1654 60.3559 54.9899 58.9631C53.851 57.5265 53.1926 55.8046 53.0146 53.7973C52.8651 52.1112 53.1496 50.5282 53.868 49.0483C54.6231 47.5248 55.6168 46.1824 56.849 45.0211C58.1214 43.8563 59.5722 42.878 61.2014 42.0861C62.827 41.2541 64.4539 40.6648 66.0821 40.3181C69.1785 41.0147 71.7377 42.0421 73.7598 43.4003C75.8221 44.755 76.9386 46.3958 77.1095 48.3228C77.2021 49.3666 76.9935 50.4371 76.4839 51.5343C75.9707 52.5913 75.2349 53.6479 74.2765 54.7039C73.3548 55.7163 72.2689 56.7027 71.0188 57.6632C69.8053 58.58 68.5446 59.4201 67.2366 60.1835C68.1544 60.9518 69.074 61.7402 69.9954 62.5486C70.9132 63.317 71.7377 64.1745 72.4691 65.1212C73.2405 66.0643 73.8786 67.1002 74.3833 68.2288C74.9246 69.3137 75.2575 70.5587 75.3821 71.9638ZM53.5093 79.9118C53.609 81.0358 53.8568 82.0052 54.2527 82.8198C54.6451 83.5942 55.1271 84.2393 55.6988 84.7551C56.3072 85.2271 56.965 85.5734 57.6724 85.7939C58.4164 85.9707 59.1497 86.0271 59.8723 85.963C60.876 85.874 61.8783 85.5424 62.8794 84.9681C63.8769 84.3536 64.7545 83.5273 65.5121 82.489C66.2698 81.4508 66.8472 80.206 67.2445 78.7546C67.6418 77.3032 67.7604 75.6742 67.6002 73.8677C67.4294 71.9407 66.82 70.3156 65.772 68.9923C64.7205 67.629 63.4973 66.382 62.1022 65.2513C60.3882 66.4553 58.9405 67.6964 57.7591 68.9745C56.6178 70.2491 55.7191 71.5224 55.0632 72.7944C54.4036 74.0263 53.9466 75.2604 53.6921 76.4968C53.4741 77.6895 53.4132 78.8278 53.5093 79.9118ZM71.567 47.4183C71.4531 46.1337 71.0412 45.1384 70.3312 44.4326C69.6614 43.7232 68.8577 43.3292 67.9201 43.2505C67.0913 43.4858 66.2365 43.8853 65.3559 44.4489C64.4717 44.9724 63.6584 45.611 62.916 46.3646C62.2137 47.1147 61.639 47.9345 61.1919 48.8238C60.7813 49.6694 60.6134 50.5138 60.6882 51.3568C60.8128 52.7619 61.2461 53.9981 61.9881 55.0652C62.7301 56.1323 63.6291 57.1451 64.6851 58.1034C65.4052 57.554 66.1712 56.8387 66.9833 55.9575C67.8354 55.0727 68.6019 54.1348 69.2828 53.1438C70.0039 52.1493 70.5844 51.1672 71.0244 50.1976C71.4609 49.1878 71.6418 48.2614 71.567 47.4183Z"/>
</mask>
<path d="M40.2144 84.3073L39.778 84.8599L39.7937 84.8723L39.8102 84.8839L40.2144 84.3073ZM41.5638 87.8898L40.8683 87.7801L40.8609 87.8268L40.8598 87.8742L41.5638 87.8898ZM41.4633 88.8091L41.4181 89.5119L42.011 89.55L42.1483 88.972L41.4633 88.8091ZM39.6956 88.7231L39.7208 88.0194L39.699 88.0186L39.6772 88.0192L39.6956 88.7231ZM33.6897 89.4377L33.541 88.7494L33.5383 88.75L33.6897 89.4377ZM30.0591 90.2452L29.9047 89.5581L29.8935 89.5606L29.8824 89.5635L30.0591 90.2452ZM26.6144 91.0968L26.7752 91.7824L26.7752 91.7824L26.6144 91.0968ZM19.3897 91.0698L19.6661 90.4222L19.6661 90.4222L19.3897 91.0698ZM16.8825 88.8037L16.3425 88.3517L16.0488 88.7026L16.2501 89.1136L16.8825 88.8037ZM17.9839 88.2205L18.2247 88.8822L18.2387 88.8772L18.2525 88.8715L17.9839 88.2205ZM20.2188 87.4155L20.4349 88.0856L20.4455 88.0822L20.456 88.0785L20.2188 87.4155ZM23.2312 86.4807L23.0508 85.8001L23.0467 85.8012L23.2312 86.4807ZM26.7307 85.5635L26.9074 86.2452L27.362 86.1273L27.4279 85.6623L26.7307 85.5635ZM27.9408 77.9911L27.2487 77.8611L27.2474 77.8684L27.9408 77.9911ZM29.4305 70.1511L28.7404 70.0111L28.739 70.0182L29.4305 70.1511ZM31.1063 62.3553L31.7929 62.5114L31.7929 62.5114L31.1063 62.3553ZM32.8743 54.9155L33.5577 55.0853L33.9601 53.4665L32.5194 54.3073L32.8743 54.9155ZM28.8284 57.884L29.2895 58.4162L29.2921 58.4139L28.8284 57.884ZM25.3565 61.1657L25.0752 61.8113L25.5281 62.0086L25.8678 61.6499L25.3565 61.1657ZM24.5499 59.5986L23.9491 59.2313L23.828 59.4295L23.8485 59.6608L24.5499 59.5986ZM28.5911 53.8386L29.1369 54.2836L29.1369 54.2836L28.5911 53.8386ZM33.2063 48.392L33.7361 48.8559L33.7412 48.85L33.7462 48.844L33.2063 48.392ZM34.6064 46.3864L34.0199 45.9968L34.0138 46.0059L34.008 46.0153L34.6064 46.3864ZM36.0188 43.8335L36.1517 43.1419L35.6003 43.036L35.3742 43.5499L36.0188 43.8335ZM38.1745 44.1885L38.0725 44.8853L38.0884 44.8876L38.1043 44.8892L38.1745 44.1885ZM40.7022 44.632L40.5292 45.3146L40.5491 45.3197L40.5693 45.3235L40.7022 44.632ZM43.0104 45.3378L42.7207 45.9796L42.7289 45.9833L42.7372 45.9868L43.0104 45.3378ZM44.5075 46.4795L45.0081 46.9748L45.3973 46.5814L45.1071 46.1102L44.5075 46.4795ZM43.1851 47.9927L42.626 47.5646L42.6159 47.5778L42.6064 47.5915L43.1851 47.9927ZM42.24 49.6545L41.6001 49.3605L41.5966 49.3683L42.24 49.6545ZM39.949 55.9876L39.2774 55.7759L39.2757 55.7812L39.949 55.9876ZM37.45 64.7667L36.7696 64.5855L36.7683 64.5905L37.45 64.7667ZM34.987 74.6352L34.3025 74.4699L34.3013 74.4749L34.987 74.6352ZM32.8585 84.1705L32.1696 84.025L31.9521 85.0548L32.9869 84.8629L32.8585 84.1705ZM35.1308 83.7869L35.0298 83.0901L35.0275 83.0904L35.1308 83.7869ZM37.1147 84.2573C38.3214 84.1503 39.1777 84.3859 39.778 84.8599L40.6508 83.7546C39.6848 82.9919 38.4331 82.7265 36.9903 82.8545L37.1147 84.2573ZM39.8102 84.8839C40.4305 85.3188 40.8091 85.982 40.8974 86.9779L42.3002 86.8535C42.1821 85.5208 41.6377 84.4452 40.6186 83.7307L39.8102 84.8839ZM40.8974 86.9779C40.9207 87.2399 40.9114 87.5069 40.8683 87.7801L42.2594 87.9996C42.3199 87.6162 42.334 87.2337 42.3002 86.8535L40.8974 86.9779ZM40.8598 87.8742C40.8524 88.2088 40.8219 88.4623 40.7782 88.6463L42.1483 88.972C42.2225 88.66 42.259 88.3006 42.2678 87.9055L40.8598 87.8742ZM41.5084 88.1064C40.9715 88.0719 40.3755 88.0429 39.7208 88.0194L39.6703 89.4268C40.3145 89.45 40.897 89.4783 41.4181 89.5119L41.5084 88.1064ZM39.6772 88.0192C39.0125 88.0365 38.2326 88.0852 37.3397 88.1644L37.4641 89.5672C38.3377 89.4897 39.0869 89.4434 39.7139 89.427L39.6772 88.0192ZM37.3397 88.1644C36.1042 88.2739 34.8379 88.4692 33.541 88.7494L33.8384 90.126C35.0824 89.8572 36.2909 89.6712 37.4641 89.5672L37.3397 88.1644ZM33.5383 88.75C32.307 89.0212 31.0959 89.2905 29.9047 89.5581L30.2134 90.9322C31.4026 90.6651 32.6118 90.3961 33.8411 90.1254L33.5383 88.75ZM29.8824 89.5635C28.7007 89.8698 27.5578 90.1523 26.4537 90.4113L26.7752 91.7824C27.8907 91.5208 29.0443 91.2356 30.2357 90.9268L29.8824 89.5635ZM26.4537 90.4113C25.3707 90.6652 24.3673 90.8319 23.4422 90.9139L23.5666 92.3168C24.5685 92.2279 25.6385 92.0489 26.7752 91.7824L26.4537 90.4113ZM23.4422 90.9139C21.9661 91.0448 20.7152 90.8699 19.6661 90.4222L19.1133 91.7175C20.4191 92.2748 21.9114 92.4635 23.5666 92.3168L23.4422 90.9139ZM19.6661 90.4222C18.6207 89.976 17.9241 89.3293 17.5148 88.4939L16.2501 89.1136C16.8288 90.2946 17.8037 91.1585 19.1133 91.7175L19.6661 90.4222ZM17.4224 89.2557C17.4072 89.2739 17.4388 89.2329 17.5971 89.1491C17.7416 89.0726 17.9476 88.9831 18.2247 88.8822L17.7431 87.5588C17.4322 87.672 17.1607 87.7866 16.9381 87.9045C16.7292 88.0151 16.504 88.1588 16.3425 88.3517L17.4224 89.2557ZM18.2525 88.8715C18.8551 88.6228 19.5816 88.3608 20.4349 88.0856L20.0027 86.7453C19.1252 87.0282 18.3618 87.3029 17.7153 87.5696L18.2525 88.8715ZM20.456 88.0785C21.3377 87.763 22.3239 87.4568 23.4158 87.1603L23.0467 85.8012C21.926 86.1055 20.9039 86.4224 19.9816 86.7525L20.456 88.0785ZM23.4117 87.1614C24.5568 86.8578 25.722 86.5524 26.9074 86.2452L26.5541 84.8819C25.3663 85.1897 24.1985 85.4958 23.0508 85.8001L23.4117 87.1614ZM27.4279 85.6623C27.7752 83.2122 28.1773 80.696 28.6342 78.1138L27.2474 77.8684C26.7878 80.4656 26.3832 82.9977 26.0335 85.4647L27.4279 85.6623ZM28.6328 78.1211C29.1275 75.4887 29.6239 72.8763 30.122 70.284L28.739 70.0182C28.2405 72.6124 27.7437 75.2267 27.2487 77.8611L28.6328 78.1211ZM30.1206 70.2911C30.6545 67.6594 31.212 65.0662 31.7929 62.5114L30.4197 62.1992C29.8362 64.7649 29.2765 67.3689 28.7404 70.0111L30.1206 70.2911ZM31.7929 62.5114C32.3742 59.9555 32.9624 57.4802 33.5577 55.0853L32.191 54.7456C31.5933 57.1501 31.0029 59.6346 30.4197 62.1992L31.7929 62.5114ZM32.5194 54.3073C31.1654 55.0975 29.7806 56.1151 28.3647 57.354L29.2921 58.4139C30.6547 57.2216 31.9672 56.2602 33.2293 55.5236L32.5194 54.3073ZM28.3673 57.3518C27.0016 58.5349 25.8267 59.645 24.8451 60.6816L25.8678 61.6499C26.8101 60.6547 27.9497 59.5769 29.2895 58.4162L28.3673 57.3518ZM25.6377 60.5202C25.5408 60.478 25.3194 60.3043 25.2513 59.5364L23.8485 59.6608C23.9299 60.579 24.2462 61.4501 25.0752 61.8113L25.6377 60.5202ZM25.1507 59.9658C26.4438 57.8502 27.7728 55.9567 29.1369 54.2836L28.0453 53.3937C26.6359 55.1225 25.2708 57.069 23.9491 59.2313L25.1507 59.9658ZM29.1369 54.2836C30.5176 52.59 32.0505 50.7808 33.7361 48.8559L32.6765 47.9281C30.9819 49.8635 29.438 51.6854 28.0453 53.3937L29.1369 54.2836ZM33.7462 48.844C34.1789 48.3271 34.6655 47.6273 35.2049 46.7575L34.008 46.0153C33.4854 46.858 33.0386 47.4953 32.6663 47.94L33.7462 48.844ZM35.193 46.776C35.7838 45.8865 36.2748 45.0002 36.6633 44.117L35.3742 43.5499C35.0219 44.3509 34.5713 45.1665 34.0199 45.9968L35.193 46.776ZM35.8859 44.525C36.476 44.6384 37.2057 44.7584 38.0725 44.8853L38.2764 43.4918C37.4215 43.3667 36.7141 43.25 36.1517 43.1419L35.8859 44.525ZM38.1043 44.8892C38.9273 44.9716 39.7354 45.1134 40.5292 45.3146L40.8752 43.9495C40.0133 43.731 39.1363 43.5772 38.2446 43.4879L38.1043 44.8892ZM40.5693 45.3235C41.3896 45.4812 42.1049 45.7016 42.7207 45.9796L43.3 44.6959C42.5671 44.3652 41.7437 44.1151 40.8351 43.9405L40.5693 45.3235ZM42.7372 45.9868C43.3728 46.2544 43.7282 46.557 43.908 46.8489L45.1071 46.1102C44.7197 45.4813 44.0769 45.0228 43.2836 44.6888L42.7372 45.9868ZM44.007 45.9843C43.5043 46.4923 43.0438 47.019 42.626 47.5646L43.7442 48.4208C44.1242 47.9246 44.5453 47.4425 45.0081 46.9748L44.007 45.9843ZM42.6064 47.5915C42.2234 48.1438 41.8881 48.7337 41.6001 49.3605L42.8798 49.9485C43.1345 49.3943 43.4292 48.8764 43.7637 48.394L42.6064 47.5915ZM41.5966 49.3683C40.9061 50.9201 40.1332 53.06 39.2774 55.7759L40.6206 56.1992C41.4699 53.5039 42.2243 51.4218 42.8833 49.9408L41.5966 49.3683ZM39.2757 55.7812C38.4568 58.4528 37.6214 61.3877 36.7696 64.5855L38.1305 64.948C38.9786 61.764 39.8092 58.8461 40.6222 56.1939L39.2757 55.7812ZM36.7683 64.5905C35.9538 67.7417 35.1319 71.0348 34.3025 74.4699L35.6715 74.8005C36.4993 71.372 37.3194 68.0862 38.1318 64.9429L36.7683 64.5905ZM34.3013 74.4749C33.5083 77.8672 32.7976 81.0506 32.1696 84.025L33.5475 84.316C34.1732 81.3528 34.8816 78.1793 35.6726 74.7955L34.3013 74.4749ZM32.9869 84.8629C33.8164 84.709 34.5653 84.5827 35.2341 84.4835L35.0275 83.0904C34.3385 83.1926 33.5725 83.3219 32.7301 83.4781L32.9869 84.8629ZM35.2318 84.4838C35.9414 84.381 36.5687 84.3057 37.1147 84.2573L36.9903 82.8545C36.4122 82.9057 35.7583 82.9845 35.0298 83.0901L35.2318 84.4838ZM74.4815 78.2343L73.8307 77.9649L73.8263 77.9762L74.4815 78.2343ZM71.2353 83.3775L71.7486 83.8596L71.7493 83.8588L71.2353 83.3775ZM66.4492 86.8972L66.1402 86.2643L66.1287 86.2702L66.4492 86.8972ZM55.9041 88.4391L55.807 89.1365L55.807 89.1365L55.9041 88.4391ZM51.5942 87.0612L51.2471 87.674L51.2568 87.6793L51.5942 87.0612ZM48.5411 84.1152L47.9415 84.4845L47.9461 84.4917L48.5411 84.1152ZM47.5999 74.1844L46.9366 73.9481L46.9339 73.9556L46.9314 73.9631L47.5999 74.1844ZM50.0069 69.844L49.4595 69.4008L49.4522 69.4102L50.0069 69.844ZM53.9232 66.0979L54.3477 66.6598L54.3513 66.657L53.9232 66.0979ZM59.0317 62.7925L59.3698 63.4101L60.3198 62.8901L59.4591 62.2328L59.0317 62.7925ZM54.9899 58.9631L54.4381 59.4005L54.4448 59.409L54.4518 59.4172L54.9899 58.9631ZM53.868 49.0483L53.2371 48.7356L53.2346 48.7408L53.868 49.0483ZM56.849 45.0211L56.3735 44.5017L56.3661 44.5086L56.849 45.0211ZM61.2014 42.0861L61.5092 42.7194L61.5158 42.7163L61.5222 42.713L61.2014 42.0861ZM66.0821 40.3181L66.2366 39.6311L66.0862 39.5973L65.9354 39.6294L66.0821 40.3181ZM73.7598 43.4003L73.3672 43.9849L73.3732 43.9888L73.7598 43.4003ZM76.4839 51.5343L77.1174 51.8419L77.1225 51.8309L76.4839 51.5343ZM74.2765 54.7039L74.7972 55.178L74.798 55.1771L74.2765 54.7039ZM71.0188 57.6632L71.4433 58.2251L71.4478 58.2216L71.0188 57.6632ZM67.2366 60.1835L66.8816 59.5753L66.0163 60.0803L66.7846 60.7234L67.2366 60.1835ZM69.9954 62.5486L69.5309 63.0779L69.5371 63.0833L69.5434 63.0886L69.9954 62.5486ZM72.4691 65.1212L71.9118 65.5516L71.9178 65.5594L71.924 65.567L72.4691 65.1212ZM74.3833 68.2288L73.7405 68.5162L73.7466 68.5298L73.7532 68.5432L74.3833 68.2288ZM54.2527 82.8198L53.6193 83.1276L53.6246 83.138L54.2527 82.8198ZM55.6988 84.7551L55.2272 85.2779L55.2465 85.2954L55.2671 85.3114L55.6988 84.7551ZM57.6724 85.7939L57.4629 86.4662L57.486 86.4734L57.5096 86.479L57.6724 85.7939ZM62.8794 84.9681L63.2298 85.5789L63.2393 85.5734L63.2487 85.5676L62.8794 84.9681ZM65.5121 82.489L66.0809 82.9041L66.0809 82.9041L65.5121 82.489ZM67.2445 78.7546L67.9237 78.9405L67.9237 78.9405L67.2445 78.7546ZM65.772 68.9923L65.2144 69.4224L65.22 69.4295L65.772 68.9923ZM62.1022 65.2513L62.5456 64.7043L62.1326 64.3695L61.6975 64.6751L62.1022 65.2513ZM57.7591 68.9745L57.2419 68.4965L57.2345 68.5048L57.7591 68.9745ZM55.0632 72.7944L55.684 73.1268L55.689 73.1171L55.0632 72.7944ZM53.6921 76.4968L53.0024 76.3548L53.0008 76.3625L52.9994 76.3702L53.6921 76.4968ZM70.3312 44.4326L69.8192 44.916L69.8269 44.9241L69.8347 44.932L70.3312 44.4326ZM67.9201 43.2505L67.979 42.5488L67.8512 42.538L67.7278 42.5731L67.9201 43.2505ZM65.3559 44.4489L65.7146 45.0548L65.7252 45.0486L65.7355 45.042L65.3559 44.4489ZM62.916 46.3646L62.4143 45.8705L62.4081 45.8768L62.4019 45.8834L62.916 46.3646ZM61.1919 48.8238L60.5627 48.5075L60.5584 48.5163L61.1919 48.8238ZM61.9881 55.0652L61.4099 55.4672L61.4099 55.4672L61.9881 55.0652ZM64.6851 58.1034L64.2119 58.6249L64.6461 59.0189L65.1123 58.6632L64.6851 58.1034ZM66.9833 55.9575L66.4761 55.469L66.4707 55.4746L66.4654 55.4803L66.9833 55.9575ZM69.2828 53.1438L68.7127 52.7305L68.7075 52.7377L68.7025 52.7451L69.2828 53.1438ZM71.0244 50.1976L71.6658 50.4886L71.6708 50.477L71.0244 50.1976ZM74.6807 72.026C74.8708 74.1704 74.5838 76.1458 73.8308 77.965L75.1321 78.5036C75.9786 76.4585 76.292 74.2536 76.0835 71.9017L74.6807 72.026ZM73.8263 77.9762C73.0989 79.8229 72.0645 81.4614 70.7212 82.8963L71.7493 83.8588C73.2151 82.2931 74.3448 80.5028 75.1366 78.4924L73.8263 77.9762ZM70.722 82.8954C69.4134 84.2888 67.8876 85.4113 66.1403 86.2644L66.7581 87.5299C68.6564 86.6032 70.3213 85.3792 71.7486 83.8596L70.722 82.8954ZM66.1287 86.2702C64.3817 87.1633 62.636 87.6815 60.8881 87.8365L61.0125 89.2393C62.9581 89.0668 64.8782 88.4912 66.7697 87.5241L66.1287 86.2702ZM60.8881 87.8365C59.1696 87.9889 57.5412 87.9561 56.0012 87.7417L55.807 89.1365C57.4624 89.3671 59.1982 89.4002 61.0125 89.2393L60.8881 87.8365ZM56.0012 87.7417C54.4785 87.5296 53.1247 87.0942 51.9315 86.4431L51.2568 87.6793C52.6148 88.4204 54.1343 88.9036 55.807 89.1365L56.0012 87.7417ZM51.9412 86.4485C50.8121 85.809 49.8776 84.9105 49.1362 83.7387L47.9461 84.4917C48.8045 85.8485 49.9054 86.914 51.2472 87.6739L51.9412 86.4485ZM49.1407 83.7459C48.4086 82.5574 47.9431 81.0343 47.7756 79.1456L46.3728 79.27C46.5542 81.3156 47.0666 83.0641 47.9416 84.4845L49.1407 83.7459ZM47.7756 79.1456C47.623 77.4237 47.7913 75.8468 48.2684 74.4058L46.9314 73.9631C46.3872 75.6068 46.2051 77.3788 46.3728 79.27L47.7756 79.1456ZM48.2632 74.4208C48.7875 72.9491 49.5523 71.5685 50.5616 70.2777L49.4522 69.4102C48.3537 70.8149 47.5138 72.328 46.9366 73.9481L48.2632 74.4208ZM50.5542 70.287C51.6091 68.9841 52.8722 67.7745 54.3477 66.6598L53.4987 65.5361C51.9405 66.7134 50.5928 68.0012 49.4596 69.4009L50.5542 70.287ZM54.3513 66.657C55.8742 65.4907 57.5466 64.4082 59.3698 63.4101L58.6936 62.1748C56.8123 63.2046 55.0791 64.3257 53.495 65.5389L54.3513 66.657ZM59.4591 62.2328C57.9787 61.1023 56.669 59.8608 55.5281 58.5089L54.4518 59.4172C55.6618 60.851 57.0466 62.1625 58.6043 63.3521L59.4591 62.2328ZM55.5417 58.5256C54.4967 57.2075 53.8831 55.6195 53.716 53.7351L52.3132 53.8595C52.5021 55.9897 53.2054 57.8456 54.4381 59.4005L55.5417 58.5256ZM53.716 53.7351C53.5774 52.1722 53.8404 50.7175 54.5015 49.3559L53.2346 48.7408C52.4587 50.3389 52.1527 52.0501 52.3132 53.8595L53.716 53.7351ZM54.499 49.361C55.2171 47.912 56.1608 46.6373 57.332 45.5336L56.3661 44.5086C55.0728 45.7274 54.0291 47.1376 53.2371 48.7357L54.499 49.361ZM57.3245 45.5405C58.5444 44.4238 59.9381 43.4831 61.5092 42.7194L60.8936 41.4528C59.2064 42.2728 57.6985 43.2888 56.3736 44.5017L57.3245 45.5405ZM61.5222 42.713C63.098 41.9065 64.6666 41.3395 66.2287 41.0069L65.9354 39.6294C64.2412 39.9902 62.556 40.6018 60.8806 41.4593L61.5222 42.713ZM65.9276 41.0051C68.9634 41.688 71.4356 42.6874 73.3672 43.9848L74.1525 42.8158C72.0398 41.3967 69.3936 40.3413 66.2366 39.6311L65.9276 41.0051ZM73.3732 43.9888C75.3097 45.2609 76.2613 46.7294 76.4081 48.385L77.8109 48.2606C77.616 46.0622 76.3345 44.2491 74.1464 42.8117L73.3732 43.9888ZM76.4081 48.385C76.4881 49.2878 76.311 50.235 75.8452 51.2376L77.1225 51.8309C77.676 50.6392 77.916 49.4454 77.8109 48.2606L76.4081 48.385ZM75.8504 51.2267C75.3719 52.2123 74.6777 53.2141 73.7551 54.2307L74.798 55.1771C75.7921 54.0817 76.5694 52.9704 77.1173 51.8418L75.8504 51.2267ZM73.7559 54.2298C72.8659 55.2072 71.8117 56.1659 70.5898 57.1049L71.4478 58.2216C72.726 57.2394 73.8436 56.2253 74.7972 55.178L73.7559 54.2298ZM70.5943 57.1014C69.403 58.0015 68.1655 58.8261 66.8816 59.5753L67.5915 60.7917C68.9237 60.0142 70.2077 59.1586 71.4433 58.2251L70.5943 57.1014ZM66.7846 60.7234C67.6981 61.4882 68.6136 62.273 69.5309 63.0779L70.4598 62.0194C69.5344 61.2074 68.6107 60.4154 67.6886 59.6435L66.7846 60.7234ZM69.5434 63.0886C70.4223 63.8243 71.2115 64.6451 71.9118 65.5516L73.0263 64.6907C72.2639 63.7038 71.4041 62.8096 70.4474 62.0087L69.5434 63.0886ZM71.924 65.567C72.6555 66.4612 73.2609 67.4437 73.7405 68.5162L75.0261 67.9413C74.4964 66.7567 73.8256 65.6674 73.0141 64.6753L71.924 65.567ZM73.7532 68.5432C74.2493 69.5375 74.5626 70.6946 74.6807 72.026L76.0835 71.9017C75.9524 70.4229 75.5999 69.09 75.0134 67.9144L73.7532 68.5432ZM52.8079 79.974C52.9134 81.1632 53.1781 82.2196 53.6194 83.1276L54.886 82.512C54.5355 81.7908 54.3046 80.9085 54.2107 79.8496L52.8079 79.974ZM53.6246 83.138C54.0511 83.9799 54.5835 84.6972 55.2272 85.2779L56.1705 84.2322C55.6707 83.7814 55.239 83.2085 54.8809 82.5015L53.6246 83.138ZM55.2671 85.3114C55.9393 85.833 56.6719 86.2196 57.4629 86.4662L57.882 85.1217C57.2581 84.9272 56.675 84.6213 56.1305 84.1988L55.2671 85.3114ZM57.5096 86.479C58.3232 86.6724 59.1325 86.7355 59.9345 86.6644L59.8101 85.2616C59.1669 85.3186 58.5096 85.2691 57.8352 85.1088L57.5096 86.479ZM59.9345 86.6644C61.0534 86.5652 62.1532 86.1965 63.2298 85.5789L62.529 84.3573C61.6035 84.8883 60.6985 85.1828 59.8101 85.2616L59.9345 86.6644ZM63.2487 85.5676C64.3313 84.9008 65.2747 84.009 66.0809 82.9041L64.9433 82.074C64.2343 83.0456 63.4225 83.8065 62.5101 84.3685L63.2487 85.5676ZM66.0809 82.9041C66.8968 81.7861 67.5076 80.4605 67.9237 78.9405L66.5654 78.5687C66.1868 79.9514 65.6427 81.1155 64.9433 82.074L66.0809 82.9041ZM67.9237 78.9405C68.3471 77.3937 68.4677 75.6788 68.3016 73.8055L66.8988 73.9299C67.0531 75.6697 66.9366 77.2127 66.5654 78.5687L67.9237 78.9405ZM68.3016 73.8055C68.1205 71.7622 67.4693 70.0012 66.324 68.5552L65.22 69.4295C66.1706 70.6299 66.7383 72.1192 66.8988 73.9299L68.3016 73.8055ZM66.3296 68.5623C65.2433 67.1538 63.9813 65.8679 62.5456 64.7043L61.6589 65.7984C63.0132 66.8961 64.1977 68.1041 65.2144 69.4224L66.3296 68.5623ZM61.6975 64.6751C59.9506 65.9022 58.4633 67.1753 57.242 68.4965L58.2762 69.4525C59.4177 68.2175 60.8259 67.0084 62.507 65.8276L61.6975 64.6751ZM57.2345 68.5048C56.0608 69.8155 55.1254 71.1374 54.4373 72.4716L55.689 73.1171C56.3129 71.9074 57.1747 70.6827 58.2837 69.4442L57.2345 68.5048ZM54.4424 72.462C53.7542 73.7474 53.2719 75.0453 53.0024 76.3548L54.3818 76.6388C54.6212 75.4755 55.053 74.3051 55.6839 73.1268L54.4424 72.462ZM52.9994 76.3702C52.7713 77.6182 52.7056 78.8203 52.8079 79.974L54.2107 79.8496C54.1208 78.8354 54.1769 77.7608 54.3848 76.6234L52.9994 76.3702ZM72.2684 47.3561C72.1442 45.9547 71.6858 44.7864 70.8277 43.9332L69.8347 44.932C70.3965 45.4904 70.762 46.3126 70.8656 47.4805L72.2684 47.3561ZM70.8432 43.9492C70.0592 43.1189 69.0962 42.6426 67.979 42.5488L67.8612 43.9522C68.6191 44.0158 69.2636 44.3276 69.8192 44.916L70.8432 43.9492ZM67.7278 42.5731C66.8204 42.8307 65.903 43.2627 64.9763 43.8558L65.7355 45.042C66.5701 44.5078 67.3622 44.1409 68.1124 43.9279L67.7278 42.5731ZM64.9972 43.843C64.0592 44.3983 63.1981 45.0748 62.4143 45.8705L63.4176 46.8588C64.1187 46.1471 64.8842 45.5465 65.7146 45.0548L64.9972 43.843ZM62.4019 45.8834C61.6551 46.6811 61.0412 47.556 60.5628 48.5075L61.821 49.1401C62.2369 48.3129 62.7723 47.5484 63.43 46.8459L62.4019 45.8834ZM60.5584 48.5163C60.0985 49.4636 59.8995 50.4351 59.9868 51.419L61.3896 51.2946C61.3273 50.5924 61.4642 49.8752 61.8253 49.1313L60.5584 48.5163ZM59.9868 51.419C60.1212 52.9355 60.5921 54.291 61.4099 55.4672L62.5662 54.6632C61.9001 53.7052 61.5043 52.5884 61.3896 51.2946L59.9868 51.419ZM61.4099 55.4672C62.1851 56.582 63.1203 57.6342 64.2119 58.6249L65.1584 57.582C64.1379 56.6559 63.2751 55.6827 62.5662 54.6632L61.4099 55.4672ZM65.1123 58.6632C65.8734 58.0825 66.6696 57.337 67.5011 56.4347L66.4654 55.4803C65.6729 56.3404 64.937 57.0255 64.258 57.5436L65.1123 58.6632ZM67.4904 56.446C68.3688 55.534 69.16 54.5661 69.8632 53.5426L68.7025 52.7451C68.0439 53.7035 67.302 54.6115 66.4761 55.469L67.4904 56.446ZM69.8529 53.5572C70.5976 52.53 71.2034 51.5072 71.6657 50.4886L70.3832 49.9066C69.9654 50.8272 69.4102 51.7686 68.7127 52.7305L69.8529 53.5572ZM71.6708 50.477C72.1402 49.3909 72.3562 48.3456 72.2684 47.3561L70.8656 47.4805C70.9274 48.1771 70.7816 48.9847 70.3781 49.9182L71.6708 50.477Z" fill="#9F0101" mask="url(#path-1-outside-1_124_5707)"/>
</g>
<g filter="url(#filter1_d_124_5707)">
<mask id="path-3-outside-2_124_5707" maskUnits="userSpaceOnUse" x="78.0048" y="29.7953" width="36.5716" height="35.3907" fill="black">
<rect fill="white" x="78.0048" y="29.7953" width="36.5716" height="35.3907"/>
<path d="M98.2965 59.8673C97.553 60.0225 96.7091 60.0146 95.7648 59.8437C94.8556 59.6598 93.9315 59.3813 92.9924 59.0082C92.8959 57.8825 92.8059 56.7745 92.7225 55.684C92.626 54.5584 92.5361 53.4503 92.4526 52.3599C91.88 52.652 91.3009 52.9266 90.7152 53.1835C90.1295 53.4404 89.5374 53.6798 88.9386 53.9015C87.6708 54.371 86.5386 54.4499 85.5421 54.1381C84.5678 53.7781 83.8784 53.0522 83.4741 51.9604C83.4089 51.7843 83.3463 51.5071 83.2863 51.1289C83.2485 50.7024 83.2322 50.388 83.2375 50.1858C83.9457 50.0437 84.6057 49.8794 85.2175 49.6929C85.8645 49.4933 86.681 49.211 87.6671 48.8458C88.4771 48.5458 89.2695 48.2524 90.0443 47.9654C90.8543 47.6655 91.6161 47.3433 92.3296 46.999C92.3179 44.4803 92.3976 42.2081 92.5685 40.1825C92.7616 38.1085 93.0741 36.4109 93.5059 35.0896C93.9546 35.0036 94.5657 34.9775 95.3392 35.0115C96.1126 35.0454 96.8816 35.1211 97.6459 35.2385C98.4324 35.3077 99.155 35.4205 99.8137 35.5771C100.472 35.7336 100.911 35.8914 101.13 36.0506C100.646 37.231 100.248 38.4799 99.9349 39.7973C99.6087 41.0795 99.3217 42.4673 99.0738 43.9608C100.303 43.3856 101.355 42.8756 102.232 42.4309C103.143 41.9731 103.846 41.6529 104.339 41.4703C105.114 41.1834 105.95 41.334 106.849 41.9223C107.748 42.5106 108.618 43.5098 109.461 44.9198C108.401 45.1924 107.529 45.435 106.847 45.6476C106.2 45.8471 105.63 46.0382 105.137 46.2208C103.869 46.6903 102.674 47.1931 101.551 47.7291C100.45 48.2169 99.4147 48.7203 98.4456 49.2394C98.3242 50.9664 98.2511 52.7155 98.2263 54.4868C98.2014 56.2582 98.2248 58.0516 98.2965 59.8673Z"/>
</mask>
<path d="M98.2965 59.8673L98.4404 60.5566L99.0236 60.4349L99.0001 59.8395L98.2965 59.8673ZM95.7648 59.8437L95.6251 60.5339L95.6322 60.5353L95.6394 60.5366L95.7648 59.8437ZM92.9924 59.0082L92.2908 59.0683L92.328 59.5019L92.7324 59.6626L92.9924 59.0082ZM92.7225 55.684L93.4246 55.6303L93.4241 55.6239L92.7225 55.684ZM92.4526 52.3599L93.1547 52.3062L93.0741 51.2523L92.1326 51.7326L92.4526 52.3599ZM85.5421 54.1381L85.298 54.7986L85.3148 54.8048L85.3318 54.8101L85.5421 54.1381ZM83.2863 51.1289L82.5849 51.1911L82.5871 51.2152L82.5909 51.2392L83.2863 51.1289ZM83.2375 50.1858L83.0989 49.4954L82.5481 49.606L82.5335 50.1676L83.2375 50.1858ZM85.2175 49.6929L85.4228 50.3664L85.425 50.3657L85.2175 49.6929ZM92.3296 46.999L92.6356 47.6332L93.0358 47.4401L93.0337 46.9957L92.3296 46.999ZM92.5685 40.1825L91.8674 40.1172L91.8669 40.1232L92.5685 40.1825ZM93.5059 35.0896L93.3732 34.3981L92.9655 34.4763L92.8366 34.8709L93.5059 35.0896ZM95.3392 35.0115L95.3083 35.7149L95.3083 35.7149L95.3392 35.0115ZM97.6459 35.2385L97.539 35.9345L97.5615 35.938L97.5842 35.94L97.6459 35.2385ZM99.8137 35.5771L99.6509 36.2621L99.6509 36.2621L99.8137 35.5771ZM101.13 36.0506L101.782 36.3177L101.992 35.8059L101.544 35.4808L101.13 36.0506ZM99.9349 39.7973L100.617 39.9709L100.62 39.9601L99.9349 39.7973ZM99.0738 43.9608L98.3792 43.8455L98.16 45.166L99.3724 44.5985L99.0738 43.9608ZM102.232 42.4309L101.916 41.8016L101.913 41.8029L102.232 42.4309ZM106.849 41.9223L106.463 42.5115L106.463 42.5115L106.849 41.9223ZM109.461 44.9198L109.636 45.6018L110.549 45.3673L110.065 44.5586L109.461 44.9198ZM106.847 45.6476L107.055 46.3205L107.057 46.3198L106.847 45.6476ZM101.551 47.7291L101.836 48.3729L101.845 48.3689L101.854 48.3646L101.551 47.7291ZM98.4456 49.2394L98.1131 48.6187L97.7704 48.8023L97.7432 49.1901L98.4456 49.2394ZM98.2263 54.4868L97.5222 54.477L97.5222 54.477L98.2263 54.4868ZM98.1526 59.178C97.5178 59.3105 96.7679 59.3097 95.8902 59.1508L95.6394 60.5366C96.6503 60.7196 97.5882 60.7345 98.4404 60.5566L98.1526 59.178ZM95.9044 59.1535C95.0398 58.9786 94.1559 58.7127 93.2524 58.3538L92.7324 59.6626C93.7071 60.0498 94.6714 60.3409 95.6251 60.5339L95.9044 59.1535ZM93.694 58.9481C93.5977 57.8245 93.5079 56.7185 93.4246 55.6303L92.0204 55.7378C92.104 56.8304 92.1941 57.9406 92.2908 59.0683L93.694 58.9481ZM93.4241 55.6239C93.3278 54.5003 93.238 53.3944 93.1547 52.3062L91.7505 52.4136C91.8341 53.5063 91.9243 54.6164 92.0209 55.7442L93.4241 55.6239ZM92.1326 51.7326C91.5721 52.0186 91.0054 52.2873 90.4323 52.5387L90.9981 53.8284C91.5964 53.5659 92.1879 53.2855 92.7727 52.9871L92.1326 51.7326ZM90.4323 52.5387C89.8593 52.7901 89.2799 53.0242 88.6941 53.2412L89.1832 54.5618C89.7949 54.3353 90.3998 54.0908 90.9981 53.8284L90.4323 52.5387ZM88.6941 53.2412C87.529 53.6726 86.5613 53.7192 85.7524 53.4661L85.3318 54.8101C86.5159 55.1806 87.8126 55.0694 89.1832 54.5618L88.6941 53.2412ZM85.7862 53.4776C85.0293 53.1979 84.4771 52.641 84.1345 51.7159L82.8138 52.205C83.2798 53.4634 84.1062 54.3582 85.298 54.7986L85.7862 53.4776ZM84.1345 51.7159C84.0946 51.6081 84.0404 51.388 83.9818 51.0186L82.5909 51.2392C82.6523 51.6263 82.7233 51.9606 82.8138 52.205L84.1345 51.7159ZM83.9878 51.0667C83.9503 50.6443 83.9373 50.3636 83.9414 50.204L82.5335 50.1676C82.5272 50.4124 82.5468 50.7605 82.5849 51.1911L83.9878 51.0667ZM83.376 50.8762C84.104 50.7301 84.7865 50.5604 85.4228 50.3664L85.0121 49.0193C84.425 49.1983 83.7875 49.3572 83.0989 49.4954L83.376 50.8762ZM85.425 50.3657C86.0893 50.1609 86.9192 49.8736 87.9116 49.5061L87.4226 48.1854C86.4428 48.5483 85.6397 48.8258 85.01 49.02L85.425 50.3657ZM87.9116 49.5061C87.9132 49.5055 87.9148 49.5049 87.9164 49.5044C87.918 49.5038 87.9195 49.5032 87.9211 49.5026C87.9227 49.502 87.9243 49.5014 87.9259 49.5008C87.9275 49.5003 87.929 49.4997 87.9306 49.4991C87.9322 49.4985 87.9338 49.4979 87.9354 49.4973C87.9369 49.4967 87.9385 49.4962 87.9401 49.4956C87.9417 49.495 87.9433 49.4944 87.9448 49.4938C87.9464 49.4932 87.948 49.4926 87.9496 49.4921C87.9512 49.4915 87.9528 49.4909 87.9543 49.4903C87.9559 49.4897 87.9575 49.4891 87.9591 49.4885C87.9607 49.488 87.9622 49.4874 87.9638 49.4868C87.9654 49.4862 87.967 49.4856 87.9686 49.485C87.9701 49.4844 87.9717 49.4839 87.9733 49.4833C87.9749 49.4827 87.9765 49.4821 87.978 49.4815C87.9796 49.4809 87.9812 49.4804 87.9828 49.4798C87.9844 49.4792 87.9859 49.4786 87.9875 49.478C87.9891 49.4774 87.9907 49.4768 87.9923 49.4763C87.9938 49.4757 87.9954 49.4751 87.997 49.4745C87.9986 49.4739 88.0002 49.4733 88.0017 49.4727C88.0033 49.4722 88.0049 49.4716 88.0065 49.471C88.0081 49.4704 88.0096 49.4698 88.0112 49.4692C88.0128 49.4687 88.0144 49.4681 88.016 49.4675C88.0175 49.4669 88.0191 49.4663 88.0207 49.4657C88.0223 49.4651 88.0238 49.4646 88.0254 49.464C88.027 49.4634 88.0286 49.4628 88.0302 49.4622C88.0317 49.4616 88.0333 49.4611 88.0349 49.4605C88.0365 49.4599 88.0381 49.4593 88.0396 49.4587C88.0412 49.4581 88.0428 49.4575 88.0444 49.457C88.0459 49.4564 88.0475 49.4558 88.0491 49.4552C88.0507 49.4546 88.0523 49.454 88.0538 49.4535C88.0554 49.4529 88.057 49.4523 88.0586 49.4517C88.0602 49.4511 88.0617 49.4505 88.0633 49.4499C88.0649 49.4494 88.0665 49.4488 88.068 49.4482C88.0696 49.4476 88.0712 49.447 88.0728 49.4464C88.0744 49.4459 88.0759 49.4453 88.0775 49.4447C88.0791 49.4441 88.0807 49.4435 88.0822 49.4429C88.0838 49.4424 88.0854 49.4418 88.087 49.4412C88.0885 49.4406 88.0901 49.44 88.0917 49.4394C88.0933 49.4388 88.0949 49.4383 88.0964 49.4377C88.098 49.4371 88.0996 49.4365 88.1012 49.4359C88.1027 49.4353 88.1043 49.4348 88.1059 49.4342C88.1075 49.4336 88.109 49.433 88.1106 49.4324C88.1122 49.4318 88.1138 49.4313 88.1153 49.4307C88.1169 49.4301 88.1185 49.4295 88.1201 49.4289C88.1217 49.4283 88.1232 49.4278 88.1248 49.4272C88.1264 49.4266 88.128 49.426 88.1295 49.4254C88.1311 49.4248 88.1327 49.4243 88.1343 49.4237C88.1358 49.4231 88.1374 49.4225 88.139 49.4219C88.1406 49.4213 88.1421 49.4208 88.1437 49.4202C88.1453 49.4196 88.1469 49.419 88.1484 49.4184C88.15 49.4178 88.1516 49.4173 88.1532 49.4167C88.1547 49.4161 88.1563 49.4155 88.1579 49.4149C88.1595 49.4143 88.161 49.4138 88.1626 49.4132C88.1642 49.4126 88.1658 49.412 88.1673 49.4114C88.1689 49.4108 88.1705 49.4103 88.1721 49.4097C88.1736 49.4091 88.1752 49.4085 88.1768 49.4079C88.1784 49.4073 88.1799 49.4068 88.1815 49.4062C88.1831 49.4056 88.1847 49.405 88.1862 49.4044C88.1878 49.4038 88.1894 49.4033 88.191 49.4027C88.1925 49.4021 88.1941 49.4015 88.1957 49.4009C88.1973 49.4003 88.1988 49.3998 88.2004 49.3992C88.202 49.3986 88.2036 49.398 88.2051 49.3974C88.2067 49.3968 88.2083 49.3963 88.2098 49.3957C88.2114 49.3951 88.213 49.3945 88.2146 49.3939C88.2161 49.3933 88.2177 49.3928 88.2193 49.3922C88.2209 49.3916 88.2224 49.391 88.224 49.3904C88.2256 49.3899 88.2272 49.3893 88.2287 49.3887C88.2303 49.3881 88.2319 49.3875 88.2334 49.3869C88.235 49.3864 88.2366 49.3858 88.2382 49.3852C88.2397 49.3846 88.2413 49.384 88.2429 49.3834C88.2445 49.3829 88.246 49.3823 88.2476 49.3817C88.2492 49.3811 88.2507 49.3805 88.2523 49.38C88.2539 49.3794 88.2555 49.3788 88.257 49.3782C88.2586 49.3776 88.2602 49.377 88.2617 49.3765C88.2633 49.3759 88.2649 49.3753 88.2665 49.3747C88.268 49.3741 88.2696 49.3735 88.2712 49.373C88.2728 49.3724 88.2743 49.3718 88.2759 49.3712C88.2775 49.3706 88.279 49.3701 88.2806 49.3695C88.2822 49.3689 88.2838 49.3683 88.2853 49.3677C88.2869 49.3671 88.2885 49.3666 88.29 49.366C88.2916 49.3654 88.2932 49.3648 88.2948 49.3642C88.2963 49.3637 88.2979 49.3631 88.2995 49.3625C88.301 49.3619 88.3026 49.3613 88.3042 49.3607C88.3058 49.3602 88.3073 49.3596 88.3089 49.359C88.3105 49.3584 88.312 49.3578 88.3136 49.3573C88.3152 49.3567 88.3167 49.3561 88.3183 49.3555C88.3199 49.3549 88.3215 49.3543 88.323 49.3538C88.3246 49.3532 88.3262 49.3526 88.3277 49.352C88.3293 49.3514 88.3309 49.3509 88.3324 49.3503C88.334 49.3497 88.3356 49.3491 88.3372 49.3485C88.3387 49.3479 88.3403 49.3474 88.3419 49.3468C88.3434 49.3462 88.345 49.3456 88.3466 49.345C88.3481 49.3445 88.3497 49.3439 88.3513 49.3433C88.3529 49.3427 88.3544 49.3421 88.356 49.3416C88.3576 49.341 88.3591 49.3404 88.3607 49.3398C88.3623 49.3392 88.3638 49.3386 88.3654 49.3381C88.367 49.3375 88.3686 49.3369 88.3701 49.3363C88.3717 49.3357 88.3733 49.3352 88.3748 49.3346C88.3764 49.334 88.378 49.3334 88.3795 49.3328C88.3811 49.3323 88.3827 49.3317 88.3842 49.3311C88.3858 49.3305 88.3874 49.3299 88.3889 49.3294C88.3905 49.3288 88.3921 49.3282 88.3936 49.3276C88.3952 49.327 88.3968 49.3264 88.3984 49.3259C88.3999 49.3253 88.4015 49.3247 88.4031 49.3241C88.4046 49.3235 88.4062 49.323 88.4078 49.3224C88.4093 49.3218 88.4109 49.3212 88.4125 49.3206C88.414 49.3201 88.4156 49.3195 88.4172 49.3189C88.4187 49.3183 88.4203 49.3177 88.4219 49.3172C88.4234 49.3166 88.425 49.316 88.4266 49.3154C88.4281 49.3148 88.4297 49.3143 88.4313 49.3137C88.4328 49.3131 88.4344 49.3125 88.436 49.3119C88.4375 49.3114 88.4391 49.3108 88.4407 49.3102C88.4422 49.3096 88.4438 49.309 88.4454 49.3085C88.4469 49.3079 88.4485 49.3073 88.4501 49.3067C88.4516 49.3061 88.4532 49.3056 88.4548 49.305C88.4563 49.3044 88.4579 49.3038 88.4595 49.3032C88.461 49.3027 88.4626 49.3021 88.4642 49.3015C88.4657 49.3009 88.4673 49.3003 88.4689 49.2998C88.4704 49.2992 88.472 49.2986 88.4736 49.298C88.4751 49.2974 88.4767 49.2969 88.4783 49.2963C88.4798 49.2957 88.4814 49.2951 88.483 49.2945C88.4845 49.294 88.4861 49.2934 88.4877 49.2928C88.4892 49.2922 88.4908 49.2916 88.4924 49.2911C88.4939 49.2905 88.4955 49.2899 88.4971 49.2893C88.4986 49.2887 88.5002 49.2882 88.5018 49.2876C88.5033 49.287 88.5049 49.2864 88.5065 49.2858C88.508 49.2853 88.5096 49.2847 88.5112 49.2841C88.5127 49.2835 88.5143 49.2829 88.5158 49.2824C88.5174 49.2818 88.519 49.2812 88.5205 49.2806C88.5221 49.28 88.5237 49.2795 88.5252 49.2789C88.5268 49.2783 88.5284 49.2777 88.5299 49.2771C88.5315 49.2766 88.5331 49.276 88.5346 49.2754C88.5362 49.2748 88.5377 49.2742 88.5393 49.2737C88.5409 49.2731 88.5424 49.2725 88.544 49.2719C88.5456 49.2714 88.5471 49.2708 88.5487 49.2702C88.5503 49.2696 88.5518 49.269 88.5534 49.2685C88.555 49.2679 88.5565 49.2673 88.5581 49.2667C88.5596 49.2661 88.5612 49.2656 88.5628 49.265C88.5643 49.2644 88.5659 49.2638 88.5675 49.2632C88.569 49.2627 88.5706 49.2621 88.5722 49.2615C88.5737 49.2609 88.5753 49.2603 88.5768 49.2598C88.5784 49.2592 88.58 49.2586 88.5815 49.258C88.5831 49.2575 88.5847 49.2569 88.5862 49.2563C88.5878 49.2557 88.5893 49.2551 88.5909 49.2546C88.5925 49.254 88.594 49.2534 88.5956 49.2528C88.5972 49.2522 88.5987 49.2517 88.6003 49.2511C88.6018 49.2505 88.6034 49.2499 88.605 49.2494C88.6065 49.2488 88.6081 49.2482 88.6097 49.2476C88.6112 49.247 88.6128 49.2465 88.6143 49.2459C88.6159 49.2453 88.6175 49.2447 88.619 49.2441C88.6206 49.2436 88.6222 49.243 88.6237 49.2424C88.6253 49.2418 88.6268 49.2413 88.6284 49.2407C88.63 49.2401 88.6315 49.2395 88.6331 49.2389C88.6346 49.2384 88.6362 49.2378 88.6378 49.2372C88.6393 49.2366 88.6409 49.2361 88.6425 49.2355C88.644 49.2349 88.6456 49.2343 88.6471 49.2337C88.6487 49.2332 88.6503 49.2326 88.6518 49.232C88.6534 49.2314 88.6549 49.2308 88.6565 49.2303C88.6581 49.2297 88.6596 49.2291 88.6612 49.2285C88.6627 49.228 88.6643 49.2274 88.6659 49.2268C88.6674 49.2262 88.669 49.2256 88.6705 49.2251C88.6721 49.2245 88.6737 49.2239 88.6752 49.2233C88.6768 49.2228 88.6783 49.2222 88.6799 49.2216C88.6815 49.221 88.683 49.2204 88.6846 49.2199C88.6861 49.2193 88.6877 49.2187 88.6893 49.2181C88.6908 49.2176 88.6924 49.217 88.6939 49.2164C88.6955 49.2158 88.6971 49.2152 88.6986 49.2147C88.7002 49.2141 88.7017 49.2135 88.7033 49.2129C88.7049 49.2124 88.7064 49.2118 88.708 49.2112C88.7095 49.2106 88.7111 49.21 88.7127 49.2095C88.7142 49.2089 88.7158 49.2083 88.7173 49.2077C88.7189 49.2072 88.7205 49.2066 88.722 49.206C88.7236 49.2054 88.7251 49.2049 88.7267 49.2043C88.7283 49.2037 88.7298 49.2031 88.7314 49.2025C88.7329 49.202 88.7345 49.2014 88.736 49.2008C88.7376 49.2002 88.7392 49.1997 88.7407 49.1991C88.7423 49.1985 88.7438 49.1979 88.7454 49.1973C88.747 49.1968 88.7485 49.1962 88.7501 49.1956C88.7516 49.195 88.7532 49.1945 88.7547 49.1939C88.7563 49.1933 88.7579 49.1927 88.7594 49.1922C88.761 49.1916 88.7625 49.191 88.7641 49.1904C88.7656 49.1898 88.7672 49.1893 88.7688 49.1887C88.7703 49.1881 88.7719 49.1875 88.7734 49.187C88.775 49.1864 88.7766 49.1858 88.7781 49.1852C88.7797 49.1847 88.7812 49.1841 88.7828 49.1835C88.7843 49.1829 88.7859 49.1824 88.7875 49.1818C88.789 49.1812 88.7906 49.1806 88.7921 49.18C88.7937 49.1795 88.7952 49.1789 88.7968 49.1783C88.7984 49.1777 88.7999 49.1772 88.8015 49.1766C88.803 49.176 88.8046 49.1754 88.8061 49.1749C88.8077 49.1743 88.8092 49.1737 88.8108 49.1731C88.8124 49.1726 88.8139 49.172 88.8155 49.1714C88.817 49.1708 88.8186 49.1702 88.8201 49.1697C88.8217 49.1691 88.8233 49.1685 88.8248 49.1679C88.8264 49.1674 88.8279 49.1668 88.8295 49.1662C88.831 49.1656 88.8326 49.1651 88.8341 49.1645C88.8357 49.1639 88.8373 49.1633 88.8388 49.1628C88.8404 49.1622 88.8419 49.1616 88.8435 49.161C88.845 49.1605 88.8466 49.1599 88.8481 49.1593C88.8497 49.1587 88.8513 49.1581 88.8528 49.1576C88.8544 49.157 88.8559 49.1564 88.8575 49.1558C88.859 49.1553 88.8606 49.1547 88.8621 49.1541C88.8637 49.1535 88.8653 49.153 88.8668 49.1524C88.8684 49.1518 88.8699 49.1512 88.8715 49.1507C88.873 49.1501 88.8746 49.1495 88.8761 49.1489C88.8777 49.1484 88.8792 49.1478 88.8808 49.1472C88.8824 49.1466 88.8839 49.1461 88.8855 49.1455C88.887 49.1449 88.8886 49.1443 88.8901 49.1438C88.8917 49.1432 88.8932 49.1426 88.8948 49.142C88.8963 49.1415 88.8979 49.1409 88.8994 49.1403C88.901 49.1397 88.9026 49.1391 88.9041 49.1386C88.9057 49.138 88.9072 49.1374 88.9088 49.1368C88.9103 49.1363 88.9119 49.1357 88.9134 49.1351C88.915 49.1345 88.9165 49.134 88.9181 49.1334C88.9196 49.1328 88.9212 49.1322 88.9227 49.1317C88.9243 49.1311 88.9259 49.1305 88.9274 49.1299C88.929 49.1294 88.9305 49.1288 88.9321 49.1282C88.9336 49.1276 88.9352 49.1271 88.9367 49.1265C88.9383 49.1259 88.9398 49.1253 88.9414 49.1248C88.9429 49.1242 88.9445 49.1236 88.946 49.123C88.9476 49.1225 88.9491 49.1219 88.9507 49.1213C88.9523 49.1207 88.9538 49.1202 88.9554 49.1196C88.9569 49.119 88.9585 49.1184 88.96 49.1179C88.9616 49.1173 88.9631 49.1167 88.9647 49.1161C88.9662 49.1156 88.9678 49.115 88.9693 49.1144C88.9709 49.1138 88.9724 49.1133 88.974 49.1127C88.9755 49.1121 88.9771 49.1115 88.9786 49.111C88.9802 49.1104 88.9817 49.1098 88.9833 49.1093C88.9848 49.1087 88.9864 49.1081 88.9879 49.1075C88.9895 49.107 88.991 49.1064 88.9926 49.1058C88.9941 49.1052 88.9957 49.1047 88.9972 49.1041C88.9988 49.1035 89.0004 49.1029 89.0019 49.1024C89.0035 49.1018 89.005 49.1012 89.0066 49.1006C89.0081 49.1001 89.0097 49.0995 89.0112 49.0989C89.0128 49.0983 89.0143 49.0978 89.0159 49.0972C89.0174 49.0966 89.019 49.096 89.0205 49.0955C89.0221 49.0949 89.0236 49.0943 89.0252 49.0937C89.0267 49.0932 89.0283 49.0926 89.0298 49.092C89.0314 49.0914 89.0329 49.0909 89.0345 49.0903C89.036 49.0897 89.0376 49.0892 89.0391 49.0886C89.0407 49.088 89.0422 49.0874 89.0438 49.0869C89.0453 49.0863 89.0469 49.0857 89.0484 49.0851C89.05 49.0846 89.0515 49.084 89.0531 49.0834C89.0546 49.0828 89.0562 49.0823 89.0577 49.0817C89.0593 49.0811 89.0608 49.0805 89.0624 49.08C89.0639 49.0794 89.0655 49.0788 89.067 49.0783C89.0685 49.0777 89.0701 49.0771 89.0716 49.0765C89.0732 49.076 89.0747 49.0754 89.0763 49.0748C89.0778 49.0742 89.0794 49.0737 89.0809 49.0731C89.0825 49.0725 89.084 49.0719 89.0856 49.0714C89.0871 49.0708 89.0887 49.0702 89.0902 49.0696C89.0918 49.0691 89.0933 49.0685 89.0949 49.0679C89.0964 49.0674 89.098 49.0668 89.0995 49.0662C89.1011 49.0656 89.1026 49.0651 89.1042 49.0645C89.1057 49.0639 89.1073 49.0633 89.1088 49.0628C89.1104 49.0622 89.1119 49.0616 89.1135 49.061C89.115 49.0605 89.1165 49.0599 89.1181 49.0593C89.1196 49.0588 89.1212 49.0582 89.1227 49.0576C89.1243 49.057 89.1258 49.0565 89.1274 49.0559C89.1289 49.0553 89.1305 49.0547 89.132 49.0542C89.1336 49.0536 89.1351 49.053 89.1367 49.0525C89.1382 49.0519 89.1398 49.0513 89.1413 49.0507C89.1428 49.0502 89.1444 49.0496 89.1459 49.049C89.1475 49.0484 89.149 49.0479 89.1506 49.0473C89.1521 49.0467 89.1537 49.0462 89.1552 49.0456C89.1568 49.045 89.1583 49.0444 89.1599 49.0439C89.1614 49.0433 89.163 49.0427 89.1645 49.0421C89.166 49.0416 89.1676 49.041 89.1691 49.0404C89.1707 49.0399 89.1722 49.0393 89.1738 49.0387C89.1753 49.0381 89.1769 49.0376 89.1784 49.037C89.18 49.0364 89.1815 49.0358 89.183 49.0353C89.1846 49.0347 89.1861 49.0341 89.1877 49.0336C89.1892 49.033 89.1908 49.0324 89.1923 49.0318C89.1939 49.0313 89.1954 49.0307 89.197 49.0301C89.1985 49.0296 89.2 49.029 89.2016 49.0284C89.2031 49.0278 89.2047 49.0273 89.2062 49.0267C89.2078 49.0261 89.2093 49.0255 89.2109 49.025C89.2124 49.0244 89.214 49.0238 89.2155 49.0233C89.217 49.0227 89.2186 49.0221 89.2201 49.0215C89.2217 49.021 89.2232 49.0204 89.2248 49.0198C89.2263 49.0193 89.2279 49.0187 89.2294 49.0181C89.2309 49.0175 89.2325 49.017 89.234 49.0164C89.2356 49.0158 89.2371 49.0153 89.2387 49.0147C89.2402 49.0141 89.2418 49.0135 89.2433 49.013C89.2448 49.0124 89.2464 49.0118 89.2479 49.0112C89.2495 49.0107 89.251 49.0101 89.2526 49.0095C89.2541 49.009 89.2556 49.0084 89.2572 49.0078C89.2587 49.0072 89.2603 49.0067 89.2618 49.0061C89.2634 49.0055 89.2649 49.005 89.2664 49.0044C89.268 49.0038 89.2695 49.0032 89.2711 49.0027C89.2726 49.0021 89.2742 49.0015 89.2757 49.001C89.2773 49.0004 89.2788 48.9998 89.2803 48.9992C89.2819 48.9987 89.2834 48.9981 89.285 48.9975C89.2865 48.997 89.2881 48.9964 89.2896 48.9958C89.2911 48.9952 89.2927 48.9947 89.2942 48.9941C89.2958 48.9935 89.2973 48.993 89.2988 48.9924C89.3004 48.9918 89.3019 48.9912 89.3035 48.9907C89.305 48.9901 89.3066 48.9895 89.3081 48.989C89.3096 48.9884 89.3112 48.9878 89.3127 48.9873C89.3143 48.9867 89.3158 48.9861 89.3174 48.9855C89.3189 48.985 89.3204 48.9844 89.322 48.9838C89.3235 48.9833 89.3251 48.9827 89.3266 48.9821C89.3281 48.9815 89.3297 48.981 89.3312 48.9804C89.3328 48.9798 89.3343 48.9793 89.3358 48.9787C89.3374 48.9781 89.3389 48.9775 89.3405 48.977C89.342 48.9764 89.3436 48.9758 89.3451 48.9753C89.3466 48.9747 89.3482 48.9741 89.3497 48.9736C89.3513 48.973 89.3528 48.9724 89.3543 48.9718C89.3559 48.9713 89.3574 48.9707 89.359 48.9701C89.3605 48.9696 89.362 48.969 89.3636 48.9684C89.3651 48.9678 89.3667 48.9673 89.3682 48.9667C89.3697 48.9661 89.3713 48.9656 89.3728 48.965C89.3744 48.9644 89.3759 48.9639 89.3774 48.9633C89.379 48.9627 89.3805 48.9621 89.3821 48.9616C89.3836 48.961 89.3851 48.9604 89.3867 48.9599C89.3882 48.9593 89.3898 48.9587 89.3913 48.9582C89.3928 48.9576 89.3944 48.957 89.3959 48.9564C89.3975 48.9559 89.399 48.9553 89.4005 48.9547C89.4021 48.9542 89.4036 48.9536 89.4052 48.953C89.4067 48.9525 89.4082 48.9519 89.4098 48.9513C89.4113 48.9507 89.4129 48.9502 89.4144 48.9496C89.4159 48.949 89.4175 48.9485 89.419 48.9479C89.4205 48.9473 89.4221 48.9468 89.4236 48.9462C89.4252 48.9456 89.4267 48.945 89.4282 48.9445C89.4298 48.9439 89.4313 48.9433 89.4329 48.9428C89.4344 48.9422 89.4359 48.9416 89.4375 48.9411C89.439 48.9405 89.4405 48.9399 89.4421 48.9393C89.4436 48.9388 89.4452 48.9382 89.4467 48.9376C89.4482 48.9371 89.4498 48.9365 89.4513 48.9359C89.4529 48.9354 89.4544 48.9348 89.4559 48.9342C89.4575 48.9337 89.459 48.9331 89.4605 48.9325C89.4621 48.9319 89.4636 48.9314 89.4652 48.9308C89.4667 48.9302 89.4682 48.9297 89.4698 48.9291C89.4713 48.9285 89.4728 48.928 89.4744 48.9274C89.4759 48.9268 89.4775 48.9262 89.479 48.9257C89.4805 48.9251 89.4821 48.9245 89.4836 48.924C89.4851 48.9234 89.4867 48.9228 89.4882 48.9223C89.4897 48.9217 89.4913 48.9211 89.4928 48.9206C89.4944 48.92 89.4959 48.9194 89.4974 48.9189C89.499 48.9183 89.5005 48.9177 89.502 48.9171C89.5036 48.9166 89.5051 48.916 89.5066 48.9154C89.5082 48.9149 89.5097 48.9143 89.5113 48.9137C89.5128 48.9132 89.5143 48.9126 89.5159 48.912C89.5174 48.9115 89.5189 48.9109 89.5205 48.9103C89.522 48.9097 89.5235 48.9092 89.5251 48.9086C89.5266 48.908 89.5282 48.9075 89.5297 48.9069C89.5312 48.9063 89.5328 48.9058 89.5343 48.9052C89.5358 48.9046 89.5374 48.9041 89.5389 48.9035C89.5404 48.9029 89.542 48.9024 89.5435 48.9018C89.545 48.9012 89.5466 48.9007 89.5481 48.9001C89.5496 48.8995 89.5512 48.8989 89.5527 48.8984C89.5543 48.8978 89.5558 48.8972 89.5573 48.8967C89.5589 48.8961 89.5604 48.8955 89.5619 48.895C89.5635 48.8944 89.565 48.8938 89.5665 48.8933C89.5681 48.8927 89.5696 48.8921 89.5711 48.8916C89.5727 48.891 89.5742 48.8904 89.5757 48.8899C89.5773 48.8893 89.5788 48.8887 89.5803 48.8881C89.5819 48.8876 89.5834 48.887 89.5849 48.8864C89.5865 48.8859 89.588 48.8853 89.5895 48.8847C89.5911 48.8842 89.5926 48.8836 89.5941 48.883C89.5957 48.8825 89.5972 48.8819 89.5987 48.8813C89.6003 48.8808 89.6018 48.8802 89.6033 48.8796C89.6049 48.8791 89.6064 48.8785 89.6079 48.8779C89.6095 48.8774 89.611 48.8768 89.6125 48.8762C89.6141 48.8757 89.6156 48.8751 89.6171 48.8745C89.6187 48.874 89.6202 48.8734 89.6217 48.8728C89.6233 48.8722 89.6248 48.8717 89.6263 48.8711C89.6279 48.8705 89.6294 48.87 89.6309 48.8694C89.6325 48.8688 89.634 48.8683 89.6355 48.8677C89.6371 48.8671 89.6386 48.8666 89.6401 48.866C89.6417 48.8654 89.6432 48.8649 89.6447 48.8643C89.6463 48.8637 89.6478 48.8632 89.6493 48.8626C89.6509 48.862 89.6524 48.8615 89.6539 48.8609C89.6555 48.8603 89.657 48.8598 89.6585 48.8592C89.66 48.8586 89.6616 48.8581 89.6631 48.8575C89.6646 48.8569 89.6662 48.8564 89.6677 48.8558C89.6692 48.8552 89.6708 48.8547 89.6723 48.8541C89.6738 48.8535 89.6754 48.853 89.6769 48.8524C89.6784 48.8518 89.68 48.8513 89.6815 48.8507C89.683 48.8501 89.6846 48.8496 89.6861 48.849C89.6876 48.8484 89.6891 48.8479 89.6907 48.8473C89.6922 48.8467 89.6937 48.8462 89.6953 48.8456C89.6968 48.845 89.6983 48.8445 89.6999 48.8439C89.7014 48.8433 89.7029 48.8428 89.7045 48.8422C89.706 48.8416 89.7075 48.8411 89.709 48.8405C89.7106 48.8399 89.7121 48.8394 89.7136 48.8388C89.7152 48.8382 89.7167 48.8377 89.7182 48.8371C89.7198 48.8365 89.7213 48.836 89.7228 48.8354C89.7243 48.8348 89.7259 48.8343 89.7274 48.8337C89.7289 48.8331 89.7305 48.8326 89.732 48.832C89.7335 48.8314 89.7351 48.8309 89.7366 48.8303C89.7381 48.8297 89.7396 48.8292 89.7412 48.8286C89.7427 48.828 89.7442 48.8275 89.7458 48.8269C89.7473 48.8263 89.7488 48.8258 89.7503 48.8252C89.7519 48.8246 89.7534 48.8241 89.7549 48.8235C89.7565 48.8229 89.758 48.8224 89.7595 48.8218C89.761 48.8212 89.7626 48.8207 89.7641 48.8201C89.7656 48.8195 89.7672 48.819 89.7687 48.8184C89.7702 48.8178 89.7717 48.8173 89.7733 48.8167C89.7748 48.8161 89.7763 48.8156 89.7779 48.815C89.7794 48.8144 89.7809 48.8139 89.7824 48.8133C89.784 48.8127 89.7855 48.8122 89.787 48.8116C89.7886 48.811 89.7901 48.8105 89.7916 48.8099C89.7931 48.8093 89.7947 48.8088 89.7962 48.8082C89.7977 48.8076 89.7993 48.8071 89.8008 48.8065C89.8023 48.8059 89.8038 48.8054 89.8054 48.8048C89.8069 48.8042 89.8084 48.8037 89.8099 48.8031C89.8115 48.8026 89.813 48.802 89.8145 48.8014C89.8161 48.8009 89.8176 48.8003 89.8191 48.7997C89.8206 48.7992 89.8222 48.7986 89.8237 48.798C89.8252 48.7975 89.8267 48.7969 89.8283 48.7963C89.8298 48.7958 89.8313 48.7952 89.8329 48.7946C89.8344 48.7941 89.8359 48.7935 89.8374 48.7929C89.839 48.7924 89.8405 48.7918 89.842 48.7912C89.8435 48.7907 89.8451 48.7901 89.8466 48.7895C89.8481 48.789 89.8496 48.7884 89.8512 48.7879C89.8527 48.7873 89.8542 48.7867 89.8557 48.7862C89.8573 48.7856 89.8588 48.785 89.8603 48.7845C89.8619 48.7839 89.8634 48.7833 89.8649 48.7828C89.8664 48.7822 89.868 48.7816 89.8695 48.7811C89.871 48.7805 89.8725 48.7799 89.8741 48.7794C89.8756 48.7788 89.8771 48.7782 89.8786 48.7777C89.8802 48.7771 89.8817 48.7766 89.8832 48.776C89.8847 48.7754 89.8863 48.7749 89.8878 48.7743C89.8893 48.7737 89.8908 48.7732 89.8924 48.7726C89.8939 48.772 89.8954 48.7715 89.8969 48.7709C89.8985 48.7703 89.9 48.7698 89.9015 48.7692C89.903 48.7686 89.9046 48.7681 89.9061 48.7675C89.9076 48.767 89.9091 48.7664 89.9107 48.7658C89.9122 48.7653 89.9137 48.7647 89.9152 48.7641C89.9168 48.7636 89.9183 48.763 89.9198 48.7624C89.9213 48.7619 89.9229 48.7613 89.9244 48.7607C89.9259 48.7602 89.9274 48.7596 89.9289 48.759C89.9305 48.7585 89.932 48.7579 89.9335 48.7574C89.935 48.7568 89.9366 48.7562 89.9381 48.7557C89.9396 48.7551 89.9411 48.7545 89.9427 48.754C89.9442 48.7534 89.9457 48.7528 89.9472 48.7523C89.9488 48.7517 89.9503 48.7511 89.9518 48.7506C89.9533 48.75 89.9548 48.7495 89.9564 48.7489C89.9579 48.7483 89.9594 48.7478 89.9609 48.7472C89.9625 48.7466 89.964 48.7461 89.9655 48.7455C89.967 48.7449 89.9686 48.7444 89.9701 48.7438C89.9716 48.7433 89.9731 48.7427 89.9746 48.7421C89.9762 48.7416 89.9777 48.741 89.9792 48.7404C89.9807 48.7399 89.9823 48.7393 89.9838 48.7387C89.9853 48.7382 89.9868 48.7376 89.9883 48.7371C89.9899 48.7365 89.9914 48.7359 89.9929 48.7354C89.9944 48.7348 89.996 48.7342 89.9975 48.7337C89.999 48.7331 90.0005 48.7325 90.002 48.732C90.0036 48.7314 90.0051 48.7309 90.0066 48.7303C90.0081 48.7297 90.0096 48.7292 90.0112 48.7286C90.0127 48.728 90.0142 48.7275 90.0157 48.7269C90.0173 48.7263 90.0188 48.7258 90.0203 48.7252C90.0218 48.7247 90.0233 48.7241 90.0249 48.7235C90.0264 48.723 90.0279 48.7224 90.0294 48.7218C90.0309 48.7213 90.0325 48.7207 90.034 48.7201C90.0355 48.7196 90.037 48.719 90.0386 48.7185C90.0401 48.7179 90.0416 48.7173 90.0431 48.7168C90.0446 48.7162 90.0462 48.7156 90.0477 48.7151C90.0492 48.7145 90.0507 48.714 90.0522 48.7134C90.0538 48.7128 90.0553 48.7123 90.0568 48.7117C90.0583 48.7111 90.0598 48.7106 90.0614 48.71C90.0629 48.7095 90.0644 48.7089 90.0659 48.7083C90.0674 48.7078 90.069 48.7072 90.0705 48.7066C90.072 48.7061 90.0735 48.7055 90.075 48.7049C90.0766 48.7044 90.0781 48.7038 90.0796 48.7033C90.0811 48.7027 90.0826 48.7021 90.0842 48.7016C90.0857 48.701 90.0872 48.7004 90.0887 48.6999C90.0902 48.6993 90.0917 48.6988 90.0933 48.6982C90.0948 48.6976 90.0963 48.6971 90.0978 48.6965C90.0993 48.6959 90.1009 48.6954 90.1024 48.6948C90.1039 48.6943 90.1054 48.6937 90.1069 48.6931C90.1085 48.6926 90.11 48.692 90.1115 48.6914C90.113 48.6909 90.1145 48.6903 90.116 48.6898C90.1176 48.6892 90.1191 48.6886 90.1206 48.6881C90.1221 48.6875 90.1236 48.6869 90.1252 48.6864C90.1267 48.6858 90.1282 48.6853 90.1297 48.6847C90.1312 48.6841 90.1327 48.6836 90.1343 48.683C90.1358 48.6825 90.1373 48.6819 90.1388 48.6813C90.1403 48.6808 90.1419 48.6802 90.1434 48.6796C90.1449 48.6791 90.1464 48.6785 90.1479 48.678C90.1494 48.6774 90.151 48.6768 90.1525 48.6763C90.154 48.6757 90.1555 48.6751 90.157 48.6746C90.1585 48.674 90.1601 48.6735 90.1616 48.6729C90.1631 48.6723 90.1646 48.6718 90.1661 48.6712C90.1676 48.6707 90.1692 48.6701 90.1707 48.6695C90.1722 48.669 90.1737 48.6684 90.1752 48.6678C90.1767 48.6673 90.1783 48.6667 90.1798 48.6662C90.1813 48.6656 90.1828 48.665 90.1843 48.6645C90.1858 48.6639 90.1874 48.6634 90.1889 48.6628C90.1904 48.6622 90.1919 48.6617 90.1934 48.6611C90.1949 48.6605 90.1965 48.66 90.198 48.6594C90.1995 48.6589 90.201 48.6583 90.2025 48.6577C90.204 48.6572 90.2056 48.6566 90.2071 48.6561C90.2086 48.6555 90.2101 48.6549 90.2116 48.6544C90.2131 48.6538 90.2146 48.6532 90.2162 48.6527C90.2177 48.6521 90.2192 48.6516 90.2207 48.651C90.2222 48.6504 90.2237 48.6499 90.2253 48.6493C90.2268 48.6488 90.2283 48.6482 90.2298 48.6476C90.2313 48.6471 90.2328 48.6465 90.2343 48.646C90.2359 48.6454 90.2374 48.6448 90.2389 48.6443C90.2404 48.6437 90.2419 48.6431 90.2434 48.6426C90.2449 48.642 90.2465 48.6415 90.248 48.6409C90.2495 48.6403 90.251 48.6398 90.2525 48.6392C90.254 48.6387 90.2555 48.6381 90.2571 48.6375C90.2586 48.637 90.2601 48.6364 90.2616 48.6359C90.2631 48.6353 90.2646 48.6347 90.2661 48.6342C90.2677 48.6336 90.2692 48.6331 90.2707 48.6325C90.2722 48.6319 90.2737 48.6314 90.2752 48.6308C90.2767 48.6302 90.2783 48.6297 90.2798 48.6291C90.2813 48.6286 90.2828 48.628 90.2843 48.6274C90.2858 48.6269 90.2873 48.6263 90.2889 48.6258L89.7998 47.3051C89.7983 47.3057 89.7967 47.3062 89.7952 47.3068C89.7937 47.3073 89.7922 47.3079 89.7907 47.3085C89.7892 47.309 89.7877 47.3096 89.7861 47.3101C89.7846 47.3107 89.7831 47.3113 89.7816 47.3118C89.7801 47.3124 89.7786 47.3129 89.7771 47.3135C89.7755 47.3141 89.774 47.3146 89.7725 47.3152C89.771 47.3157 89.7695 47.3163 89.768 47.3169C89.7665 47.3174 89.765 47.318 89.7634 47.3185C89.7619 47.3191 89.7604 47.3197 89.7589 47.3202C89.7574 47.3208 89.7559 47.3213 89.7543 47.3219C89.7528 47.3225 89.7513 47.323 89.7498 47.3236C89.7483 47.3242 89.7468 47.3247 89.7453 47.3253C89.7437 47.3258 89.7422 47.3264 89.7407 47.327C89.7392 47.3275 89.7377 47.3281 89.7362 47.3286C89.7347 47.3292 89.7331 47.3298 89.7316 47.3303C89.7301 47.3309 89.7286 47.3314 89.7271 47.332C89.7256 47.3326 89.724 47.3331 89.7225 47.3337C89.721 47.3343 89.7195 47.3348 89.718 47.3354C89.7165 47.3359 89.715 47.3365 89.7134 47.3371C89.7119 47.3376 89.7104 47.3382 89.7089 47.3387C89.7074 47.3393 89.7059 47.3399 89.7043 47.3404C89.7028 47.341 89.7013 47.3416 89.6998 47.3421C89.6983 47.3427 89.6968 47.3432 89.6952 47.3438C89.6937 47.3444 89.6922 47.3449 89.6907 47.3455C89.6892 47.346 89.6877 47.3466 89.6861 47.3472C89.6846 47.3477 89.6831 47.3483 89.6816 47.3489C89.6801 47.3494 89.6786 47.35 89.677 47.3505C89.6755 47.3511 89.674 47.3517 89.6725 47.3522C89.671 47.3528 89.6695 47.3533 89.6679 47.3539C89.6664 47.3545 89.6649 47.355 89.6634 47.3556C89.6619 47.3562 89.6604 47.3567 89.6588 47.3573C89.6573 47.3578 89.6558 47.3584 89.6543 47.359C89.6528 47.3595 89.6513 47.3601 89.6497 47.3607C89.6482 47.3612 89.6467 47.3618 89.6452 47.3623C89.6437 47.3629 89.6421 47.3635 89.6406 47.364C89.6391 47.3646 89.6376 47.3651 89.6361 47.3657C89.6346 47.3663 89.633 47.3668 89.6315 47.3674C89.63 47.368 89.6285 47.3685 89.627 47.3691C89.6254 47.3696 89.6239 47.3702 89.6224 47.3708C89.6209 47.3713 89.6194 47.3719 89.6179 47.3725C89.6163 47.373 89.6148 47.3736 89.6133 47.3741C89.6118 47.3747 89.6103 47.3753 89.6087 47.3758C89.6072 47.3764 89.6057 47.377 89.6042 47.3775C89.6027 47.3781 89.6011 47.3786 89.5996 47.3792C89.5981 47.3798 89.5966 47.3803 89.5951 47.3809C89.5935 47.3815 89.592 47.382 89.5905 47.3826C89.589 47.3831 89.5875 47.3837 89.586 47.3843C89.5844 47.3848 89.5829 47.3854 89.5814 47.386C89.5799 47.3865 89.5784 47.3871 89.5768 47.3877C89.5753 47.3882 89.5738 47.3888 89.5723 47.3893C89.5708 47.3899 89.5692 47.3905 89.5677 47.391C89.5662 47.3916 89.5647 47.3922 89.5632 47.3927C89.5616 47.3933 89.5601 47.3938 89.5586 47.3944C89.5571 47.395 89.5556 47.3955 89.554 47.3961C89.5525 47.3967 89.551 47.3972 89.5495 47.3978C89.5479 47.3983 89.5464 47.3989 89.5449 47.3995C89.5434 47.4 89.5419 47.4006 89.5403 47.4012C89.5388 47.4017 89.5373 47.4023 89.5358 47.4029C89.5343 47.4034 89.5327 47.404 89.5312 47.4045C89.5297 47.4051 89.5282 47.4057 89.5267 47.4062C89.5251 47.4068 89.5236 47.4074 89.5221 47.4079C89.5206 47.4085 89.519 47.4091 89.5175 47.4096C89.516 47.4102 89.5145 47.4107 89.513 47.4113C89.5114 47.4119 89.5099 47.4124 89.5084 47.413C89.5069 47.4136 89.5053 47.4141 89.5038 47.4147C89.5023 47.4152 89.5008 47.4158 89.4993 47.4164C89.4977 47.4169 89.4962 47.4175 89.4947 47.4181C89.4932 47.4186 89.4917 47.4192 89.4901 47.4198C89.4886 47.4203 89.4871 47.4209 89.4856 47.4215C89.484 47.422 89.4825 47.4226 89.481 47.4231C89.4795 47.4237 89.4779 47.4243 89.4764 47.4248C89.4749 47.4254 89.4734 47.426 89.4719 47.4265C89.4703 47.4271 89.4688 47.4277 89.4673 47.4282C89.4658 47.4288 89.4642 47.4293 89.4627 47.4299C89.4612 47.4305 89.4597 47.431 89.4581 47.4316C89.4566 47.4322 89.4551 47.4327 89.4536 47.4333C89.4521 47.4339 89.4505 47.4344 89.449 47.435C89.4475 47.4356 89.446 47.4361 89.4444 47.4367C89.4429 47.4372 89.4414 47.4378 89.4399 47.4384C89.4383 47.4389 89.4368 47.4395 89.4353 47.4401C89.4338 47.4406 89.4322 47.4412 89.4307 47.4418C89.4292 47.4423 89.4277 47.4429 89.4261 47.4435C89.4246 47.444 89.4231 47.4446 89.4216 47.4451C89.42 47.4457 89.4185 47.4463 89.417 47.4468C89.4155 47.4474 89.414 47.448 89.4124 47.4485C89.4109 47.4491 89.4094 47.4497 89.4079 47.4502C89.4063 47.4508 89.4048 47.4514 89.4033 47.4519C89.4018 47.4525 89.4002 47.4531 89.3987 47.4536C89.3972 47.4542 89.3957 47.4547 89.3941 47.4553C89.3926 47.4559 89.3911 47.4564 89.3896 47.457C89.388 47.4576 89.3865 47.4581 89.385 47.4587C89.3834 47.4593 89.3819 47.4598 89.3804 47.4604C89.3789 47.461 89.3773 47.4615 89.3758 47.4621C89.3743 47.4627 89.3728 47.4632 89.3712 47.4638C89.3697 47.4644 89.3682 47.4649 89.3667 47.4655C89.3651 47.466 89.3636 47.4666 89.3621 47.4672C89.3606 47.4677 89.359 47.4683 89.3575 47.4689C89.356 47.4694 89.3545 47.47 89.3529 47.4706C89.3514 47.4711 89.3499 47.4717 89.3484 47.4723C89.3468 47.4728 89.3453 47.4734 89.3438 47.474C89.3422 47.4745 89.3407 47.4751 89.3392 47.4757C89.3377 47.4762 89.3361 47.4768 89.3346 47.4774C89.3331 47.4779 89.3316 47.4785 89.33 47.479C89.3285 47.4796 89.327 47.4802 89.3254 47.4807C89.3239 47.4813 89.3224 47.4819 89.3209 47.4824C89.3193 47.483 89.3178 47.4836 89.3163 47.4841C89.3148 47.4847 89.3132 47.4853 89.3117 47.4858C89.3102 47.4864 89.3086 47.487 89.3071 47.4875C89.3056 47.4881 89.3041 47.4887 89.3025 47.4892C89.301 47.4898 89.2995 47.4904 89.2979 47.4909C89.2964 47.4915 89.2949 47.4921 89.2934 47.4926C89.2918 47.4932 89.2903 47.4938 89.2888 47.4943C89.2873 47.4949 89.2857 47.4955 89.2842 47.496C89.2827 47.4966 89.2811 47.4972 89.2796 47.4977C89.2781 47.4983 89.2766 47.4989 89.275 47.4994C89.2735 47.5 89.272 47.5006 89.2704 47.5011C89.2689 47.5017 89.2674 47.5022 89.2659 47.5028C89.2643 47.5034 89.2628 47.5039 89.2613 47.5045C89.2597 47.5051 89.2582 47.5056 89.2567 47.5062C89.2551 47.5068 89.2536 47.5073 89.2521 47.5079C89.2506 47.5085 89.249 47.509 89.2475 47.5096C89.246 47.5102 89.2444 47.5107 89.2429 47.5113C89.2414 47.5119 89.2399 47.5124 89.2383 47.513C89.2368 47.5136 89.2353 47.5141 89.2337 47.5147C89.2322 47.5153 89.2307 47.5158 89.2291 47.5164C89.2276 47.517 89.2261 47.5175 89.2246 47.5181C89.223 47.5187 89.2215 47.5192 89.22 47.5198C89.2184 47.5204 89.2169 47.5209 89.2154 47.5215C89.2138 47.5221 89.2123 47.5226 89.2108 47.5232C89.2092 47.5238 89.2077 47.5243 89.2062 47.5249C89.2047 47.5255 89.2031 47.526 89.2016 47.5266C89.2001 47.5272 89.1985 47.5277 89.197 47.5283C89.1955 47.5289 89.1939 47.5294 89.1924 47.53C89.1909 47.5306 89.1893 47.5311 89.1878 47.5317C89.1863 47.5323 89.1848 47.5328 89.1832 47.5334C89.1817 47.534 89.1802 47.5346 89.1786 47.5351C89.1771 47.5357 89.1756 47.5363 89.174 47.5368C89.1725 47.5374 89.171 47.538 89.1694 47.5385C89.1679 47.5391 89.1664 47.5397 89.1648 47.5402C89.1633 47.5408 89.1618 47.5414 89.1602 47.5419C89.1587 47.5425 89.1572 47.5431 89.1556 47.5436C89.1541 47.5442 89.1526 47.5448 89.1511 47.5453C89.1495 47.5459 89.148 47.5465 89.1465 47.547C89.1449 47.5476 89.1434 47.5482 89.1419 47.5487C89.1403 47.5493 89.1388 47.5499 89.1373 47.5504C89.1357 47.551 89.1342 47.5516 89.1327 47.5521C89.1311 47.5527 89.1296 47.5533 89.1281 47.5538C89.1265 47.5544 89.125 47.555 89.1235 47.5555C89.1219 47.5561 89.1204 47.5567 89.1189 47.5572C89.1173 47.5578 89.1158 47.5584 89.1143 47.559C89.1127 47.5595 89.1112 47.5601 89.1097 47.5607C89.1081 47.5612 89.1066 47.5618 89.1051 47.5624C89.1035 47.5629 89.102 47.5635 89.1005 47.5641C89.0989 47.5646 89.0974 47.5652 89.0959 47.5658C89.0943 47.5663 89.0928 47.5669 89.0913 47.5675C89.0897 47.568 89.0882 47.5686 89.0867 47.5692C89.0851 47.5697 89.0836 47.5703 89.082 47.5709C89.0805 47.5715 89.079 47.572 89.0774 47.5726C89.0759 47.5732 89.0744 47.5737 89.0728 47.5743C89.0713 47.5749 89.0698 47.5754 89.0682 47.576C89.0667 47.5766 89.0652 47.5771 89.0636 47.5777C89.0621 47.5783 89.0606 47.5788 89.059 47.5794C89.0575 47.58 89.056 47.5805 89.0544 47.5811C89.0529 47.5817 89.0514 47.5822 89.0498 47.5828C89.0483 47.5834 89.0467 47.584 89.0452 47.5845C89.0437 47.5851 89.0421 47.5857 89.0406 47.5862C89.0391 47.5868 89.0375 47.5874 89.036 47.5879C89.0345 47.5885 89.0329 47.5891 89.0314 47.5896C89.0299 47.5902 89.0283 47.5908 89.0268 47.5913C89.0252 47.5919 89.0237 47.5925 89.0222 47.5931C89.0206 47.5936 89.0191 47.5942 89.0176 47.5948C89.016 47.5953 89.0145 47.5959 89.013 47.5965C89.0114 47.597 89.0099 47.5976 89.0083 47.5982C89.0068 47.5987 89.0053 47.5993 89.0037 47.5999C89.0022 47.6005 89.0007 47.601 88.9991 47.6016C88.9976 47.6022 88.9961 47.6027 88.9945 47.6033C88.993 47.6039 88.9914 47.6044 88.9899 47.605C88.9884 47.6056 88.9868 47.6061 88.9853 47.6067C88.9838 47.6073 88.9822 47.6079 88.9807 47.6084C88.9791 47.609 88.9776 47.6096 88.9761 47.6101C88.9745 47.6107 88.973 47.6113 88.9715 47.6118C88.9699 47.6124 88.9684 47.613 88.9668 47.6135C88.9653 47.6141 88.9638 47.6147 88.9622 47.6153C88.9607 47.6158 88.9592 47.6164 88.9576 47.617C88.9561 47.6175 88.9545 47.6181 88.953 47.6187C88.9515 47.6192 88.9499 47.6198 88.9484 47.6204C88.9469 47.6209 88.9453 47.6215 88.9438 47.6221C88.9422 47.6227 88.9407 47.6232 88.9392 47.6238C88.9376 47.6244 88.9361 47.6249 88.9345 47.6255C88.933 47.6261 88.9315 47.6266 88.9299 47.6272C88.9284 47.6278 88.9268 47.6284 88.9253 47.6289C88.9238 47.6295 88.9222 47.6301 88.9207 47.6306C88.9192 47.6312 88.9176 47.6318 88.9161 47.6323C88.9145 47.6329 88.913 47.6335 88.9115 47.6341C88.9099 47.6346 88.9084 47.6352 88.9068 47.6358C88.9053 47.6363 88.9038 47.6369 88.9022 47.6375C88.9007 47.638 88.8991 47.6386 88.8976 47.6392C88.8961 47.6398 88.8945 47.6403 88.893 47.6409C88.8914 47.6415 88.8899 47.642 88.8884 47.6426C88.8868 47.6432 88.8853 47.6437 88.8837 47.6443C88.8822 47.6449 88.8807 47.6455 88.8791 47.646C88.8776 47.6466 88.876 47.6472 88.8745 47.6477C88.873 47.6483 88.8714 47.6489 88.8699 47.6495C88.8683 47.65 88.8668 47.6506 88.8653 47.6512C88.8637 47.6517 88.8622 47.6523 88.8606 47.6529C88.8591 47.6534 88.8576 47.654 88.856 47.6546C88.8545 47.6552 88.8529 47.6557 88.8514 47.6563C88.8498 47.6569 88.8483 47.6574 88.8468 47.658C88.8452 47.6586 88.8437 47.6592 88.8421 47.6597C88.8406 47.6603 88.8391 47.6609 88.8375 47.6614C88.836 47.662 88.8344 47.6626 88.8329 47.6632C88.8314 47.6637 88.8298 47.6643 88.8283 47.6649C88.8267 47.6654 88.8252 47.666 88.8236 47.6666C88.8221 47.6671 88.8206 47.6677 88.819 47.6683C88.8175 47.6689 88.8159 47.6694 88.8144 47.67C88.8128 47.6706 88.8113 47.6711 88.8098 47.6717C88.8082 47.6723 88.8067 47.6729 88.8051 47.6734C88.8036 47.674 88.8021 47.6746 88.8005 47.6751C88.799 47.6757 88.7974 47.6763 88.7959 47.6769C88.7943 47.6774 88.7928 47.678 88.7913 47.6786C88.7897 47.6791 88.7882 47.6797 88.7866 47.6803C88.7851 47.6809 88.7835 47.6814 88.782 47.682C88.7805 47.6826 88.7789 47.6831 88.7774 47.6837C88.7758 47.6843 88.7743 47.6849 88.7727 47.6854C88.7712 47.686 88.7697 47.6866 88.7681 47.6871C88.7666 47.6877 88.765 47.6883 88.7635 47.6889C88.7619 47.6894 88.7604 47.69 88.7588 47.6906C88.7573 47.6911 88.7558 47.6917 88.7542 47.6923C88.7527 47.6929 88.7511 47.6934 88.7496 47.694C88.748 47.6946 88.7465 47.6951 88.7449 47.6957C88.7434 47.6963 88.7419 47.6969 88.7403 47.6974C88.7388 47.698 88.7372 47.6986 88.7357 47.6992C88.7341 47.6997 88.7326 47.7003 88.731 47.7009C88.7295 47.7014 88.728 47.702 88.7264 47.7026C88.7249 47.7032 88.7233 47.7037 88.7218 47.7043C88.7202 47.7049 88.7187 47.7054 88.7171 47.706C88.7156 47.7066 88.7141 47.7072 88.7125 47.7077C88.711 47.7083 88.7094 47.7089 88.7079 47.7094C88.7063 47.71 88.7048 47.7106 88.7032 47.7112C88.7017 47.7117 88.7001 47.7123 88.6986 47.7129C88.6971 47.7135 88.6955 47.714 88.694 47.7146C88.6924 47.7152 88.6909 47.7157 88.6893 47.7163C88.6878 47.7169 88.6862 47.7175 88.6847 47.718C88.6831 47.7186 88.6816 47.7192 88.6801 47.7198C88.6785 47.7203 88.677 47.7209 88.6754 47.7215C88.6739 47.722 88.6723 47.7226 88.6708 47.7232C88.6692 47.7238 88.6677 47.7243 88.6661 47.7249C88.6646 47.7255 88.663 47.7261 88.6615 47.7266C88.66 47.7272 88.6584 47.7278 88.6569 47.7283C88.6553 47.7289 88.6538 47.7295 88.6522 47.7301C88.6507 47.7306 88.6491 47.7312 88.6476 47.7318C88.646 47.7324 88.6445 47.7329 88.6429 47.7335C88.6414 47.7341 88.6398 47.7346 88.6383 47.7352C88.6367 47.7358 88.6352 47.7364 88.6337 47.7369C88.6321 47.7375 88.6306 47.7381 88.629 47.7387C88.6275 47.7392 88.6259 47.7398 88.6244 47.7404C88.6228 47.7409 88.6213 47.7415 88.6197 47.7421C88.6182 47.7427 88.6166 47.7432 88.6151 47.7438C88.6135 47.7444 88.612 47.745 88.6104 47.7455C88.6089 47.7461 88.6073 47.7467 88.6058 47.7473C88.6042 47.7478 88.6027 47.7484 88.6011 47.749C88.5996 47.7495 88.5981 47.7501 88.5965 47.7507C88.595 47.7513 88.5934 47.7518 88.5919 47.7524C88.5903 47.753 88.5888 47.7536 88.5872 47.7541C88.5857 47.7547 88.5841 47.7553 88.5826 47.7559C88.581 47.7564 88.5795 47.757 88.5779 47.7576C88.5764 47.7581 88.5748 47.7587 88.5733 47.7593C88.5717 47.7599 88.5702 47.7604 88.5686 47.761C88.5671 47.7616 88.5655 47.7622 88.564 47.7627C88.5624 47.7633 88.5609 47.7639 88.5593 47.7645C88.5578 47.765 88.5562 47.7656 88.5547 47.7662C88.5531 47.7668 88.5516 47.7673 88.55 47.7679C88.5485 47.7685 88.5469 47.7691 88.5454 47.7696C88.5438 47.7702 88.5423 47.7708 88.5407 47.7713C88.5392 47.7719 88.5376 47.7725 88.5361 47.7731C88.5345 47.7736 88.533 47.7742 88.5314 47.7748C88.5299 47.7754 88.5283 47.7759 88.5268 47.7765C88.5252 47.7771 88.5237 47.7777 88.5221 47.7782C88.5206 47.7788 88.519 47.7794 88.5175 47.78C88.5159 47.7805 88.5144 47.7811 88.5128 47.7817C88.5113 47.7823 88.5097 47.7828 88.5082 47.7834C88.5066 47.784 88.5051 47.7846 88.5035 47.7851C88.502 47.7857 88.5004 47.7863 88.4989 47.7869C88.4973 47.7874 88.4958 47.788 88.4942 47.7886C88.4927 47.7892 88.4911 47.7897 88.4896 47.7903C88.488 47.7909 88.4864 47.7914 88.4849 47.792C88.4833 47.7926 88.4818 47.7932 88.4802 47.7937C88.4787 47.7943 88.4771 47.7949 88.4756 47.7955C88.474 47.796 88.4725 47.7966 88.4709 47.7972C88.4694 47.7978 88.4678 47.7983 88.4663 47.7989C88.4647 47.7995 88.4632 47.8001 88.4616 47.8006C88.4601 47.8012 88.4585 47.8018 88.457 47.8024C88.4554 47.8029 88.4539 47.8035 88.4523 47.8041C88.4507 47.8047 88.4492 47.8052 88.4476 47.8058C88.4461 47.8064 88.4445 47.807 88.443 47.8075C88.4414 47.8081 88.4399 47.8087 88.4383 47.8093C88.4368 47.8098 88.4352 47.8104 88.4337 47.811C88.4321 47.8116 88.4306 47.8121 88.429 47.8127C88.4275 47.8133 88.4259 47.8139 88.4243 47.8144C88.4228 47.815 88.4212 47.8156 88.4197 47.8162C88.4181 47.8167 88.4166 47.8173 88.415 47.8179C88.4135 47.8185 88.4119 47.8191 88.4104 47.8196C88.4088 47.8202 88.4073 47.8208 88.4057 47.8214C88.4041 47.8219 88.4026 47.8225 88.401 47.8231C88.3995 47.8237 88.3979 47.8242 88.3964 47.8248C88.3948 47.8254 88.3933 47.826 88.3917 47.8265C88.3902 47.8271 88.3886 47.8277 88.3871 47.8283C88.3855 47.8288 88.3839 47.8294 88.3824 47.83C88.3808 47.8306 88.3793 47.8311 88.3777 47.8317C88.3762 47.8323 88.3746 47.8329 88.3731 47.8334C88.3715 47.834 88.3699 47.8346 88.3684 47.8352C88.3668 47.8357 88.3653 47.8363 88.3637 47.8369C88.3622 47.8375 88.3606 47.838 88.3591 47.8386C88.3575 47.8392 88.356 47.8398 88.3544 47.8404C88.3528 47.8409 88.3513 47.8415 88.3497 47.8421C88.3482 47.8427 88.3466 47.8432 88.3451 47.8438C88.3435 47.8444 88.342 47.845 88.3404 47.8455C88.3388 47.8461 88.3373 47.8467 88.3357 47.8473C88.3342 47.8478 88.3326 47.8484 88.3311 47.849C88.3295 47.8496 88.3279 47.8501 88.3264 47.8507C88.3248 47.8513 88.3233 47.8519 88.3217 47.8525C88.3202 47.853 88.3186 47.8536 88.3171 47.8542C88.3155 47.8548 88.3139 47.8553 88.3124 47.8559C88.3108 47.8565 88.3093 47.8571 88.3077 47.8576C88.3062 47.8582 88.3046 47.8588 88.303 47.8594C88.3015 47.8599 88.2999 47.8605 88.2984 47.8611C88.2968 47.8617 88.2953 47.8623 88.2937 47.8628C88.2921 47.8634 88.2906 47.864 88.289 47.8646C88.2875 47.8651 88.2859 47.8657 88.2844 47.8663C88.2828 47.8669 88.2812 47.8674 88.2797 47.868C88.2781 47.8686 88.2766 47.8692 88.275 47.8698C88.2735 47.8703 88.2719 47.8709 88.2703 47.8715C88.2688 47.8721 88.2672 47.8726 88.2657 47.8732C88.2641 47.8738 88.2625 47.8744 88.261 47.8749C88.2594 47.8755 88.2579 47.8761 88.2563 47.8767C88.2548 47.8773 88.2532 47.8778 88.2516 47.8784C88.2501 47.879 88.2485 47.8796 88.247 47.8801C88.2454 47.8807 88.2438 47.8813 88.2423 47.8819C88.2407 47.8824 88.2392 47.883 88.2376 47.8836C88.2361 47.8842 88.2345 47.8848 88.2329 47.8853C88.2314 47.8859 88.2298 47.8865 88.2283 47.8871C88.2267 47.8876 88.2251 47.8882 88.2236 47.8888C88.222 47.8894 88.2205 47.89 88.2189 47.8905C88.2173 47.8911 88.2158 47.8917 88.2142 47.8923C88.2127 47.8928 88.2111 47.8934 88.2095 47.894C88.208 47.8946 88.2064 47.8952 88.2049 47.8957C88.2033 47.8963 88.2017 47.8969 88.2002 47.8975C88.1986 47.898 88.1971 47.8986 88.1955 47.8992C88.1939 47.8998 88.1924 47.9003 88.1908 47.9009C88.1893 47.9015 88.1877 47.9021 88.1861 47.9027C88.1846 47.9032 88.183 47.9038 88.1815 47.9044C88.1799 47.905 88.1783 47.9055 88.1768 47.9061C88.1752 47.9067 88.1737 47.9073 88.1721 47.9079C88.1705 47.9084 88.169 47.909 88.1674 47.9096C88.1659 47.9102 88.1643 47.9108 88.1627 47.9113C88.1612 47.9119 88.1596 47.9125 88.1581 47.9131C88.1565 47.9136 88.1549 47.9142 88.1534 47.9148C88.1518 47.9154 88.1502 47.916 88.1487 47.9165C88.1471 47.9171 88.1456 47.9177 88.144 47.9183C88.1424 47.9188 88.1409 47.9194 88.1393 47.92C88.1378 47.9206 88.1362 47.9212 88.1346 47.9217C88.1331 47.9223 88.1315 47.9229 88.1299 47.9235C88.1284 47.9241 88.1268 47.9246 88.1253 47.9252C88.1237 47.9258 88.1221 47.9264 88.1206 47.9269C88.119 47.9275 88.1174 47.9281 88.1159 47.9287C88.1143 47.9293 88.1128 47.9298 88.1112 47.9304C88.1096 47.931 88.1081 47.9316 88.1065 47.9322C88.1049 47.9327 88.1034 47.9333 88.1018 47.9339C88.1003 47.9345 88.0987 47.935 88.0971 47.9356C88.0956 47.9362 88.094 47.9368 88.0924 47.9374C88.0909 47.9379 88.0893 47.9385 88.0878 47.9391C88.0862 47.9397 88.0846 47.9403 88.0831 47.9408C88.0815 47.9414 88.0799 47.942 88.0784 47.9426C88.0768 47.9431 88.0753 47.9437 88.0737 47.9443C88.0721 47.9449 88.0706 47.9455 88.069 47.946C88.0674 47.9466 88.0659 47.9472 88.0643 47.9478C88.0627 47.9484 88.0612 47.9489 88.0596 47.9495C88.0581 47.9501 88.0565 47.9507 88.0549 47.9513C88.0534 47.9518 88.0518 47.9524 88.0502 47.953C88.0487 47.9536 88.0471 47.9542 88.0455 47.9547C88.044 47.9553 88.0424 47.9559 88.0408 47.9565C88.0393 47.957 88.0377 47.9576 88.0362 47.9582C88.0346 47.9588 88.033 47.9594 88.0315 47.9599C88.0299 47.9605 88.0283 47.9611 88.0268 47.9617C88.0252 47.9623 88.0236 47.9628 88.0221 47.9634C88.0205 47.964 88.0189 47.9646 88.0174 47.9652C88.0158 47.9657 88.0142 47.9663 88.0127 47.9669C88.0111 47.9675 88.0095 47.9681 88.008 47.9686C88.0064 47.9692 88.0048 47.9698 88.0033 47.9704C88.0017 47.971 88.0002 47.9715 87.9986 47.9721C87.997 47.9727 87.9955 47.9733 87.9939 47.9739C87.9923 47.9744 87.9908 47.975 87.9892 47.9756C87.9876 47.9762 87.9861 47.9768 87.9845 47.9773C87.9829 47.9779 87.9814 47.9785 87.9798 47.9791C87.9782 47.9797 87.9767 47.9802 87.9751 47.9808C87.9735 47.9814 87.972 47.982 87.9704 47.9826C87.9688 47.9831 87.9673 47.9837 87.9657 47.9843C87.9641 47.9849 87.9626 47.9855 87.961 47.986C87.9594 47.9866 87.9579 47.9872 87.9563 47.9878C87.9547 47.9884 87.9532 47.9889 87.9516 47.9895C87.95 47.9901 87.9485 47.9907 87.9469 47.9913C87.9453 47.9918 87.9438 47.9924 87.9422 47.993C87.9406 47.9936 87.9391 47.9942 87.9375 47.9947C87.9359 47.9953 87.9344 47.9959 87.9328 47.9965C87.9312 47.9971 87.9297 47.9976 87.9281 47.9982C87.9265 47.9988 87.925 47.9994 87.9234 48C87.9218 48.0005 87.9202 48.0011 87.9187 48.0017C87.9171 48.0023 87.9155 48.0029 87.914 48.0035C87.9124 48.004 87.9108 48.0046 87.9093 48.0052C87.9077 48.0058 87.9061 48.0064 87.9046 48.0069C87.903 48.0075 87.9014 48.0081 87.8999 48.0087C87.8983 48.0093 87.8967 48.0098 87.8952 48.0104C87.8936 48.011 87.892 48.0116 87.8904 48.0122C87.8889 48.0127 87.8873 48.0133 87.8857 48.0139C87.8842 48.0145 87.8826 48.0151 87.881 48.0157C87.8795 48.0162 87.8779 48.0168 87.8763 48.0174C87.8748 48.018 87.8732 48.0186 87.8716 48.0191C87.8701 48.0197 87.8685 48.0203 87.8669 48.0209C87.8653 48.0215 87.8638 48.022 87.8622 48.0226C87.8606 48.0232 87.8591 48.0238 87.8575 48.0244C87.8559 48.0249 87.8544 48.0255 87.8528 48.0261C87.8512 48.0267 87.8496 48.0273 87.8481 48.0279C87.8465 48.0284 87.8449 48.029 87.8434 48.0296C87.8418 48.0302 87.8402 48.0308 87.8387 48.0313C87.8371 48.0319 87.8355 48.0325 87.8339 48.0331C87.8324 48.0337 87.8308 48.0343 87.8292 48.0348C87.8277 48.0354 87.8261 48.036 87.8245 48.0366C87.823 48.0372 87.8214 48.0377 87.8198 48.0383C87.8182 48.0389 87.8167 48.0395 87.8151 48.0401C87.8135 48.0407 87.812 48.0412 87.8104 48.0418C87.8088 48.0424 87.8072 48.043 87.8057 48.0436C87.8041 48.0441 87.8025 48.0447 87.801 48.0453C87.7994 48.0459 87.7978 48.0465 87.7962 48.0471C87.7947 48.0476 87.7931 48.0482 87.7915 48.0488C87.79 48.0494 87.7884 48.05 87.7868 48.0505C87.7852 48.0511 87.7837 48.0517 87.7821 48.0523C87.7805 48.0529 87.779 48.0535 87.7774 48.054C87.7758 48.0546 87.7742 48.0552 87.7727 48.0558C87.7711 48.0564 87.7695 48.0569 87.768 48.0575C87.7664 48.0581 87.7648 48.0587 87.7632 48.0593C87.7617 48.0599 87.7601 48.0604 87.7585 48.061C87.7569 48.0616 87.7554 48.0622 87.7538 48.0628C87.7522 48.0634 87.7507 48.0639 87.7491 48.0645C87.7475 48.0651 87.7459 48.0657 87.7444 48.0663C87.7428 48.0668 87.7412 48.0674 87.7396 48.068C87.7381 48.0686 87.7365 48.0692 87.7349 48.0698C87.7334 48.0703 87.7318 48.0709 87.7302 48.0715C87.7286 48.0721 87.7271 48.0727 87.7255 48.0733C87.7239 48.0738 87.7223 48.0744 87.7208 48.075C87.7192 48.0756 87.7176 48.0762 87.716 48.0768C87.7145 48.0773 87.7129 48.0779 87.7113 48.0785C87.7097 48.0791 87.7082 48.0797 87.7066 48.0802C87.705 48.0808 87.7035 48.0814 87.7019 48.082C87.7003 48.0826 87.6987 48.0832 87.6972 48.0837C87.6956 48.0843 87.694 48.0849 87.6924 48.0855C87.6909 48.0861 87.6893 48.0867 87.6877 48.0872C87.6861 48.0878 87.6846 48.0884 87.683 48.089C87.6814 48.0896 87.6798 48.0902 87.6783 48.0907C87.6767 48.0913 87.6751 48.0919 87.6735 48.0925C87.672 48.0931 87.6704 48.0937 87.6688 48.0942C87.6672 48.0948 87.6657 48.0954 87.6641 48.096C87.6625 48.0966 87.6609 48.0972 87.6594 48.0977C87.6578 48.0983 87.6562 48.0989 87.6546 48.0995C87.6531 48.1001 87.6515 48.1007 87.6499 48.1012C87.6483 48.1018 87.6468 48.1024 87.6452 48.103C87.6436 48.1036 87.642 48.1042 87.6405 48.1047C87.6389 48.1053 87.6373 48.1059 87.6357 48.1065C87.6341 48.1071 87.6326 48.1077 87.631 48.1082C87.6294 48.1088 87.6278 48.1094 87.6263 48.11C87.6247 48.1106 87.6231 48.1112 87.6215 48.1118C87.62 48.1123 87.6184 48.1129 87.6168 48.1135C87.6152 48.1141 87.6137 48.1147 87.6121 48.1153C87.6105 48.1158 87.6089 48.1164 87.6073 48.117C87.6058 48.1176 87.6042 48.1182 87.6026 48.1188C87.601 48.1193 87.5995 48.1199 87.5979 48.1205C87.5963 48.1211 87.5947 48.1217 87.5932 48.1223C87.5916 48.1228 87.59 48.1234 87.5884 48.124C87.5868 48.1246 87.5853 48.1252 87.5837 48.1258C87.5821 48.1264 87.5805 48.1269 87.579 48.1275C87.5774 48.1281 87.5758 48.1287 87.5742 48.1293C87.5726 48.1299 87.5711 48.1304 87.5695 48.131C87.5679 48.1316 87.5663 48.1322 87.5648 48.1328C87.5632 48.1334 87.5616 48.1339 87.56 48.1345C87.5584 48.1351 87.5569 48.1357 87.5553 48.1363C87.5537 48.1369 87.5521 48.1375 87.5506 48.138C87.549 48.1386 87.5474 48.1392 87.5458 48.1398C87.5442 48.1404 87.5427 48.141 87.5411 48.1415C87.5395 48.1421 87.5379 48.1427 87.5363 48.1433C87.5348 48.1439 87.5332 48.1445 87.5316 48.1451C87.53 48.1456 87.5285 48.1462 87.5269 48.1468C87.5253 48.1474 87.5237 48.148 87.5221 48.1486C87.5206 48.1491 87.519 48.1497 87.5174 48.1503C87.5158 48.1509 87.5142 48.1515 87.5127 48.1521C87.5111 48.1527 87.5095 48.1532 87.5079 48.1538C87.5063 48.1544 87.5048 48.155 87.5032 48.1556C87.5016 48.1562 87.5 48.1568 87.4984 48.1573C87.4969 48.1579 87.4953 48.1585 87.4937 48.1591C87.4921 48.1597 87.4905 48.1603 87.489 48.1608C87.4874 48.1614 87.4858 48.162 87.4842 48.1626C87.4826 48.1632 87.4811 48.1638 87.4795 48.1644C87.4779 48.1649 87.4763 48.1655 87.4747 48.1661C87.4732 48.1667 87.4716 48.1673 87.47 48.1679C87.4684 48.1685 87.4668 48.169 87.4653 48.1696C87.4637 48.1702 87.4621 48.1708 87.4605 48.1714C87.4589 48.172 87.4573 48.1726 87.4558 48.1731C87.4542 48.1737 87.4526 48.1743 87.451 48.1749C87.4494 48.1755 87.4479 48.1761 87.4463 48.1767C87.4447 48.1772 87.4431 48.1778 87.4415 48.1784C87.44 48.179 87.4384 48.1796 87.4368 48.1802C87.4352 48.1808 87.4336 48.1813 87.432 48.1819C87.4305 48.1825 87.4289 48.1831 87.4273 48.1837C87.4257 48.1843 87.4241 48.1849 87.4226 48.1854L87.9116 49.5061ZM90.2889 48.6258C91.1179 48.3187 91.9003 47.988 92.6356 47.6332L92.0235 46.3648C91.3318 46.6986 90.5907 47.0122 89.7998 47.3051L90.2889 48.6258ZM93.0337 46.9957C93.0222 44.4932 93.1014 42.2423 93.2702 40.2417L91.8669 40.1232C91.6938 42.1739 91.6137 44.4674 91.6254 47.0022L93.0337 46.9957ZM93.2697 40.2477C93.4601 38.2029 93.7656 36.5618 94.1752 35.3084L92.8366 34.8709C92.3826 36.2601 92.0632 38.0142 91.8674 40.1172L93.2697 40.2477ZM93.6385 35.7812C94.009 35.7101 94.5574 35.682 95.3083 35.7149L95.37 34.308C94.574 34.273 93.9002 34.297 93.3732 34.3981L93.6385 35.7812ZM95.3083 35.7149C96.0563 35.7478 96.7999 35.821 97.539 35.9345L97.7528 34.5425C96.9632 34.4212 96.1689 34.343 95.37 34.308L95.3083 35.7149ZM97.5842 35.94C98.3421 36.0066 99.0304 36.1147 99.6509 36.2621L99.9765 34.892C99.2796 34.7264 98.5227 34.6087 97.7076 34.537L97.5842 35.94ZM99.6509 36.2621C100.316 36.4201 100.625 36.5536 100.717 36.6203L101.544 35.4808C101.198 35.2293 100.629 35.0471 99.9765 34.892L99.6509 36.2621ZM100.479 35.7835C99.9803 36.9997 99.5708 38.2837 99.2498 39.6345L100.62 39.9601C100.925 38.6762 101.313 37.4623 101.782 36.3177L100.479 35.7835ZM99.2524 39.6237C98.9208 40.9276 98.6299 42.3351 98.3792 43.8455L99.7685 44.0761C100.014 42.5994 100.297 41.2313 100.617 39.9709L99.2524 39.6237ZM99.3724 44.5985C100.606 44.0213 101.665 43.5079 102.55 43.0588L101.913 41.8029C101.045 42.2433 99.9996 42.7499 98.7753 43.323L99.3724 44.5985ZM102.548 43.0602C103.454 42.6054 104.128 42.2993 104.583 42.1306L104.094 40.81C103.564 41.0064 102.833 41.3408 101.916 41.8016L102.548 43.0602ZM104.583 42.1306C105.088 41.9437 105.69 42.0053 106.463 42.5115L107.235 41.3332C106.211 40.6628 105.139 40.423 104.094 40.81L104.583 42.1306ZM106.463 42.5115C107.238 43.0186 108.042 43.9186 108.857 45.281L110.065 44.5586C109.194 43.101 108.257 42.0027 107.235 41.3332L106.463 42.5115ZM109.286 44.2378C108.219 44.512 107.335 44.7579 106.638 44.9753L107.057 46.3198C107.723 46.1121 108.582 45.8728 109.636 45.6018L109.286 44.2378ZM106.64 44.9747C105.983 45.177 105.401 45.3722 104.892 45.5604L105.382 46.8811C105.86 46.7041 106.417 46.5172 107.055 46.3205L106.64 44.9747ZM104.892 45.5604C103.606 46.0367 102.391 46.5477 101.247 47.0936L101.854 48.3646C102.956 47.8385 104.132 47.3439 105.382 46.8811L104.892 45.5604ZM101.265 47.0853C100.15 47.5795 99.0991 48.0906 98.1131 48.6187L98.7781 49.8602C99.7304 49.3501 100.75 48.8543 101.836 48.3729L101.265 47.0853ZM97.7432 49.1901C97.6208 50.9305 97.5472 52.6928 97.5222 54.477L98.9304 54.4967C98.955 52.7383 99.0276 51.0023 99.148 49.2888L97.7432 49.1901ZM97.5222 54.477C97.4971 56.2611 97.5207 58.0672 97.5929 59.8951L99.0001 59.8395C98.9289 58.0361 98.9057 56.2552 98.9304 54.4967L97.5222 54.477Z" fill="#9F0101" mask="url(#path-3-outside-2_124_5707)"/>
</g>
<g filter="url(#filter2_d_124_5707)">
<path d="M100.527 66.0996C100.527 66.0997 100.527 66.0997 100.527 66.0998V66.1C100.527 77.3406 96.6289 88.2339 89.4978 96.923C82.3667 105.612 72.4432 111.56 61.4183 113.753C50.3933 115.946 38.9491 114.249 29.0355 108.95C19.1219 103.651 11.3523 95.0782 7.05058 84.6931C2.74887 74.308 2.18118 62.7522 5.44424 51.9954C8.7073 41.2387 15.5992 31.9458 24.9457 25.7007C34.2922 19.4557 45.515 16.6445 56.7017 17.7463C67.8726 18.8465 78.3175 23.7807 86.2618 31.7093C86.2636 31.7126 86.2656 31.7161 86.2676 31.7198C86.2733 31.7303 86.2799 31.7425 86.2872 31.7563C86.3176 31.8136 86.3603 31.8979 86.4081 32.0027C86.5041 32.2137 86.6175 32.5016 86.6923 32.8163C86.8469 33.4666 86.8125 34.1035 86.3217 34.5051C85.7884 34.9415 85.0978 34.9586 84.4831 34.8336C84.1812 34.7722 83.9147 34.6796 83.7231 34.6018C83.6277 34.563 83.552 34.5284 83.5011 34.504C83.4898 34.4986 83.4797 34.4937 83.471 34.4893C76.1717 27.2083 66.577 22.6771 56.3156 21.6665C46.0358 20.654 35.7229 23.2374 27.1342 28.9761C18.5455 34.7148 12.2123 43.2543 9.21382 53.1389C6.21531 63.0235 6.73698 73.6425 10.6899 83.1856C14.6429 92.7288 21.7826 100.606 30.8924 105.476C40.0023 110.345 50.5187 111.905 60.6498 109.89C70.7808 107.875 79.8998 102.409 86.4528 94.424C92.9992 86.4472 96.5803 76.449 96.5874 66.1305C96.5886 66.1239 96.5902 66.1161 96.592 66.107C96.5945 66.0946 96.5975 66.0799 96.6011 66.0632C96.6148 65.9999 96.637 65.9075 96.6699 65.7959C96.7361 65.5712 96.844 65.2755 97.0102 64.983C97.3425 64.3983 97.8771 63.8706 98.761 63.8706C99.2126 63.8706 99.5306 64.006 99.7633 64.1951C100.002 64.3889 100.171 64.6556 100.288 64.9427C100.406 65.2292 100.466 65.5207 100.497 65.744C100.512 65.8547 100.519 65.9464 100.523 66.0093C100.525 66.0407 100.526 66.0647 100.526 66.0802L100.527 66.0968L100.527 66.0996Z" stroke="#9F0101" stroke-width="0.704163" shape-rendering="crispEdges"/>
</g>
<defs>
<filter id="filter0_d_124_5707" x="13.2322" y="39.5977" width="67.4194" height="58.4009" filterUnits="userSpaceOnUse" color-interpolation-filters="sRGB">
<feFlood flood-opacity="0" result="BackgroundImageFix"/>
<feColorMatrix in="SourceAlpha" type="matrix" values="0 0 0 0 0 0 0 0 0 0 0 0 0 0 0 0 0 0 127 0" result="hardAlpha"/>
<feOffset dy="2.81665"/>
<feGaussianBlur stdDeviation="1.40833"/>
<feComposite in2="hardAlpha" operator="out"/>
<feColorMatrix type="matrix" values="0 0 0 0 0.623529 0 0 0 0 0.00392157 0 0 0 0 0.00392157 0 0 0 0.5 0"/>
<feBlend mode="normal" in2="BackgroundImageFix" result="effect1_dropShadow_124_5707"/>
<feBlend mode="normal" in="SourceGraphic" in2="effect1_dropShadow_124_5707" result="shape"/>
</filter>
<filter id="filter1_d_124_5707" x="79.7156" y="34.293" width="33.6499" height="32.022" filterUnits="userSpaceOnUse" color-interpolation-filters="sRGB">
<feFlood flood-opacity="0" result="BackgroundImageFix"/>
<feColorMatrix in="SourceAlpha" type="matrix" values="0 0 0 0 0 0 0 0 0 0 0 0 0 0 0 0 0 0 127 0" result="hardAlpha"/>
<feOffset dy="2.81665"/>
<feGaussianBlur stdDeviation="1.40833"/>
<feComposite in2="hardAlpha" operator="out"/>
<feColorMatrix type="matrix" values="0 0 0 0 0.623529 0 0 0 0 0.00392157 0 0 0 0 0.00392157 0 0 0 0.5 0"/>
<feBlend mode="normal" in2="BackgroundImageFix" result="effect1_dropShadow_124_5707"/>
<feBlend mode="normal" in="SourceGraphic" in2="effect1_dropShadow_124_5707" result="shape"/>
</filter>
<filter id="filter2_d_124_5707" x="0.183347" y="17.1602" width="103.512" height="103.512" filterUnits="userSpaceOnUse" color-interpolation-filters="sRGB">
<feFlood flood-opacity="0" result="BackgroundImageFix"/>
<feColorMatrix in="SourceAlpha" type="matrix" values="0 0 0 0 0 0 0 0 0 0 0 0 0 0 0 0 0 0 127 0" result="hardAlpha"/>
<feOffset dy="2.81665"/>
<feGaussianBlur stdDeviation="1.40833"/>
<feComposite in2="hardAlpha" operator="out"/>
<feColorMatrix type="matrix" values="0 0 0 0 0.623529 0 0 0 0 0.00392157 0 0 0 0 0.00392157 0 0 0 0.5 0"/>
<feBlend mode="normal" in2="BackgroundImageFix" result="effect1_dropShadow_124_5707"/>
<feBlend mode="normal" in="SourceGraphic" in2="effect1_dropShadow_124_5707" result="shape"/>
</filter>
</defs>
</svg>
