<svg width="23" height="34" viewBox="0 0 23 34" fill="none" xmlns="http://www.w3.org/2000/svg">
<rect x="7.5" y="11" width="3" height="11" fill="#9F0101"/>
<rect x="4" y="15" width="10" height="3" fill="#9F0101"/>
<line x1="0.530273" y1="3.5625" x2="0.530273" y2="29.0885" stroke="white" stroke-width="0.5"/>
<circle cx="13.1074" cy="16.4707" r="0.5" fill="#EAE115"/>
<path d="M5.05169 2.28634C5.84703 2.28641 1.67993 3.51331 1.5151 3.70601C0.83236 3.60223 4.0031 4.08416 3.18461 3.95974C2.03937 3.78566 2.00859 3.78098 1.34725 3.68051C1.34725 3.6657 0.280492 3.53311 0.28125 3.51841C0.320601 2.75569 1.37286 2.14453 2.6657 2.14453C2.6657 2.14453 4.42929 2.28629 5.05169 2.28634Z" fill="white"/>
<path d="M4.5 2.5L22.5492 3.4919M0.294706 3.49184L17.792 6.32806" stroke="white" stroke-width="0.5"/>
<path d="M4.5 2.5L22.5492 3.4919M0.294706 3.49184L17.792 6.32806" stroke="white" stroke-width="0.5"/>
<path d="M20.959 30.3648L22.5496 30.5065M0.280209 29.0884L17.7776 33.3426M17.778 31.7829L19.3686 31.9246M19.3686 31.0738L20.9593 31.2155" stroke="white" stroke-width="0.5"/>
<path d="M20.959 30.3648L22.5496 30.5065M0.280209 29.0884L17.7776 33.3426M17.778 31.7829L19.3686 31.9246M19.3686 31.0738L20.9593 31.2155" stroke="white" stroke-width="0.5"/>
<path d="M22.5488 3.5625L22.5488 30.5067" stroke="white" stroke-width="0.5"/>
<path d="M22.5488 3.5625L22.5488 30.5067" stroke="white" stroke-width="0.5"/>
<path d="M17.8559 6.39844L17.8567 33.3426" stroke="white" stroke-width="0.5"/>
<path d="M21.0361 4.98047L21.0361 31.2156" stroke="white" stroke-width="0.5"/>
<path d="M19.4467 5.68945L19.4476 31.9246" stroke="white" stroke-width="0.5"/>
<path d="M19.3674 5.75982L1.87779 3.20758M20.9588 4.97967L3.46165 2.85251" stroke="white" stroke-width="0.5"/>
<rect width="1" height="9" transform="matrix(-1 0 0 1 9.5 12)" fill="#EAE115"/>
<rect x="5.05176" y="15.9707" width="7.95333" height="1" fill="#EAE115"/>
<circle cx="9" cy="12" r="0.5" fill="#EAE115"/>
<circle cx="9" cy="21" r="0.5" fill="#EAE115"/>
<circle cx="5" cy="16.4707" r="0.5" fill="#EAE115"/>
<path d="M14.4997 16.5C14.4997 17.3284 14.2759 18 13.9997 18C13.7236 18 13.9995 17.3284 13.9995 16.5C13.9995 15.6716 13.7236 15 13.9997 15C14.2759 15 14.4997 15.6716 14.4997 16.5Z" fill="#9F0101"/>
<ellipse cx="9" cy="11" rx="1.5" ry="0.5" fill="#9F0101"/>
<ellipse cx="9" cy="22" rx="1.5" ry="0.5" fill="#9F0101"/>
<ellipse cx="4" cy="16.5" rx="0.5" ry="1.5" fill="#9F0101"/>
</svg>
