<svg width="520" height="623" viewBox="0 0 520 623" fill="none" xmlns="http://www.w3.org/2000/svg">
<g filter="url(#filter0_d_2326_17056)">
<path fill-rule="evenodd" clip-rule="evenodd" d="M334.044 2.77235C333.006 3.85284 331.409 6.6073 330.497 8.89249C329.584 11.1786 328.079 14.4812 327.151 16.2323C326.225 17.9824 325.456 20.1485 325.443 21.0451C325.429 21.9417 323.929 25.3804 322.11 28.6874C318.452 35.3351 317.716 41.6127 319.614 50.0022C320.976 56.0268 322.141 56.9238 322.221 52.0109C322.297 47.3717 323.847 41.3904 325.18 40.5947C325.733 40.2649 326.013 44.0687 325.914 50.5737L325.755 61.085L321.408 67.329C319.016 70.7624 316.406 74.0794 315.606 74.6986C313.356 76.4407 309.359 75.973 304.456 73.3948C296.512 69.2177 292.42 61.428 288.262 42.5658C286.111 32.8052 285.057 29.7707 283.048 27.5552C281.664 26.0273 279.822 24.7672 278.957 24.7541C277.478 24.7317 277.474 24.8759 278.887 27.1044C279.715 28.4107 280.249 30.3824 280.075 31.487C279.772 33.4029 279.208 33.5129 267.804 33.8638C249.652 34.4231 240.246 38.3475 227.582 50.6449C222.355 55.7214 219.503 59.4704 216.37 65.3845C214.059 69.7463 212.375 73.5295 212.629 73.7906C212.882 74.0518 214.409 72.4531 216.023 70.2373C219.927 64.8752 225.278 61.5794 231.28 60.8415C234.703 60.4202 235.681 60.0252 234.566 59.513C233.635 59.0863 230.518 59.4939 227.046 60.4962C221.574 62.0755 221.165 62.0868 221.751 60.6374C222.816 58.0017 232.237 50.2495 239.588 45.9586C248.588 40.7058 254.509 39.0736 266.301 38.5971L275.906 38.2088L273.851 40.7395C272.722 42.1319 271.789 43.8351 271.778 44.525C271.768 45.2149 271.43 45.774 271.028 45.7679C269.521 45.7451 260.302 55.4731 256.397 61.2083C251.453 68.4687 243.688 82.5274 243.438 84.671C243.338 85.5323 243.087 81.593 242.881 75.9177C242.545 66.6587 242.288 65.3812 240.374 63.475L238.242 61.3513L239.87 64.592C241.248 67.3355 241.435 69.7329 241.093 80.2313C240.812 88.8249 241.074 94.1455 241.948 97.5677C243.576 103.938 244.528 104.826 244.096 99.5731C243.199 88.6442 250.261 81.2239 258.754 84.1689C263.056 85.6611 265.053 88.8596 270.831 103.509C273.536 110.373 276.32 116.186 277.017 116.428C278.007 116.771 278.162 116.157 277.724 113.614C276.375 105.769 280.81 98.3532 286.869 98.3256C289.558 98.313 289.632 98.2388 287.741 97.4456C283.822 95.8021 279.637 98.5275 276.686 104.642C275.719 106.647 275.57 106.705 275.519 105.103C275.308 98.5731 274.652 87.3741 274.402 86.0186C274.238 85.1303 274.507 84.6621 274.999 84.9774C275.567 85.3407 275.854 82.5737 275.785 77.4095C275.667 68.7511 277.194 57.8268 279.673 49.5744C281.512 43.4559 282.078 44.4826 283.492 56.5063C285.075 69.9697 289.266 86.854 292.739 93.7614C294.417 97.0993 294.255 98.4954 292.193 98.4641C290.757 98.4424 291.01 99.0177 293.612 101.7C297.065 105.258 298.432 105.238 298.486 101.63C298.538 98.235 301.139 93.4853 303.517 92.4453C305.535 91.5634 312.068 92.2753 315.384 93.7388C316.265 94.127 317.62 95.8346 318.395 97.5334C319.777 100.563 319.737 100.739 316.219 106.944L312.634 113.267L313.676 121.519C314.645 129.201 314.58 130.159 312.727 135.391C304.735 157.974 308.921 194.217 322.118 216.696C329.567 229.385 352.943 255.927 359.721 259.392C360.862 259.975 357.741 256.329 352.785 251.291C339.692 237.978 327.854 221.632 322.381 209.304C316.882 196.915 315.235 188.023 315.451 171.867C315.662 156.098 316.682 149.409 322.091 128.321C326.234 112.173 328.018 102.323 329.976 84.7942C330.652 78.7399 331.425 72.756 331.694 71.4966C332.103 69.5723 332.019 69.4543 331.158 70.7589C330.595 71.6123 329.185 80.2742 328.023 90.0076C326.686 101.209 324.646 112.744 322.464 121.435C315.23 150.248 314.88 152.372 314.538 169.556C314.362 178.397 314.51 187.91 314.867 190.695C315.806 197.995 314.144 194.543 312.477 185.728C308.723 165.888 310.516 143.609 316.99 129.622C317.919 127.615 318.603 125.648 318.511 125.253C318.417 124.857 319.052 123.213 319.919 121.599C321.8 118.101 322.045 109.827 320.645 97.0575C320.002 91.1927 319.994 87.0577 320.619 84.4998C321.438 81.1483 321.348 80.6296 319.869 80.2185C318.944 79.9619 317.644 80.398 316.983 81.1883C315.961 82.4078 316.014 82.5418 317.332 82.0711C318.698 81.5837 318.855 82.2366 318.629 87.4698C318.391 92.9739 318.234 93.3767 316.543 92.8062C305.846 89.2002 301.929 89.8107 298.919 95.5512L296.903 99.3956L295.034 94.7003C294.007 92.1183 293.396 89.6447 293.678 89.2033C293.96 88.7619 293.746 87.668 293.202 86.7712C292.367 85.3922 292.293 85.4958 292.727 87.4458C293.627 91.4951 291.681 87.4309 289.765 81.261C287.879 75.1854 284.927 59.7349 284.111 51.6732C283.841 48.9962 283.208 45.6787 282.706 44.301C281.811 41.8451 281.765 41.8315 280.394 43.6127C279.054 45.3547 279.023 45.3295 279.628 43.0121C280.574 39.3886 278.585 38.8567 275.192 41.8257L272.24 44.408L274.809 41.6398C278.806 37.3348 278.28 36.6891 270.689 36.5741C259.289 36.4014 252.266 37.9057 241.935 42.734C237.916 44.612 236.958 44.8428 238.467 43.5691C239.614 42.6015 243.782 40.5108 247.728 38.924C254.209 36.3189 256.105 36.0003 267.318 35.6363C274.145 35.4145 280.119 35.5711 280.593 35.9854C281.067 36.3987 281.738 36.7415 282.083 36.7467C282.977 36.7603 283.842 33.2422 283.029 32.9C282.657 32.7437 282.095 31.3715 281.779 29.8506C281.257 27.3333 281.321 27.2368 282.489 28.7734C283.194 29.7021 285.016 35.932 286.538 42.6178C291.192 63.078 295.992 71.4261 305.568 75.7171C313.441 79.2454 315.963 78.0542 323.394 67.2966L327.121 61.9005L327.638 49.0405C328.02 39.5332 328.526 35.632 329.579 34.0776C331.522 31.209 330.306 31.4111 327.414 34.4381C324.739 37.2369 322.464 41.7848 321.365 46.5306C320.74 49.2364 320.623 48.8046 320.622 43.7628C320.621 40.4778 321.032 37.1761 321.533 36.4256C322.3 35.2776 322.443 35.3349 322.433 36.7811C322.423 38.2438 322.641 38.3252 323.889 37.3205C325.206 36.2617 325.138 35.9583 323.244 34.3841L321.131 32.6292L323.42 33.2281C325.51 33.7752 325.57 33.7127 324.12 32.5063C321.969 30.716 322.135 30.0863 324.608 30.6539C326.617 31.1144 326.624 31.0897 324.907 29.6532C323.937 28.8428 323.608 28.1873 324.173 28.1958C324.739 28.2044 325.842 28.8707 326.625 29.6765C327.83 30.9187 328.05 30.9367 328.067 29.7967C328.078 29.0572 327.471 28.2044 326.717 27.9017C325.964 27.6 325.354 26.9117 325.362 26.3724C325.372 25.7101 326.04 25.7542 327.428 26.5085C329.399 27.5822 329.42 27.5558 327.944 25.8391C326.887 24.6092 326.683 23.634 327.289 22.7087C327.771 21.9699 328.864 19.1186 329.716 16.374C331.579 10.3717 335.529 2.63957 336.723 2.65765C337.949 2.67623 339.263 8.28839 340.285 17.873C340.771 22.4287 341.316 26.3128 341.495 26.5048C341.674 26.6968 340.896 27.6213 339.765 28.5598L337.711 30.2672L340.477 29.6989L343.243 29.1307L340.915 31.1188L338.587 33.106L340.892 32.5887C343.009 32.1144 343.05 32.161 341.384 33.1584C339.583 34.2366 339.583 34.2504 341.356 34.9746C342.873 35.5949 342.761 35.709 340.615 35.7316C338.655 35.7515 338.094 35.3332 338.116 33.8661C338.132 32.8262 337.727 32.2237 337.217 32.5284C336.707 32.8331 336.261 34.9425 336.227 37.2161C336.192 39.4962 336.546 41.1216 337.017 40.8411C338.116 40.1851 339.601 44.9655 340.459 51.9169C341.135 57.3917 341.137 57.3945 342.351 54.659C345.457 47.6629 344.901 28.3813 341.093 11.0148C338.783 0.488188 337.585 -0.913791 334.044 2.77235ZM334.968 10.1502C333.409 14.9754 332.659 20.0546 333.501 20.0673C334.259 20.0788 336.882 8.08139 336.262 7.44164C336.089 7.26352 335.506 8.4823 334.968 10.1502ZM394.602 23.7176C388.584 27.2615 384.959 35.4598 382.955 50.0578C380.953 64.6357 378.403 70.1084 372.191 73.1596C363.53 77.4123 350.285 75.1754 345.456 68.6425C341.469 63.2499 336.955 52.111 336.853 47.4159C336.8 44.9929 336.414 42.7919 335.996 42.5246C334.475 41.5533 335.155 50.4766 336.994 55.6244C342.512 71.0789 349.344 76.8151 362.474 77.0158C368.35 77.1058 368.531 78.168 362.716 78.441C360.802 78.5305 360.496 78.7161 361.716 79.047C364.649 79.8431 374.03 76.6222 377.733 73.5486L381.216 70.6573L381.012 84.0835C380.901 91.4677 381.131 99.9955 381.525 103.034L382.241 108.558L377.203 102.87C371.016 95.8828 365.05 92.8796 356.876 92.6354L351.253 92.4675L350.331 87.0506C349.823 84.0713 349.189 81.408 348.921 81.1329C347.727 79.9018 347.54 81.9564 348.438 86.4697C350.22 95.4419 348.884 100.442 338.192 124.792C322.902 159.616 320.812 177.527 329.177 202.079C339.169 231.403 356.76 254.721 378.668 267.678C388.074 273.241 386.063 272.7 374.001 266.422C368.44 263.527 363.664 261.377 363.387 261.645C363.112 261.913 363.572 262.407 364.409 262.743C365.246 263.078 367.524 266.176 369.47 269.626C371.415 273.075 373.638 276.151 374.408 276.46C375.5 276.898 375.427 276.464 374.078 274.494C373.125 273.104 372.095 270.929 371.787 269.661L371.227 267.355L373.067 269.68C374.079 270.959 374.912 272.34 374.917 272.749C374.921 273.158 375.314 273.26 375.789 272.977C376.264 272.693 376.944 272.95 377.301 273.547C377.706 274.224 377.555 274.38 376.899 273.961C375.435 273.025 375.552 274.78 377.039 276.052C377.709 276.625 378.6 276.792 379.019 276.424C379.438 276.056 379.496 276.235 379.148 276.824C378.47 277.966 382.965 281.775 385.027 281.807C385.693 281.817 385.351 281.184 384.268 280.4C383.184 279.617 381.39 277.626 380.279 275.975L378.262 272.975L380.476 274.816C381.693 275.829 384.118 277.987 385.862 279.611C392.842 286.112 397.783 289.351 400.721 289.355L403.637 289.359L400.065 288.025C396.051 286.527 394.356 284.911 391.388 279.754C389.368 276.246 389.406 276.263 393.993 280.992C399.673 286.844 404.037 288.948 408.631 288.047C411.862 287.414 411.814 287.382 406.575 286.675C401.554 285.997 396.394 283.335 396.391 281.42C396.389 280.969 396.043 280.038 395.622 279.348C395.01 278.351 395.2 278.302 396.558 279.107C397.496 279.663 399.283 280.977 400.531 282.028C402.386 283.59 402.466 283.822 400.972 283.304C399.437 282.771 399.333 282.879 400.32 283.971C401.625 285.414 408.53 285.707 417.295 284.691C422.538 284.083 428.501 280.702 427.022 279.175C426.661 278.803 425.615 279.396 424.697 280.495C420.927 285.008 414.278 282.326 406.639 273.21C396.737 261.392 396.453 261.229 386.137 261.446C382.441 261.524 382.246 261.432 384.312 260.586C385.584 260.065 388.032 259.883 389.754 260.182C392.092 260.588 392.623 260.457 391.854 259.664C390.67 258.445 387.467 258.332 378.291 259.186C369.668 259.99 366.943 258.595 358.178 248.89C346.934 236.439 337.182 220.079 331.583 204.271C324.667 184.745 324.243 169.675 330.077 150.725C331.864 144.918 332.387 144.098 334.281 144.126C336.261 144.156 336.45 143.774 336.513 139.62C336.577 135.429 337.028 134.545 342.401 128.071C347.82 121.541 348.272 120.644 348.985 115.022C349.406 111.701 349.816 106.504 349.894 103.473C350.146 93.7675 350.295 93.5795 357.326 94.1161C360.687 94.3719 365.017 95.3886 367.039 96.396C372.392 99.0628 378.344 105.848 382.399 113.906C384.362 117.807 386.208 121.007 386.502 121.017C386.797 121.027 386.885 118.791 386.7 116.047C385.935 104.758 391.7 95.6486 402.815 90.5813C421.145 82.2235 437.453 84.7954 448.182 97.7357C450.216 100.19 452.09 101.994 452.345 101.746C452.601 101.499 451.548 99.2909 450.005 96.8399C443.153 85.9513 447.111 73.3355 459.31 67.1902C463.572 65.0431 464.993 64.8276 474.132 64.9468C486.672 65.1101 492.55 67.0562 497.116 72.5559C501.53 77.8723 501.005 74.4636 496.321 67.3881C494.171 64.1413 488.698 58.1896 484.047 54.043C479.43 49.9263 475.264 45.8367 474.787 44.9557C472.702 41.0924 477.958 37.877 486.156 38.0012C492.04 38.0903 498.752 40.8558 504.838 45.6995C511.199 50.7615 512.221 49.9482 506.213 44.6058C495.852 35.3933 480.824 28.7923 461.868 25.1274C450.615 22.9519 426.446 22.3192 416.39 23.9366C410.427 24.8956 400.013 27.5063 396.324 28.9675C394.52 29.6817 395.003 27.0739 397.074 24.9174C400.343 21.5148 399.245 20.9827 394.602 23.7176ZM417.745 25.5559C405.45 27.2643 397.205 29.874 393.863 33.1156C390.374 36.4993 389.628 35.072 392.302 30.1277C394.7 25.6928 393.717 25.3526 390.739 29.5867C388.262 33.107 386.178 39.864 385.248 47.392C383.836 58.8197 381.713 65.7296 378.258 70.1512L374.899 74.4484L379.512 70.3834C383.909 66.509 384.205 65.953 385.807 58.5335C388.369 46.6601 389.349 43.8853 390.968 43.9098C392.171 43.9281 392.22 43.688 391.255 42.4899C390.299 41.3011 390.353 40.7966 391.565 39.6213C392.799 38.4253 393.897 38.3565 398.386 39.1936L403.736 40.1917L398.045 40.224C392.622 40.2539 390.578 41.0233 392.007 42.4958C392.368 42.8661 392.655 43.6524 392.648 44.2413C392.64 44.831 393.254 45.331 394.011 45.3517C394.768 45.3733 396.409 46.1718 397.658 47.128C399.467 48.5126 399.556 48.7436 398.099 48.264L396.27 47.661L398.086 49.1376C399.085 49.9494 402.565 52.2708 405.82 54.2957C412.765 58.6149 415.826 61.1725 415.804 62.635C415.795 63.2156 416.174 63.4603 416.645 63.1789C417.115 62.8975 418.364 63.9189 419.419 65.4473C420.473 66.9757 421.831 68.1385 422.436 68.0309C423.042 67.9225 423.414 68.3848 423.263 69.0579C423.112 69.731 423.824 70.5136 424.845 70.7974C425.866 71.0812 426.696 71.6782 426.69 72.1246C426.683 72.5702 427.138 72.9428 427.701 72.9513C428.264 72.9599 430.122 74.6098 431.83 76.6186C433.538 78.6265 436.749 81.802 438.965 83.6743L442.995 87.0791L443.92 84.9696C444.43 83.8085 445.294 81.19 445.839 79.1501C448.321 69.886 460.786 62.6091 474.325 62.5202L480.581 62.4799L474.903 59.7788C471.78 58.2925 466.03 56.0194 462.124 54.7252C454.926 52.342 451.627 51.4678 430.298 46.2985C423.75 44.7116 420.25 43.6644 422.521 43.9726C430.944 45.1147 457.174 51.5638 466.163 54.7037C471.272 56.4875 478.402 59.489 482.007 61.3731C491.138 66.1454 492.98 66.8275 492.39 65.2206C492.131 64.5129 491.371 64.1338 490.702 64.3782C490.033 64.6235 489.219 64.3787 488.894 63.8335C488.568 63.2892 488.791 62.8506 489.387 62.8596C491.06 62.8849 488.907 60.5772 480.512 53.3462C474.777 48.4068 473.035 46.3589 473.062 44.5877C473.115 41.1134 474.671 38.9528 478.49 37.0507L481.934 35.3359L479.194 34.2083C473.225 31.7517 472.746 31.4845 474.252 31.4466C475.049 31.4275 478.284 32.5056 481.439 33.8426C484.593 35.1805 487.856 36.1405 488.688 35.9767C490.746 35.5705 481.059 31.773 471 29.0423C454.614 24.5948 434.253 23.2617 417.745 25.5559ZM419.839 26.3264C416.439 26.8795 413.324 27.686 412.918 28.1181C412.504 28.5575 412.993 28.6017 414.028 28.2185C419.249 26.2826 449.625 27.2491 465.014 29.8401C468.203 30.3773 468.206 30.3746 465.48 29.419C460.759 27.7643 442.368 25.3887 434.015 25.354C429.617 25.3361 423.238 25.7733 419.839 26.3264ZM395.718 33.5683C395.376 33.8994 395.085 34.9039 395.071 35.7987C395.052 37.0499 396.054 37.5713 399.403 38.0512C401.798 38.3953 413.088 40.6586 424.491 43.0826C435.893 45.5057 445.997 47.4644 446.943 47.4356C452.029 47.2792 428.622 42.1326 399.785 37.0674C397.302 36.631 396.809 36.1898 397.206 34.7568C397.693 33.0073 396.926 32.3957 395.718 33.5683ZM339.424 37.6358C339.098 38.1482 339.43 40.5303 340.164 42.9305C340.899 45.3316 341.645 48.5378 341.824 50.0567C342.003 51.5755 342.282 50.3393 342.445 47.3095C342.609 44.2797 342.946 40.6672 343.195 39.2808C343.563 37.2428 343.303 36.7555 341.834 36.7332C340.836 36.7181 339.752 37.1244 339.424 37.6358ZM272.965 46.0031C264.779 54.1094 255.004 66.717 250.017 75.6013C247.398 80.269 245.435 84.2721 245.654 84.4978C245.873 84.7235 247.407 84.2579 249.064 83.4634C252.864 81.6391 259.892 82.2969 263.168 84.7825C265.947 86.8921 269.276 92.973 271.363 99.7565C272.183 102.422 273.235 104.609 273.699 104.616C274.743 104.632 274.738 104.265 273.628 99.1017C272.569 94.1789 272.638 72.6361 273.741 64.1864C274.168 60.9079 275.377 54.7937 276.429 50.6003C277.48 46.406 278.215 42.5818 278.063 42.1016C277.912 41.6215 275.617 43.3767 272.965 46.0031ZM331.763 50.3637C331.69 55.1637 331.816 57.1301 332.041 54.7325C332.267 52.3349 332.327 48.4077 332.174 46.0053C332.021 43.6029 331.836 45.5637 331.763 50.3637ZM389.49 49.1378C387.218 58.6266 385.487 68.514 384.873 75.5184C383.972 85.7796 383.459 111.747 384.143 112.452C384.455 112.774 384.725 112.007 384.744 110.75C384.799 107.141 389.948 97.8246 393.611 94.7063C401.614 87.8929 418.152 82.905 427.73 84.4165C430.335 84.8272 433.368 85.2673 434.471 85.3943C435.574 85.5204 437.013 86.054 437.67 86.5803C438.326 87.1058 439.479 87.8657 440.232 88.2685C442.345 89.4014 425.081 72.8859 420.858 69.7354C418.801 68.201 415.955 65.7504 414.535 64.2909C412.223 61.9155 402.913 54.2691 393.847 47.299L390.539 44.756L389.49 49.1378ZM450.489 48.2253C456.916 49.8802 473.017 55.8616 479.75 59.096C487.954 63.0373 490.805 63.5941 485.512 60.2216C479.436 56.3512 455.302 47.5622 451.082 47.6839C449.176 47.7386 449.049 47.8543 450.489 48.2253ZM233.943 46.814C232.778 48.2537 232.81 48.2863 234.285 47.1665C235.834 45.989 236.331 45.2422 235.575 45.2307C235.385 45.2278 234.65 45.9399 233.943 46.814ZM228.886 50.8723L226.142 53.817L229.169 51.1642C231.991 48.6911 232.628 47.9427 231.918 47.9319C231.759 47.9295 230.395 49.2531 228.886 50.8723ZM286.087 56.6237C285.411 57.2787 287.645 70.0362 289.828 77.9982C292.641 88.2577 292.584 85.424 289.73 73.1009C286.807 60.4829 286.539 57.3951 288.924 63.7806C291.791 71.458 298.11 78.0189 304.332 79.7809C305.699 80.1683 304.971 79.4276 302.522 77.9396C295.458 73.649 291.518 68.5539 289.056 60.5261C287.999 57.08 286.987 55.7507 286.087 56.6237ZM218.606 63.4125C218.264 63.9458 218.179 64.5831 218.416 64.8275C218.653 65.0718 219.102 64.6375 219.413 63.8621C220.059 62.2529 219.534 61.9601 218.606 63.4125ZM382.277 74.1008C381.884 76.8744 381.581 81.4182 381.604 84.1981C381.637 88.1231 381.853 87.3059 382.574 80.5374C383.605 70.8433 383.392 66.2255 382.277 74.1008ZM352.103 81.2978C352.1 81.4649 353.759 83.4537 355.788 85.7182C357.817 87.9827 359.068 89.0023 358.568 87.984C357.139 85.0762 352.124 79.8895 352.103 81.2978ZM442.982 88.6952C442.975 89.2005 443.378 89.8755 443.879 90.1955C444.379 90.5155 444.795 90.3638 444.803 89.8585C444.811 89.3533 444.407 88.6782 443.907 88.3582C443.406 88.0382 442.99 88.19 442.982 88.6952ZM315.333 111.93C314.944 113.325 314.88 117.235 315.191 120.619C315.747 126.679 315.775 126.73 316.979 123.985C318.834 119.755 319.713 115.26 318.813 114.603C318.371 114.28 317.566 112.976 317.025 111.705L316.041 109.392L315.333 111.93ZM345.481 112.834C344.896 114.21 342.914 118.725 341.076 122.866C339.238 127.007 337.84 130.397 337.969 130.399C338.098 130.401 340.028 128.304 342.26 125.739C345.215 122.34 346.512 119.928 347.036 116.852C347.919 111.661 346.995 109.272 345.481 112.834ZM215.01 121.261C211.465 121.694 203.707 123.619 197.77 125.539C183.945 130.011 183.688 130.006 184.511 125.317C185.245 121.136 184.491 120.726 181.585 123.724C178.957 126.437 178.866 131.252 181.212 143.269C184.443 159.81 182.03 172.319 174.714 176.955C171.451 179.022 170.183 178.822 162.624 175.045C155.656 171.564 153.431 169.262 149.117 161.076C147.775 158.529 146.275 155.923 145.785 155.283C145.295 154.644 145.179 154.125 145.526 154.13C146.968 154.152 150.443 156.536 155.285 160.826C158.114 163.333 160.653 165.386 160.929 165.39C161.889 165.405 155.792 154.711 152.145 149.984C150.124 147.366 146.115 143.685 143.238 141.806C140.359 139.927 138.011 137.991 138.018 137.503C138.03 136.684 132.112 131.708 124.779 126.372C121.302 123.841 118.911 124.21 118.888 127.281C118.88 128.433 120.265 133.533 121.966 138.612C123.668 143.692 125.814 150.199 126.734 153.071C129.061 160.333 135.94 174.303 138.244 176.445C140.591 178.626 140.72 177.534 138.877 171.112C138.162 168.621 137.632 165.305 137.698 163.744L137.819 160.905L139.489 164.682C141.61 169.474 143.203 180.71 142.569 186.401C141.346 197.38 129.419 205.082 119.156 201.522C114.923 200.054 110.685 196.252 104.589 188.454C94.7163 175.825 89.3695 171.723 82.5851 171.574C78.8538 171.493 78.7473 172.515 82.3161 174.16C85.4222 175.591 85.9082 177.118 83.2462 177.077C80.8212 177.041 69.1939 181.079 62.4014 184.317C51.8732 189.337 43.8201 195.275 32.1929 206.589C22.6992 215.827 19.7889 219.305 16.5327 225.3C12.4718 232.779 9.00792 244.652 10.4474 246.158C10.8934 246.625 11.5391 245.445 11.9438 243.424C14.2616 231.849 21.2751 223.92 29.093 224.038C33.6535 224.107 34.0834 226.312 31.7316 237.577C29.9983 245.881 29.8158 248.403 30.5305 254.184C31.6147 262.945 33.0658 265.866 33.2009 259.558C33.3802 251.125 41.1494 242.45 51.6732 238.931C65.3472 234.358 78.5024 243.575 80.6047 259.203C81.4845 265.738 82.7742 265.181 82.8862 258.216C82.9411 254.776 83.4177 250.494 83.9458 248.7C85.4439 243.606 90.8115 238.269 97.7278 234.994C103.414 232.302 104.63 232.074 112.667 232.196C120.511 232.315 121.848 232.591 125.585 234.864C130.713 237.984 136.791 244.321 138.819 248.662C140.964 253.258 141.334 250.442 139.705 241.908C138.047 233.22 138.091 230.006 139.946 224.09C141.631 218.715 144.987 214.442 149.151 212.369C151.991 210.955 152.06 210.974 154.304 213.821C155.555 215.407 157.567 219.702 158.776 223.365C161.52 231.682 163.302 233.095 172.853 234.528C176.888 235.133 181.333 236.273 182.73 237.062C184.128 237.85 186.178 238.996 187.287 239.606C195.888 244.346 210.618 254.34 214.776 258.257C228.497 271.181 231.675 290.996 221.875 302.522C218.466 306.531 208.91 311.297 204.401 311.236C200.627 311.184 194.477 312.624 193.775 313.724C193.345 314.395 199.339 314.552 205.196 314.024C207.415 313.824 207.399 313.787 204.752 312.996C202.62 312.358 203.031 312.285 206.595 312.667C209.786 313.009 210.767 312.879 209.818 312.239C208.664 311.462 208.716 311.321 210.15 311.331C211.083 311.338 213.164 310.493 214.774 309.454C217.183 307.899 216.998 308.229 213.724 311.322C211.538 313.387 209.334 314.814 208.828 314.491C208.323 314.168 208.015 314.246 208.144 314.665C208.378 315.427 207.395 316.584 198.64 325.845C196.049 328.585 194.12 331.37 194.352 332.032C194.863 333.49 190.604 341.916 187.924 344.749C184.084 348.809 184.64 346.617 189.195 339.742C192.234 335.154 193.539 332.403 192.959 331.805C191.804 330.614 191.832 329.144 192.997 329.888C193.524 330.225 193.685 329.775 193.385 328.799C192.951 327.383 193.031 327.343 193.92 328.53C194.772 329.668 194.877 329.499 194.489 327.62C194.227 326.352 194.247 325.853 194.534 326.51C194.936 327.427 195.36 327.461 196.362 326.655C198.266 325.123 197.991 323.548 196.068 324.976C195.174 325.641 195.461 325.076 196.707 323.721C197.953 322.365 198.515 321.249 197.956 321.24C196.465 321.218 193.411 325.713 190.117 332.778C188.523 336.198 186.516 340.432 185.657 342.188C184.798 343.944 184.127 345.865 184.167 346.457C184.206 347.05 183.663 347.303 182.959 347.021C182.071 346.664 181.966 346.171 182.619 345.409C183.136 344.805 184.485 341.462 185.616 337.981C188.193 330.05 190.392 325.874 193.451 323.106C194.766 321.915 195.647 320.613 195.408 320.213C195.169 319.812 195.461 319.193 196.058 318.836C196.736 318.431 196.892 318.581 196.472 319.237C195.43 320.869 196.502 320.527 201.727 317.562C206.335 314.947 206.41 314.845 203.337 315.394C201.563 315.71 198.694 316.527 196.964 317.207C195.234 317.888 193.61 318.231 193.356 317.971C193.104 317.71 194.233 317.053 195.865 316.512C197.497 315.971 198.659 315.349 198.447 315.131C198.235 314.911 196.344 315.39 194.245 316.193C190.467 317.638 185.76 322.029 185.755 324.112C185.754 324.841 185.976 324.879 186.443 324.228C186.822 323.699 188.166 322.583 189.429 321.747C190.851 320.804 191.209 320.214 190.372 320.193C189.193 320.162 189.193 320.052 190.365 319.334C193.198 317.603 192.973 319.56 189.892 323.471C187.874 326.033 186.89 328.107 187.238 329.061C187.585 330.007 187.43 330.344 186.825 329.957C185.742 329.265 184.417 331.769 185.185 333.054C185.79 334.067 183.429 341.786 181.301 345.751C180.325 347.571 178.271 349.311 175.862 350.362C173.432 351.42 172.675 352.065 173.829 352.092C174.839 352.117 176.952 351.379 178.525 350.452C180.098 349.526 182.666 348.507 184.232 348.188C187.826 347.456 194.636 340.496 197.982 334.135C199.362 331.512 200.266 329.134 199.992 328.851C199.717 328.568 198.941 329.528 198.269 330.984C196.014 335.863 193.645 339.727 193.195 339.262C192.616 338.665 196.862 330.598 199.278 327.706L201.146 325.468L200.691 330.843C200.26 335.934 197.951 342.374 196.565 342.353C195.372 342.335 192.305 344.986 193.464 345.033C195.423 345.113 201.859 338.829 202.025 336.674C202.112 335.549 202.249 333.25 202.33 331.566C202.409 329.874 202.767 328.995 203.128 329.598C203.533 330.277 204.037 329.704 204.458 328.088C205.269 324.963 209.646 318.274 210.383 319.033C210.669 319.329 211.493 318.861 212.213 317.996C213.166 316.848 213.123 317.211 212.052 319.34C211.246 320.946 210.575 322.916 210.563 323.719C210.551 324.522 209.66 326.843 208.583 328.878C207.506 330.912 206.851 332.809 207.128 333.096C207.676 333.66 211.971 324.803 212.978 321.03C213.898 317.59 214.967 317.47 214.57 320.851C214.314 323.031 214.705 322.493 216.092 318.758C217.15 315.908 219.089 312.829 220.572 311.644C229.988 304.123 232.237 301.974 234.28 298.553C237.776 292.698 239.096 285.271 237.939 277.976C236.741 270.424 233.583 262.182 229.374 255.625C224.77 248.45 211.094 234.183 202.465 227.552C198.415 224.44 193.877 220.921 192.377 219.732C190.569 218.297 189.285 216.108 188.56 213.224C187.839 210.359 186.087 207.358 183.409 204.408C178.961 199.507 178.354 196.592 180.975 192.722C182.732 190.128 186.805 187.835 189.582 187.877C190.609 187.893 193.367 189.798 195.709 192.111C200.173 196.519 201.389 196.441 201.549 191.734C201.716 186.835 207.351 183.537 212.237 185.479C215.361 186.721 219.772 191.568 220.467 194.521C220.738 195.676 221.389 196.629 221.913 196.637C222.537 196.646 222.696 194.279 222.376 189.753C222.108 185.958 221.677 179.853 221.418 176.185C220.577 164.262 225.218 158.551 235.036 159.43C239.222 159.804 240.414 160.341 242.567 162.825C243.974 164.448 245.113 166.572 245.099 167.545C245.084 168.518 245.545 169.616 246.124 169.985C246.895 170.479 247.054 169.271 246.72 165.467C246.403 161.873 245.008 157.714 242.186 151.955C239.943 147.38 238.121 142.766 238.137 141.704C238.153 140.641 239.372 138.603 240.846 137.174C243.479 134.619 244.21 134.345 251.594 133.127C253.631 132.792 254.566 132.341 253.683 132.121C250.26 131.265 241.619 133.708 238.967 136.28C235.353 139.785 235.578 142.397 240.285 151.578C244.308 159.425 245.525 163.508 243.079 160.957C242.429 160.28 241.65 159.042 241.348 158.207C239.806 153.936 217.342 141.058 202.594 135.988C196.928 134.041 192.614 132.159 193.006 131.806C194.64 130.337 207.838 126.474 215.238 125.299C224.917 123.762 239.405 124.676 248.923 127.424C252.446 128.441 256.669 129.517 258.308 129.815C261.444 130.386 262.4 131.965 259.653 132.034C258.768 132.057 260.603 132.85 263.731 133.796C266.859 134.742 270.031 136.04 270.779 136.681C271.529 137.321 272.634 137.689 273.238 137.498C274.42 137.124 267.322 131.461 262.428 128.875C251.218 122.951 229.592 119.478 215.01 121.261ZM212.158 123.056C206.167 123.966 186.905 130.52 184.803 132.365C183.094 133.865 182.984 133.673 182.046 127.577C181.805 126.008 181.688 126.074 181.257 128.025C180.979 129.284 181.614 135.289 182.669 141.37C185.899 159.975 184.852 168.139 178.281 175.583C173.662 180.814 171.308 181.004 162.842 176.826C154.834 172.874 151.564 169.432 146.868 160.008C144.161 154.576 141.067 150.71 137.51 148.316C136.976 147.957 136.814 147.395 137.15 147.069C137.719 146.518 138.631 147.114 141.986 150.23C142.713 150.905 143.692 151.228 144.163 150.947C144.633 150.666 145.152 150.751 145.316 151.135C145.479 151.52 147.979 153.48 150.87 155.491C153.762 157.502 156.506 159.817 156.969 160.637C157.431 161.457 157.827 161.788 157.849 161.374C157.923 159.943 149.642 148.68 148.501 148.662C148.203 148.658 147.95 149.274 147.938 150.032C147.927 150.79 147.504 151.404 146.999 151.396C145.798 151.378 145.847 148.898 147.062 148.172C147.581 147.862 147.758 147.196 147.456 146.69C147.139 146.159 146.333 146.464 145.544 147.414C144.28 148.937 144.231 148.891 144.855 146.777C145.479 144.669 145.404 144.598 143.866 145.836C142.33 147.071 142.257 147.008 142.925 145.01C143.423 143.521 143.328 143.037 142.622 143.459C142.057 143.796 141.586 144.643 141.576 145.341C141.565 146.04 141.166 146.844 140.688 147.129C140.156 147.447 140.144 146.579 140.658 144.885C141.586 141.829 141.048 141.314 139.319 143.605C138.298 144.957 138.141 144.911 137.702 143.12C137.434 142.029 137.587 141.375 138.04 141.666C138.495 141.956 138.873 141.755 138.881 141.22C138.889 140.685 138.5 140.241 138.015 140.234C137.531 140.226 133.867 137.07 129.871 133.219C122.325 125.946 120.744 125.027 120.701 127.882C120.667 130.087 123.482 138.653 125.769 143.308C127.65 147.134 127.757 147.486 127.723 149.726C127.71 150.583 128.569 151.117 129.999 151.139C131.263 151.158 132.29 151.612 132.282 152.146C132.273 152.681 131.94 152.91 131.54 152.655C131.141 152.4 130.208 152.561 129.467 153.015C128.415 153.658 128.573 153.849 130.187 153.884C132.6 153.937 133.002 155.744 130.617 155.815C129.331 155.853 129.283 155.975 130.379 156.42C131.132 156.726 132.203 157.614 132.759 158.393C133.632 159.615 133.863 159.535 134.439 157.81C134.806 156.71 134.873 155.031 134.587 154.08C134.18 152.727 134.531 152.356 136.195 152.381C137.894 152.407 139.261 154.045 142.963 160.492C147.658 168.666 149.992 173.847 147.474 170.503C146.813 169.627 144.264 165.26 141.807 160.798C136.448 151.063 135.036 152.538 139.908 162.785C143.872 171.119 145.725 183.744 143.855 189.658C142.357 194.393 137.11 200.197 132.226 202.523C127.245 204.895 129.001 205.022 134.656 202.699C136.988 201.741 138.889 201.323 138.882 201.77C138.856 203.545 129.939 205.379 123.042 205.028C117.181 204.729 116.167 204.892 116.57 206.064C116.945 207.148 116.651 207.093 115.235 205.815C114.238 204.915 113.2 204.393 112.929 204.655C112.659 204.917 110.932 203.238 109.092 200.923C105.243 196.078 105.422 195.322 109.383 199.692C110.861 201.321 112.825 202.728 113.748 202.82C114.671 202.912 116.456 203.291 117.714 203.663C119.358 204.15 119.104 203.82 116.813 202.492C112.201 199.82 108.775 196.409 101.51 187.265C94.7148 178.712 90.6832 175.042 86.9144 173.979C84.8113 173.387 84.773 173.426 86.4475 174.461C88.4745 175.715 91.4385 178.691 91.4269 179.46C91.4137 180.333 88.697 179.954 86.9704 178.839C83.4069 176.539 62.2299 184.961 49.3904 193.785C36.8268 202.418 22.7051 216.769 18.4595 225.217L17.0654 227.991L19.6176 225.273C21.0217 223.778 22.5402 222.674 22.9911 222.821C23.443 222.966 25.2695 222.708 27.0495 222.246C29.1385 221.703 31.1133 221.733 32.6161 222.331C35.1861 223.352 35.1875 223.925 32.665 241.551C31.6411 248.709 32.0159 253.752 33.4111 251.57C33.8263 250.92 33.9581 249.26 33.7032 247.88C33.3695 246.067 34.2436 243.579 36.8499 238.925C41.8236 230.045 42.8794 230.79 38.0712 239.787C35.9306 243.794 34.3656 247.596 34.5931 248.234C34.8576 248.977 35.2674 248.737 35.7272 247.57C38.435 240.709 42.9127 233.081 48.1007 226.494C51.4182 222.281 53.8533 218.369 53.5127 217.8C53.1461 217.186 53.3047 217.026 53.9037 217.409C54.4799 217.777 57.4383 215.486 60.7905 212.075C68.2912 204.443 69.0462 202.413 61.9652 208.915C57.6068 212.918 57.1544 213.18 59.6453 210.258C66.7447 201.931 77.8297 191.644 79.1398 192.169C79.8779 192.466 81.4659 191.812 82.6672 190.717C85.2553 188.359 85.51 187.08 83.2592 187.744C82.3636 188.009 82.9949 187.052 84.6759 185.598C88.0575 182.672 87.8302 181.779 83.6583 181.599L80.8266 181.477L83.5837 180.7C87.1181 179.704 89.6591 181.726 87.7204 183.991C87.058 184.764 86.9297 185.403 87.4351 185.411C87.9405 185.418 88.878 184.812 89.5189 184.064C90.812 182.554 94.1419 182.251 94.1208 183.646C94.1134 184.134 93.4962 184.29 92.7489 183.99C91.1127 183.334 68.0248 205.528 55.3059 219.984C47.4576 228.903 39.1514 241.166 40.2148 242.261C40.4627 242.517 42.3841 241.521 44.4845 240.047C54.4079 233.088 66.5394 234.526 75.4718 243.718L79.2727 247.63L79.8022 243.803C80.0933 241.698 80.5944 238.532 80.9152 236.769C81.2361 235.005 81.9273 230.395 82.4519 226.525C83.7486 216.952 91.8138 187.467 93.6288 185.666C94.268 185.032 99.2491 188.334 101.763 191.059C105.385 194.984 103.495 194.675 99.3975 190.672C96.6062 187.945 96.0172 187.69 95.5771 189.015C95.2911 189.875 94.3434 192.43 93.4718 194.691C89.6468 204.617 84.4492 224.093 83.8249 230.84C83.4522 234.877 82.896 240.038 82.5896 242.307L82.0326 246.434L84.1648 243.709C91.1539 234.782 99.152 230.654 110.541 230.099C117.579 229.756 118.415 229.922 124.744 232.927C128.443 234.682 131.963 236.755 132.567 237.533C133.185 238.329 133.685 238.493 133.71 237.91C133.735 237.341 133.143 236.352 132.394 235.711C131.645 235.07 131.038 234.198 131.045 233.772C131.061 232.666 121.633 217.667 116.997 211.427C112.073 204.796 111.979 203.293 116.835 208.828C118.858 211.133 119.657 211.805 118.612 210.322C117.565 208.84 116.925 207.417 117.189 207.162C117.453 206.906 117.796 206.871 117.953 207.083C121.653 212.125 125.66 219.387 125.166 220.159C124.771 220.777 124.939 220.922 125.596 220.53C126.218 220.158 126.928 220.593 127.278 221.563C127.612 222.484 129.771 226.231 132.076 229.89L136.267 236.541L136.942 230.309C137.925 221.232 141.763 214.211 147.237 211.473C150.473 209.854 150.466 208.274 147.201 203.275C145.136 200.116 144.825 199.048 145.752 198.303C146.653 197.578 147.751 199.011 150.416 204.389C156.298 216.258 168.015 226.401 192.972 241.228C203.881 247.709 216.101 257.078 220.722 262.505C227.039 269.921 230.566 283.495 228.536 292.577C227.372 297.783 225.816 300.136 217.21 309.697L212.068 315.408L219.329 310.572C230.989 302.804 234.39 297.457 235.689 284.85C236.209 279.795 235.961 277.632 234.314 272.884C230.368 261.503 224.558 254.669 204.06 237.292C190.082 225.443 176.665 211.493 168.559 200.38C165.034 195.549 160.247 189.136 157.921 186.128C155.594 183.12 154.246 181.014 154.926 181.448C156.245 182.291 159.558 186.158 162.494 190.281C176.474 209.918 185.682 219.828 206.605 237.754C215.754 245.593 224.295 253.766 226.841 257.119C233.33 265.665 233.347 265.022 226.894 255.061C220.009 244.433 197.232 223.418 193.783 224.51C193.033 224.747 192.764 224.506 193.135 223.927C193.483 223.383 192.628 222.193 191.235 221.282C186.277 218.038 183.088 213.21 177.036 199.788C175.355 196.057 172.719 191.366 171.18 189.362C169.642 187.358 168.754 185.724 169.207 185.731C170.308 185.748 174.397 190.322 175.754 193.054L176.84 195.242L179.526 192.083C181.003 190.346 183.657 188.264 185.424 187.459C188.42 186.094 188.905 186.105 192.577 187.624C194.744 188.521 196.931 189.822 197.438 190.515C198.159 191.504 199.03 190.854 201.455 187.522L204.553 183.266L209.993 183.843C212.984 184.159 215.433 184.309 215.435 184.174C215.437 184.04 214.245 181.187 212.785 177.835C211.326 174.483 210.387 171.103 210.699 170.324C211.012 169.546 210.816 168.903 210.266 168.894C209.715 168.886 208.29 166.901 207.099 164.482C203.023 156.198 189.473 137.959 188.287 139.158C187.756 139.693 189.342 145.724 192.045 153.457C195.418 163.105 199.013 181.487 198.715 187.556C198.609 189.697 198.38 190.359 198.165 189.142C197.963 187.995 197.496 187.235 197.129 187.454C196.763 187.674 196.585 186.333 196.736 184.476C196.997 181.241 196.976 181.215 196.243 183.843L195.476 186.588L194.953 184.283C194.665 183.015 194.192 179.907 193.902 177.376C193.613 174.845 192.412 168.912 191.233 164.194C190.056 159.475 189.257 155.145 189.457 154.572C189.901 153.304 192.18 161.731 194.403 172.863C195.306 177.385 196.09 180.091 196.146 178.878C196.291 175.726 191.433 155.118 188.849 147.926C186.184 140.51 185.995 136.779 188.335 137.791C189.213 138.171 190.43 138.51 191.037 138.543C196.495 138.842 216.463 172.906 219.173 186.541C219.685 189.116 220.237 191.093 220.402 190.935C220.565 190.775 220.351 187.126 219.924 182.824C218.688 170.339 220.747 162.059 225.702 159.592C227.19 158.85 230.535 157.995 233.134 157.69L237.86 157.137L234.071 154.303C228.295 149.985 209.28 140.913 200.049 138.071C190.286 135.064 190.348 135.071 191.031 137.132C191.53 138.631 191.444 138.626 189.855 137.058C188.209 135.434 188.207 135.321 189.817 134.164C191.07 133.264 191.192 132.834 190.303 132.459C188.535 131.717 190.708 130.496 198.349 127.942C209.232 124.304 212.68 123.692 225.091 123.2L237.046 122.725L226.939 122.536C221.38 122.431 214.728 122.666 212.158 123.056ZM238.652 124.018C239.543 124.265 240.784 124.268 241.41 124.026C242.036 123.783 241.307 123.582 239.791 123.578C238.274 123.573 237.762 123.771 238.652 124.018ZM243.675 124.984C244.304 125.249 245.337 125.265 245.973 125.019C246.609 124.774 246.095 124.558 244.831 124.539C243.568 124.52 243.048 124.72 243.675 124.984ZM127.12 135.704C128.379 138.187 132.415 143.306 132.429 142.437C132.439 141.73 126.9 133.633 126.4 133.626C126.215 133.623 126.539 134.558 127.12 135.704ZM333.477 140.439C333.198 141.445 333.344 142.274 333.802 142.281C334.26 142.288 334.647 141.467 334.662 140.457C334.678 139.446 334.531 138.617 334.338 138.614C334.144 138.611 333.757 139.432 333.477 140.439ZM193.542 142.913C194.441 143.937 195.384 144.778 195.637 144.782C195.89 144.786 195.36 143.951 194.461 142.927C193.562 141.902 192.619 141.061 192.366 141.057C192.114 141.053 192.643 141.888 193.542 142.913ZM187.117 150.804C186.002 151.885 186.478 153.832 187.862 153.853C188.62 153.865 189.249 153.279 189.26 152.55C189.283 151.015 187.988 149.96 187.117 150.804ZM187.092 161.021C186.738 165.105 185.659 169.19 184.033 172.602C182.651 175.502 182.104 177.406 182.816 176.833C185.375 174.775 188.165 166.849 188.331 161.168C188.556 153.459 187.757 153.365 187.092 161.021ZM133.029 163.475C133.019 164.156 137.445 174.223 137.758 174.228C137.933 174.231 137.468 171.743 136.724 168.699C135.965 165.593 134.858 163.158 134.202 163.148C133.56 163.138 133.032 163.285 133.029 163.475ZM211.086 170.85C211.057 171.161 212.45 174.49 214.182 178.248C215.915 182.007 217.07 184.044 216.751 182.776C216.138 180.333 211.175 169.89 211.086 170.85ZM68.0078 184.63C61.5715 187.163 52.8895 192.141 47.0492 196.649C37.9251 203.692 21.7615 220.446 22.9289 221.649C23.1515 221.88 26.8224 218.183 31.0846 213.435C43.44 199.673 55.9143 190.69 71.1286 184.599C73.9259 183.479 75.5945 182.545 74.8365 182.524C74.0786 182.503 71.0054 183.451 68.0078 184.63ZM85.3491 186.298C85.029 186.798 85.2056 187.215 85.7404 187.223C86.2752 187.231 86.7198 186.824 86.7274 186.319C86.7351 185.814 86.5594 185.397 86.3361 185.394C86.1128 185.391 85.6692 185.797 85.3491 186.298ZM72.7708 198.268C69.7532 201.373 67.4474 204.082 67.6483 204.289C67.8492 204.496 69.3244 203.284 70.9281 201.596C72.5308 199.909 75.1471 197.205 76.7406 195.586C78.335 193.967 79.3284 192.639 78.9489 192.633C78.5694 192.627 75.7893 195.163 72.7708 198.268ZM315.501 197.136C315.461 197.894 315.82 199.14 316.299 199.905C317.358 201.601 317.38 200.15 316.333 197.608C315.831 196.389 315.547 196.228 315.501 197.136ZM143.175 201.57C142.833 201.901 142.576 203.448 142.604 205.007L142.655 207.841L143.458 204.643C144.295 201.311 144.224 200.551 143.175 201.57ZM181.118 204.642C181.113 204.992 182.523 207.451 184.252 210.103C187.598 215.236 188.167 215.362 186.211 210.539C185.091 207.779 181.14 203.204 181.118 204.642ZM122.114 216.606C122.111 216.796 122.823 217.531 123.697 218.238C125.138 219.402 125.17 219.37 124.05 217.896C122.872 216.347 122.125 215.85 122.114 216.606ZM160.228 223.483C162.54 230.365 163.534 231.289 169.926 232.502C173.143 233.112 176.114 233.617 176.528 233.623C176.943 233.629 173.288 230.473 168.407 226.608C163.527 222.744 159.394 219.58 159.224 219.578C159.054 219.575 159.506 221.332 160.228 223.483ZM136.608 241.751C137.165 243.026 137.746 243.946 137.899 243.798C138.466 243.247 137.149 239.458 136.386 239.447C135.95 239.44 136.05 240.477 136.608 241.751ZM371.265 261.092C371.924 261.367 372.717 261.346 373.027 261.046C373.337 260.746 372.798 260.521 371.829 260.545C370.757 260.573 370.536 260.788 371.265 261.092ZM378.616 261.203C379.275 261.479 380.068 261.458 380.378 261.157C380.688 260.857 380.149 260.632 379.18 260.657C378.109 260.685 377.888 260.899 378.616 261.203ZM374.927 262.066C375.585 262.342 376.379 262.321 376.689 262.02C376.998 261.72 376.459 261.495 375.49 261.52C374.419 261.548 374.198 261.762 374.927 262.066ZM378.057 263.957C378.938 264.202 380.386 264.224 381.273 264.006C382.161 263.788 381.441 263.588 379.672 263.561C377.903 263.535 377.177 263.713 378.057 263.957ZM385.162 265.139C385.156 265.571 387.681 266.229 390.773 266.6C394.018 266.988 397.79 268.145 399.693 269.334C402.967 271.38 402.978 271.38 401.328 269.426C400.414 268.342 398.307 266.787 396.646 265.968C393.458 264.396 385.183 263.798 385.162 265.139ZM389.774 268.363C394.874 269.907 401.557 273.858 407.018 278.557C409.263 280.49 412.337 282.38 413.847 282.757C416.488 283.417 416.454 283.344 412.957 280.845C410.957 279.415 407.718 276.833 405.761 275.107C401.023 270.929 395.762 268.427 390.179 267.697L385.592 267.097L389.774 268.363ZM385.096 269.521C388.647 271.216 396.563 272.576 394.263 271.096C393.512 270.612 391.248 269.91 389.232 269.535C387.215 269.16 384.741 268.66 383.734 268.424C382.727 268.188 383.339 268.682 385.096 269.521ZM380.043 272.401C387.011 278.792 389.686 281.061 388.392 279.482C386.553 277.236 386.333 275.902 387.971 276.92C388.724 277.388 388.684 277.087 387.853 276.031C387.163 275.153 386.39 274.636 386.136 274.882C385.882 275.129 384.543 274.498 383.16 273.481C380.685 271.663 378.36 270.857 380.043 272.401ZM392.396 273.038C392.391 273.335 394.138 274.069 396.277 274.67C398.416 275.272 401.186 276.71 402.433 277.868C405.858 281.048 410.29 284.027 411.627 284.048C412.282 284.057 411.145 282.903 409.098 281.482C407.053 280.062 403.793 277.747 401.854 276.339C398.581 273.962 392.414 271.81 392.396 273.038ZM400.569 279.552C402.311 281.352 404.734 283.138 405.954 283.522C407.896 284.134 407.786 283.875 405.067 281.439C403.358 279.91 400.935 278.122 399.681 277.468C397.772 276.473 397.916 276.81 400.569 279.552ZM397.315 281.993C397.62 282.503 398.282 282.926 398.788 282.934C399.293 282.942 399.458 282.531 399.153 282.021C398.848 281.511 398.185 281.087 397.68 281.08C397.175 281.072 397.01 281.483 397.315 281.993ZM209.635 316.593C208.47 318.033 208.502 318.065 209.977 316.946C210.871 316.265 211.606 315.552 211.609 315.362C211.621 314.606 210.859 315.081 209.635 316.593ZM201.084 319.124C199.251 320.08 198.758 320.745 199.521 321.233C200.331 321.75 200.199 322.103 199.038 322.528C198.16 322.85 197.694 323.373 198.002 323.691C198.798 324.51 201.48 322.174 200.886 321.179C200.615 320.725 201.458 319.968 202.76 319.496C204.061 319.024 205.129 318.42 205.133 318.156C205.145 317.355 203.903 317.652 201.084 319.124ZM208.782 321.792C206.535 327.44 203.604 333.808 202.754 334.888C202.252 335.525 202.076 336.286 202.361 336.579C202.646 336.873 203.742 335.484 204.797 333.493C207.434 328.513 210.661 320.253 210.168 319.745C209.945 319.514 209.321 320.436 208.782 321.792ZM370.267 332.277C368.019 333.846 362.109 339.234 357.134 344.253C349.662 351.791 347.675 354.41 345.704 359.315C343.212 365.518 341.644 373.047 342.846 373.039C343.231 373.036 344.543 370.822 345.762 368.12C347.946 363.278 353.674 356.638 352.087 360.79C351.703 361.795 349.91 366.955 348.104 372.258C344.872 381.746 344.72 381.982 338.677 387.047C334.786 390.308 331.704 392.182 330.268 392.16C325.408 392.086 319.91 387.314 316.388 380.111C313.665 374.544 312.717 366.87 312.79 350.997L312.86 335.879L309.947 332.879C306.722 329.556 305.18 329.856 306.773 333.495C308.156 336.657 308.032 339.397 306.481 339.966C305.783 340.222 299.7 339.037 292.964 337.335C281.476 334.43 279.945 334.256 268.303 334.532C258.23 334.769 254.065 335.318 246.201 337.447C228.879 342.135 217.405 348.096 208.605 356.979C205.824 359.786 203.543 362.423 203.537 362.838C203.516 364.18 205.034 363.664 206.858 361.708C211.413 356.823 224.475 353.268 233.885 354.354C240.579 355.125 244.007 356.694 246.694 360.217C249.476 363.866 248.996 368.887 244.585 382.271C240.483 394.72 238.808 402.01 240.41 400.447C240.92 399.949 242.768 397.463 244.517 394.922C250.601 386.084 257.403 382.16 264.288 383.516C268.56 384.358 273.849 388.483 275.833 392.522C277.24 395.386 282.649 418.921 282.603 421.978C282.597 422.364 282.977 422.685 283.446 422.692C283.916 422.699 284.823 420.362 285.464 417.497C286.984 410.698 290.404 407.177 295.419 407.253C299.954 407.322 302.724 409.358 304.463 413.902C305.225 415.891 306.184 417.524 306.596 417.53C307.007 417.536 307.844 416.101 308.454 414.341C309.065 412.581 310.823 409.92 312.362 408.428C313.901 406.936 314.762 405.708 314.275 405.701C312.982 405.681 308.047 408.256 308.308 408.814C308.752 409.763 308.484 411.418 307.971 410.891C307.682 410.592 306.758 405.857 305.919 400.369C304.963 394.118 304.342 391.763 304.257 394.063C304.182 396.084 304.485 400.197 304.931 403.205C305.378 406.214 305.554 408.856 305.325 409.079C305.096 409.302 303.804 408.736 302.455 407.823C300.471 406.479 298.798 406.245 293.693 406.595L287.384 407.027L287.979 401.346C289.09 390.743 289.688 387.423 291.973 379.175C294.757 369.129 296.299 365.057 299.671 358.854C304.742 349.526 304.926 350.007 304.209 370.726C303.758 383.792 303.799 385.988 304.344 377.984L305.127 366.51L305.275 375.701C305.356 380.756 305.7 387.377 306.038 390.415C306.516 394.705 306.684 393.122 306.793 383.323C306.87 376.386 307.222 370.43 307.574 370.088C307.926 369.747 308.226 370.673 308.238 372.147C308.252 373.621 308.633 375.66 309.086 376.678C309.669 377.989 309.78 377.321 309.466 374.386C308.609 366.37 308.187 365.018 306.714 365.558C305.519 365.995 305.425 365.165 306.056 359.715C306.766 353.584 306.34 349.53 304.984 349.509C304.626 349.504 303.18 351.218 301.771 353.32C298.582 358.077 298.446 356.726 301.614 351.755C302.889 349.753 303.94 347.805 303.949 347.426C303.974 346.262 300.345 346.606 297.464 348.041C293.518 350.005 294.118 349.08 298.685 346.156L302.627 343.633L299.806 342.432C298.256 341.772 293.313 340.46 288.824 339.515C273.714 336.336 253.611 337.379 239.213 342.089C236.266 343.053 233.68 343.662 233.467 343.444C232.812 342.768 250.249 337.781 256.445 336.872C267.92 335.188 280.867 336.022 293.671 339.269C300.12 340.905 305.787 342.644 306.263 343.135C307.654 344.569 308.395 344.195 308.549 341.982C309.028 335.096 309.254 334.088 310.116 334.976C310.616 335.49 311.161 344.016 311.334 354.015C311.714 376.028 312.727 380.083 319.758 387.712C326.517 395.046 330.561 395.665 337.024 390.351C346.128 382.867 346.296 382.64 348.937 374.33C350.342 369.91 352.982 363.525 354.803 360.142C358.114 353.991 358.236 352.752 355.271 355.354C353.838 356.612 353.557 356.523 352.205 354.389C350.671 351.971 351.385 351.194 353.314 353.182C354.762 354.674 354.747 352.818 353.298 351.209C352.372 350.181 352.476 350.068 353.869 350.584C355.21 351.081 355.456 350.871 355.031 349.588C354.657 348.457 355.042 348.631 356.299 350.159C358.346 352.648 358.507 352.416 357.21 348.845C356.374 346.541 356.426 346.443 357.86 347.646C359.247 348.81 359.352 348.763 358.804 347.233C357.852 344.576 372.662 330.319 376.316 330.375C377.642 330.395 376.453 334.822 373.442 341.088C371.615 344.889 370.109 348.744 370.095 349.654C370.081 350.564 369.141 351.939 368.006 352.709C366.31 353.859 366.224 354.112 367.525 354.132C369.609 354.164 369.556 355.981 367.471 356.033C366.076 356.068 366.098 356.171 367.639 356.8C369.292 357.476 369.257 357.573 367.159 358.16C365.008 358.765 364.987 358.832 366.727 359.622C367.937 360.171 368.087 360.461 367.174 360.48C364.716 360.533 363.232 358.944 363.808 356.874C364.162 355.596 363.974 355.017 363.274 355.236C362.68 355.421 362.044 356.572 361.861 357.793C361.679 359.015 360.483 362.814 359.205 366.236C355.47 376.239 356.192 393.181 360.653 400.196C363.451 404.597 369.175 408.356 374.608 409.359C378.52 410.081 378.593 410.142 375.605 410.197C373.833 410.23 371.046 409.851 369.414 409.357C367.725 408.845 366.442 408.808 366.435 409.27C366.397 411.724 379.886 411.524 384.964 408.995C386.413 408.273 387.593 407.99 387.588 408.364C387.582 408.737 385.918 412.133 383.891 415.911C380.696 421.863 376.807 432.781 374.6 441.991C374.238 443.502 373.829 444.323 373.69 443.815C370.37 431.654 369.405 429.11 367.069 426.368C365.014 423.956 364.399 422.322 364.443 419.404C364.496 415.886 362.55 409.189 361.468 409.172C361.213 409.169 361.54 410.762 362.195 412.714C362.851 414.666 363.365 417.734 363.338 419.533C363.289 422.762 363.253 422.791 360.413 421.931C358.831 421.451 357.398 421.056 357.228 421.054C357.058 421.051 357.188 418.261 357.517 414.856L358.115 408.662L356.618 413.234C352.225 426.652 347.479 435.463 344.972 434.858C344.358 434.71 344.106 435.008 344.413 435.521C345.116 436.698 338.369 445.429 334.761 448.013C324.99 455.009 306.948 472.937 300.889 481.672C291.602 495.059 283.124 515.506 280.85 530.002C277.978 548.307 283.121 566.77 294.335 578.419C297.399 581.601 300.725 584.737 301.726 585.388C302.727 586.039 301.376 585.487 298.724 584.161C292.095 580.847 287.416 576.238 282.769 568.443C276.313 557.613 274.221 550.057 273.8 536.047C273.391 522.418 274.99 513.468 280.964 495.95C285.804 481.758 297.301 460.672 304.078 453.557C305.62 451.938 306.626 450.609 306.313 450.605C306.001 450.6 306.597 449.678 307.638 448.557C312.998 442.779 320.497 429.56 323.529 420.543C325.544 414.548 330.838 405.063 333.444 402.776C335.834 400.679 336.165 397.793 333.798 399.682C332.946 400.362 331.144 402.35 329.796 404.098C326.862 407.903 325.895 408.178 322.273 406.235C320.75 405.418 319.012 404.925 318.411 405.141C317.776 405.369 318.083 405.844 319.146 406.276C320.151 406.686 322.077 407.81 323.428 408.776L325.884 410.532L323.962 414.837C322.905 417.204 320.817 420.302 319.324 421.721C317.424 423.525 315.726 426.95 313.674 433.121C311.22 440.499 309.663 443.34 304.161 450.486C290.176 468.642 281.764 485.651 275.136 509.174C272.847 517.294 272.465 520.33 272.275 531.868C272.113 541.618 272.455 546.796 273.551 551.184C277.957 568.839 290.479 584.261 303.819 588.462C306.702 589.371 308.877 591.036 311.817 594.584C316.449 600.173 320.476 603.273 321.035 601.677C321.294 600.941 322.166 601.047 324.019 602.041C326.846 603.557 334.314 603.92 337.309 602.688C338.327 602.269 338.746 601.871 338.242 601.804C331.434 600.899 328.306 600.861 329.512 601.699C331.932 603.379 325.649 601.532 322.368 599.597C318.73 597.453 317.947 597.347 319.439 599.201C321.566 601.843 319.759 600.579 317.108 597.572C315.649 595.916 315.373 595.354 316.496 596.327C317.686 597.357 318.544 597.645 318.553 597.017C318.564 596.349 320.213 596.792 322.901 598.187C328.993 601.344 337.043 600.603 345.537 596.102C348.855 594.343 353.156 592.61 355.093 592.25L358.617 591.594L355.41 590.942L352.203 590.291L355.618 590.222C358.262 590.169 359.793 590.839 362.391 593.19C364.679 595.259 365.442 595.634 364.789 594.365C363.387 591.646 360.952 589.639 356.974 587.925C355.041 587.092 352.684 585.394 351.736 584.151C350.788 582.908 348.179 581.158 345.936 580.263C342.398 578.85 341.277 578.782 337.452 579.743C335.028 580.351 330.769 580.911 327.987 580.985C325.206 581.06 320.849 581.966 318.306 583.001C315.468 584.155 314.379 584.357 315.487 583.525C316.48 582.779 317.695 582.175 318.188 582.183C318.681 582.19 318.824 581.929 318.508 581.602C318.19 581.275 315.705 582.129 312.987 583.5C307.34 586.347 305.173 586.132 300.341 582.248C293.083 576.412 285.737 563.429 282.846 551.325C280.104 539.839 282.414 524.659 289.901 504.964C293.447 495.633 303.165 480.134 310.421 472.233C316.54 465.571 324.752 458.42 323.976 460.43C323.526 461.594 323.896 462.733 325.1 463.889C326.86 465.579 326.949 465.535 329.764 461.576C331.341 459.356 335.393 455.18 338.767 452.297C345.127 446.863 347.804 442.956 348.927 437.467C349.289 435.704 350.954 431.501 352.628 428.127C355.389 422.561 355.884 422.043 357.962 422.537C362.567 423.631 366.063 426.759 368.526 431.991C370.694 436.597 371.008 438.548 371.296 449.214L371.621 461.242L373.912 455.306C379.845 439.93 388.745 433.212 402.883 433.44C411.41 433.576 416.567 435.729 421.277 441.118C424.661 444.991 427.364 452.246 427.288 457.254C427.265 458.781 427.639 459.663 428.175 459.343C428.685 459.038 429.146 455.899 429.2 452.367C429.342 442.994 433.566 435.878 441.281 432.008C446.379 429.452 444.619 428.98 439.047 431.408C436.63 432.462 434.125 434.621 432.237 437.277C430.595 439.588 428.867 441.233 428.397 440.934C427.927 440.634 427.536 440.89 427.526 441.503C427.515 442.23 426.932 442.08 425.852 441.073C424.94 440.223 423.814 439.509 423.348 439.488C422.884 439.467 420.884 438.186 418.905 436.643C411.706 431.024 400.528 429.402 391.412 432.656C387.522 434.044 385.125 435.772 381.277 439.961C377.729 443.823 376.029 445.098 375.534 444.268C375.103 443.548 375.195 443.324 375.77 443.691C376.329 444.047 377.615 441.604 378.932 437.679C385.39 418.448 402.608 385.561 405.313 387.29C406.928 388.321 418.554 417.433 423.517 432.873C424.868 437.073 426.15 440.338 426.366 440.128C426.583 439.919 425.773 436.353 424.567 432.206C423.362 428.059 422.604 424.095 422.883 423.398C423.631 421.536 421.931 416.653 415.496 402.181C407.269 383.679 407.116 383.288 407.727 382.332C408.806 380.645 412.839 382.985 425.281 392.519C426.906 393.763 428.24 394.419 428.246 393.976C428.253 393.534 425.568 391.287 422.279 388.984C416.215 384.737 414.725 383.332 416.308 383.356C417.936 383.381 442.844 403.18 442.306 404.021C442.013 404.48 442.351 404.643 443.059 404.384C443.766 404.124 444.866 404.559 445.502 405.35C446.342 406.393 446.364 406.783 445.581 406.772C444.987 406.763 446.87 408.815 449.765 411.334C457.136 417.746 466.518 427.243 468.781 430.585L470.69 433.403L463.227 430.751C455.609 428.045 449.801 427.24 449.776 428.888C449.768 429.393 451.401 429.831 453.403 429.862C457.106 429.918 465.768 432.865 469.897 435.475C475.678 439.128 479.868 444.673 479.808 448.593C479.792 449.63 480.193 450.483 480.699 450.49C483.05 450.526 481.52 442.908 475.629 425.232C473.258 418.118 473.358 415.841 476.119 414.091C482.452 410.079 495.914 418.379 500.238 428.963C501.225 431.378 502.461 433.362 502.983 433.37C504.373 433.391 504.294 433.139 500.286 424.809C493.78 411.287 474.816 394.052 455.458 384.066C443.212 377.75 428.683 373.436 419.167 373.292C414.568 373.222 414.517 373.191 416.159 371.433C417.077 370.449 418.604 369.41 419.553 369.124C420.502 368.839 421.285 368.168 421.293 367.635C421.315 366.136 415.993 367.432 411.36 370.053C406.617 372.736 403.213 377.128 396.927 388.677C391.762 398.166 386.851 404.377 382.996 406.297C376.932 409.317 368.47 406.871 363.079 400.541C359.545 396.393 358.875 392.912 359.071 379.732C359.196 371.482 359.594 368.469 360.894 365.977L362.557 362.786L361.964 370.817C361.616 375.518 361.726 378.854 362.228 378.861C363.379 378.879 366.562 370.581 369.161 360.792C370.326 356.402 372.934 348.157 374.956 342.469C376.979 336.781 378.642 331.534 378.653 330.809C378.687 328.555 374.571 329.275 370.267 332.277ZM190.39 333.47C188.8 336.822 188.935 337.532 190.699 335.094C191.512 333.97 192.034 332.599 191.859 332.046C191.685 331.494 191.023 332.134 190.39 333.47ZM369.345 337.85C367.452 340.851 366.67 343.785 368.432 341.282C370.27 338.669 372.201 334.907 371.707 334.899C371.435 334.895 370.371 336.222 369.345 337.85ZM183.388 335.298C182.466 337.594 182.718 338.194 183.83 336.348C184.381 335.434 184.64 334.49 184.407 334.25C184.174 334.009 183.715 334.481 183.388 335.298ZM258.432 339.739C249.978 340.819 236.055 344.302 229.391 347.004C226.152 348.317 222.808 349.425 221.959 349.466C221.111 349.507 220.613 349.868 220.852 350.269C221.092 350.669 220.524 350.986 219.591 350.972C218.658 350.958 216.629 352.064 215.083 353.43C213.537 354.796 212.956 355.408 213.793 354.787C214.629 354.167 215.487 353.839 215.7 354.058C215.913 354.277 218.574 353.911 221.612 353.245C232.015 350.964 240.988 352.391 246.362 357.179C250.838 361.168 251.323 365.766 248.378 376.299C245.036 388.254 245.073 388.003 246.696 387.79C247.493 387.685 248.472 387.251 248.872 386.824C249.272 386.398 249.079 386.338 248.441 386.693C244.746 388.744 251.645 377.758 257.285 372.608C266.629 364.077 284.597 351.765 294.087 347.389C296.512 346.271 298.366 344.942 298.205 344.435C297.211 341.299 270.71 338.169 258.432 339.739ZM229.547 344.691C228.781 345.169 228.568 345.566 229.074 345.574C229.579 345.581 230.619 345.197 231.385 344.718C232.15 344.24 232.363 343.843 231.858 343.835C231.352 343.828 230.312 344.212 229.547 344.691ZM297.674 349.037C295.993 349.741 294.167 350.03 293.617 349.678C292.969 349.264 292.874 349.471 293.35 350.265C293.887 351.165 293.663 351.326 292.515 350.865C291.485 350.452 291.16 350.591 291.567 351.273C291.937 351.892 291.685 352.135 290.942 351.875C289.411 351.339 285.854 353.711 269.451 366.209C266.01 368.831 262.875 370.961 262.486 370.942C262.097 370.923 261.772 371.286 261.765 371.749C261.758 372.212 260.906 373.335 259.871 374.247C258.836 375.158 256.945 377.14 255.668 378.653C254.391 380.164 252.932 381.459 252.426 381.528C251.919 381.599 250.928 382.605 250.224 383.765C249.085 385.639 249.094 385.698 250.306 384.301C251.056 383.436 251.926 382.991 252.238 383.313C252.55 383.634 253.467 383.365 254.276 382.715C256.351 381.045 265.303 381.72 269.305 383.849C275.849 387.33 278.957 392.893 281.494 405.664C283.055 413.521 283.947 415.463 284.903 413.08C285.249 412.219 285.113 411.83 284.58 412.149C283.426 412.838 283.49 409.079 284.818 398.076C286.603 383.29 293.384 361.368 295.711 362.856C296.312 363.24 296.453 362.876 296.088 361.882C295.76 360.987 295.879 360.534 296.361 360.842C296.831 361.142 297.662 360.583 298.208 359.6C299.655 356.993 299.388 356.025 297.788 358.075C295.638 360.83 296.172 359.309 299.242 353.934C303.193 347.018 303.11 346.761 297.674 349.037ZM348.174 357.322C347.111 359.181 345.923 361.73 345.534 362.988C344.931 364.935 345.322 364.736 348.167 361.649C351.416 358.126 352.427 355.426 350.869 354.431C350.45 354.163 349.237 355.464 348.174 357.322ZM355.824 365.633C353.828 370.415 351.205 378.936 351.602 379.345C352.009 379.764 353.369 376.375 355.885 368.671C358.057 362.022 358.023 360.361 355.824 365.633ZM363.778 364.413C364.065 365.555 364.316 367.522 364.337 368.786L364.373 371.083L365.315 368.823C366.392 366.239 365.764 362.375 364.263 362.353C363.666 362.344 363.468 363.183 363.778 364.413ZM408.907 374.285C405.791 377.316 402.24 382.307 399.094 388.076C393.52 398.301 389.402 403.865 385.34 406.658C383.808 407.712 383.011 408.58 383.567 408.588C384.124 408.597 385.642 407.793 386.943 406.802C388.243 405.811 389.862 405.007 390.541 405.017C391.219 405.025 392.957 402.881 394.403 400.251C398.811 392.228 403.981 385.458 405.584 385.607C406.513 385.692 406.906 385.255 406.616 384.462C406.357 383.756 406.656 382.583 407.279 381.855C408.272 380.695 408.808 380.704 411.614 381.926C413.375 382.693 415.196 383.095 415.659 382.818C417 382.018 433.587 393.528 447.24 404.732C449.908 406.921 452.533 408.447 453.075 408.123C453.63 407.792 453.786 407.964 453.432 408.517C453.08 409.068 455.186 411.428 458.238 413.901C462.773 417.574 467.029 422.557 476.052 434.751C476.639 435.544 475.963 432.458 474.547 427.891C473.133 423.324 471.987 418.835 472.001 417.914C472.072 413.258 476.891 410.61 483.942 411.354C486.955 411.67 488.71 412.598 491.58 415.388L495.306 419.011L491.61 414.361C478.418 397.763 454.655 382.741 432.72 377.13C424.787 375.101 414.308 374.468 413.354 375.961C413.034 376.461 411.66 376.837 410.3 376.796L407.828 376.722L410.376 375.39C411.777 374.657 412.929 373.687 412.936 373.233C412.943 372.781 413.608 371.771 414.414 370.988C415.271 370.158 415.447 369.56 414.835 369.551C414.261 369.542 411.594 371.673 408.907 374.285ZM412.93 378.57C412.288 379.727 412.322 380.588 413.04 381.328C414.601 382.937 415.958 382.651 414.624 380.995C412.858 378.8 414.534 377.948 421.141 377.682L427.118 377.442L420.491 377.165C414.878 376.929 413.721 377.144 412.93 378.57ZM433.745 379.549C446.532 382.554 461.83 391.152 477.815 404.317C486.388 411.378 490.247 413.275 482.549 406.643C472.481 397.973 461.666 390.193 454.315 386.335C447.768 382.899 433.854 378.089 430.648 378.152C429.028 378.185 430.21 378.719 433.745 379.549ZM309.897 379.731C309.878 381.038 316.134 391.264 317.763 392.587C322.251 396.232 322.442 395.407 318.189 390.744C315.555 387.856 312.817 384.031 312.102 382.247C310.872 379.174 309.922 378.09 309.897 379.731ZM344.322 397.637C342.994 400.534 340.312 406.807 338.363 411.579C335.523 418.532 331.663 426.823 327.637 434.618C327.443 434.994 327.665 435.307 328.13 435.315C329.09 435.329 333.328 426.662 338.751 413.6C340.772 408.732 343.538 402.11 344.896 398.885C348.001 391.516 347.566 390.569 344.322 397.637ZM286.858 395.637C286.853 397.153 287.051 397.665 287.298 396.775C287.545 395.885 287.549 394.644 287.306 394.019C287.064 393.393 286.862 394.121 286.858 395.637ZM307.032 398.7C307.027 400.216 307.225 400.728 307.472 399.837C307.719 398.947 307.722 397.707 307.48 397.081C307.238 396.455 307.036 397.184 307.032 398.7ZM285.875 406.189C285.833 408.968 285.988 410.108 286.219 408.721C286.451 407.335 286.485 405.062 286.296 403.669C286.107 402.276 285.917 403.41 285.875 406.189ZM386.933 412.86C385.102 416.67 383.754 419.943 383.939 420.133C384.123 420.323 385.82 417.209 387.71 413.213C389.6 409.217 390.947 405.944 390.703 405.94C390.461 405.936 388.764 409.05 386.933 412.86ZM449.606 409.793C453.968 413.34 469.279 429.092 473.429 434.3L476.393 438.021L473.887 434.307C468.81 426.787 463.941 421.294 456.009 414.137C451.54 410.105 447.453 406.814 446.929 406.823C446.404 406.832 447.608 408.169 449.606 409.793ZM317.442 427.355C316.366 429.764 315.617 432.15 315.778 432.657C315.939 433.165 317.016 431.398 318.173 428.731C319.329 426.063 320.078 423.677 319.837 423.429C319.596 423.18 318.518 424.947 317.442 427.355ZM321.21 443.103C318.193 446.957 314.041 452.008 311.984 454.328C309.927 456.648 307.189 459.924 305.899 461.61C304.61 463.295 302.663 465.724 301.573 467.006C294.365 475.494 284.285 494.27 279.947 507.29C277.568 514.43 274.644 534.766 275.576 537.685C275.774 538.307 276.286 535.529 276.713 531.514C278.639 513.397 283.917 497.375 293.143 481.646C298.121 473.159 300.167 470.458 318.814 447.756C323.654 441.863 327.408 436.829 327.155 436.569C326.903 436.309 324.228 439.249 321.21 443.103ZM344.433 439.702C342.96 441.572 338.879 445.882 335.363 449.278C331.847 452.675 328.964 455.887 328.956 456.417C328.948 456.946 328.594 457.374 328.17 457.368C327.746 457.362 326.911 458.383 326.317 459.637C325.722 460.892 325.558 461.923 325.952 461.929C327.6 461.954 343.752 445.727 345.653 442.135C348.435 436.883 347.74 435.5 344.433 439.702ZM374.261 446.121C374.173 446.878 373.857 448.527 373.558 449.786C373.087 451.764 373.157 451.856 374.08 450.456C374.667 449.567 374.983 447.917 374.783 446.792C374.583 445.667 374.348 445.364 374.261 446.121ZM332.272 582.564C329.319 583.543 327.068 584.514 327.271 584.723C327.473 584.931 329.47 584.466 331.709 583.689C333.948 582.912 337.853 581.985 340.386 581.629C344.854 581 344.882 580.978 341.316 580.883C339.295 580.829 335.225 581.586 332.272 582.564ZM321.735 584.18C317.53 586.784 317.964 586.994 323.104 584.843C328.4 582.627 328.79 582.339 326.512 582.325C325.544 582.318 323.394 583.153 321.735 584.18ZM330.215 585.613C324.931 587.314 322.027 588.617 323.429 588.659C324.777 588.699 327.891 587.903 330.349 586.89C332.808 585.876 336.895 584.518 339.433 583.871C342.05 583.204 343.052 582.684 341.749 582.669C340.485 582.653 335.295 583.978 330.215 585.613ZM316.898 584.92C316.062 585.442 315.943 585.801 316.601 585.82C317.203 585.837 317.957 585.441 318.277 584.941C318.999 583.811 318.681 583.806 316.898 584.92ZM337.101 586.107C330.4 588.231 334.483 588.34 343.073 586.266C348.928 584.852 349.187 584.697 345.855 584.602C343.834 584.543 339.895 585.222 337.101 586.107ZM339.347 589.526C335.799 590.16 329.583 590.904 325.535 591.179L318.175 591.677L323.21 593.002C329.617 594.69 334.154 594.2 342.665 590.904C350.052 588.042 349.325 587.74 339.347 589.526ZM315.83 593.54C317.063 594.934 318.206 595.69 318.37 595.223C318.533 594.755 320.174 595.168 322.015 596.142C326.951 598.752 331.03 598.435 338.365 594.87C344.655 591.814 344.563 591.652 337.9 594.051C332.085 596.145 324.22 595.342 315.416 591.752C313.821 591.102 313.874 591.329 315.83 593.54ZM341.549 595.86C340.274 596.563 339.645 597.145 340.15 597.152C340.656 597.16 342.112 596.591 343.386 595.888C344.661 595.185 345.29 594.604 344.785 594.596C344.279 594.589 342.823 595.158 341.549 595.86ZM335.541 598.067C334.321 598.569 334.161 598.852 335.069 598.899C335.826 598.939 337.073 598.58 337.838 598.101C339.534 597.042 338.083 597.02 335.541 598.067Z" fill="#05B4C7" fill-opacity="0.5" shape-rendering="crispEdges"/>
</g>
<defs>
<filter id="filter0_d_2326_17056" x="0.732496" y="0.929688" width="518.857" height="621.265" filterUnits="userSpaceOnUse" color-interpolation-filters="sRGB">
<feFlood flood-opacity="0" result="BackgroundImageFix"/>
<feColorMatrix in="SourceAlpha" type="matrix" values="0 0 0 0 0 0 0 0 0 0 0 0 0 0 0 0 0 0 127 0" result="hardAlpha"/>
<feOffset dy="9.38274"/>
<feGaussianBlur stdDeviation="4.69137"/>
<feComposite in2="hardAlpha" operator="out"/>
<feColorMatrix type="matrix" values="0 0 0 0 0.0196078 0 0 0 0 0.705882 0 0 0 0 0.780392 0 0 0 0.5 0"/>
<feBlend mode="normal" in2="BackgroundImageFix" result="effect1_dropShadow_2326_17056"/>
<feBlend mode="normal" in="SourceGraphic" in2="effect1_dropShadow_2326_17056" result="shape"/>
</filter>
</defs>
</svg>
