<svg width="144" height="197" viewBox="0 0 144 197" fill="none" xmlns="http://www.w3.org/2000/svg">
<path d="M143.869 158.935C143.568 157.4 143.333 155.858 143.082 154.319C141.698 146.66 140.435 138.986 138.906 131.35C136.688 117.249 135.221 102.324 132.305 87.9143C132.353 87.7886 132.374 87.6494 132.321 87.483C130.562 75.8272 128.016 62.2258 125.629 49.1925C125.236 47.1065 124.847 45.0193 124.505 42.9259C124.445 42.7349 124.302 42.5747 124.109 42.4737L124.106 42.4725C123.935 42.3382 123.77 42.1953 123.599 42.0597C123.603 41.9661 123.606 41.8712 123.61 41.7776C123.554 41.8293 123.498 41.8823 123.441 41.9328C118.253 37.8557 113.228 33.6086 108.338 29.2469C100.239 22.798 92.3253 16.1754 84.3615 9.59708C80.6641 6.42315 76.8143 3.3909 73.1182 0.218194C72.9211 0.0395367 72.6877 0.00750838 72.4724 0.0518647C72.1285 -0.0602582 71.7175 0.0839085 71.5316 0.361135C71.4757 0.370992 71.4198 0.373452 71.3695 0.403023C61.0502 12.5776 51.6228 26.402 40.8813 39.0534C38.1624 42.4343 34.6956 46.1319 32.2381 48.9473C31.6846 49.7432 30.6543 50.3679 30.3873 51.2698C30.3817 51.4275 30.4404 51.5655 30.5327 51.6826C29.2187 78.3937 28.4359 105.142 27.1121 131.847C26.9233 132.649 26.9331 133.877 26.9373 134.826C25.8022 134.083 24.6895 133.355 23.6285 132.651C23.4132 132.502 23.1756 132.378 22.9128 132.312C22.7548 132.21 22.5703 132.152 22.3732 132.174C22.0796 132.055 21.712 132.072 21.4716 132.288C20.6258 133.457 16.2798 138.553 13.7691 141.636C10.4156 145.358 5.80672 150.248 1.8996 154.377C1.57809 154.816 1.01753 155.247 0.732361 155.74C0.602356 155.868 0.561814 156.033 0.582783 156.203C0.568804 156.257 0.528267 156.298 0.529665 156.356C0.536654 163.796 -0.248962 171.323 0.0809415 178.726C3.28772 180.734 8.83317 185.021 12.9598 188.644C13.0436 188.724 13.1499 188.755 13.2533 188.787C13.312 188.917 13.4099 189.036 13.579 189.118C19.2782 191.629 25.9462 194.281 31.2484 196.131C31.5448 196.46 32.2074 196.529 32.4996 196.107C35.6057 194.798 38.3987 192.975 41.4894 191.629C45.9026 189.627 50.4961 187.689 54.6352 185.333C54.6478 185.313 54.6506 185.295 54.6604 185.278C55.1077 185.318 55.5984 185.074 55.5844 184.584C55.3747 180.94 54.9595 177.308 54.6213 173.669C56.9949 174.62 59.3965 175.534 61.7603 176.516C61.3088 177.514 60.8503 178.521 60.3694 179.554C59.6942 181.154 59.1183 182.684 58.5521 183.862C58.541 183.916 58.5493 183.963 58.5521 184.01C58.2684 184.159 58.1481 184.454 58.1761 184.737C57.9636 185.186 58.3005 185.778 58.9114 185.762C66.2993 185.056 73.7151 184.629 81.1114 184.023C82.0005 183.832 83.1971 183.949 83.9673 183.482C90.5374 181.543 97.4514 180.603 104.089 178.867C104.301 178.776 104.432 178.625 104.498 178.458C104.673 178.335 104.743 178.162 104.726 177.954C104.885 178.077 104.983 178.25 105.013 178.437C111.374 178.314 117.725 177.996 124.081 177.633C127.959 177.392 131.847 177.404 135.726 177.232C136.152 177.447 136.771 177.298 136.917 176.828C139.395 171.469 141.702 166.055 143.553 160.5C144.116 160.259 144.054 159.481 143.869 158.935ZM106.645 29.7484C111.785 34.2333 116.766 38.8685 122.313 42.9703C120.143 44.9441 117.984 46.9254 115.841 48.9152C115.098 49.7309 114.159 50.4874 113.38 51.313C113.329 51.1146 113.207 50.915 112.989 50.7573C102.464 37.4762 90.0453 23.042 79.1837 9.16832C77.8683 7.47538 76.6633 5.71838 75.4527 3.96631C85.8097 12.5973 96.1681 21.2308 106.645 29.7484ZM72.2977 5.83173C72.5031 4.77087 72.6332 3.70263 72.7506 2.63191C79.8798 12.4765 87.715 21.8887 95.5335 31.3144C101.213 38.0517 106.178 45.3557 112.128 51.8711C98.7123 53.6146 85.4015 56.2316 72.0712 58.4876C70.219 58.9053 68.2927 59.1394 66.4139 59.4696C68.2074 45.2213 68.61 29.725 70.6719 16.1212C71.3079 12.4852 71.6868 9.25086 72.2977 5.83173ZM71.2716 2.93009C70.486 9.48743 69.0923 15.892 68.3402 22.8732C66.8445 35.0576 66.3734 48.6417 64.6176 59.5275C64.6134 59.594 64.6358 59.6445 64.647 59.7049C56.0541 56.94 47.1299 54.7543 38.2952 52.5709C36.306 52.1939 34.3336 51.6641 32.3612 51.2427C45.7139 36.4745 59.2958 18.525 71.2716 2.93009ZM23.1882 134.121C31.3239 139.242 39.4653 144.366 47.5144 149.593C48.1168 149.963 48.8661 150.508 49.6461 151.104C43.2578 149.815 36.9966 148.114 30.7102 146.484C28.7266 146.026 25.7896 144.78 23.5796 144.43C23.5502 144.388 23.5362 144.338 23.4971 144.303C23.5097 143.107 23.2161 141.34 23.2748 140.005C23.1336 138.052 23.1924 136.075 23.1882 134.121ZM21.6714 134.543C21.6393 137.991 21.7819 141.452 22.067 144.886C22.0587 144.906 22.0475 144.927 22.0377 144.944C20.3658 148.039 17.7 152.347 15.6465 155.829C13.5315 159.508 11.0852 163.038 9.00231 166.728C6.73632 163.693 4.72335 160.516 2.75511 157.321C2.5021 157.004 2.33715 156.594 2.11768 156.23C8.0811 149.556 16.2993 141.106 21.6714 134.543ZM1.5683 177.99C1.72766 172.42 1.72486 166.845 1.99046 161.276C2.01423 160.433 2.02681 159.588 2.04219 158.746C4.06914 162.145 5.99544 165.629 8.65424 168.645C8.71994 168.68 8.78704 168.678 8.85274 168.694C10.1668 174.601 11.2851 180.541 12.7389 186.422C12.7473 186.447 12.7515 186.478 12.7599 186.502C9.3448 183.5 4.53044 179.699 1.5683 177.99ZM31.5644 194.813C25.7533 192.711 20.4888 190.483 14.5897 187.987C14.6876 187.874 14.7505 187.738 14.7463 187.582C13.4504 182.031 12.0805 176.49 10.9104 170.916C10.5945 170.081 10.6057 168.688 10.2353 167.773C14.3632 160.919 18.9763 153.108 22.6807 146.473C22.7618 146.495 22.8443 146.518 22.9435 146.518C22.9561 146.518 22.9659 146.513 22.9785 146.513C30.5551 153.47 38.0632 160.581 45.6985 167.44C45.5713 167.508 45.4525 167.599 45.3574 167.745C41.2546 175.193 37.648 182.85 33.8849 190.436C33.1566 191.91 32.3444 193.363 31.5644 194.813ZM33.6766 193.996C33.6626 194.005 33.6458 194.012 33.6318 194.021C37.764 186.235 42.9936 175.512 46.1179 169.797C48.1127 173.965 50.5702 178.822 52.9466 183.185C53.1563 183.508 53.2807 183.941 53.5491 184.238C46.9496 187.515 40.1139 190.464 33.6766 193.996ZM48.272 170.773C47.7883 169.939 47.5241 168.945 47.0153 168.118C47.0293 167.928 46.9384 167.753 46.7972 167.615C47.1285 167.348 47.2278 166.846 46.8266 166.531C41.3217 161.345 35.5358 156.394 29.9959 151.238C28.1241 149.549 26.3991 147.703 24.4882 146.047C33.4068 148.405 42.201 151.327 51.3516 152.82C52.27 158.095 52.3595 164.051 52.6348 169.736C52.9298 173.566 53.3198 177.391 53.6637 181.22C51.6479 177.674 49.7342 174.041 48.272 170.773ZM54.5877 172.25C54.5542 172.253 54.5276 172.265 54.4955 172.273C54.3627 170.73 54.2494 169.185 54.1837 167.639C53.858 162.077 53.728 156.381 52.3679 150.947C52.1875 150.717 51.9024 150.672 51.6465 150.734C46.835 147.217 41.3832 144.38 36.4193 141.02C33.787 139.286 31.1142 137.547 28.5365 135.865C28.5142 134.99 28.5435 134.103 28.5463 133.222C28.5533 133.213 28.5659 133.208 28.5729 133.198C28.981 132.251 28.626 131.08 28.8063 130.059C29.9246 110.726 30.2224 91.3679 30.9884 72.0249C31.3099 66.0639 31.5504 60.1041 31.7433 54.1407C31.693 53.6244 31.8076 53.0576 31.8789 52.5032C42.6008 54.9637 54.6017 58.2116 64.1815 61.1724C64.2024 61.1724 64.2234 61.1625 64.2458 61.1613C64.387 78.8939 64.8888 96.6488 65.1348 114.37C65.1264 114.41 65.1083 114.443 65.1097 114.489C65.0691 127.591 65.4088 140.688 66.0924 153.78C66.2629 158.083 66.3049 162.39 66.351 166.696C64.914 169.525 63.6475 172.337 62.3321 175.257C59.7417 174.161 57.1668 173.162 54.5877 172.25ZM83.5675 181.903C83.4976 181.955 83.4585 182.025 83.4151 182.091C83.2935 182.134 83.1649 182.169 83.0461 182.216C76.8492 182.97 68.5317 183.295 61.566 184.065C61.0628 184.166 60.5134 184.161 59.9738 184.181C61.0516 181.854 62.1182 179.473 63.196 177.101C63.2183 177.111 63.2421 177.118 63.2645 177.128C63.3148 176.973 63.3749 176.818 63.4294 176.661L63.4518 176.536C65.6269 171.761 67.8691 167.063 70.3727 162.944C70.4454 162.942 70.5126 162.949 70.5908 162.928C76.2956 161.066 82.0312 159.242 87.8702 157.734C88.0561 157.674 88.2588 157.619 88.4573 157.566C88.4895 163.027 88.7439 168.486 88.5636 173.947C88.5622 175.003 88.4392 176.072 88.5454 177.127C88.5216 177.144 88.4951 177.149 88.4741 177.169C86.9336 178.824 85.2715 180.376 83.5675 181.903ZM89.5952 178.155C89.6036 178.151 89.6036 178.141 89.6092 178.136C89.6651 178.146 89.7057 178.179 89.7658 178.179C93.1375 178.041 96.5148 177.785 99.8907 177.836C100.558 177.848 101.019 177.881 101.447 177.927C96.4407 179.116 91.372 180.117 86.3563 181.274C87.4564 180.252 88.5594 179.23 89.5952 178.155ZM90.1712 159.44C92.0066 162.482 94.2236 165.355 96.0954 168.384C98.0259 171.149 99.9914 173.895 102.039 176.594C98.2076 176.302 94.3634 176.707 90.5276 176.74C90.399 176.755 90.2634 176.761 90.1264 176.765C90.4465 170.994 90.2257 165.215 90.1712 159.44ZM104.393 177.093C104.172 176.714 103.898 176.351 103.731 176.117C101.352 172.954 99.0688 169.734 96.8615 166.477C94.7437 163.096 92.247 159.903 90.2788 156.453C90.0831 156.037 89.7029 155.592 89.1297 155.74C88.6978 156.022 87.0203 156.331 85.4756 156.806C80.3118 158.229 75.1997 159.802 70.1421 161.493C70.1211 161.498 70.1114 161.51 70.0918 161.515C69.6794 161.413 69.1776 161.532 68.9441 161.941C68.3039 163.027 67.7167 164.099 67.1492 165.167C67.4386 164.539 67.7042 163.902 68.0145 163.281C67.8593 151.531 66.9283 139.801 66.755 128.048C66.6124 123.529 66.6949 119.006 66.4335 114.489C66.4335 114.448 66.4153 114.416 66.4097 114.38C66.2266 99.1783 65.6968 83.9801 65.838 68.7782C65.6842 66.1501 66.0043 63.4937 66.0197 60.884C81.1533 58.3434 98.8675 55.098 112.491 53.3065C114.539 63.2965 115.638 72.8984 117.413 82.9365C117.328 83.0486 117.296 83.194 117.35 83.3653C119.973 102.65 124.548 122.677 128.088 142.289C128.088 142.296 128.083 142.302 128.083 142.31C129.156 148.913 130.759 155.436 132.168 161.988C133.229 166.564 133.742 171.315 135.393 175.754C125.07 176.406 114.739 176.988 104.393 177.093ZM142.097 159.728C140.701 163.635 139.42 167.583 137.651 171.373C137.282 172.18 136.903 172.986 136.53 173.793C134.385 165.893 133.144 157.807 131.194 149.864C130.738 147.148 130.075 144.157 129.698 142.025C129.638 141.88 129.53 141.781 129.407 141.709C126.679 126.085 123.431 110.498 120.497 94.8967C119.951 91.7499 119.621 88.8026 119.05 85.6336C119.14 85.5166 119.175 85.365 119.117 85.1839C117.44 76.2042 116.496 67.7396 115.045 59.0235C114.673 57.0115 114.413 54.9415 113.933 52.9467C116.763 49.9219 119.868 47.0695 123.03 44.2739C125.736 57.9455 128.075 71.3213 130.144 84.505C130.12 84.5986 130.098 84.6947 130.134 84.7995C131.707 94.4531 133.47 104.596 134.812 114.896C135.691 124.236 137.293 133.473 139.145 142.697C140.219 148.283 141.302 153.867 142.23 159.473C142.23 159.477 142.232 159.479 142.232 159.484C142.177 159.553 142.127 159.63 142.097 159.728Z" fill="#05B4C7"/>
<path d="M61.9838 60.0625C62.1501 58.8082 62.3347 57.5416 62.638 56.2072C63.6892 50.3522 64.4427 44.4565 65.0508 38.5558C65.5023 34.3593 66.2236 30.1663 66.1062 25.9414C64.3826 33.5793 63.8374 41.3478 62.7233 49.0609C62.4185 52.416 61.4288 56.0507 60.8096 59.7224C61.1954 59.8321 61.5882 59.9454 61.9838 60.0625Z" fill="#05B4C7"/>
<path d="M60.698 59.6883C60.9301 58.2899 60.9902 56.8582 61.1691 55.4622C61.7716 48.4132 63.5106 41.4407 63.4155 34.3535C61.6933 42.6358 60.5526 51.0019 59.6328 59.3779C59.9809 59.4813 60.336 59.5861 60.698 59.6883Z" fill="#05B4C7"/>
<path d="M58.8198 59.1399C58.9861 58.2011 59.1357 57.2585 59.351 56.3406C60.4148 50.6913 61.4282 45.0236 61.7162 39.293C60.6622 42.8784 60.015 46.5317 59.3733 50.1849C59.6781 47.664 59.8109 45.132 59.6725 42.5926C58.8002 47.2253 58.1963 51.3098 57.2625 55.7701C57.0808 56.6794 56.8222 57.5838 56.5859 58.4894C57.3296 58.7038 58.0803 58.9108 58.8198 59.1399Z" fill="#05B4C7"/>
<path d="M56.3506 58.4197C57.0035 54.562 57.2705 50.6685 57.1265 46.7676C56.2738 50.8484 55.7929 54.4733 55.21 58.0858C55.5916 58.1943 55.969 58.3088 56.3506 58.4197Z" fill="#05B4C7"/>
<path d="M54.4516 57.8672C54.9394 54.5368 55.191 51.1633 55.7083 47.9043C54.3747 50.9932 53.9204 54.315 53.3584 57.5727C53.7219 57.6713 54.0867 57.7662 54.4516 57.8672Z" fill="#05B4C7"/>
<path d="M64.3337 60.8351C65.2032 52.8657 66.095 44.8742 66.3201 36.8691C64.7475 42.9878 64.3365 49.2606 63.7689 55.5074C63.3496 57.066 62.8268 58.6555 62.6045 60.2474C63.1888 60.426 63.7675 60.6231 64.3337 60.8351Z" fill="#05B4C7"/>
<path d="M51.1367 56.971C51.8035 57.1484 52.4675 57.3283 53.1329 57.5094C53.5159 55.1055 53.7606 52.6746 54.1016 50.3003C53.6334 51.8971 53.0994 53.5481 52.6017 55.2152C52.8617 53.4188 53.056 51.6162 53.3174 49.8555C52.6339 52.2039 51.8049 54.5782 51.1367 56.971Z" fill="#05B4C7"/>
<path d="M49.9205 56.6428C50.0966 56.6908 50.2728 56.7389 50.4503 56.7857C50.8766 54.7219 51.3044 52.6569 51.8132 50.6103C52.6869 46.6072 53.9422 42.62 54.0219 38.5195C52.2662 44.4719 50.6264 50.444 49.3613 56.4974C49.5486 56.5467 49.7346 56.5935 49.9205 56.6428Z" fill="#05B4C7"/>
<path d="M48.3979 56.2495C49.7245 50.0261 50.9449 43.783 52.3036 37.5645C49.6546 43.4675 48.581 49.7403 47.3369 55.976C47.6906 56.066 48.0442 56.1559 48.3979 56.2495Z" fill="#05B4C7"/>
<path d="M46.8709 55.8564C48.0185 50.6754 49.1243 45.4882 49.9504 40.2578C47.9472 45.2257 47.0512 50.4487 45.877 55.5989C46.2083 55.6839 46.5396 55.7727 46.8709 55.8564Z" fill="#05B4C7"/>
<path d="M45.2174 55.4287C46.6684 49.0857 47.9405 42.7107 49.3049 36.3555C46.6377 42.4039 45.5949 48.8368 44.2109 55.1872C44.5464 55.2697 44.8819 55.3449 45.2174 55.4287Z" fill="#05B4C7"/>
<path d="M43.6806 55.0594C43.8371 54.4655 43.9993 53.8766 44.1852 53.3012C45.5733 47.3106 47.6073 41.3693 47.9679 35.2383C46.1437 41.3336 44.5403 47.4683 43.0026 53.6264C42.8964 54.0244 42.7943 54.4224 42.6895 54.8204C43.0194 54.8992 43.3507 54.9793 43.6806 55.0594Z" fill="#05B4C7"/>
<path d="M42.3028 54.729C43.5385 49.8375 44.9574 44.9484 45.1992 39.9238C43.7622 44.7488 42.4761 49.6034 41.2432 54.4739C41.5968 54.5577 41.9505 54.6452 42.3028 54.729Z" fill="#05B4C7"/>
<path d="M40.9416 54.4011C42.0278 50.6308 43.0063 46.8445 43.6703 42.9941C42.2599 46.2321 41.1513 49.5626 40.1644 52.9189C40.8787 50.1294 41.3582 47.3189 41.7133 44.6969C40.5474 47.6861 39.6766 50.7516 38.7344 53.8011C39.355 53.9699 39.9729 54.1411 40.5908 54.3161C40.7082 54.3432 40.8242 54.374 40.9416 54.4011Z" fill="#05B4C7"/>
<path d="M38.1401 53.6351C38.9495 50.9096 39.64 48.1571 40.3404 45.4082C38.99 47.9636 37.9262 50.6238 37.0176 53.3233C37.3936 53.4194 37.7655 53.5353 38.1401 53.6351Z" fill="#05B4C7"/>
<path d="M36.6372 53.2175C36.6414 53.2187 36.6442 53.22 36.6484 53.22C38.3999 50.5697 38.8528 47.3058 39.7181 44.3672C38.5145 47.1777 36.756 49.9906 35.9229 53.0253C36.1647 53.0931 36.4051 53.1584 36.6372 53.2175Z" fill="#05B4C7"/>
<path d="M35.7528 52.9793C36.4042 50.9907 36.8487 48.933 37.3296 46.9629C36.5537 48.8998 35.5696 50.7689 34.6582 52.6812C35.0286 52.7773 35.3935 52.8795 35.7528 52.9793Z" fill="#05B4C7"/>
<path d="M34.5378 52.6488C35.2074 51.084 35.7987 49.4268 36.404 48.0469C35.5038 49.3443 34.426 50.882 33.4922 52.4086C33.8431 52.4763 34.1897 52.5589 34.5378 52.6488Z" fill="#05B4C7"/>
<path d="M32.9711 52.3215C33.9328 50.9416 34.3913 49.3336 35.1616 47.8945C33.937 49.2486 32.7013 50.6532 31.8877 52.239C32.2456 52.2427 32.6062 52.2698 32.9711 52.3215Z" fill="#05B4C7"/>
<path d="M72.3488 4.26242C72.3125 3.76095 72.2692 3.25825 72.2244 2.75677C72.1993 2.48817 72.1881 2.21586 72.1741 1.94726C72.1378 2.01995 72.0916 2.09019 72.0581 2.16412C72.0972 1.97437 72.1224 1.78216 72.1531 1.59241C72.1475 1.4729 72.1406 1.35584 72.1322 1.23633C69.9445 4.07513 69.1505 7.55217 67.7512 10.7187C65.8514 15.6965 63.7783 20.6484 62.6572 25.822C65.0364 20.7124 67.0019 15.4722 69.0163 10.2456C69.4468 8.98635 70.006 7.75177 70.5428 6.51226C70.3107 7.34271 70.0815 8.17069 69.8173 8.97896C68.383 13.7892 66.8509 18.587 66.0695 23.5229C68.267 18.3776 69.7893 13.0437 71.3466 7.72714C71.6205 6.62316 72.0133 5.53766 72.3866 4.45216C72.3768 4.38316 72.353 4.33019 72.3488 4.26242Z" fill="#05B4C7"/>
<path d="M69.7603 2.67494C68.8964 4.41962 68.0506 6.12856 67.2091 7.83135C67.6774 6.84196 68.0548 5.82424 68.2254 4.74983C65.7679 7.20052 64.6719 10.4287 62.9833 13.2933C60.6166 17.7388 58.2206 22.1843 56.5264 26.8725C59.4927 22.4258 61.8901 17.7216 64.3714 13.0568C65.143 11.4525 66.1607 9.90994 66.9701 8.30941C63.8779 14.5784 60.9325 20.6737 58.1535 27.151C62.6897 20.9953 65.2045 13.9205 68.7398 7.31511C69.8413 4.91371 71.4978 2.63181 71.7509 0C70.9596 0.809502 70.2481 1.69294 69.7603 2.67494Z" fill="#05B4C7"/>
<path d="M63.0493 10.9754C59.24 17.4909 54.9261 23.8141 51.8535 30.6413C56.4176 24.2195 60.6379 17.5451 64.2333 10.6661C64.4206 10.1597 64.5981 9.5942 64.6988 9.09766C64.0977 9.68661 63.5371 10.3101 63.0493 10.9754Z" fill="#05B4C7"/>
<path d="M55.0859 21.5631C52.9359 24.9711 50.8489 28.4112 48.9883 31.9498C51.2836 29.1813 53.4224 26.3092 55.2662 23.288C56.4838 21.255 58.1739 19.0015 58.5401 16.8379C57.015 18.1858 56.0952 19.9096 55.0859 21.5631Z" fill="#05B4C7"/>
<path d="M115.311 51.4806C115.544 51.2649 115.768 51.0431 115.997 50.8226C115.038 49.8307 114.092 48.8315 113.224 47.7903C107.941 41.2589 101.461 34.0411 95.082 27.3359C99.6182 34.5709 105.561 40.1722 110.702 46.8108C112.05 48.5062 113.512 50.1252 114.996 51.7294C115.103 51.6469 115.203 51.5606 115.311 51.4806Z" fill="#05B4C7"/>
<path d="M116.475 50.3635C116.718 50.1282 116.964 49.8953 117.206 49.6624C116.825 49.2263 116.443 48.7876 116.077 48.317C111.286 42.8636 106.611 37.8945 101.955 32.6309C104.924 38.0682 109.66 42.5457 113.806 47.2918C114.73 48.2381 115.597 49.2903 116.475 50.3635Z" fill="#05B4C7"/>
<path d="M117.544 49.3387C117.737 49.1563 117.931 48.9752 118.124 48.7929C114.296 44.4558 110.122 39.961 105.485 35.8125C109.125 40.8395 113.431 44.9906 117.398 49.4767C117.447 49.4311 117.496 49.3855 117.544 49.3387Z" fill="#05B4C7"/>
<path d="M119.072 47.899C118.57 47.4049 118.07 46.9096 117.604 46.3946C114.757 43.3648 111.961 40.2894 108.701 37.5898C111.679 41.3996 114.788 45.1809 118.245 48.6801C118.517 48.4202 118.794 48.1577 119.072 47.899Z" fill="#05B4C7"/>
<path d="M103.142 29.5721C107.183 35.214 112.28 40.1733 117.406 45.0537C118.173 45.7116 118.962 46.4743 119.757 47.2592C120.102 46.9401 120.455 46.6222 120.831 46.3314C120.977 46.1811 121.124 46.0308 121.271 45.8805C120.564 45.2102 119.87 44.5337 119.227 43.8277C114.01 38.6898 108.95 33.4237 103.396 28.5605C106.951 33.3461 111.412 37.5267 115.691 41.8071C117.016 43.0343 118.263 44.3403 119.512 45.6439C118.785 44.9884 118.073 44.3243 117.414 43.6294C112.503 39.0631 108.149 34.057 103.142 29.5721Z" fill="#05B4C7"/>
<path d="M121.569 45.5727C121.974 45.1538 122.387 44.7361 122.792 44.3172C122.841 44.2655 122.894 44.2076 122.944 44.1533C120.079 41.6509 117.107 39.2396 113.994 36.9799C114.202 37.214 114.424 37.4346 114.635 37.665C112.45 35.6345 110.229 33.6347 107.885 31.7422C111.256 35.9486 115.261 39.6968 119.257 43.4412C120.058 44.1188 120.815 44.8433 121.569 45.5727Z" fill="#05B4C7"/>
<path d="M97.1771 25.6314C93.3203 21.3953 89.3433 17.2345 85.2642 13.1599C86.6985 14.5263 88.1201 15.9038 89.5837 17.2431C91.9504 19.265 94.6245 20.9789 97.1408 22.8492C94.8594 20.4183 92.2048 18.2953 89.6942 16.0541C86.8634 13.3348 84.1096 10.5453 81.0608 8.01084C79.8893 7.06087 78.7682 5.97166 77.4598 5.16216C76.4896 4.1777 75.4342 3.28441 74.1216 2.66589C73.9902 2.63016 73.8001 2.50449 73.9734 2.70409C74.0098 2.76077 74.0545 2.81129 74.0894 2.86673C73.7777 2.6659 73.4646 2.48724 73.1738 2.38867C73.6016 3.1033 74.0056 3.8327 74.5312 4.49805C80.2304 10.3876 85.0224 16.1909 91.1927 21.8832C89.4621 19.5644 87.6784 17.3749 85.8485 15.2434C89.4048 18.8904 93.0337 22.4796 97.1771 25.6314Z" fill="#05B4C7"/>
<path d="M90.2339 27.5099C89.5727 26.2581 88.8597 25.0321 88.1203 23.8197C86.3477 21.8101 84.6157 19.7722 82.9033 17.7207C85.2658 21.0339 87.6757 24.3175 90.2339 27.5099Z" fill="#05B4C7"/>
<path d="M79.8934 15.6179C79.7005 15.2556 79.5188 14.8872 79.3412 14.5176C79.6921 15.0474 80.0416 15.576 80.3841 16.1033C84.0144 21.5924 86.9416 27.4302 90.8599 32.7739C88.1913 26.8449 84.8238 21.1883 81.2242 15.661C78.3348 12.0706 75.7123 8.3077 73.1374 4.53125C73.0773 5.28038 73.013 6.03074 72.9501 6.77986C72.9095 6.92156 72.8634 7.06078 72.8229 7.20124C72.3979 9.48682 72.4874 11.8279 72.0554 14.1208C70.9008 23.4369 70.2088 33.507 70.3751 43.2765C71.7227 35.8357 71.7423 28.2705 72.356 20.7681C72.3853 20.3553 72.4328 19.934 72.479 19.5126C72.7152 26.4235 73.0074 33.3345 73.6854 40.2159C75.0148 30.8629 73.7273 21.4544 73.4645 12.0657C73.4925 11.7971 73.5078 11.5285 73.5288 11.2599C74.2138 16.983 74.9714 22.8393 76.1596 28.6118C76.1205 23.6377 75.5208 18.6957 74.8764 13.7611C75.4942 16.6331 76.2309 19.4842 77.1214 22.291C76.8264 19.6567 76.4602 17.1987 76.0436 14.7061C76.2687 15.4909 76.484 16.2758 76.6713 17.0644C78.4522 23.0919 79.6278 29.3141 82.3327 35.0903C80.57 27.6815 78.6661 20.3036 76.6741 12.9392C77.6204 15.0523 78.7388 17.0989 79.6768 19.1368C79.3035 17.8344 78.9442 16.505 78.5556 15.1792C80.4833 19.1861 82.4628 23.1757 84.7483 27.0371C83.5335 23.3013 81.4115 18.6439 79.8934 15.6179Z" fill="#05B4C7"/>
<path d="M68.9453 60.0959C69.6582 55.3658 70.3152 50.6135 70.4648 45.6641C69.2402 49.7855 68.7915 54.0425 68.1583 58.2551C68.038 58.9241 67.9108 59.6449 67.7822 60.383C68.1722 60.2893 68.5581 60.1895 68.9453 60.0959Z" fill="#05B4C7"/>
<path d="M73.3199 59.133C73.5478 53.5035 73.9574 47.8825 73.6484 42.248C72.7188 47.9047 72.5119 53.6279 72.333 59.3412C72.6615 59.2735 72.99 59.1996 73.3199 59.133Z" fill="#05B4C7"/>
<path d="M87.0064 57.0535C85.772 51.2983 84.7432 45.5048 83 39.8457C83.4753 45.6736 84.6453 51.4338 85.9426 57.1644C86.2976 57.1237 86.6513 57.0892 87.0064 57.0535Z" fill="#05B4C7"/>
<path d="M104.874 53.3742C104.122 52.4095 103.387 51.4349 102.693 50.4381C99.017 45.7598 96.1303 40.5578 91.8066 36.3008C95.43 42.2223 99.4322 47.9579 103.717 53.5295C104.103 53.4753 104.488 53.4223 104.874 53.3742Z" fill="#05B4C7"/>
<path d="M107.325 53.1352C107.249 53.0391 107.167 52.9467 107.093 52.8494C103.875 48.6466 100.933 44.2541 97.0752 40.4629C99.9115 44.8147 102.875 49.1074 106.107 53.2412C106.512 53.2005 106.919 53.1648 107.325 53.1352Z" fill="#05B4C7"/>
<path d="M109.529 53.0254C106.887 49.6962 104.133 46.4853 101.512 43.5098C103.343 46.9079 105.814 49.9833 108.233 53.0722C108.663 53.0488 109.097 53.0353 109.529 53.0254Z" fill="#05B4C7"/>
<path d="M111.835 53.0333C109.641 50.5827 107.407 48.1579 105.056 45.8242C106.652 48.2786 108.573 50.7428 110.488 53.0136C110.939 53.0136 111.388 53.0173 111.835 53.0333Z" fill="#05B4C7"/>
<path d="M102.104 53.786C99.395 49.5894 96.82 45.3214 93.623 41.3848C95.7409 45.7231 98.2361 49.9098 100.924 53.9992C101.316 53.9253 101.71 53.8538 102.104 53.786Z" fill="#05B4C7"/>
<path d="M100.13 54.146C100.186 54.135 100.243 54.1251 100.3 54.114C98.6495 51.2469 96.7735 48.4857 94.6025 45.8945C96.048 48.7506 97.6108 51.5549 99.1597 54.3653C99.484 54.2964 99.8041 54.2113 100.13 54.146Z" fill="#05B4C7"/>
<path d="M98.1363 54.5997C96.442 51.3247 94.7506 48.0498 92.7852 44.8906C93.9258 48.3011 95.4258 51.597 97.0571 54.8437C97.4136 54.7525 97.777 54.6835 98.1363 54.5997Z" fill="#05B4C7"/>
<path d="M95.755 55.2052C93.0934 50.3556 90.6498 45.4136 87.7939 40.6465C89.4952 45.8054 92.0841 50.6698 94.7345 55.4947C95.0728 55.3962 95.4139 55.3001 95.755 55.2052Z" fill="#05B4C7"/>
<path d="M93.4885 55.8686C91.832 52.1525 90.2579 48.6607 88.1904 44.9668C89.2654 48.8221 90.7947 52.5493 92.4275 56.2419C92.7769 56.1113 93.1306 55.9869 93.4885 55.8686Z" fill="#05B4C7"/>
<path d="M91.0752 56.7616C90.0422 53.9327 88.8358 51.1567 87.4463 48.4473C88.1606 51.2651 89.0441 54.0448 89.9751 56.8133C90.3427 56.7924 90.7104 56.7764 91.0752 56.7616Z" fill="#05B4C7"/>
<path d="M89.4164 56.8459C88.4575 54.0071 87.3 51.209 86.2139 48.4453C86.7618 51.3026 87.5055 54.1254 88.3261 56.9309C88.6895 56.9001 89.053 56.8693 89.4164 56.8459Z" fill="#05B4C7"/>
<path d="M85.5536 57.21C84.5108 52.7362 83.4023 48.2734 82.1162 43.8477C82.3469 48.4164 83.338 52.8902 84.4116 57.3517C84.7904 57.3024 85.172 57.2556 85.5536 57.21Z" fill="#05B4C7"/>
<path d="M83.9112 57.4147C83.1102 54.1335 82.2729 50.8586 81.374 47.5996C81.5166 50.9596 82.1303 54.2666 82.8656 57.5588C83.2137 57.5096 83.5603 57.4615 83.9112 57.4147Z" fill="#05B4C7"/>
<path d="M80.343 57.9149C80.6505 57.8705 80.9622 57.825 81.274 57.7806C80.6952 53.7393 80.3052 49.9591 79.4329 45.9941C79.3924 49.9899 79.7349 53.9672 80.2535 57.9297C80.2843 57.9248 80.315 57.9186 80.343 57.9149Z" fill="#05B4C7"/>
<path d="M79.4936 58.0502C78.9959 53.1488 78.2956 48.2561 77.4303 43.4102C77.3478 48.3559 77.7686 53.3028 78.3235 58.2375C78.7135 58.1746 79.1022 58.1093 79.4936 58.0502Z" fill="#05B4C7"/>
<path d="M77.5129 58.3674C76.9985 53.5536 76.5945 48.731 75.9809 43.9258C75.479 48.7988 75.9375 53.6817 76.4743 58.5387C76.821 58.4783 77.1677 58.4254 77.5129 58.3674Z" fill="#05B4C7"/>
<path d="M75.8621 58.6559C75.5937 55.6052 75.2541 52.5594 74.8039 49.5234C74.4964 52.6333 74.6222 55.7419 74.8235 58.8506C75.1702 58.7865 75.5155 58.7187 75.8621 58.6559Z" fill="#05B4C7"/>
<path d="M71.9004 59.436C72.1562 55.683 72.3575 51.925 72.338 48.1621C71.4741 51.9546 71.0827 55.8074 70.8408 59.6664C71.1945 59.5888 71.5468 59.5099 71.9004 59.436Z" fill="#05B4C7"/>
<path d="M70.7464 59.6877C70.9184 57.1582 70.759 54.5831 70.6402 52.1016C70.3732 54.7075 69.9021 57.3208 69.6016 59.9366C69.9818 59.8491 70.3634 59.7727 70.7464 59.6877Z" fill="#05B4C7"/>
<path d="M67.2709 60.5117C67.8525 56.6355 68.3124 52.7494 68.4843 48.8398C67.3646 52.737 66.7216 56.7217 66.168 60.7064C66.1638 60.7323 66.161 60.7618 66.1582 60.7877C66.5286 60.6891 66.9005 60.6041 67.2709 60.5117Z" fill="#05B4C7"/>
<path d="M114.54 53.5841C114.273 52.527 114.151 51.5129 114.02 50.5137C113.638 50.664 113.247 50.7897 112.84 50.8759C112.812 50.8858 112.784 50.8993 112.755 50.9092C112.911 51.8419 113.111 52.7721 113.267 53.6938C114.051 57.7068 114.943 61.7038 115.593 65.739C116.543 71.3451 117.908 76.8946 118.818 82.5081C119.666 86.8156 120.013 91.0615 121.515 95.4946C120.777 85.9839 119.174 77.2445 117.232 67.857C116.469 63.0801 115.513 58.3327 114.54 53.5841Z" fill="#05B4C7"/>
<path d="M118.157 60.7726C118.719 63.2972 119.366 65.8082 120.155 68.2885C119.946 65.701 119.552 63.1358 119.104 60.5754C118.656 56.6166 118.672 52.3005 117.88 48.2715C117.69 48.3972 117.511 48.5327 117.321 48.6559C116.916 48.9146 116.503 49.1808 116.081 49.4395C116.099 49.6059 116.126 49.7771 116.137 49.9373C116.346 51.2187 116.559 52.5013 116.784 53.7815C116.476 52.3917 116.146 50.9982 115.799 49.6059C115.421 49.8313 115.034 50.0359 114.639 50.2256C115.244 52.4681 115.824 54.7142 116.277 56.9801C117.85 65.6086 118.958 74.3517 121.512 82.8102C121.045 76.832 119.849 70.94 118.816 65.0246C118.625 63.6249 118.398 62.2006 118.157 60.7726Z" fill="#05B4C7"/>
<path d="M117.919 48.244C118.728 52.8817 119.469 57.533 120.941 62.0548C120.555 56.9674 119.84 52.4283 118.972 47.5195C118.625 47.766 118.275 48.0062 117.919 48.244Z" fill="#05B4C7"/>
<path d="M122.595 44.5684C122.284 44.8567 121.983 45.1585 121.66 45.437C121.586 45.5011 121.504 45.559 121.427 45.623C121.673 46.7849 121.901 47.9468 122.038 49.1099C123.09 55.9938 124.471 64.2675 126.454 71.5591C125.998 64.1615 124.325 57.1779 123.542 50.4468C123.322 48.4754 122.962 46.5213 122.595 44.5684Z" fill="#05B4C7"/>
<path d="M121.689 48.2371C121.526 47.4251 121.409 46.5799 121.295 45.7285C120.654 46.2682 119.998 46.7881 119.314 47.2834C119.779 50.1222 120.251 53.5143 121.19 56.8915C121.165 55.4142 121.114 53.9394 121.038 52.4657C121.765 56.942 122.643 61.6734 123.828 66.1669C123.572 59.8868 122.497 54.3201 121.689 48.2371Z" fill="#05B4C7"/>
<path d="M136.768 175.491C136.774 175.464 136.774 175.437 136.778 175.411C136.856 175.734 136.948 176.057 137.03 176.38C137.292 175.659 137.681 174.964 138.03 174.246C137.399 171.577 136.799 168.923 136.535 166.774C135.809 160.748 135 154.736 133.519 148.812C132.211 141.904 131.801 134.671 129.347 127.631C130.164 134.277 131.186 141.306 132.239 148.514C132.862 151.27 133.338 153.917 133.744 156.552C133.47 155.264 133.197 153.973 132.928 152.683C131.926 146.577 130.703 140.169 129.306 133.708C128.307 128.212 127.412 122.7 125.789 117.311C126.492 127.282 128.667 136.629 130.598 146.801C131.235 151.991 132.834 158.77 133.908 164.504C134.805 168.069 134.575 171.994 136.551 175.268C136.62 175.338 136.75 175.656 136.768 175.491Z" fill="#05B4C7"/>
<path d="M135.862 159.147C136.554 163.425 137.079 167.441 137.729 171.978C137.861 172.722 137.945 173.483 138.035 174.244C138.045 174.222 138.054 174.2 138.067 174.176C138.443 173.398 138.791 172.61 139.135 171.82C138.607 168.223 138.035 164.628 137.423 161.039C135.995 152.419 134.965 143.392 132.816 134.502C132.808 138.967 133.715 144.083 134.423 148.066C135.052 151.747 135.212 155.471 135.862 159.147Z" fill="#05B4C7"/>
<path d="M139.689 170.553C139.695 170.538 139.7 170.524 139.707 170.51C139.935 169.504 140.243 168.503 140.608 167.516C140.019 164.339 139.443 161.16 138.927 157.975C136.88 147.149 135.465 136.193 132.396 125.541C133.114 133.966 135.475 142.932 136.526 150.861C137.363 156.16 138.104 160.806 139.007 166.181C139.295 167.619 139.425 169.099 139.689 170.553Z" fill="#05B4C7"/>
<path d="M141.939 164.467C142.052 164.152 142.158 163.833 142.272 163.513C142.033 162.217 141.792 160.919 141.555 159.624C141.819 160.778 142.107 161.931 142.425 163.075C142.694 162.317 142.961 161.56 143.221 160.799C142.705 158.984 142.199 157.166 141.924 155.311C140.257 146.752 138.871 138.123 136.549 129.679C136.553 129.772 136.564 129.865 136.57 129.958C136.312 128.562 136.036 127.147 135.725 125.702C135.429 123.009 134.713 119.157 133.603 116.191C134.051 119.338 134.283 122.5 134.663 125.653C135.075 128.444 135.753 131.222 136.041 133.647C136.188 134.877 136.352 136.104 136.508 137.332C135.57 132.431 134.544 127.545 133.212 122.713C133.519 128.324 134.678 133.832 135.841 139.34C137.352 148.929 139.121 157.998 140.699 167.274C141.06 166.323 141.483 165.389 141.939 164.467Z" fill="#05B4C7"/>
<path d="M130.487 163.118C131.472 166.55 132.089 170.048 132.806 173.526C133.071 174.572 133.321 175.624 133.573 176.674C134.044 176.618 134.515 176.559 134.986 176.501H134.991C133.576 170.692 132.501 164.825 130.73 159.085C128.718 151.471 126.964 143.808 124.395 136.318C124.724 140.602 125.955 144.774 126.912 148.972C128.05 153.697 129.128 158.436 130.487 163.118Z" fill="#05B4C7"/>
<path d="M70.1601 163.271C70.381 162.684 70.8046 162.289 71.3302 162.013C70.7193 155.101 70.2636 148.174 69.8554 141.251C69.1579 129.582 69.7799 117.763 68.0633 106.199C67.8368 122.153 68.2422 138.136 69.3676 154.061C69.5465 157.187 69.8107 160.308 70.1238 163.421C70.1364 163.372 70.1406 163.323 70.1601 163.271Z" fill="#05B4C7"/>
<path d="M72.9936 155.104C73.2257 157.099 73.4284 159.096 73.6213 161.093C74.0183 160.857 74.4278 160.64 74.8514 160.441C74.3216 155.556 73.7876 150.672 73.3612 145.782C72.5561 136.125 72.496 126.379 70.6941 116.814C70.6032 122.825 71.1218 128.818 71.5426 134.814C71.8851 141.586 72.1968 148.359 72.9936 155.104Z" fill="#05B4C7"/>
<path d="M75.9665 159.654C75.9819 159.752 75.9945 159.854 76.0084 159.953C76.3761 159.815 76.7479 159.69 77.1212 159.58C77.0681 159.087 77.0121 158.594 76.973 158.101C75.9763 148.398 75.3766 138.645 73.797 129C73.5803 134.031 73.9787 139.036 74.5882 144.037C75.1236 149.236 75.399 154.456 75.9665 159.654Z" fill="#05B4C7"/>
<path d="M79.4341 159.028C79.2846 157.77 79.142 156.503 79.0329 155.197C78.4444 149.385 78.3228 143.516 76.9669 137.787C76.9599 144.962 77.5162 152.13 78.2851 159.273C78.6653 159.184 79.0483 159.104 79.4341 159.028Z" fill="#05B4C7"/>
<path d="M81.2247 158.694C80.9255 153.727 80.597 148.764 79.3906 143.889C79.5164 148.895 79.7219 153.906 80.0532 158.911C80.4432 158.837 80.8346 158.765 81.2247 158.694Z" fill="#05B4C7"/>
<path d="M84.6243 157.903C84.9808 157.79 85.3317 157.664 85.6755 157.523C84.5866 147.803 83.5074 138.082 82.8238 128.332C81.5727 137.595 83.6793 146.891 84.4398 156.127C84.4999 156.718 84.5628 157.311 84.6243 157.903Z" fill="#05B4C7"/>
<path d="M87.9355 156.988C87.4476 150.934 87.34 144.835 85.9561 138.873C85.9533 144.941 86.2678 151.004 86.7529 157.059C87.1373 156.928 87.5483 156.909 87.9355 156.988Z" fill="#05B4C7"/>
<path d="M84.0436 158.075C83.6606 154.668 83.1434 151.276 82.2529 147.934C82.3214 151.414 82.6332 154.879 82.9728 158.344C83.3335 158.264 83.69 158.174 84.0436 158.075Z" fill="#05B4C7"/>
<path d="M90.8325 160.267C90.1671 154.594 89.6765 148.901 88.2842 143.32C88.3289 148.234 88.7623 153.135 89.3606 158.026C89.861 158.769 90.3419 159.521 90.8325 160.267Z" fill="#05B4C7"/>
<path d="M94.9443 166.495C94.9206 166.298 94.887 166.101 94.8675 165.904C93.7855 159.47 93.1592 153.387 91.7012 146.748C91.5013 152.608 92.5176 158.406 93.4206 164.196C93.9239 164.966 94.4327 165.731 94.9443 166.495Z" fill="#05B4C7"/>
<path d="M107.476 173.7C107.733 175.166 107.976 176.636 108.221 178.106C108.631 178.097 109.04 178.086 109.45 178.077C108.087 169.849 106.865 161.98 105.667 153.198C104.375 146.22 104.053 138.978 102.051 131.799C102.379 139.768 103.814 148.71 105.005 156.094C105.866 161.959 106.497 167.849 107.476 173.7Z" fill="#05B4C7"/>
<path d="M111.644 178.023C112.052 178.013 112.461 178.002 112.87 177.994C110.959 167.989 109.504 157.91 106.772 148.051C107.058 153.348 108.222 158.548 109.173 163.773C109.999 168.522 110.741 173.285 111.644 178.023Z" fill="#05B4C7"/>
<path d="M114.773 177.905C115.142 177.884 115.513 177.871 115.882 177.852C115.851 177.668 115.809 177.481 115.783 177.297C114.297 170.15 113.082 162.938 110.898 155.922C111.368 162.421 113.029 168.773 114.234 175.181C114.407 176.089 114.593 176.997 114.773 177.905Z" fill="#05B4C7"/>
<path d="M118.867 177.751C118.3 175.483 117.742 173.214 117.241 170.936C116.366 166.536 115.59 162.098 113.829 157.887C114.704 164.131 115.877 171.019 117.589 177.781C118.016 177.768 118.441 177.757 118.867 177.751Z" fill="#05B4C7"/>
<path d="M121.331 177.735C121.523 177.729 121.714 177.723 121.906 177.714C120.793 172.501 119.601 167.299 117.786 162.232C118.425 167.441 119.531 172.596 120.725 177.735C120.927 177.735 121.13 177.735 121.331 177.735Z" fill="#05B4C7"/>
<path d="M123.689 177.659C124.065 177.648 124.442 177.632 124.817 177.622C124.806 177.567 124.793 177.513 124.783 177.46C123.451 171.956 122.16 166.398 119.751 161.168C120.876 166.582 122.345 171.929 123.605 177.32C123.637 177.431 123.661 177.543 123.689 177.659Z" fill="#05B4C7"/>
<path d="M126.625 177.554C127.005 177.502 127.387 177.451 127.768 177.402C127.606 176.729 127.444 176.058 127.288 175.384C125.061 166.364 123.359 157.206 120.313 148.367C121.292 156.718 123.825 164.833 125.595 173.065C125.93 174.563 126.278 176.058 126.625 177.554Z" fill="#05B4C7"/>
<path d="M128.44 177.316C128.817 177.269 129.193 177.22 129.572 177.173C129.163 175.439 128.753 173.709 128.338 171.977C126.46 164.493 125.261 156.865 122.697 149.525C123.73 158.182 126.049 166.67 127.949 175.202C128.117 175.906 128.278 176.611 128.44 177.316Z" fill="#05B4C7"/>
<path d="M130.882 177.005C131.263 176.958 131.645 176.91 132.028 176.864C130.316 170.038 128.99 163.127 126.79 156.406C127.37 163.288 129.246 169.993 130.81 176.739C130.837 176.826 130.859 176.915 130.882 177.005Z" fill="#05B4C7"/>
<path d="M133.454 176.688C132.561 172.442 131.655 168.195 130.062 164.102C130.619 168.372 131.483 172.598 132.395 176.818C132.748 176.775 133.102 176.732 133.454 176.688Z" fill="#05B4C7"/>
<path d="M106.576 178.145C106.948 178.135 107.32 178.126 107.693 178.118C107.465 176.785 107.256 175.451 107.121 174.117C105.876 165.525 104.702 156.838 103.133 148.338C102.749 155.106 104.403 161.793 105.169 168.499C105.613 171.717 106.094 174.929 106.576 178.145Z" fill="#05B4C7"/>
<path d="M104.926 178.184C105.315 178.175 105.705 178.164 106.093 178.158C105.903 177.042 105.73 175.929 105.628 174.813C104.398 166.899 103.806 159.427 102.067 151.773C101.964 159.802 103.553 167.739 104.521 175.7C104.683 176.521 104.809 177.351 104.926 178.184Z" fill="#05B4C7"/>
<path d="M103.405 178.22C103.798 178.211 104.191 178.2 104.584 178.192C103.453 170.001 102.123 161.815 99.8867 153.812C100.235 160.176 101.518 166.448 102.585 172.735C102.929 174.49 103.172 176.339 103.405 178.22Z" fill="#05B4C7"/>
<path d="M102.788 177.561C102.704 177.092 102.613 176.623 102.559 176.154C101.322 169.879 101.253 162.777 98.9131 156.268C99.5016 162.576 100.17 168.883 101.162 175.155C101.724 175.948 102.268 176.749 102.788 177.561Z" fill="#05B4C7"/>
<path d="M96.7454 169.109C97.0879 169.296 97.3689 169.543 97.5506 169.84C97.436 169.048 97.3311 168.258 97.2682 167.468C96.4924 162.002 95.985 157.154 94.7227 151.793C94.7296 157.411 95.6103 162.977 96.3456 168.546C96.4756 168.736 96.6126 168.921 96.7454 169.109Z" fill="#05B4C7"/>
<path d="M97.7944 170.567C98.7534 171.867 99.7221 173.164 100.666 174.471C99.9346 168.734 99.374 162.379 97.7511 156.732C97.8154 159.231 97.9761 161.729 98.1914 164.22C97.944 162.289 97.6476 160.37 97.2185 158.45C97.0745 162.339 97.259 166.226 97.6616 170.097C97.7245 170.251 97.7749 170.405 97.7944 170.567Z" fill="#05B4C7"/>
<path d="M63.3722 176.69C63.7846 175.678 64.1886 174.662 64.6163 173.654C64.1592 163.384 63.7748 153.112 63.8852 142.83C63.5777 130.413 64.4541 117.914 62.799 105.555C62.3419 114.704 62.8969 123.868 62.6858 133.024C62.4901 147.581 62.6467 162.145 63.3722 176.69Z" fill="#05B4C7"/>
<path d="M60.9682 176.347C61.1164 166.75 60.9724 157.154 61.0297 147.555C60.8703 137.666 61.6336 127.726 60.4957 117.871C59.6779 134.66 60.005 151.488 59.7506 168.292C59.6416 170.771 59.5927 173.251 59.5801 175.73C60.047 175.932 60.5069 176.142 60.9682 176.347Z" fill="#05B4C7"/>
<path d="M57.7861 174.978C58.2153 175.155 58.6444 175.335 59.0736 175.519C59.1393 171.913 59.1826 168.307 59.1868 164.702C59.1057 154.649 59.8928 144.544 58.8066 134.523C57.4087 144.749 58.2404 155.089 57.8826 165.363C57.8826 168.567 57.8407 171.773 57.7861 174.978Z" fill="#05B4C7"/>
<path d="M55.0267 173.761C55.221 173.802 55.4181 173.86 55.618 173.968C55.8766 174.105 56.1311 174.25 56.3883 174.39C56.707 174.521 57.0243 174.658 57.343 174.789C57.392 172.619 57.4381 170.451 57.4884 168.281C57.5611 158.478 58.1357 148.622 56.9628 138.853C56.1255 147.251 56.7112 155.69 56.4148 164.108C56.3785 165.791 56.331 167.471 56.289 169.154C56.3002 166.779 56.289 164.958 56.2778 164.583C55.9591 153.032 56.2834 141.402 54.6591 129.92C54.1628 140.175 55.1456 150.433 55.0785 160.695C55.1218 165.051 55.1246 169.407 55.0267 173.761Z" fill="#05B4C7"/>
<path d="M52.1497 163.596C52.7508 163.788 53.2429 164.239 53.282 164.955C53.31 165.463 53.3254 165.974 53.3491 166.482C53.2778 162.724 53.1982 158.969 53.152 155.211C52.8193 145.385 53.5309 135.426 51.4326 125.723C51.6353 137.276 52.0896 148.825 52.0924 160.383C52.1078 161.454 52.133 162.525 52.1497 163.596Z" fill="#05B4C7"/>
<path d="M49.2338 150.21C49.6882 150.481 50.0474 150.749 50.3088 151.126C50.204 140.583 50.7967 130.022 50.053 119.496C48.8173 129.689 49.3429 139.971 49.2338 150.21Z" fill="#05B4C7"/>
<path d="M47.9658 149.467C47.9658 147.249 47.9644 145.031 47.9658 142.814C47.7016 133.698 48.8269 124.495 47.4402 115.436C46.8419 126.552 46.8964 137.685 46.8447 148.812C47.218 149.03 47.5898 149.251 47.9658 149.467Z" fill="#05B4C7"/>
<path d="M44.4852 139.46C44.4783 142.022 44.4307 144.583 44.3636 147.144C44.7173 147.382 45.0682 147.621 45.4204 147.857C45.7378 133.89 45.5644 119.894 44.523 105.959C43.3991 117.086 44.7816 128.301 44.4852 139.46Z" fill="#05B4C7"/>
<path d="M40.7803 144.759C41.127 144.988 41.4722 145.216 41.8175 145.445C42.3194 136.447 42.6674 127.441 42.5975 118.432C42.4731 111.886 42.9694 105.274 41.7602 98.7871C41.1983 109.131 41.7099 119.489 41.4191 129.839C41.3282 134.815 41.078 139.788 40.7803 144.759Z" fill="#05B4C7"/>
<path d="M38.5071 136.371C38.4889 138.639 38.4386 140.905 38.3827 143.172C38.7531 143.416 39.1222 143.663 39.4912 143.906C39.5625 140.704 39.6198 137.499 39.6114 134.296C39.2815 122.647 39.9413 110.916 38.3785 99.3281C37.9312 111.67 38.6329 124.023 38.5071 136.371Z" fill="#05B4C7"/>
<path d="M35.6334 139.734C35.6306 140.27 35.6251 140.808 35.6195 141.343C35.9871 141.586 36.352 141.83 36.7196 142.072C36.7378 139.902 36.7629 137.732 36.7629 135.561C36.6022 127.645 37.1404 119.535 35.7676 111.781C35.3874 121.096 35.8208 130.417 35.6334 139.734Z" fill="#05B4C7"/>
<path d="M33.574 129.127C33.588 132.76 33.6103 136.395 33.6341 140.029C33.9948 140.269 34.3568 140.507 34.7161 140.744C34.6951 137.483 34.6741 134.219 34.6574 130.958C34.4672 120.912 35.0865 110.848 34.3848 100.816C33.1267 110.203 33.7334 119.694 33.574 129.127Z" fill="#05B4C7"/>
<path d="M32.9899 139.605C33.0262 139.629 33.064 139.653 33.1003 139.679C33.0011 136.701 32.941 133.724 33.0081 130.743C32.9941 122.44 33.6413 114.083 32.3902 105.826C31.845 116.847 31.8366 127.907 32.0072 138.942C32.3343 139.162 32.6614 139.384 32.9899 139.605Z" fill="#05B4C7"/>
<path d="M30.0376 137.608C30.0627 136.078 30.0977 134.547 30.1662 133.018C30.2305 131.013 30.3227 129.008 30.3968 127.002C30.3535 130.595 30.3353 134.191 30.2934 137.782C30.3228 137.803 30.3507 137.823 30.3815 137.843C30.6904 138.052 31.0007 138.259 31.3097 138.468C31.3055 136.938 31.3167 135.407 31.3768 133.88C31.374 126.198 31.9849 118.485 31.0091 110.832C30.7435 114.277 30.5981 117.728 30.5059 121.181C30.4975 119.219 30.4276 117.259 30.2417 115.3C29.8628 116.043 29.2464 127.149 28.9668 136.927C29.3302 137.122 29.6797 137.363 30.0376 137.608Z" fill="#05B4C7"/>
<path d="M112.215 62.7671C111.532 59.2026 110.78 55.6454 109.999 52.0957C109.995 52.0982 109.992 52.1019 109.988 52.1019C109.627 52.2399 109.286 52.4037 108.937 52.5516C109.617 55.622 110.279 58.6949 110.892 61.7752C113.137 72.2248 114.402 82.8395 117.082 93.2128C116.544 82.9603 113.955 72.8939 112.215 62.7671Z" fill="#05B4C7"/>
<path d="M107.643 52.9395C107.522 52.9826 107.401 53.0306 107.278 53.0725C107.053 53.1477 106.818 53.1526 106.591 53.1107C106.584 53.112 106.574 53.1144 106.565 53.1157C107.248 55.5109 107.926 57.9 108.345 60.2373C110.141 68.3212 111.345 76.4988 113.545 84.51C113.208 76.7736 111.131 69.18 109.726 61.5569C109.108 58.6713 108.384 55.8029 107.643 52.9395Z" fill="#05B4C7"/>
<path d="M105.163 53.3242C104.823 53.3747 104.484 53.4265 104.146 53.4795C104.67 55.4718 105.19 57.4641 105.731 59.4528C107.495 65.5863 108.508 71.8602 110.155 78.0159C109.94 70.6663 107.946 63.5003 106.013 56.3848C105.692 55.3954 105.42 54.3641 105.163 53.3242Z" fill="#05B4C7"/>
<path d="M102.309 53.7601C101.962 53.8143 101.616 53.8672 101.271 53.9215C101.427 54.4808 101.584 55.0427 101.716 55.6082C103.45 61.7035 104.688 67.9183 107.062 73.8596C106.09 67.0596 104.227 60.4 102.352 53.7539L102.309 53.7601Z" fill="#05B4C7"/>
<path d="M99.8877 54.1363C100.777 58.3317 101.839 62.495 103.229 66.5869C102.846 62.3324 101.908 58.1481 100.965 53.9688C100.608 54.0254 100.248 54.0809 99.8877 54.1363Z" fill="#05B4C7"/>
<path d="M104.113 91.914C104.035 83.9582 102.103 76.1355 100.583 68.3239C99.5795 63.7133 98.5604 59.1015 97.4743 54.502C96.8158 54.6005 96.1588 54.6979 95.499 54.7903C95.5102 54.8519 95.5214 54.9147 95.534 54.9763C97.0926 61.944 97.8293 69.0533 99.8395 75.9396C99.4872 70.1043 98.4891 64.3367 97.3638 58.5877C97.7301 60.1389 98.0809 61.6926 98.3871 63.2537C100.659 72.7509 101.985 82.3934 104.113 91.914Z" fill="#05B4C7"/>
<path d="M98.2529 54.3851C99.3419 60.4188 100.878 66.413 102.64 72.3001C101.959 66.227 100.662 60.2142 99.3489 54.2188C98.9826 54.2742 98.6192 54.3309 98.2529 54.3851Z" fill="#05B4C7"/>
<path d="M77.2549 57.6152C77.677 63.1992 78.0866 68.7831 78.4221 74.372C79.1798 83.0819 79.17 91.9199 81.2724 100.487C80.4211 86.1326 79.444 71.7772 78.3354 57.4316C77.9748 57.4932 77.6141 57.5548 77.2549 57.6152Z" fill="#05B4C7"/>
<path d="M76.813 57.6914C76.4355 57.7555 76.0581 57.8195 75.6807 57.8824C75.9113 61.6391 76.1056 65.3983 76.3377 69.155C76.9248 76.6069 76.7542 84.1277 78.0291 91.5254C78.5072 80.6273 77.3218 69.744 76.8857 58.8582C76.8647 58.4676 76.8353 58.0795 76.813 57.6914Z" fill="#05B4C7"/>
<path d="M74.8023 58.0293C74.4501 58.0884 74.095 58.1464 73.7441 58.2055C73.9343 60.2915 74.1202 62.3762 74.3271 64.4622C75.0735 71.3066 75.2063 78.1868 75.9668 85.0312C76.8125 77.3945 75.8675 69.7258 75.2021 62.1076C74.9967 60.7819 74.8862 59.413 74.8023 58.0293Z" fill="#05B4C7"/>
<path d="M71.8926 58.5139C72.0785 59.953 72.2742 61.3933 72.4461 62.8337C73.229 68.8735 73.1032 74.9787 74.0495 81.0025C74.6408 73.4311 73.9726 65.8561 72.9676 58.334C72.6097 58.3956 72.2504 58.4547 71.8926 58.5139Z" fill="#05B4C7"/>
<path d="M70.29 58.7814C71.7313 70.1945 71.5747 81.7567 73.7554 93.0836C73.4591 81.5768 72.5938 70.0663 71.3133 58.6113C70.9736 58.6668 70.6311 58.7247 70.29 58.7814Z" fill="#05B4C7"/>
<path d="M69.6139 58.8926C69.2812 58.948 68.9499 59.0035 68.6172 59.0589C68.6955 59.7033 68.7654 60.3452 68.8031 60.9896C69.4587 68.0287 69.9717 75.0752 70.5281 82.1193C70.9237 87.2215 71.1348 92.3656 72.4278 97.3692C72.1972 88.2971 71.3277 79.2509 70.6427 70.1997C70.3212 66.4307 70.0402 62.6567 69.6139 58.8926Z" fill="#05B4C7"/>
<path d="M69.3318 78.8864C69.2801 73.2014 68.9613 67.5374 68.5098 61.8659C68.4176 60.9529 68.3812 60.0301 68.3575 59.1035C68.2037 59.1294 68.0499 59.1553 67.8976 59.1799C67.5984 59.5163 67.1469 59.7319 66.6534 59.8157C66.2103 59.8908 65.7853 59.8416 65.3506 59.775C65.6176 64.4743 65.9321 69.1724 66.1348 73.8741C66.6492 83.7804 66.1725 93.699 66.6828 103.604C67.5593 99.103 67.4698 94.5158 67.5005 89.9644C67.5634 83.6399 67.4418 77.3155 67.1287 70.9972C67.2965 72.6655 67.46 74.3325 67.6347 75.9996C68.6734 84.6478 68.8369 93.5782 70.2194 102.043C70.6444 93.0422 69.5191 84.0552 68.6007 75.089C68.8076 76.3618 69.0382 77.6284 69.3318 78.8864Z" fill="#05B4C7"/>
<path d="M80.1045 57.128C80.3016 61.9357 80.6595 66.7373 80.9824 71.5388C81.2536 76.3318 81.4171 81.2048 82.3034 85.8092C82.8304 76.1765 81.7149 66.5648 81.213 56.9395C80.844 57.0023 80.4749 57.0651 80.1045 57.128Z" fill="#05B4C7"/>
<path d="M83.0811 56.6191C82.7484 56.6758 82.4157 56.7325 82.083 56.7892C82.1515 57.4989 82.2088 58.2061 82.2382 58.9121C82.8295 65.7085 83.1552 72.5196 83.7773 79.3135C84.7153 72.7069 83.7898 66.0375 83.3425 59.4259C83.2642 58.4895 83.172 57.5556 83.0811 56.6191Z" fill="#05B4C7"/>
<path d="M84.3304 56.4062C83.9921 56.4629 83.6567 56.5208 83.3184 56.5787C83.8314 63.2544 84.5569 69.93 86.2819 76.4565C86.1533 70.4549 84.9707 64.5185 84.5415 58.5316C84.4451 57.8269 84.3822 57.1184 84.3304 56.4062Z" fill="#05B4C7"/>
<path d="M86.2498 56.0781C86.0164 56.1188 85.7829 56.1582 85.5495 56.1976C85.4391 56.2174 85.3272 56.2371 85.2168 56.2543C85.2392 56.412 85.2643 56.5685 85.2881 56.725C86.6455 64.3617 87.5387 72.092 89.8173 79.5746C89.3001 72.3286 87.7037 65.1896 86.6091 58.0027C86.4735 57.3681 86.3575 56.725 86.2498 56.0781Z" fill="#05B4C7"/>
<path d="M87.9209 55.795C89.2783 63.72 89.4628 72.871 92.1761 81.0042C91.2381 72.5346 90.2149 64.0613 88.9218 55.625C88.5891 55.6804 88.255 55.7384 87.9209 55.795Z" fill="#05B4C7"/>
<path d="M91.3806 55.2031C91.0228 55.2647 90.6635 55.3251 90.3057 55.3867C90.5908 57.4012 90.862 59.417 91.164 61.4315C92.5213 69.5327 93.3014 77.7472 95.7141 85.6784C95.2962 77.9308 93.3237 69.2899 92.3704 62.0919C92.0237 59.7977 91.7091 57.4998 91.3806 55.2031Z" fill="#05B4C7"/>
<path d="M93.636 54.8203C93.2977 54.877 92.958 54.9361 92.6211 54.9928C93.1691 58.5524 93.759 62.1071 94.3517 65.6617C95.8251 73.6224 96.4206 81.2567 98.3651 89.3172C98.0925 79.8964 96.1354 70.5902 94.6746 61.2754C94.2986 58.996 93.9575 56.9149 93.636 54.8203Z" fill="#05B4C7"/>
<path d="M95.2351 54.8301C95.073 54.8535 94.9108 54.8781 94.7487 54.9003C94.5529 54.9274 94.36 54.9225 94.1699 54.9089C94.4621 56.7103 94.764 58.5067 95.045 60.3093C96.3017 68.0051 97.1516 75.7749 99.2499 83.3438C98.8864 75.5876 97.2285 68.3526 96.1535 60.5114C95.8586 58.6164 95.5427 56.7226 95.2351 54.8301Z" fill="#05B4C7"/>
<path d="M62.0581 59.2629C61.6751 59.2383 61.2907 59.1989 60.9062 59.1582C61.0852 62.2939 61.2655 65.4297 61.4416 68.5667C62.2622 79.5042 61.9085 90.4885 62.9626 101.405C64.0851 89.509 62.8535 77.5525 62.402 65.649C62.279 63.5199 62.1713 61.3908 62.0581 59.2629Z" fill="#05B4C7"/>
<path d="M59.5654 58.9766C59.5934 59.4127 59.6325 59.8501 59.6395 60.2863C59.9722 66.0464 60.235 71.8128 60.3944 77.5803C60.4769 82.1835 60.495 86.8077 61.5351 91.3394C61.8314 80.6052 61.3785 69.8697 60.7886 59.1478C60.3818 59.0998 59.9736 59.0419 59.5654 58.9766Z" fill="#05B4C7"/>
<path d="M58.0674 58.7051C58.168 59.8054 58.2505 60.9007 58.2645 61.9751C58.8362 69.6623 58.6154 77.3914 59.6792 85.0478C60.4634 76.3552 59.6917 67.6207 59.243 58.9269C58.8488 58.8603 58.4588 58.7839 58.0674 58.7051Z" fill="#05B4C7"/>
<path d="M56.1602 58.2793C56.5124 65.4576 56.5418 72.6618 57.8237 79.7625C57.9872 72.6963 57.7649 65.6203 57.3554 58.5553C56.9556 58.4678 56.5572 58.3766 56.1602 58.2793Z" fill="#05B4C7"/>
<path d="M54.0616 57.7325C53.6688 57.6265 53.2774 57.5193 52.8916 57.4121C53.0062 58.8241 53.125 60.2349 53.2061 61.6481C53.954 70.8632 53.2103 80.1312 54.2545 89.3252C55.3575 79.3907 54.7145 69.3698 54.1958 59.418C54.1623 58.8549 54.1092 58.2943 54.0616 57.7325Z" fill="#05B4C7"/>
<path d="M50.8408 56.8223C50.9051 57.7562 50.9708 58.6926 51.0337 59.629C51.7327 68.6802 51.4769 77.7745 52.4009 86.8108C53.4577 76.9514 52.4316 67.0242 51.9731 57.1562C51.5929 57.0514 51.2169 56.9344 50.8408 56.8223Z" fill="#05B4C7"/>
<path d="M49.7577 56.5027C49.3132 56.3659 48.8714 56.223 48.4297 56.0801C48.6086 58.8203 48.7848 61.5593 48.9399 64.3008C49.8066 74.3499 49.0783 84.4644 50.2581 94.4865C51.6588 83.1707 50.5391 71.7502 50.0079 60.4134C49.931 59.1099 49.843 57.8063 49.7577 56.5027Z" fill="#05B4C7"/>
<path d="M45.8047 55.1816C45.9682 59.3031 46.1024 63.4258 46.1178 67.5509C46.3093 75.8566 45.7991 84.1808 46.5456 92.4717C47.5017 80.201 47.3703 67.8762 46.8769 55.5661C46.519 55.4428 46.1612 55.3098 45.8047 55.1816Z" fill="#05B4C7"/>
<path d="M43.6157 54.6379C43.3809 54.5812 43.1432 54.5282 42.9084 54.4691C42.8077 54.4469 42.7057 54.4272 42.6064 54.4062C42.9126 61.5981 43.2691 68.7888 43.5668 75.9782C43.9554 83.1516 43.6507 90.3484 44.4055 97.5033C45.3799 88.3585 44.6334 79.1632 44.2979 70.0061C44.0239 64.8854 43.8128 59.7623 43.6157 54.6379Z" fill="#05B4C7"/>
<path d="M41.8422 54.2425C41.4424 54.1563 41.0468 54.0626 40.6484 53.9727C40.8176 57.4361 40.9839 60.9009 41.1685 64.3644C41.7947 72.468 41.311 80.6493 42.6922 88.6975C43.2178 77.6934 42.284 66.6869 41.9051 55.689C41.8842 55.206 41.8632 54.7243 41.8422 54.2425Z" fill="#05B4C7"/>
<path d="M40.0214 53.8315C39.637 53.7428 39.2512 53.6627 38.8682 53.5703C38.9185 54.8074 38.9646 56.0444 39.0289 57.279C39.5028 64.7949 39.5825 72.5215 40.979 79.7664C41.3354 72.6558 40.5065 65.5601 40.2423 58.4581C40.0941 56.9685 40.048 55.4099 40.0214 53.8315Z" fill="#05B4C7"/>
<path d="M38.1277 53.386C37.7489 53.2923 37.37 53.1938 36.9912 53.0977C37.1506 56.0855 37.3029 59.0747 37.4735 62.0638C38.1361 70.8586 38.0886 79.7287 39.6961 88.4472C39.8835 78.9906 38.8267 69.5551 38.4632 60.1072C38.35 57.8647 38.2395 55.6247 38.1277 53.386Z" fill="#05B4C7"/>
<path d="M36.5061 52.9733C36.1035 52.8686 35.6967 52.7725 35.2969 52.6641C35.4031 56.321 35.5052 59.9792 35.5848 63.6361C35.9147 71.9862 35.3738 80.3917 36.555 88.6974C37.4734 78.1591 36.6738 67.5715 36.6193 57.0147C36.5913 55.668 36.5466 54.3213 36.5061 52.9733Z" fill="#05B4C7"/>
<path d="M34.7305 52.5035C34.0693 52.3223 33.4123 52.1363 32.7539 51.9453C32.9566 55.1094 33.1397 58.2772 33.2488 61.4474C33.6164 70.1092 33.2641 78.7821 33.8429 87.4377C34.2748 84.9562 34.4971 82.46 34.6159 79.9563C34.7711 82.2863 34.978 84.6125 35.2701 86.935C36.0236 77.5672 35.0632 68.1785 34.9164 58.8033C34.8438 56.7038 34.7892 54.603 34.7305 52.5035Z" fill="#05B4C7"/>
<path d="M32.5806 51.8961C31.9487 51.7113 31.3196 51.5203 30.6892 51.3281C30.6962 51.7729 30.7074 52.2177 30.6906 52.6588C30.7353 57.2448 30.7968 61.8332 30.8108 66.4203C30.9981 74.8924 30.1328 83.3977 31.1281 91.8439C31.233 91.0923 31.3085 90.3395 31.3923 89.5866C31.3252 92.6041 31.3029 95.6216 31.4133 98.639C33.1789 87.3504 32.8112 75.8793 32.8028 64.5081C32.7693 60.3016 32.7064 56.0989 32.5806 51.8961Z" fill="#05B4C7"/>
<path d="M0.929408 157.426C1.07898 157.559 1.21458 157.708 1.34598 157.86C2.43914 156.718 3.47498 155.521 4.62824 154.452C8.42213 150.664 12.2342 146.895 15.68 142.852C11.1438 146.288 7.23113 150.291 3.27508 154.23C2.3958 155.204 1.36276 156.138 0.373047 157.096C0.575742 157.181 0.767252 157.283 0.929408 157.426Z" fill="#05B4C7"/>
<path d="M2.2012 159.023C2.62337 158.557 3.04553 158.093 3.49286 157.647C7.37202 153.613 11.4161 149.686 14.9165 145.385C10.0672 149.291 5.74627 153.658 1.55957 158.116C1.78603 158.407 1.99851 158.714 2.2012 159.023Z" fill="#05B4C7"/>
<path d="M2.52246 159.495C2.58397 159.585 2.64268 159.677 2.70419 159.762C2.88731 160.019 3.07044 160.274 3.25496 160.529C7.13273 156.39 11.2873 151.973 14.399 147.445C10.2472 151.314 6.34711 155.378 2.52246 159.495Z" fill="#05B4C7"/>
<path d="M3.43066 160.774L4.12681 161.743C7.16444 158.248 10.9444 154.445 13.3445 150.184C10.0273 153.705 6.64023 157.175 3.43066 160.774Z" fill="#05B4C7"/>
<path d="M4.43359 162.172L4.58177 162.381C4.77468 162.648 4.97178 162.915 5.16329 163.184C8.12683 159.839 10.8248 156.328 13.2543 152.664C9.79453 155.971 7.23078 158.998 4.43359 162.172Z" fill="#05B4C7"/>
<path d="M5.3877 163.489C5.63792 163.835 5.88815 164.18 6.13697 164.524C8.59727 161.135 10.9639 157.692 13.2019 154.182C10.2328 157.04 7.73616 160.223 5.3877 163.489Z" fill="#05B4C7"/>
<path d="M7.57121 166.505L7.59078 166.474C10.9947 160.948 15.0807 155.702 17.5997 149.789C15.8663 152.107 14.1916 154.459 12.5463 156.826C13.0859 155.911 13.6255 154.998 14.1721 154.088C11.6167 156.732 9.51848 159.705 7.47056 162.667C7.05818 163.303 6.60526 163.924 6.15234 164.546C6.62483 165.2 7.09732 165.853 7.57121 166.505Z" fill="#05B4C7"/>
<path d="M7.68945 166.671C7.83483 166.87 7.97881 167.071 8.12419 167.272C8.21925 167.402 8.31571 167.536 8.41216 167.669C9.55005 165.96 10.523 164.156 11.6721 162.453C13.9912 158.842 16.369 155.243 18.1485 151.393C14.3155 156.285 10.8515 161.417 7.68945 166.671Z" fill="#05B4C7"/>
<path d="M33.9894 148.093C33.5015 147.517 33.0178 146.941 32.5705 146.347C29.9439 143.01 27.3494 139.644 24.3369 136.562C26.6057 140.425 29.2114 144.115 32.1148 147.632C32.7397 147.782 33.3645 147.934 33.9894 148.093Z" fill="#05B4C7"/>
<path d="M36.725 148.772C36.177 148.217 35.6304 147.661 35.1258 147.081C32.5117 144.22 29.934 141.234 26.8838 138.287C29.1036 141.799 31.6548 145.138 34.5652 148.235C35.2865 148.416 36.0065 148.593 36.725 148.772Z" fill="#05B4C7"/>
<path d="M37.9741 149.082C38.1684 149.129 38.3641 149.18 38.557 149.226C39.1553 149.369 39.7606 149.506 40.3645 149.644C39.7145 149.041 39.0519 148.45 38.4298 147.834C35.5222 145.017 32.4566 142.331 29.5322 139.529C31.5983 142.792 34.313 145.682 37.2276 148.381C37.4779 148.608 37.7253 148.843 37.9741 149.082Z" fill="#05B4C7"/>
<path d="M40.5168 149.679C41.3556 149.87 42.1929 150.065 43.033 150.255C42.4277 149.75 41.8085 149.251 41.2214 148.729C38.4633 146.275 35.6326 143.881 32.6299 141.658C35.0664 144.474 37.6595 147.188 40.5168 149.679Z" fill="#05B4C7"/>
<path d="M43.3323 150.321C44.2801 150.535 45.2237 150.76 46.1687 150.986C45.2559 150.279 44.3151 149.599 43.4386 148.873C40.3394 146.4 37.5451 144.618 34.5605 142.596C37.1956 145.416 40.2332 147.905 43.3323 150.321Z" fill="#05B4C7"/>
<path d="M46.4266 150.972C46.4825 151.009 46.5454 151.051 46.6027 151.089C47.7127 151.36 48.8142 151.651 49.9046 151.963C48.522 150.922 47.0249 150.047 45.859 149.192C43.094 147.291 40.4128 145.526 37.3389 143.545C40.0662 146.295 43.0926 148.804 46.4266 150.972Z" fill="#05B4C7"/>
<path d="M31.0499 147.393C30.9422 147.232 30.836 147.069 30.7297 146.907C28.8817 144.038 26.8911 141.233 24.6992 138.557C25.9923 141.287 27.5034 144.255 29.2941 147.005C29.8812 147.124 30.4655 147.26 31.0499 147.393Z" fill="#05B4C7"/>
<path d="M24.2044 145.99C24.2897 146.292 24.4015 146.58 24.5357 146.865C24.7272 146.73 24.9481 146.634 25.1885 146.566C25.3381 145.678 25.278 144.774 25.1214 143.872C25.3269 144.768 25.5855 145.641 25.97 146.469C26.0846 146.472 26.1978 146.473 26.311 146.49C26.5794 146.526 26.8436 146.586 27.1106 146.629C27.1092 146.602 27.112 146.578 27.1092 146.552C27.1232 146.58 27.1358 146.607 27.1484 146.633C27.6307 146.709 28.1115 146.793 28.591 146.883C28.5714 146.798 28.5617 146.712 28.5365 146.628C27.5007 144.03 26.2593 141.522 24.4868 138.896C24.9886 140.129 25.3381 141.408 25.7085 142.683C25.2808 141.834 24.7985 141.008 24.2771 140.209C24.2436 140.045 24.203 139.881 24.1737 139.72C24.1709 139.814 24.1611 139.917 24.1555 140.014C24.1443 139.997 24.1345 139.978 24.1233 139.961C24.1345 139.992 24.1429 140.024 24.1541 140.055C24.1247 140.617 24.0702 141.204 24.0213 141.798C23.8843 141.238 23.7487 140.679 23.6606 140.136C23.5097 142.139 22.9267 144.524 24.0968 146.311C24.1443 146.207 24.1667 146.097 24.2044 145.99Z" fill="#05B4C7"/>
<path d="M5.82643 178.232C5.99138 179.184 6.06687 180.154 6.15353 181.121C6.62882 181.481 7.09432 181.847 7.56541 182.211C7.54584 182.023 7.52907 181.835 7.5095 181.646C7.54584 181.85 7.58638 182.055 7.62552 182.258C8.12038 182.643 8.61942 183.026 9.10589 183.418C8.93255 181.983 8.56351 180.56 8.31049 179.136C8.65297 180.653 9.03181 182.164 9.41064 183.675C10.357 184.448 11.2656 185.252 12.1491 186.081C11.8905 184.51 11.4082 182.962 11.0867 181.407C10.206 177.473 9.22192 173.556 7.87575 169.723C8.1064 171.958 8.44189 174.182 8.85567 176.396C8.13436 173.577 7.32078 170.781 6.20246 168.057C6.49602 170.017 6.84549 171.969 7.21873 173.918C6.65398 171.505 5.99138 169.113 5.13028 166.764C5.21275 167.55 5.30641 168.297 5.40007 169.05C5.13028 167.931 4.84231 166.816 4.5166 165.707C4.68016 169.904 5.26168 174.068 5.82643 178.232Z" fill="#05B4C7"/>
<path d="M1.5749 179.191C2.33256 178.902 3.2356 179.051 3.92477 179.473C3.91778 178.793 3.901 178.113 3.91359 177.435C3.91778 177.234 3.91219 177.029 3.91498 176.825C3.98767 177.762 4.08692 178.696 4.1694 179.632C4.61533 179.962 5.06126 180.301 5.50719 180.638C4.98018 175.384 4.72296 170.094 3.40614 164.939C3.40894 165.842 3.4355 166.744 3.45507 167.646C3.33765 166.658 3.20065 165.669 3.0371 164.682C2.76171 168.151 2.74215 171.627 2.69601 175.104C2.5087 172.944 2.20535 170.792 1.90061 168.639C1.5735 171.789 1.55254 174.958 1.5763 178.117C1.58189 178.474 1.5777 178.835 1.5749 179.191Z" fill="#05B4C7"/>
<path d="M24.9077 185.819C25.4222 188.358 25.2306 191.186 25.8765 193.715C26.4077 193.924 26.9319 194.143 27.4673 194.344C27.6308 194.407 27.7972 194.467 27.9607 194.527C27.4673 189.54 26.321 184.731 25.9506 179.89C25.0321 171.182 24.7819 162.421 23.3659 153.758C23.0737 159.507 23.774 165.244 24.1277 170.979C23.7824 168.419 23.3714 165.863 22.7773 163.331C22.8389 170.86 23.8901 178.351 24.9077 185.819Z" fill="#05B4C7"/>
<path d="M25.0399 193.387C23.9453 184.2 23.1024 174.956 21.0098 165.895C21.2838 174.942 22.8172 183.922 23.8601 192.922C24.2529 193.079 24.6485 193.233 25.0399 193.387Z" fill="#05B4C7"/>
<path d="M22.4809 192.377C22.8737 192.535 23.2735 192.685 23.6663 192.844C23.423 190.178 22.7339 187.569 22.5088 184.686C21.7749 178.345 20.8761 172.217 20.1897 166.285C19.453 172.16 20.7111 178.058 21.315 183.903C21.7344 186.716 21.9594 189.573 22.4809 192.377Z" fill="#05B4C7"/>
<path d="M18.1172 189.062C18.2234 189.619 18.3003 190.159 18.3744 190.689C19.4941 191.152 20.6138 191.615 21.7322 192.071C21.7238 191.975 21.7126 191.88 21.7042 191.784C20.7397 183.149 19.6269 174.497 17.5357 166.012C17.6503 171.53 18.7211 177.065 19.4396 182.183C19.8897 185.047 20.1819 187.93 20.4866 190.808C20.1455 188.842 19.7374 186.942 19.5934 185.387C18.5813 179.039 17.881 172.642 16.4453 166.351C16.3307 172.432 17.4993 178.44 18.366 184.454C18.4247 184.736 18.4681 185.027 18.5198 185.313C17.4252 179.555 16.0637 173.834 14.498 168.161C14.8615 175.221 17.0576 182.08 18.1172 189.062Z" fill="#05B4C7"/>
<path d="M14.8273 186.896C15.0705 187.896 15.2201 188.914 15.3907 189.928C15.8981 189.84 16.4503 189.898 16.9703 190.111C17.3086 190.253 17.6483 190.391 17.9879 190.53C17.6273 188.948 17.1828 187.374 16.9172 185.788C15.8883 180.795 14.7616 175.825 13.4518 170.887C13.5678 174.528 14.2318 178.123 14.9643 181.703C14.1577 178.145 13.3162 174.592 12.2552 171.084C12.3363 172.751 12.525 174.411 12.7752 176.062C12.5753 175.558 12.3978 175.05 12.1797 174.553C13.0128 178.675 13.9019 182.789 14.8273 186.896Z" fill="#05B4C7"/>
<path d="M28.2666 194.645C28.8915 194.879 29.5191 195.112 30.1454 195.345C30.1328 191.221 29.2242 187.077 29.0718 182.958C28.4302 175.86 28.1548 168.733 27.0966 161.667C26.6157 167.702 27.2462 173.737 27.741 179.762C26.9512 172.836 26.6353 165.87 25.5281 158.979C25.0431 167.192 26.2509 175.373 27.1203 183.537C27.7103 187.205 27.5845 190.99 28.2666 194.645Z" fill="#05B4C7"/>
<path d="M32.7965 195.043C32.7937 192.361 32.2989 189.656 32.2569 186.979C31.9102 180.51 31.4559 174.044 31.0058 167.583C30.2328 172.094 30.592 176.666 30.852 181.211C30.3586 175.828 30.0175 170.43 29.2836 165.064C28.5385 172.212 29.5114 179.399 30.2048 186.523C30.6997 189.544 30.6969 192.66 31.1037 195.7C31.3762 195.801 31.6488 195.903 31.92 196.004C32.0878 195.616 32.3967 195.282 32.7965 195.043Z" fill="#05B4C7"/>
<path d="M33.5276 193.247C33.7568 192.625 34.0112 192.015 34.2796 191.409C34.1063 189.539 33.8309 187.668 33.7848 185.811C33.392 179.993 32.8929 174.185 32.1576 168.393C31.4684 173.952 32.2345 179.553 32.5588 185.112C32.9195 188.021 32.7964 191.043 33.2843 193.948C33.3626 193.711 33.4423 193.477 33.5276 193.247Z" fill="#05B4C7"/>
<path d="M35.129 189.595C35.4379 188.964 35.7832 188.347 36.1173 187.727C35.9873 186.73 35.8685 185.734 35.8111 184.741C35.101 178.343 34.725 171.915 33.7087 165.543C33.1538 171.627 33.9897 177.709 34.56 183.767C34.8564 185.681 34.9584 187.645 35.129 189.595Z" fill="#05B4C7"/>
<path d="M36.4773 187.049C36.8114 186.452 37.1679 185.868 37.5257 185.281C37.3077 183.453 37.0393 181.622 36.975 179.798C36.4717 174.32 36.3221 168.818 35.5225 163.359C34.8446 169.495 35.4568 175.651 36.0062 181.776C36.248 183.471 36.3026 185.28 36.4773 187.049Z" fill="#05B4C7"/>
<path d="M37.6496 185.083C37.9892 184.534 38.3136 183.978 38.6756 183.438C38.5079 182.003 38.301 180.567 38.2297 179.138C37.8565 174.238 37.4147 169.344 36.7996 164.465C36.1608 169.348 36.6626 174.263 37.0722 179.143C37.3476 181.091 37.4007 183.108 37.6496 185.083Z" fill="#05B4C7"/>
<path d="M39.2742 182.834C39.3231 182.803 39.3762 182.78 39.4265 182.754C39.7243 182.123 40.022 181.493 40.317 180.861C40.3044 180.67 40.2876 180.479 40.2821 180.29C40.2373 179.725 40.1898 179.158 40.1451 178.593C40.1507 178.636 40.1521 178.68 40.1576 178.723C40.2387 179.401 40.2946 180.09 40.3561 180.777C40.6553 180.142 40.96 179.51 41.262 178.875C41.2522 178.779 41.241 178.683 41.234 178.587C40.879 174.593 40.3589 170.608 39.7173 166.787C39.5593 169.4 39.6181 172.013 39.7942 174.622C39.4936 171.474 39.1106 168.333 38.4676 165.221C38.1573 170.004 38.599 174.784 39.0128 179.553C39.1595 180.632 39.2155 181.732 39.2742 182.834Z" fill="#05B4C7"/>
<path d="M41.4207 178.54C41.7366 177.876 42.0568 177.217 42.3825 176.558C42.0624 172.986 41.5493 169.43 40.8252 165.906C40.7078 169.559 40.8182 173.219 41.246 176.857C41.3089 177.409 41.362 177.971 41.4207 178.54Z" fill="#05B4C7"/>
<path d="M44.0509 173.35C43.6497 170.672 42.9703 167.998 42.5859 165.346C42.5188 168.603 42.4475 172.021 43.0374 175.285C43.3701 174.638 43.6986 173.989 44.0509 173.35Z" fill="#05B4C7"/>
<path d="M44.9926 171.731C44.7074 169.946 44.1245 168.172 43.6045 166.473C43.8771 168.72 43.6408 171.091 44.0616 173.331C44.3566 172.791 44.6795 172.264 44.9926 171.731Z" fill="#05B4C7"/>
<path d="M53.6594 174.757C52.6837 168.117 52.1497 161.367 50.1171 154.893C50.4261 160.973 51.3683 166.993 52.1483 173.034C52.4446 174.65 52.4698 176.317 52.6222 177.962C51.8715 171.419 50.7811 164.871 48.9625 158.49C49.1218 162.535 49.8823 167.555 50.5044 171.101C49.5566 166.256 48.7234 161.388 46.874 156.732C47.9169 163.653 48.9289 170.863 50.7937 177.742C51.0803 178.479 51.4899 179.178 51.9009 179.859C51.9092 179.795 51.9078 179.727 51.912 179.663C52.084 180.061 52.2979 180.655 52.5257 180.909C52.6292 180.294 52.7256 179.6 52.727 178.905C52.8738 179.996 53.1142 181.071 53.5769 182.101C53.7349 182.352 53.9907 183.172 54.0327 182.533C54.5289 179.954 53.8188 177.342 53.6594 174.757Z" fill="#05B4C7"/>
<path d="M49.8972 175.85C49.9 175.769 49.9014 175.687 49.9028 175.607C50.0272 173.189 48.962 170.912 48.347 168.594C47.3027 164.826 46.0642 161.094 44.2777 157.544C45.0703 160.981 45.9132 164.411 46.8848 167.81C45.5805 163.461 42.8546 159.446 41.3631 155.441C41.658 157.241 42.1948 158.998 42.8295 160.728C41.4973 158.8 39.8198 157.023 38.4135 155.163C39.1781 156.863 40.2266 158.454 41.1618 160.086C41.3617 160.429 41.5672 160.773 41.7796 161.113C39.8449 158.799 37.3399 156.811 35.6387 154.6C36.1223 155.883 37.0645 156.964 37.9047 158.078C39.2802 159.794 40.4866 161.666 42.2451 163.107C42.7148 163.478 43.2306 163.828 43.7507 164.13C43.5717 163.765 43.3662 163.412 43.1622 163.058C43.4879 163.452 43.8317 163.834 44.2176 164.185C44.2623 164.288 44.3042 164.392 44.349 164.494C45.2254 166.409 46.1481 169.056 47.483 170.404C47.3978 169.803 47.2664 169.21 47.1182 168.622C47.2314 169.012 47.3377 169.403 47.4565 169.79C48.0939 171.859 48.5203 174.041 49.8972 175.85Z" fill="#05B4C7"/>
<path d="M35.5986 194.047C36.791 192.195 37.5459 190.098 38.5789 188.178C40.8253 183.566 43.3457 179.05 45.1532 174.281C42.0443 178.592 39.6217 183.231 37.3655 187.928C36.4303 190.142 34.9905 192.232 34.2314 194.499C34.6886 194.354 35.1485 194.212 35.5986 194.047Z" fill="#05B4C7"/>
<path d="M37.7091 193.218C38.8596 191.701 39.5543 189.933 40.4406 188.285C42.2509 184.848 43.6669 181.776 45.1934 178.074C42.838 181.246 40.86 184.617 39.1434 188.089C38.2655 189.888 37.1094 191.666 36.7432 193.601C37.0647 193.473 37.3904 193.352 37.7091 193.218Z" fill="#05B4C7"/>
<path d="M40.3908 192.033C40.7249 191.355 41.0366 190.667 41.3721 189.993C42.8791 186.971 44.3119 183.778 45.6651 180.334C43.5207 183.308 41.6167 186.418 40.0833 189.675C39.5856 190.708 39.0041 191.767 38.5693 192.845C39.1802 192.581 39.7883 192.311 40.3908 192.033Z" fill="#05B4C7"/>
<path d="M42.3973 191.103C42.4379 191.084 42.4756 191.062 42.5175 191.045C44.4159 188.099 45.3343 184.83 46.7867 181.182C44.8758 184.568 42.1779 187.886 41.2832 191.621C41.6536 191.446 42.0283 191.275 42.3973 191.103Z" fill="#05B4C7"/>
<path d="M45.4875 189.592C46.898 186.915 47.5815 183.896 48.7082 181.135C46.9553 184.033 44.72 187.107 43.9414 190.35C44.46 190.1 44.9731 189.85 45.4875 189.592Z" fill="#05B4C7"/>
<path d="M46.7193 188.989C47.0366 188.824 47.347 188.653 47.6587 188.482C48.6512 186.298 49.4843 184.019 49.743 181.672C48.7882 184.026 46.8745 186.469 46.1266 189.098C46.114 189.161 46.1098 189.23 46.0986 189.294C46.3027 189.189 46.5152 189.095 46.7193 188.989Z" fill="#05B4C7"/>
<path d="M49.7446 187.417C50.5736 185.732 50.8895 183.815 51.5507 182.088C50.382 183.892 48.8891 185.914 48.541 188.003C48.9352 187.794 49.3364 187.598 49.7446 187.417Z" fill="#05B4C7"/>
<path d="M51.3358 186.86C51.4784 186.828 51.621 186.824 51.7649 186.826C52.1759 185.738 52.1787 184.485 52.1745 183.379C51.8516 184.591 51.0576 185.779 50.8535 187.016C51.0157 186.967 51.168 186.899 51.3358 186.86Z" fill="#05B4C7"/>
<path d="M88.7425 178.43C88.674 176.728 88.5006 175.018 88.5971 173.33C88.53 168.774 88.6265 164.1 87.2342 159.676C87.4704 163.223 87.3781 166.788 87.36 170.348C87.23 168.489 87.0105 166.637 86.5855 164.806C86.4807 169.509 86.2486 174.205 86.5436 178.912C86.5771 179.483 86.5771 180.083 86.5855 180.678C87.2523 180.088 87.9163 179.494 88.5761 178.902C88.6069 178.737 88.6684 178.58 88.7425 178.43Z" fill="#05B4C7"/>
<path d="M85.8326 181.353C85.9025 181.29 85.971 181.227 86.0437 181.164C86.0507 180.561 86.0507 179.954 86.08 179.358C86.2254 175.202 86.1513 171.041 85.6355 166.906C84.9715 171.785 84.8904 176.699 84.8079 181.608C84.7982 181.84 84.7926 182.07 84.7842 182.302C85.1295 181.98 85.4775 181.663 85.8326 181.353Z" fill="#05B4C7"/>
<path d="M83.784 183.025C83.8441 182.302 83.9098 181.579 84.0091 180.866C84.4494 176.358 84.8688 171.788 83.9755 167.301C83.6512 172.336 83.0865 177.364 82.6168 182.392C82.6 182.644 82.5637 182.902 82.5371 183.156C82.9523 183.115 83.3675 183.072 83.784 183.025Z" fill="#05B4C7"/>
<path d="M81.8926 183.223C82.4406 178.886 82.7104 174.508 82.0743 170.166C81.5837 174.56 81.1545 178.958 80.6289 183.348C81.0497 183.308 81.4704 183.263 81.8926 183.223Z" fill="#05B4C7"/>
<path d="M79.6692 183.444C80.2563 179.764 80.6813 176.068 80.8043 172.35C79.7 176.036 79.0332 179.798 78.4209 183.568C78.8375 183.526 79.2526 183.485 79.6692 183.444Z" fill="#05B4C7"/>
<path d="M77.988 183.609C79.1287 178.739 79.9954 173.825 80.4623 168.865C78.9148 172.925 78.1432 177.164 77.2387 181.361C77.0766 182.157 76.8767 182.948 76.667 183.739C77.1073 183.696 77.5477 183.654 77.988 183.609Z" fill="#05B4C7"/>
<path d="M74.8552 183.917C75.2942 183.873 75.7331 183.831 76.1735 183.787C77.1156 179.24 77.9949 174.661 78.2018 170.035C76.7704 174.606 75.7737 179.255 74.8301 183.919C74.8399 183.917 74.8468 183.917 74.8552 183.917Z" fill="#05B4C7"/>
<path d="M73.8676 184.03C74.8559 180.434 75.6961 176.81 76.2077 173.131C74.7273 176.747 73.6132 180.46 72.541 184.179C72.9841 184.131 73.4259 184.077 73.8676 184.03Z" fill="#05B4C7"/>
<path d="M72.1284 184.228C73.5473 179.645 74.7774 175.016 75.5127 170.307C73.7164 174.401 72.4555 178.646 71.1862 182.885C71.0492 183.389 70.8773 183.888 70.7109 184.39C71.182 184.334 71.6559 184.279 72.1284 184.228Z" fill="#05B4C7"/>
<path d="M70.1151 184.458C71.513 179.948 72.7403 175.397 73.5889 170.777C71.4934 175.261 70.1123 179.953 68.6543 184.623C69.1422 184.564 69.6286 184.515 70.1151 184.458Z" fill="#05B4C7"/>
<path d="M66.3731 184.896C66.4388 184.719 66.5059 184.543 66.5758 184.37C66.745 183.937 66.9015 183.502 67.0679 183.068C66.875 183.669 66.6988 184.275 66.5185 184.878C66.984 184.82 67.4495 184.762 67.915 184.705C68.0115 184.397 68.1051 184.091 68.2114 183.788C69.6805 179.241 71.3482 174.744 72.5546 170.134C71.2294 172.478 70.1055 174.897 69.113 177.358C69.9853 174.708 70.7429 172.029 71.2797 169.303C69.0263 173.91 67.409 178.722 65.5595 183.457C65.3778 183.997 65.1653 184.537 64.9473 185.075C65.4226 185.015 65.8992 184.957 66.3731 184.896Z" fill="#05B4C7"/>
<path d="M64.3997 185.145C64.615 184.452 64.8372 183.762 65.0986 183.09C66.7552 178.14 68.5431 173.212 69.5943 168.125C67.0823 173.062 65.3433 178.249 63.6211 183.43C63.4435 184.045 63.2297 184.659 63.0088 185.274C63.2143 185.265 63.4198 185.253 63.6253 185.243C63.8853 185.211 64.1425 185.176 64.3997 185.145Z" fill="#05B4C7"/>
<path d="M59.75 185.454C59.7905 185.451 59.8227 185.437 59.8632 185.433C60.681 185.397 61.496 185.349 62.3123 185.307C64.2638 180.552 66.0363 175.718 67.4021 170.812C65.8938 173.662 64.4889 176.571 63.214 179.521C63.8067 177.903 64.4176 176.292 65.1053 174.704C62.5947 177.981 61.057 181.703 59.75 185.454Z" fill="#05B4C7"/>
<path d="M100.522 178.428C101.288 178.297 102.045 178.142 102.782 177.924C102.363 177.82 101.94 177.762 101.518 177.705C100.812 176.243 99.8506 174.877 98.988 173.483C96.9695 170.222 94.7496 167.066 92.6528 163.846C93.9277 167.203 95.7058 170.387 97.7034 173.453C98.612 174.818 99.4312 176.272 100.429 177.596C100.078 177.575 99.7261 177.547 99.3739 177.547C99.1278 176.773 98.7798 176.021 98.3632 175.302C96.866 172.267 94.8685 169.467 93.0638 166.575C93.8019 168.785 94.909 170.906 95.7575 172.718C96.3209 173.867 97.277 175.95 98.3478 177.585C98.1968 177.594 98.0459 177.591 97.8935 177.601C97.1247 174.719 94.7678 172.121 93.328 169.505C94.3568 172.093 95.2794 175.15 96.7346 177.591C97.0254 177.6 97.3176 177.613 97.6111 177.626C94.9118 177.855 92.2083 178.528 89.5858 178.955C90.8677 178.905 92.1761 178.898 93.4901 178.889C92.1705 179.21 90.8649 179.577 89.583 179.887C93.2119 179.518 97.1344 179.712 100.522 178.428Z" fill="#05B4C7"/>
<path d="M95.8948 177.743C95.899 177.741 95.9018 177.74 95.9046 177.738C95.769 175.291 93.8763 173.117 92.6279 170.998C93.4918 173.19 93.8175 175.707 95.2727 177.664C95.4824 177.686 95.6879 177.718 95.8948 177.743Z" fill="#05B4C7"/>
<path d="M93.3485 177.504C93.6169 177.521 93.8839 177.544 94.1536 177.567C94.1648 177.409 94.1802 177.252 94.1704 177.095C93.902 175.134 92.7418 173.369 92.2273 171.459C92.1602 173.375 92.5419 175.328 93.1514 177.16C93.2045 177.273 93.2814 177.388 93.3485 177.504Z" fill="#05B4C7"/>
<path d="M91.9757 177.439C92.5628 175.828 91.6541 174.084 91.1104 172.543C91.3396 174.152 90.9594 175.96 91.8121 177.436C91.8666 177.438 91.9211 177.438 91.9757 177.439Z" fill="#05B4C7"/>
<path d="M130.973 98.2782C130.441 93.5025 129.925 88.717 128.696 84.0312C129.321 93.144 130.091 103.133 132.476 111.647C132.243 107.168 131.545 102.727 130.973 98.2782Z" fill="#05B4C7"/>
<path d="M128.539 95.7559C128.355 100.357 128.926 105.039 129.976 109.51C130.242 104.877 129.646 100.283 128.539 95.7559Z" fill="#05B4C7"/>
<path d="M127.13 101.826C127.221 104.637 127.574 107.522 128.371 110.21C128.503 107.372 128.118 104.532 127.13 101.826Z" fill="#05B4C7"/>
<path d="M125.842 107.421C125.764 107.233 125.724 107.004 125.723 106.793L125.842 107.421Z" fill="#05B4C7"/>
<path d="M117.114 98.5156C117.619 104.029 118.755 109.469 119.911 114.9C120.942 119.853 121.773 124.947 123.36 129.746C122.049 119.247 119.917 108.782 117.114 98.5156Z" fill="#05B4C7"/>
<path d="M117.584 108.998C117.833 114.936 119.077 120.83 120.801 126.546C120.381 120.618 119.022 114.79 117.584 108.998Z" fill="#05B4C7"/>
<path d="M116.488 117C116.393 119.668 117.016 122.338 117.971 124.842C117.94 122.169 117.317 119.558 116.488 117Z" fill="#05B4C7"/>
<path d="M113.515 124.449C113.51 124.512 113.523 124.636 113.546 124.664C113.549 124.591 113.538 124.519 113.515 124.449Z" fill="#05B4C7"/>
<path d="M115.08 121.139C114.823 122.899 114.863 124.821 115.323 126.49C115.558 124.704 115.481 122.901 115.08 121.139Z" fill="#05B4C7"/>
<path d="M111.01 123.484C110.739 125.801 111.173 128.137 111.925 130.35C112.037 128.026 111.628 125.734 111.01 123.484Z" fill="#05B4C7"/>
<path d="M106.338 128.279C106.419 127.885 106.485 127.492 106.472 127.07C106.333 127.452 106.254 127.903 106.338 128.279Z" fill="#05B4C7"/>
</svg>
