<svg width="81" height="129" viewBox="0 0 81 129" fill="none" xmlns="http://www.w3.org/2000/svg">
<path d="M0.0739441 103.906C0.243004 102.902 0.375107 101.894 0.51664 100.888C1.2951 95.881 2.00514 90.8634 2.86537 85.8716C4.11325 76.6524 4.9381 66.8951 6.57835 57.4745C6.55162 57.3924 6.53983 57.3014 6.56971 57.1926C7.55889 49.5724 8.99078 40.6802 10.3338 32.1594C10.5548 30.7957 10.7734 29.4311 10.966 28.0625C10.9998 27.9377 11.08 27.8329 11.1885 27.7669L11.1901 27.7661C11.2868 27.6783 11.3796 27.5848 11.4755 27.4962C11.4732 27.435 11.4716 27.373 11.4692 27.3118C11.5007 27.3456 11.5322 27.3802 11.5644 27.4133C14.4824 24.7478 17.3092 21.9712 20.0598 19.1196C24.6157 14.9035 29.067 10.5738 33.5467 6.27315C35.6265 4.19813 37.792 2.21574 39.871 0.141523C39.9819 0.0247221 40.1132 0.00378299 40.2343 0.0327818C40.4277 -0.0405207 40.6589 0.053731 40.7635 0.234973C40.7949 0.241418 40.8264 0.243026 40.8547 0.262358C46.6593 8.22172 51.9622 17.2597 58.0042 25.5308C59.5336 27.7411 61.4837 30.1585 62.866 31.9991C63.1774 32.5195 63.7569 32.9279 63.9071 33.5175C63.9103 33.6206 63.8772 33.7108 63.8254 33.7874C64.5645 51.2503 65.0048 68.7374 65.7495 86.1962C65.8556 86.7206 65.8501 87.5237 65.8478 88.144C66.4862 87.6583 67.1122 87.1822 67.709 86.7222C67.8301 86.6248 67.9637 86.5434 68.1116 86.5007C68.2004 86.4339 68.3042 86.396 68.4151 86.4105C68.5802 86.3324 68.787 86.3436 68.9223 86.4846C69.398 87.2491 71.8426 90.5807 73.2549 92.5961C75.1412 95.0296 77.7337 98.2267 79.9315 100.926C80.1123 101.213 80.4276 101.495 80.588 101.817C80.6612 101.901 80.684 102.009 80.6722 102.12C80.68 102.155 80.7028 102.182 80.7021 102.22C80.6981 107.083 81.14 112.004 80.9545 116.845C79.1507 118.157 76.0313 120.96 73.7101 123.328C73.663 123.381 73.6032 123.401 73.545 123.422C73.512 123.507 73.4569 123.585 73.3618 123.638C70.156 125.28 66.4053 127.014 63.4228 128.224C63.2561 128.439 62.8833 128.484 62.719 128.207C60.9718 127.352 59.4007 126.16 57.6622 125.28C55.1798 123.971 52.596 122.704 50.2677 121.164C50.2606 121.151 50.259 121.139 50.2535 121.128C50.0019 121.154 49.7259 120.995 49.7338 120.674C49.8517 118.292 50.0853 115.918 50.2755 113.538C48.9404 114.16 47.5895 114.758 46.2598 115.4C46.5138 116.052 46.7717 116.71 47.0422 117.386C47.422 118.432 47.746 119.432 48.0644 120.202C48.0707 120.238 48.066 120.268 48.0644 120.299C48.224 120.396 48.2917 120.59 48.2759 120.774C48.3955 121.068 48.206 121.455 47.8623 121.444C43.7066 120.983 39.5352 120.704 35.3748 120.308C34.8747 120.183 34.2017 120.259 33.7684 119.954C30.0727 118.686 26.1836 118.072 22.4502 116.937C22.3306 116.877 22.2567 116.779 22.2198 116.669C22.1215 116.589 22.0822 116.476 22.0916 116.34C22.002 116.42 21.9469 116.533 21.9304 116.655C18.3519 116.575 14.7796 116.367 11.2043 116.13C9.02301 115.972 6.83627 115.98 4.65424 115.868C4.41441 116.009 4.06608 115.911 3.9843 115.603C2.59016 112.1 1.29273 108.561 0.251648 104.929C-0.065239 104.772 -0.0306396 104.262 0.0739441 103.906ZM21.012 19.4475C18.1207 22.3796 15.319 25.4099 12.1989 28.0915C13.4193 29.382 14.6342 30.6773 15.8396 31.9782C16.2571 32.5114 16.7855 33.006 17.2235 33.5457C17.2526 33.416 17.321 33.2855 17.4437 33.1824C23.3639 24.4997 30.3495 15.063 36.4592 5.99284C37.1991 4.88605 37.8769 3.73738 38.5578 2.59193C32.732 8.23461 26.9054 13.8789 21.012 19.4475ZM40.3326 3.81148C40.217 3.11793 40.1438 2.41954 40.0778 1.71954C36.0676 8.15566 31.6603 14.309 27.2624 20.4713C24.0676 24.8759 21.2746 29.651 17.9281 33.9106C25.4743 35.0504 32.9616 36.7614 40.4599 38.2363C41.5018 38.5093 42.5854 38.6624 43.6422 38.8783C42.6333 29.5632 42.4069 19.4322 41.2471 10.5384C40.8893 8.16131 40.6762 6.0468 40.3326 3.81148ZM40.9097 1.91448C41.3516 6.20147 42.1356 10.3886 42.5586 14.9527C43.4 22.9185 43.665 31.7993 44.6526 38.9161C44.6549 38.9596 44.6424 38.9926 44.6361 39.0321C49.4696 37.2245 54.4894 35.7955 59.4589 34.3682C60.5779 34.1217 61.6874 33.7753 62.7969 33.4998C55.286 23.8448 47.6461 12.11 40.9097 1.91448ZM67.9567 87.6832C63.3803 91.031 58.8008 94.3811 54.2732 97.7982C53.9343 98.0398 53.5128 98.3967 53.074 98.7857C56.6675 97.9432 60.1894 96.8315 63.7255 95.7658C64.8413 95.4662 66.4933 94.6518 67.7365 94.423C67.753 94.3956 67.7609 94.3626 67.7829 94.3401C67.7758 93.5579 67.9409 92.4028 67.9079 91.5296C67.9873 90.2528 67.9543 88.9608 67.9567 87.6832ZM68.8098 87.9587C68.8279 90.2134 68.7477 92.4761 68.5873 94.7211C68.592 94.734 68.5983 94.7476 68.6038 94.7589C69.5442 96.7824 71.0437 99.5985 72.1988 101.875C73.3885 104.28 74.7646 106.588 75.9362 109.001C77.2108 107.017 78.3431 104.939 79.4502 102.85C79.5926 102.643 79.6854 102.375 79.8088 102.138C76.4544 97.774 71.8316 92.2497 68.8098 87.9587ZM80.1178 116.363C80.0282 112.722 80.0298 109.077 79.8804 105.436C79.867 104.885 79.8599 104.333 79.8513 103.782C78.7111 106.004 77.6276 108.282 76.132 110.254C76.095 110.276 76.0573 110.276 76.0203 110.286C75.2812 114.148 74.6521 118.031 73.8344 121.876C73.8297 121.892 73.8273 121.912 73.8226 121.928C75.7436 119.965 78.4516 117.48 80.1178 116.363ZM63.2451 127.362C66.5138 125.987 69.475 124.531 72.7933 122.899C72.7382 122.825 72.7029 122.736 72.7052 122.634C73.4341 119.005 74.2047 115.383 74.8629 111.739C75.0406 111.192 75.0343 110.282 75.2427 109.684C72.9207 105.203 70.3258 100.096 68.2421 95.7586C68.1965 95.7731 68.1501 95.7876 68.0943 95.7876C68.0872 95.7876 68.0817 95.7843 68.0746 95.7843C63.8128 100.333 59.5895 104.982 55.2946 109.466C55.3662 109.51 55.433 109.57 55.4865 109.665C57.7943 114.534 59.823 119.541 61.9398 124.5C62.3494 125.464 62.8063 126.414 63.2451 127.362ZM62.0569 126.828C62.0648 126.833 62.0742 126.838 62.0821 126.844C59.7577 121.754 56.8161 114.743 55.0587 111.007C53.9366 113.732 52.5543 116.908 51.2175 119.76C51.0996 119.971 51.0296 120.254 50.8786 120.448C54.5908 122.591 58.4359 124.518 62.0569 126.828ZM53.847 111.645C54.1191 111.1 54.2677 110.45 54.5539 109.909C54.546 109.785 54.5971 109.671 54.6766 109.581C54.4902 109.406 54.4344 109.078 54.66 108.872C57.7566 105.481 61.0111 102.245 64.1273 98.8735C65.1802 97.7692 66.1505 96.5625 67.2254 95.4799C62.2087 97.0216 57.262 98.9315 52.1147 99.9078C51.5981 103.356 51.5478 107.25 51.3929 110.967C51.227 113.471 51.0076 115.972 50.8142 118.475C51.948 116.157 53.0245 113.781 53.847 111.645ZM50.2944 112.611C50.3133 112.613 50.3282 112.621 50.3463 112.625C50.421 111.617 50.4847 110.607 50.5217 109.596C50.7049 105.96 50.778 102.236 51.5431 98.6834C51.6445 98.5328 51.8049 98.5038 51.9488 98.5441C54.6553 96.2451 57.722 94.39 60.5142 92.1933C61.9948 91.06 63.4982 89.9226 64.9482 88.823C64.9608 88.2511 64.9443 87.6711 64.9427 87.0952C64.9388 87.0896 64.9317 87.0863 64.9278 87.0799C64.6982 86.4604 64.8979 85.6952 64.7965 85.0274C64.1674 72.388 63.9999 59.7324 63.569 47.0865C63.3882 43.1894 63.2529 39.2931 63.1444 35.3944C63.1727 35.0569 63.1082 34.6863 63.0681 34.3239C57.0371 35.9325 50.2866 38.0558 44.8979 39.9915C44.8861 39.9915 44.8743 39.9851 44.8617 39.9842C44.7823 51.5773 44.5 63.1849 44.3617 74.7707C44.3664 74.7965 44.3766 74.8182 44.3758 74.848C44.3986 83.414 44.2075 91.9767 43.823 100.535C43.7271 103.349 43.7035 106.164 43.6776 108.98C44.4859 110.829 45.1983 112.667 45.9382 114.576C47.3953 113.86 48.8437 113.207 50.2944 112.611ZM33.9933 118.921C34.0326 118.955 34.0546 119.001 34.079 119.045C34.1474 119.073 34.2197 119.095 34.2866 119.126C37.7723 119.619 42.4509 119.832 46.3691 120.335C46.6522 120.401 46.9612 120.398 47.2647 120.411C46.6585 118.889 46.0585 117.333 45.4523 115.782C45.4397 115.789 45.4263 115.794 45.4137 115.8C45.3854 115.698 45.3516 115.597 45.321 115.495L45.3084 115.412C44.0849 112.291 42.8236 109.22 41.4153 106.527C41.3744 106.525 41.3367 106.53 41.2927 106.516C38.0837 105.299 34.8574 104.106 31.573 103.12C31.4684 103.082 31.3544 103.045 31.2427 103.011C31.2247 106.581 31.0816 110.15 31.183 113.72C31.1838 114.41 31.253 115.11 31.1932 115.799C31.2066 115.81 31.2215 115.814 31.2333 115.827C32.0998 116.908 33.0348 117.923 33.9933 118.921ZM30.6027 116.471C30.598 116.469 30.598 116.462 30.5948 116.459C30.5634 116.465 30.5406 116.487 30.5068 116.487C28.6102 116.397 26.7104 116.229 24.8115 116.262C24.4364 116.27 24.1769 116.292 23.9363 116.322C26.7521 117.099 29.6033 117.754 32.4246 118.511C31.8057 117.842 31.1854 117.174 30.6027 116.471ZM30.2787 104.236C29.2463 106.225 27.9992 108.103 26.9463 110.083C25.8604 111.891 24.7549 113.686 23.6029 115.45C25.7582 115.259 27.9206 115.524 30.0782 115.546C30.1506 115.556 30.2268 115.56 30.3039 115.562C30.1238 111.789 30.2481 108.011 30.2787 104.236ZM22.2787 115.777C22.403 115.529 22.5571 115.292 22.6515 115.139C23.9898 113.071 25.2738 110.966 26.5154 108.836C27.7067 106.626 29.111 104.539 30.2182 102.283C30.3283 102.011 30.5421 101.72 30.8645 101.817C31.1075 102.001 32.0511 102.204 32.92 102.514C35.8246 103.444 38.7002 104.473 41.5451 105.578C41.5569 105.581 41.5624 105.589 41.5734 105.592C41.8053 105.526 42.0876 105.604 42.2189 105.871C42.5791 106.581 42.9093 107.282 43.2286 107.98C43.0658 107.569 42.9164 107.153 42.7418 106.747C42.8291 99.0652 43.3528 91.3967 43.4503 83.7128C43.5305 80.7581 43.4841 77.8011 43.6312 74.848C43.6312 74.8215 43.6414 74.8005 43.6445 74.7771C43.7475 64.8386 44.0456 54.9025 43.9661 44.964C44.0526 43.2458 43.8726 41.5091 43.8639 39.803C35.3512 38.142 25.387 36.0203 17.7236 34.849C16.5717 41.3802 15.9536 47.6577 14.955 54.2202C15.003 54.2935 15.021 54.3886 14.9904 54.5006C13.5152 67.1086 10.9416 80.2015 8.95068 93.023C8.95068 93.0279 8.95303 93.0319 8.95303 93.0367C8.34993 97.3535 7.44801 101.618 6.65541 105.902C6.05859 108.893 5.77003 111.999 4.84138 114.902C10.6483 115.328 16.4592 115.708 22.2787 115.777ZM1.07021 104.424C1.85574 106.979 2.576 109.56 3.57148 112.037C3.77907 112.565 3.99216 113.092 4.2021 113.619C5.40832 108.454 6.10657 103.169 7.20348 97.9754C7.45982 96.2 7.83253 94.2442 8.04485 92.8507C8.07865 92.7556 8.13919 92.6912 8.20839 92.6436C9.74328 82.4296 11.5699 72.239 13.2204 62.0394C13.5278 59.9821 13.7134 58.0553 14.0342 55.9835C13.9839 55.907 13.9642 55.8079 13.9965 55.6895C14.9401 49.8189 15.4708 44.2849 16.287 38.5867C16.4962 37.2713 16.6424 35.918 16.9129 34.6138C15.3206 32.6363 13.5742 30.7715 11.7956 28.9438C10.2733 37.8818 8.95776 46.6266 7.79401 55.2457C7.80737 55.3069 7.81995 55.3697 7.7995 55.4382C6.91489 61.7494 5.92336 68.3805 5.1685 75.1147C4.6739 81.2205 3.77277 87.2595 2.7309 93.2897C2.12701 96.9419 1.51762 100.593 0.995506 104.258C0.995506 104.26 0.99472 104.262 0.99472 104.265C1.02539 104.31 1.0537 104.36 1.07021 104.424Z" fill="#05B4C7"/>
<path d="M46.1334 39.2663C46.0399 38.4463 45.9361 37.6182 45.7654 36.7458C45.1741 32.918 44.7503 29.0636 44.4083 25.2059C44.1543 22.4623 43.7485 19.7211 43.8146 16.959C44.7841 21.9524 45.0908 27.0312 45.7175 32.0738C45.8889 34.2672 46.4456 36.6435 46.7939 39.044C46.5769 39.1157 46.356 39.1898 46.1334 39.2663Z" fill="#05B4C7"/>
<path d="M46.8579 39.0221C46.7273 38.1079 46.6935 37.1718 46.5929 36.2592C46.254 31.6508 45.2758 27.0923 45.3293 22.459C46.298 27.8737 46.9396 33.3432 47.457 38.8191C47.2612 38.8868 47.0615 38.9553 46.8579 39.0221Z" fill="#05B4C7"/>
<path d="M47.9144 38.6628C47.8208 38.049 47.7367 37.4328 47.6156 36.8327C47.0172 33.1394 46.4471 29.434 46.2851 25.6875C46.878 28.0316 47.2421 30.4199 47.603 32.8083C47.4316 31.1602 47.3569 29.5049 47.4347 27.8447C47.9254 30.8734 48.2651 33.5437 48.7903 36.4597C48.8925 37.0542 49.038 37.6455 49.1709 38.2375C48.7526 38.3777 48.3303 38.513 47.9144 38.6628Z" fill="#05B4C7"/>
<path d="M49.3027 38.194C48.9355 35.6719 48.7853 33.1265 48.8663 30.5762C49.3459 33.2441 49.6164 35.6139 49.9443 37.9757C49.7297 38.0466 49.5174 38.1215 49.3027 38.194Z" fill="#05B4C7"/>
<path d="M50.3705 37.8318C50.096 35.6545 49.9545 33.449 49.6636 31.3184C50.4137 33.3378 50.6693 35.5095 50.9854 37.6393C50.7809 37.7037 50.5757 37.7658 50.3705 37.8318Z" fill="#05B4C7"/>
<path d="M44.8125 39.7737C44.3234 34.5635 43.8217 29.3389 43.6951 24.1055C44.5797 28.1057 44.8109 32.2066 45.1302 36.2906C45.366 37.3096 45.6601 38.3487 45.7852 39.3894C45.4565 39.5062 45.1309 39.6351 44.8125 39.7737Z" fill="#05B4C7"/>
<path d="M52.2354 37.2456C51.8603 37.3616 51.4868 37.4792 51.1125 37.5977C50.897 36.0261 50.7594 34.4368 50.5676 32.8845C50.831 33.9285 51.1314 35.0079 51.4113 36.0978C51.265 34.9233 51.1557 33.7448 51.0087 32.5938C51.3932 34.1291 51.8595 35.6813 52.2354 37.2456Z" fill="#05B4C7"/>
<path d="M52.9198 37.032C52.8208 37.0634 52.7217 37.0949 52.6218 37.1255C52.382 35.7762 52.1414 34.4262 51.8552 33.0882C51.3637 30.471 50.6576 27.8644 50.6128 25.1836C51.6004 29.0751 52.5228 32.9794 53.2344 36.937C53.129 36.9692 53.0244 36.9998 52.9198 37.032Z" fill="#05B4C7"/>
<path d="M53.7762 36.7743C53.03 32.7056 52.3436 28.6241 51.5793 24.5586C53.0693 28.4178 53.6732 32.5188 54.373 36.5955C54.1741 36.6543 53.9752 36.7131 53.7762 36.7743Z" fill="#05B4C7"/>
<path d="M54.6353 36.5163C53.9897 33.129 53.3677 29.7378 52.903 26.3184C54.0298 29.5662 54.5338 32.9808 55.1943 36.3479C55.008 36.4035 54.8216 36.4615 54.6353 36.5163Z" fill="#05B4C7"/>
<path d="M55.5647 36.2371C54.7485 32.0902 54.033 27.9225 53.2655 23.7676C54.7658 27.7219 55.3524 31.9275 56.1309 36.0792C55.9421 36.1331 55.7534 36.1823 55.5647 36.2371Z" fill="#05B4C7"/>
<path d="M56.4298 35.9955C56.3417 35.6073 56.2505 35.2222 56.1459 34.8461C55.3651 30.9296 54.221 27.0454 54.0182 23.0371C55.0443 27.022 55.9462 31.0327 56.8112 35.0587C56.8709 35.3189 56.9283 35.5791 56.9873 35.8393C56.8017 35.8908 56.6154 35.9432 56.4298 35.9955Z" fill="#05B4C7"/>
<path d="M57.2048 35.7788C56.5096 32.5808 55.7115 29.3845 55.5755 26.0996C56.3838 29.254 57.1073 32.4278 57.8008 35.612C57.6018 35.6668 57.4029 35.724 57.2048 35.7788Z" fill="#05B4C7"/>
<path d="M57.9703 35.5669C57.3594 33.102 56.8089 30.6266 56.4354 28.1094C57.2288 30.2263 57.8524 32.4036 58.4075 34.5979C58.0057 32.7742 57.736 30.9368 57.5363 29.2226C58.1921 31.1768 58.6819 33.1809 59.2119 35.1746C58.8628 35.285 58.5152 35.3969 58.1677 35.5113C58.1016 35.529 58.0364 35.5492 57.9703 35.5669Z" fill="#05B4C7"/>
<path d="M59.5463 35.066C59.091 33.2842 58.7026 31.4846 58.3087 29.6875C59.0682 31.3582 59.6666 33.0973 60.1777 34.8622C59.9662 34.925 59.7571 35.0007 59.5463 35.066Z" fill="#05B4C7"/>
<path d="M60.3912 34.7919C60.3888 34.7927 60.3872 34.7935 60.3849 34.7935C59.3996 33.0609 59.1449 30.927 58.6581 29.0059C59.3351 30.8433 60.3243 32.6823 60.793 34.6663C60.6569 34.7106 60.5217 34.7533 60.3912 34.7919Z" fill="#05B4C7"/>
<path d="M60.8892 34.6365C60.5228 33.3364 60.2727 31.9912 60.0022 30.7031C60.4386 31.9694 60.9922 33.1914 61.5049 34.4416C61.2965 34.5044 61.0913 34.5712 60.8892 34.6365Z" fill="#05B4C7"/>
<path d="M61.572 34.4207C61.1953 33.3977 60.8627 32.3143 60.5223 31.4121C61.0286 32.2603 61.6349 33.2656 62.1602 34.2637C61.9628 34.308 61.7678 34.3619 61.572 34.4207Z" fill="#05B4C7"/>
<path d="M62.4541 34.2067C61.9131 33.3046 61.6552 32.2533 61.2219 31.3125C61.9107 32.1978 62.6058 33.1161 63.0635 34.1528C62.8622 34.1552 62.6593 34.1729 62.4541 34.2067Z" fill="#05B4C7"/>
<path d="M40.3034 2.78696C40.3238 2.45912 40.3482 2.13046 40.3733 1.80261C40.3875 1.62701 40.3938 1.44898 40.4016 1.27338C40.4221 1.3209 40.448 1.36683 40.4669 1.41516C40.4449 1.29111 40.4307 1.16544 40.4134 1.04139C40.4166 0.963255 40.4205 0.886729 40.4252 0.808594C41.6558 2.66452 42.1024 4.9377 42.8895 7.00789C43.9582 10.2622 45.1243 13.4996 45.7549 16.882C44.4166 13.5415 43.311 10.1156 42.1779 6.69857C41.9357 5.87532 41.6212 5.06819 41.3193 4.25784C41.4498 4.80076 41.5788 5.34207 41.7274 5.87049C42.5341 9.01525 43.3959 12.152 43.8355 15.3789C42.5994 12.015 41.7431 8.52791 40.8671 5.05209C40.713 4.33034 40.4921 3.62067 40.2821 2.91101C40.2876 2.8659 40.301 2.83127 40.3034 2.78696Z" fill="#05B4C7"/>
<path d="M41.76 1.74879C42.246 2.88941 42.7217 4.00667 43.1951 5.1199C42.9317 4.47306 42.7193 3.80771 42.6234 3.1053C44.0058 4.70748 44.6222 6.81794 45.5721 8.69078C46.9033 11.5971 48.2511 14.5034 49.2041 17.5684C47.5355 14.6613 46.187 11.5858 44.7913 8.53611C44.3572 7.48733 43.7848 6.47882 43.3295 5.43244C45.0689 9.53094 46.7256 13.5159 48.2888 17.7505C45.7372 13.7261 44.3226 9.1008 42.3341 4.78239C41.7144 3.21243 40.7827 1.72059 40.6403 0C41.0854 0.529228 41.4856 1.10679 41.76 1.74879Z" fill="#05B4C7"/>
<path d="M45.5354 7.17488C47.6781 11.4345 50.1047 15.5684 51.833 20.0318C49.2657 15.8334 46.8918 11.4699 44.8694 6.97269C44.764 6.64162 44.6642 6.27189 44.6075 5.94727C44.9457 6.33231 45.261 6.7399 45.5354 7.17488Z" fill="#05B4C7"/>
<path d="M50.0144 14.097C51.2238 16.3251 52.3977 18.5741 53.4443 20.8875C52.1532 19.0775 50.9501 17.1999 49.913 15.2247C49.2281 13.8956 48.2774 12.4223 48.0714 11.0078C48.9293 11.8891 49.4467 13.016 50.0144 14.097Z" fill="#05B4C7"/>
<path d="M16.1378 33.6561C16.0065 33.5151 15.8807 33.3701 15.7517 33.2259C16.2911 32.5775 16.8235 31.9242 17.3118 31.2436C20.2833 26.9735 23.9286 22.2547 27.5166 17.8711C24.965 22.6011 21.6224 26.263 18.7303 30.6032C17.9723 31.7116 17.1498 32.77 16.3147 33.8188C16.255 33.7648 16.1984 33.7085 16.1378 33.6561Z" fill="#05B4C7"/>
<path d="M15.4829 32.9271C15.3461 32.7732 15.2077 32.621 15.0717 32.4687C15.2863 32.1836 15.501 31.8968 15.707 31.5891C18.4017 28.0238 21.0312 24.7752 23.6504 21.334C21.9803 24.8888 19.3162 27.816 16.984 30.9189C16.4642 31.5375 15.9767 32.2254 15.4829 32.9271Z" fill="#05B4C7"/>
<path d="M14.8813 32.2571C14.7728 32.1379 14.6635 32.0195 14.555 31.9002C16.7079 29.0648 19.0559 26.1263 21.6641 23.4141C19.6165 26.7006 17.1946 29.4144 14.9631 32.3473C14.9356 32.3175 14.908 32.2877 14.8813 32.2571Z" fill="#05B4C7"/>
<path d="M14.0218 31.314C14.3041 30.991 14.5856 30.6672 14.8474 30.3305C16.4491 28.3497 18.0218 26.3391 19.8555 24.5742C18.1806 27.0649 16.4318 29.537 14.4873 31.8247C14.334 31.6547 14.1783 31.4832 14.0218 31.314Z" fill="#05B4C7"/>
<path d="M22.9824 19.3332C20.7092 23.0217 17.8423 26.2639 14.9589 29.4546C14.5272 29.8847 14.0837 30.3834 13.6363 30.8965C13.442 30.6878 13.2439 30.48 13.0324 30.2899C12.9498 30.1916 12.8672 30.0934 12.7847 29.9951C13.1826 29.5569 13.5726 29.1147 13.9343 28.6531C16.8688 25.2941 19.7153 21.8513 22.8393 18.6719C20.8397 21.8005 18.3306 24.5337 15.9237 27.332C15.1782 28.1343 14.4768 28.9882 13.7739 29.8404C14.1828 29.4119 14.5838 28.9777 14.9541 28.5234C17.7165 25.5381 20.1658 22.2653 22.9824 19.3332Z" fill="#05B4C7"/>
<path d="M12.6172 29.7939C12.3892 29.5201 12.1572 29.247 11.9292 28.9731C11.9017 28.9393 11.8718 28.9014 11.8435 28.866C13.4554 27.23 15.1271 25.6536 16.8783 24.1762C16.7611 24.3293 16.6361 24.4735 16.5173 24.6241C17.7463 23.2966 18.9958 21.9892 20.3145 20.752C18.4179 23.502 16.1651 25.9524 13.9178 28.4004C13.4672 28.8434 13.041 29.3171 12.6172 29.7939Z" fill="#05B4C7"/>
<path d="M26.338 16.7579C28.5075 13.9885 30.7445 11.2682 33.039 8.60438C32.2322 9.4977 31.4325 10.3983 30.6093 11.2739C29.278 12.5957 27.7738 13.7162 26.3584 14.939C27.6417 13.3497 29.1349 11.9618 30.5472 10.4965C32.1394 8.71876 33.6885 6.89506 35.4034 5.2381C36.0624 4.61704 36.693 3.90495 37.429 3.37572C37.9747 2.73211 38.5684 2.14811 39.3067 1.74374C39.3806 1.72037 39.4876 1.63822 39.3901 1.76871C39.3696 1.80576 39.3445 1.83879 39.3248 1.87504C39.5002 1.74374 39.6763 1.62694 39.8398 1.5625C39.5992 2.0297 39.372 2.50656 39.0763 2.94155C35.8705 6.79194 33.175 10.5859 29.7042 14.3075C30.6777 12.7915 31.681 11.3601 32.7103 9.96651C30.7099 12.3509 28.6686 14.6973 26.338 16.7579Z" fill="#05B4C7"/>
<path d="M30.2437 17.9858C30.6157 17.1674 31.0167 16.3659 31.4327 15.5733C32.4297 14.2595 33.4039 12.9271 34.3672 11.5859C33.0383 13.752 31.6827 15.8987 30.2437 17.9858Z" fill="#05B4C7"/>
<path d="M36.0599 10.211C36.1684 9.97415 36.2706 9.7333 36.3705 9.49164C36.1731 9.83802 35.9765 10.1836 35.7839 10.5284C33.7418 14.117 32.0953 17.9335 29.8912 21.4271C31.3923 17.5509 33.2866 13.8527 35.3113 10.2392C36.9366 7.89188 38.4118 5.43182 39.8602 2.96289C39.894 3.45265 39.9301 3.94321 39.9655 4.43297C39.9883 4.5256 40.0143 4.61662 40.0371 4.70845C40.2761 6.20269 40.2258 7.73319 40.4688 9.23227C41.1183 15.3228 41.5075 21.9063 41.4139 28.2933C40.6559 23.4288 40.6449 18.4829 40.2997 13.5781C40.2832 13.3082 40.2565 13.0327 40.2305 12.7572C40.0976 17.2754 39.9333 21.7936 39.5519 26.2924C38.8041 20.1777 39.5283 14.0267 39.6762 7.88866C39.6604 7.71306 39.6518 7.53745 39.64 7.36184C39.2547 11.1035 38.8285 14.9321 38.1601 18.706C38.1822 15.4541 38.5195 12.2232 38.882 8.99705C38.5344 10.8747 38.12 12.7387 37.6192 14.5737C37.7851 12.8515 37.9911 11.2445 38.2254 9.61489C38.0988 10.128 37.9777 10.6411 37.8723 11.1567C36.8706 15.0973 36.2093 19.1652 34.6878 22.9414C35.6793 18.0978 36.7503 13.2744 37.8708 8.45978C37.3384 9.84125 36.7094 11.1792 36.1818 12.5115C36.3917 11.6601 36.5938 10.791 36.8124 9.92421C35.7281 12.5438 34.6146 15.152 33.329 17.6765C34.0123 15.2342 35.2059 12.1893 36.0599 10.211Z" fill="#05B4C7"/>
<path d="M42.2179 39.2886C41.8168 36.1962 41.4473 33.0893 41.3631 29.8535C42.0519 32.548 42.3044 35.3311 42.6606 38.0852C42.7282 38.5225 42.7997 38.9938 42.8721 39.4763C42.6527 39.4151 42.4357 39.3498 42.2179 39.2886Z" fill="#05B4C7"/>
<path d="M39.7574 38.66C39.6292 34.9795 39.3988 31.3047 39.5726 27.6211C40.0955 31.3192 40.2119 35.0609 40.3125 38.7961C40.1277 38.7518 39.9429 38.7035 39.7574 38.66Z" fill="#05B4C7"/>
<path d="M32.0589 37.2987C32.7532 33.5362 33.332 29.7486 34.3125 26.0488C34.0452 29.8589 33.387 33.6248 32.6573 37.3712C32.4576 37.3447 32.2586 37.3221 32.0589 37.2987Z" fill="#05B4C7"/>
<path d="M22.0079 34.8945C22.4309 34.2638 22.8446 33.6266 23.2346 32.975C25.3026 29.9164 26.9263 26.5155 29.3584 23.7324C27.3203 27.6038 25.069 31.3535 22.659 34.996C22.442 34.9606 22.2249 34.9259 22.0079 34.8945Z" fill="#05B4C7"/>
<path d="M20.6302 34.7379C20.6727 34.6751 20.7191 34.6147 20.7608 34.551C22.5709 31.8034 24.2253 28.9317 26.3955 26.4531C24.8001 29.2982 23.1331 32.1047 21.3151 34.8072C21.0871 34.7806 20.8583 34.7572 20.6302 34.7379Z" fill="#05B4C7"/>
<path d="M19.3899 34.6664C20.876 32.4898 22.4251 30.3906 23.8994 28.4453C22.8693 30.6669 21.4791 32.6775 20.1188 34.697C19.8766 34.6817 19.6329 34.6728 19.3899 34.6664Z" fill="#05B4C7"/>
<path d="M18.0926 34.6721C19.3271 33.0699 20.5837 31.4846 21.9062 29.959C21.0083 31.5636 19.9279 33.1746 18.8506 34.6592C18.5966 34.6592 18.3442 34.6616 18.0926 34.6721Z" fill="#05B4C7"/>
<path d="M23.5663 35.1642C25.0902 32.4206 26.5386 29.6303 28.3369 27.0566C27.1456 29.8929 25.7421 32.63 24.23 35.3036C24.0098 35.2552 23.7881 35.2085 23.5663 35.1642Z" fill="#05B4C7"/>
<path d="M24.677 35.4004C24.6456 35.3932 24.6133 35.3867 24.5811 35.3795C25.5097 33.5051 26.565 31.6999 27.7861 30.0059C26.9731 31.8731 26.094 33.7064 25.2227 35.5438C25.0403 35.4987 24.8602 35.4431 24.677 35.4004Z" fill="#05B4C7"/>
<path d="M25.7986 35.6952C26.7516 33.5541 27.703 31.413 28.8086 29.3477C28.167 31.5773 27.3232 33.7321 26.4056 35.8547C26.2051 35.795 26.0007 35.7499 25.7986 35.6952Z" fill="#05B4C7"/>
<path d="M27.1372 36.0923C28.6343 32.9217 30.0088 29.6908 31.6152 26.5742C30.6583 29.9469 29.202 33.1271 27.7112 36.2816C27.5209 36.2171 27.329 36.1543 27.1372 36.0923Z" fill="#05B4C7"/>
<path d="M28.4124 36.5257C29.3442 34.0962 30.2296 31.8134 31.3926 29.3984C30.7879 31.9189 29.9277 34.3556 29.0093 36.7698C28.8127 36.6844 28.6137 36.603 28.4124 36.5257Z" fill="#05B4C7"/>
<path d="M29.7702 37.1095C30.3513 35.26 31.0299 33.4452 31.8115 31.6738C31.4097 33.5161 30.9128 35.3333 30.3891 37.1433C30.1823 37.1296 29.9755 37.1192 29.7702 37.1095Z" fill="#05B4C7"/>
<path d="M30.7034 37.1639C31.2428 35.308 31.8939 33.4787 32.5049 31.6719C32.1966 33.5399 31.7783 35.3853 31.3168 37.2195C31.1123 37.1994 30.9079 37.1792 30.7034 37.1639Z" fill="#05B4C7"/>
<path d="M32.876 37.4019C33.4626 34.4771 34.0862 31.5595 34.8096 28.666C34.6798 31.6529 34.1223 34.5777 33.5184 37.4945C33.3053 37.4623 33.0907 37.4317 32.876 37.4019Z" fill="#05B4C7"/>
<path d="M33.8004 37.5359C34.2509 35.3908 34.7219 33.2497 35.2275 31.1191C35.1473 33.3158 34.8021 35.4778 34.3885 37.6302C34.1927 37.598 33.9977 37.5665 33.8004 37.5359Z" fill="#05B4C7"/>
<path d="M35.8076 37.8637C35.6346 37.8347 35.4592 37.8049 35.2839 37.7759C35.6094 35.1338 35.8288 32.6625 36.3195 30.0703C36.3423 32.6826 36.1496 35.2829 35.8579 37.8734C35.8406 37.8702 35.8233 37.8662 35.8076 37.8637Z" fill="#05B4C7"/>
<path d="M36.2847 37.9521C36.5647 34.7477 36.9586 31.549 37.4453 28.3809C37.4917 31.6142 37.2551 34.8484 36.9429 38.0745C36.7235 38.0334 36.5049 37.9907 36.2847 37.9521Z" fill="#05B4C7"/>
<path d="M37.3994 38.1583C37.6888 35.0111 37.916 31.8583 38.2612 28.7168C38.5435 31.9026 38.2856 35.0949 37.9836 38.2703C37.7886 38.2308 37.5936 38.1962 37.3994 38.1583Z" fill="#05B4C7"/>
<path d="M38.3272 38.3475C38.4782 36.353 38.6692 34.3618 38.9224 32.377C39.0954 34.4101 39.0246 36.4424 38.9114 38.4747C38.7164 38.4329 38.5222 38.3886 38.3272 38.3475Z" fill="#05B4C7"/>
<path d="M40.5563 38.8569C40.4124 36.4032 40.2992 33.9464 40.3102 31.4863C40.7961 33.9657 41.0163 36.4846 41.1523 39.0075C40.9534 38.9567 40.7553 38.9052 40.5563 38.8569Z" fill="#05B4C7"/>
<path d="M41.2056 39.0221C41.1089 37.3684 41.1985 35.6848 41.2654 34.0625C41.4156 35.7662 41.6806 37.4747 41.8496 39.1848C41.6357 39.1276 41.4211 39.0777 41.2056 39.0221Z" fill="#05B4C7"/>
<path d="M43.1602 39.5604C42.8331 37.0262 42.5744 34.4856 42.4777 31.9297C43.1075 34.4776 43.4692 37.0826 43.7806 39.6877C43.783 39.7046 43.7846 39.7239 43.7861 39.7408C43.5778 39.6764 43.3686 39.6208 43.1602 39.5604Z" fill="#05B4C7"/>
<path d="M16.5711 35.0308C16.7213 34.3397 16.7897 33.6767 16.8636 33.0234C17.0782 33.1217 17.2984 33.2039 17.5272 33.2603C17.543 33.2667 17.5587 33.2756 17.5752 33.282C17.4871 33.8918 17.3747 34.5 17.2874 35.1025C16.8463 37.7261 16.3446 40.3392 15.979 42.9773C15.4443 46.6424 14.6768 50.2705 14.1649 53.9404C13.6877 56.7565 13.4926 59.5324 12.6474 62.4306C13.0625 56.2128 13.9644 50.4992 15.0566 44.362C15.486 41.239 16.0238 38.1353 16.5711 35.0308Z" fill="#05B4C7"/>
<path d="M14.5365 39.7314C14.2204 41.3819 13.8563 43.0236 13.4128 44.6451C13.53 42.9535 13.7517 41.2764 14.0041 39.6025C14.2558 37.0144 14.2471 34.1927 14.6922 31.5586C14.7991 31.6408 14.8997 31.7294 15.0067 31.8099C15.2347 31.9791 15.4667 32.1531 15.7041 32.3222C15.6939 32.431 15.679 32.5429 15.6727 32.6477C15.5555 33.4854 15.4352 34.324 15.3086 35.1609C15.4824 34.2523 15.668 33.3412 15.863 32.431C16.0753 32.5784 16.2931 32.7121 16.5156 32.8362C16.1751 34.3022 15.8488 35.7707 15.5941 37.252C14.7095 42.8931 14.0859 48.6091 12.6493 54.139C12.9119 50.2306 13.585 46.3786 14.1661 42.5113C14.273 41.5962 14.4012 40.665 14.5365 39.7314Z" fill="#05B4C7"/>
<path d="M14.6709 31.5401C14.2156 34.572 13.7989 37.6129 12.9709 40.5691C13.1879 37.2431 13.5905 34.2756 14.0788 31.0664C14.2738 31.2275 14.4704 31.3846 14.6709 31.5401Z" fill="#05B4C7"/>
<path d="M12.0399 29.1367C12.2153 29.3252 12.3843 29.5226 12.566 29.7046C12.6076 29.7465 12.654 29.7843 12.6973 29.8262C12.5589 30.5858 12.4307 31.3455 12.3536 32.1059C11.7616 36.6063 10.9847 42.0154 9.86968 46.7825C10.126 41.9461 11.0672 37.3804 11.5076 32.9799C11.631 31.691 11.8339 30.4135 12.0399 29.1367Z" fill="#05B4C7"/>
<path d="M12.5498 31.5346C12.6418 31.0037 12.7078 30.4511 12.7715 29.8945C13.1324 30.2473 13.5012 30.5873 13.8857 30.9111C13.6247 32.767 13.3589 34.9846 12.8305 37.1926C12.8447 36.2267 12.8738 35.2625 12.9162 34.2991C12.5073 37.2256 12.0135 40.3188 11.3467 43.2565C11.4906 39.1508 12.0953 35.5114 12.5498 31.5346Z" fill="#05B4C7"/>
<path d="M4.06743 114.73C4.06428 114.712 4.06429 114.695 4.06193 114.678C4.0179 114.889 3.966 115.1 3.92039 115.311C3.77256 114.84 3.55397 114.385 3.35739 113.916C3.7128 112.171 4.05014 110.436 4.19875 109.031C4.60685 105.091 5.06212 101.161 5.89483 97.2881C6.63083 92.7716 6.86122 88.0432 8.24199 83.4404C7.78199 87.7854 7.2072 92.3809 6.6151 97.0932C6.2644 98.8952 5.99706 100.625 5.76824 102.348C5.92236 101.506 6.07648 100.662 6.22745 99.8191C6.79124 95.8269 7.47927 91.6374 8.2648 87.4132C8.82701 83.8206 9.33025 80.2167 10.2432 76.6934C9.84765 83.2124 8.62414 89.3231 7.53823 95.9735C7.17967 99.3664 6.28013 103.798 5.67624 107.547C5.17142 109.878 5.30117 112.444 4.18932 114.584C4.15079 114.63 4.07765 114.838 4.06743 114.73Z" fill="#05B4C7"/>
<path d="M4.5776 104.046C4.18837 106.842 3.8935 109.468 3.52786 112.434C3.45316 112.921 3.40599 113.418 3.35566 113.916C3.35016 113.901 3.34466 113.887 3.33758 113.871C3.12606 113.362 2.93026 112.848 2.73683 112.331C3.03406 109.979 3.35566 107.629 3.70007 105.283C4.5029 99.6475 5.08241 93.7454 6.29098 87.9336C6.2957 90.8528 5.78538 94.1973 5.3875 96.8016C5.03366 99.2077 4.94324 101.643 4.5776 104.046Z" fill="#05B4C7"/>
<path d="M2.42513 111.504C2.42199 111.494 2.41884 111.485 2.41491 111.475C2.28674 110.818 2.11375 110.163 1.90853 109.518C2.23956 107.441 2.56352 105.363 2.85367 103.281C4.00563 96.2026 4.80138 89.0399 6.52734 82.0762C6.12396 87.5843 4.79588 93.4461 4.20457 98.6296C3.73356 102.094 3.31681 105.131 2.80885 108.646C2.64687 109.586 2.57375 110.553 2.42513 111.504Z" fill="#05B4C7"/>
<path d="M1.15939 107.524C1.0957 107.318 1.03593 107.109 0.972239 106.901C1.1067 106.053 1.24195 105.204 1.37562 104.358C1.22701 105.112 1.06502 105.866 0.885744 106.614C0.734771 106.118 0.584584 105.624 0.438329 105.126C0.72848 103.939 1.01313 102.751 1.16804 101.538C2.10533 95.9423 2.88535 90.3012 4.19143 84.7809C4.18907 84.8414 4.18278 84.9026 4.17963 84.963C4.32431 84.0503 4.48 83.1256 4.65456 82.1807C4.82126 80.4199 5.22386 77.9018 5.84819 75.9629C5.59657 78.0202 5.46605 80.0872 5.25217 82.1485C5.0202 83.973 4.63883 85.7895 4.47685 87.3747C4.39429 88.1786 4.30229 88.9809 4.21422 89.784C4.74184 86.5797 5.319 83.3858 6.06836 80.2265C5.89537 83.8949 5.24352 87.4956 4.5893 91.097C3.73929 97.3656 2.7446 103.295 1.85685 109.359C1.65398 108.737 1.41573 108.127 1.15939 107.524Z" fill="#05B4C7"/>
<path d="M7.60155 106.642C7.0472 108.885 6.70043 111.172 6.29705 113.446C6.14765 114.13 6.00691 114.818 5.86537 115.504C5.60038 115.468 5.33539 115.429 5.0704 115.392H5.06804C5.86379 111.594 6.46847 107.758 7.46474 104.006C8.59624 99.0274 9.58307 94.0179 11.0283 89.1211C10.8427 91.9219 10.1508 94.6494 9.61217 97.3938C8.97211 100.483 8.36585 103.581 7.60155 106.642Z" fill="#05B4C7"/>
<path d="M41.5356 106.741C41.4113 106.358 41.1731 106.099 40.8774 105.919C41.2211 101.4 41.4774 96.8714 41.707 92.3452C42.0994 84.7169 41.7495 76.9895 42.7151 69.4297C42.8424 79.8596 42.6144 90.3088 41.9814 100.72C41.8808 102.764 41.7322 104.804 41.556 106.84C41.5489 106.808 41.5466 106.775 41.5356 106.741Z" fill="#05B4C7"/>
<path d="M39.9409 101.402C39.8103 102.706 39.6963 104.011 39.5878 105.317C39.3645 105.163 39.1341 105.021 38.8958 104.891C39.1939 101.697 39.4942 98.5041 39.7341 95.307C40.187 88.9941 40.2208 82.6224 41.2343 76.3691C41.2855 80.2985 40.9937 84.2165 40.757 88.137C40.5644 92.5642 40.3891 96.9921 39.9409 101.402Z" fill="#05B4C7"/>
<path d="M38.2685 104.377C38.2599 104.441 38.2528 104.507 38.2449 104.572C38.0381 104.482 37.829 104.4 37.619 104.328C37.6489 104.006 37.6804 103.684 37.7024 103.362C38.263 97.0181 38.6004 90.6416 39.4889 84.3359C39.6108 87.6249 39.3867 90.8969 39.0438 94.1665C38.7427 97.5658 38.5878 100.978 38.2685 104.377Z" fill="#05B4C7"/>
<path d="M36.3182 103.968C36.4023 103.146 36.4825 102.318 36.5438 101.464C36.8749 97.6644 36.9433 93.8277 37.706 90.082C37.7099 94.7726 37.397 99.4591 36.9645 104.129C36.7506 104.071 36.5352 104.018 36.3182 103.968Z" fill="#05B4C7"/>
<path d="M35.3111 103.749C35.4794 100.502 35.6642 97.2578 36.3428 94.0703C36.272 97.3431 36.1564 100.619 35.9701 103.891C35.7507 103.843 35.5305 103.796 35.3111 103.749Z" fill="#05B4C7"/>
<path d="M33.3987 103.231C33.1982 103.157 33.0008 103.075 32.8074 102.983C33.4199 96.6281 34.027 90.2725 34.4115 83.8984C35.1152 89.9544 33.9303 96.032 33.5025 102.07C33.4687 102.456 33.4333 102.844 33.3987 103.231Z" fill="#05B4C7"/>
<path d="M31.536 102.634C31.8104 98.6763 31.871 94.6889 32.6494 90.791C32.651 94.7582 32.4741 98.7222 32.2012 102.681C31.985 102.595 31.7538 102.582 31.536 102.634Z" fill="#05B4C7"/>
<path d="M33.7252 103.345C33.9406 101.118 34.2315 98.9002 34.7324 96.7148C34.6939 98.9904 34.5185 101.256 34.3275 103.521C34.1246 103.468 33.9241 103.41 33.7252 103.345Z" fill="#05B4C7"/>
<path d="M29.9074 104.778C30.2817 101.07 30.5576 97.3474 31.3408 93.6992C31.3157 96.9116 31.0719 100.116 30.7354 103.313C30.4539 103.799 30.1834 104.291 29.9074 104.778Z" fill="#05B4C7"/>
<path d="M27.5941 108.85C27.6074 108.721 27.6263 108.592 27.6373 108.463C28.2459 104.256 28.5982 100.28 29.4183 95.9395C29.5308 99.7705 28.9591 103.561 28.4511 107.346C28.1681 107.85 27.8818 108.35 27.5941 108.85Z" fill="#05B4C7"/>
<path d="M20.545 113.559C20.4003 114.518 20.2635 115.479 20.1259 116.44C19.8955 116.434 19.6651 116.427 19.4347 116.421C20.2014 111.042 20.8886 105.897 21.5625 100.156C22.289 95.5938 22.4707 90.8598 23.5967 86.166C23.4119 91.3761 22.6051 97.2218 21.9352 102.049C21.4508 105.884 21.0954 109.735 20.545 113.559Z" fill="#05B4C7"/>
<path d="M18.2001 116.386C17.9705 116.38 17.7409 116.372 17.5105 116.367C18.5854 109.826 19.404 103.237 20.9404 96.791C20.78 100.254 20.125 103.654 19.5903 107.069C19.1256 110.175 18.7081 113.288 18.2001 116.386Z" fill="#05B4C7"/>
<path d="M16.4404 116.31C16.2329 116.296 16.0245 116.287 15.8169 116.275C15.8342 116.154 15.8578 116.033 15.8727 115.912C16.7086 111.24 17.3919 106.524 18.6201 101.938C18.3559 106.187 17.4218 110.339 16.744 114.529C16.6465 115.122 16.5419 115.716 16.4404 116.31Z" fill="#05B4C7"/>
<path d="M14.1368 116.207C14.4561 114.724 14.7698 113.241 15.0513 111.752C15.5435 108.875 15.9799 105.974 16.9707 103.221C16.4785 107.303 15.8187 111.806 14.8555 116.227C14.6157 116.219 14.3766 116.211 14.1368 116.207Z" fill="#05B4C7"/>
<path d="M12.751 116.198C12.6433 116.194 12.5356 116.189 12.4278 116.184C13.0537 112.776 13.7245 109.375 14.7451 106.062C14.3858 109.467 13.7638 112.838 13.0923 116.198C12.9783 116.198 12.8642 116.198 12.751 116.198Z" fill="#05B4C7"/>
<path d="M11.4256 116.148C11.2141 116.141 11.0017 116.131 10.791 116.124C10.7973 116.089 10.8044 116.053 10.8099 116.019C11.5592 112.42 12.2858 108.787 13.6406 105.367C13.0076 108.907 12.1812 112.403 11.4727 115.927C11.4547 115.999 11.4413 116.073 11.4256 116.148Z" fill="#05B4C7"/>
<path d="M9.77302 116.079C9.55914 116.045 9.34447 116.012 9.12981 115.98C9.22102 115.54 9.31224 115.101 9.40031 114.661C10.6529 108.764 11.6099 102.777 13.3232 96.998C12.7728 102.458 11.348 107.763 10.3525 113.145C10.1638 114.124 9.96803 115.101 9.77302 116.079Z" fill="#05B4C7"/>
<path d="M8.75223 115.922C8.53993 115.892 8.32841 115.86 8.11532 115.829C8.34571 114.696 8.5761 113.565 8.80963 112.432C9.86565 107.539 10.5403 102.552 11.9824 97.7539C11.4013 103.414 10.0968 108.963 9.02823 114.54C8.93387 115.001 8.84344 115.462 8.75223 115.922Z" fill="#05B4C7"/>
<path d="M7.37913 115.721C7.16446 115.69 6.94979 115.659 6.73434 115.629C7.69758 111.166 8.443 106.648 9.68066 102.254C9.35434 106.753 8.29911 111.136 7.41922 115.547C7.40428 115.604 7.39171 115.662 7.37913 115.721Z" fill="#05B4C7"/>
<path d="M5.93243 115.514C6.43488 112.738 6.94442 109.961 7.84082 107.285C7.52708 110.077 7.04114 112.84 6.52846 115.599C6.32953 115.571 6.13058 115.543 5.93243 115.514Z" fill="#05B4C7"/>
<path d="M21.0507 116.466C20.8415 116.459 20.6324 116.453 20.4224 116.448C20.5506 115.576 20.6686 114.704 20.744 113.832C21.4446 108.215 22.1052 102.536 22.9874 96.9785C23.2036 101.403 22.2734 105.775 21.8425 110.159C21.5925 112.263 21.322 114.363 21.0507 116.466Z" fill="#05B4C7"/>
<path d="M21.9791 116.491C21.7605 116.485 21.5411 116.478 21.3225 116.474C21.4295 115.744 21.527 115.017 21.5844 114.287C22.2764 109.113 22.609 104.229 23.5871 99.2246C23.6453 104.473 22.7513 109.663 22.2072 114.867C22.1159 115.404 22.0452 115.946 21.9791 116.491Z" fill="#05B4C7"/>
<path d="M22.8343 116.513C22.6134 116.508 22.3924 116.5 22.1715 116.495C22.8076 111.14 23.5554 105.789 24.8135 100.557C24.6177 104.717 23.8958 108.817 23.2959 112.928C23.1025 114.075 22.9656 115.284 22.8343 116.513Z" fill="#05B4C7"/>
<path d="M23.1817 116.083C23.2288 115.776 23.2799 115.47 23.3106 115.163C24.0065 111.061 24.045 106.418 25.3613 102.162C25.0303 106.286 24.6544 110.41 24.0961 114.51C23.78 115.029 23.4742 115.552 23.1817 116.083Z" fill="#05B4C7"/>
<path d="M26.5809 110.559C26.3883 110.682 26.2303 110.843 26.128 111.037C26.1925 110.519 26.2515 110.002 26.2869 109.486C26.7233 105.913 27.0087 102.743 27.7188 99.2383C27.7148 102.911 27.2194 106.55 26.8058 110.191C26.7327 110.315 26.6556 110.436 26.5809 110.559Z" fill="#05B4C7"/>
<path d="M25.9905 111.511C25.4511 112.361 24.9062 113.209 24.3754 114.064C24.7867 110.313 25.102 106.159 26.0149 102.467C25.9787 104.1 25.8883 105.733 25.7672 107.362C25.9064 106.1 26.0731 104.845 26.3145 103.59C26.3955 106.132 26.2917 108.673 26.0652 111.204C26.0298 111.305 26.0015 111.406 25.9905 111.511Z" fill="#05B4C7"/>
<path d="M45.3526 115.514C45.1206 114.852 44.8934 114.188 44.6528 113.529C44.9099 106.815 45.1261 100.099 45.064 93.3773C45.237 85.2592 44.744 77.088 45.675 69.0078C45.9321 74.9896 45.62 80.9803 45.7387 86.9661C45.8488 96.4834 45.7607 106.005 45.3526 115.514Z" fill="#05B4C7"/>
<path d="M46.7055 115.291C46.6222 109.016 46.7032 102.742 46.6709 96.4672C46.7606 90.0021 46.3312 83.5031 46.9713 77.0605C47.4313 88.0366 47.2473 99.0384 47.3904 110.024C47.4517 111.645 47.4793 113.266 47.4863 114.887C47.2237 115.019 46.965 115.156 46.7055 115.291Z" fill="#05B4C7"/>
<path d="M48.4951 114.395C48.2537 114.511 48.0123 114.629 47.7709 114.749C47.734 112.392 47.7096 110.034 47.7072 107.677C47.7528 101.105 47.3101 94.4986 47.9211 87.9473C48.7074 94.6323 48.2396 101.392 48.4409 108.109C48.4409 110.204 48.4645 112.3 48.4951 114.395Z" fill="#05B4C7"/>
<path d="M50.0472 113.6C49.9379 113.626 49.827 113.664 49.7145 113.735C49.5691 113.824 49.426 113.919 49.2813 114.01C49.102 114.097 48.9235 114.186 48.7442 114.271C48.7167 112.853 48.6908 111.435 48.6625 110.017C48.6216 103.608 48.2984 97.1645 48.9581 90.7775C49.4291 96.268 49.0996 101.785 49.2663 107.288C49.2868 108.389 49.3135 109.487 49.3371 110.588C49.3308 109.035 49.3371 107.844 49.3434 107.599C49.5227 100.047 49.3403 92.4442 50.254 84.9375C50.5331 91.6419 49.9803 98.3486 50.0181 105.057C49.9937 107.905 49.9921 110.753 50.0472 113.6Z" fill="#05B4C7"/>
<path d="M51.666 106.953C51.3278 107.079 51.0511 107.374 51.029 107.842C51.0133 108.175 51.0047 108.508 50.9913 108.841C51.0314 106.384 51.0762 103.929 51.1022 101.472C51.2893 95.0479 50.8891 88.5368 52.0693 82.1934C51.9553 89.7467 51.6998 97.2969 51.6982 104.854C51.6895 105.554 51.6754 106.253 51.666 106.953Z" fill="#05B4C7"/>
<path d="M53.3056 98.2031C53.05 98.3803 52.848 98.5551 52.7009 98.8016C52.7599 91.9088 52.4265 85.0046 52.8448 78.123C53.5399 84.7871 53.2443 91.5092 53.3056 98.2031Z" fill="#05B4C7"/>
<path d="M54.0198 97.7173C54.0198 96.2673 54.0205 94.8174 54.0198 93.3682C54.1684 87.4082 53.5354 81.3918 54.3154 75.4688C54.652 82.7362 54.6213 90.0149 54.6504 97.2895C54.4404 97.4321 54.2313 97.5763 54.0198 97.7173Z" fill="#05B4C7"/>
<path d="M55.9764 91.1756C55.9803 92.8503 56.007 94.5249 56.0448 96.1988C55.8458 96.3543 55.6485 96.5106 55.4503 96.6652C55.2718 87.5338 55.3693 78.3839 55.9551 69.2734C56.5873 76.5481 55.8097 83.88 55.9764 91.1756Z" fill="#05B4C7"/>
<path d="M58.0605 94.6388C57.8655 94.7886 57.6713 94.9377 57.4771 95.0875C57.1948 89.2048 56.999 83.3172 57.0383 77.4272C57.1083 73.1475 56.8292 68.8251 57.5093 64.584C57.8254 71.3463 57.5376 78.1184 57.7012 84.8847C57.7523 88.1382 57.8931 91.3893 58.0605 94.6388Z" fill="#05B4C7"/>
<path d="M59.3398 89.1547C59.35 90.6377 59.3783 92.119 59.4098 93.6012C59.2014 93.7607 58.9938 93.9226 58.7863 94.0813C58.7462 91.9877 58.7139 89.8926 58.7186 87.7982C58.9042 80.1828 58.5331 72.5134 59.4122 64.9375C59.6638 73.0064 59.2691 81.0826 59.3398 89.1547Z" fill="#05B4C7"/>
<path d="M60.9559 91.353C60.9575 91.7034 60.9607 92.0546 60.9638 92.405C60.757 92.5637 60.5518 92.7232 60.345 92.8811C60.3348 91.4626 60.3206 90.044 60.3206 88.6247C60.411 83.4492 60.1083 78.1473 60.8805 73.0781C61.0943 79.1679 60.8506 85.2617 60.9559 91.353Z" fill="#05B4C7"/>
<path d="M62.1142 84.4186C62.1063 86.7941 62.0938 89.1704 62.0804 91.5459C61.8775 91.703 61.6739 91.8584 61.4718 92.0139C61.4836 89.8817 61.4954 87.7479 61.5048 85.6156C61.6117 79.0482 61.2634 72.4687 61.6581 65.9102C62.3658 72.0466 62.0246 78.2516 62.1142 84.4186Z" fill="#05B4C7"/>
<path d="M62.4429 91.2689C62.4224 91.285 62.4012 91.3003 62.3808 91.3173C62.4366 89.3703 62.4704 87.4242 62.4327 85.4756C62.4405 80.0472 62.0765 74.5833 62.7802 69.1855C63.0869 76.3909 63.0916 83.6213 62.9957 90.8356C62.8117 90.9797 62.6277 91.1247 62.4429 91.2689Z" fill="#05B4C7"/>
<path d="M64.1037 89.9646C64.0896 88.9641 64.0699 87.9629 64.0314 86.9632C63.9952 85.6526 63.9433 84.342 63.9017 83.0307C63.926 85.3796 63.9363 87.7301 63.9598 90.0782C63.9433 90.0919 63.9276 90.1047 63.9103 90.1176C63.7365 90.2546 63.562 90.3899 63.3882 90.5268C63.3906 89.5264 63.3843 88.5251 63.3504 87.5271C63.352 82.5047 63.0084 77.4621 63.5572 72.459C63.7066 74.7112 63.7884 76.9675 63.8403 79.2246C63.845 77.9422 63.8844 76.6606 63.9889 75.3798C64.202 75.8655 64.5488 83.1265 64.7061 89.5191C64.5016 89.6464 64.305 89.8043 64.1037 89.9646Z" fill="#05B4C7"/>
<path d="M17.8797 41.0352C18.2634 38.7048 18.6865 36.3793 19.126 34.0586C19.1284 34.0602 19.13 34.0626 19.1323 34.0626C19.3352 34.1528 19.5271 34.26 19.7236 34.3566C19.3407 36.364 18.9688 38.373 18.6236 40.3868C17.3607 47.2184 16.6491 54.158 15.1418 60.9397C15.4445 54.2369 16.9008 47.6558 17.8797 41.0352Z" fill="#05B4C7"/>
<path d="M20.4504 34.6094C20.5188 34.6376 20.5864 34.669 20.6556 34.6964C20.7822 34.7455 20.9143 34.7487 21.0425 34.7213C21.0464 34.7222 21.0519 34.7238 21.0566 34.7246C20.6729 36.2905 20.2916 37.8524 20.0557 39.3805C19.0452 44.6655 18.3682 50.0118 17.1306 55.2493C17.3201 50.1914 18.4885 45.227 19.2788 40.2432C19.6263 38.3567 20.0336 36.4814 20.4504 34.6094Z" fill="#05B4C7"/>
<path d="M21.8455 34.8613C22.0366 34.8944 22.2277 34.9282 22.418 34.9628C22.1231 36.2654 21.8306 37.5679 21.5263 38.868C20.534 42.8779 19.9639 46.9796 19.0376 51.004C19.1587 46.199 20.28 41.5141 21.3675 36.8622C21.5483 36.2154 21.7009 35.5412 21.8455 34.8613Z" fill="#05B4C7"/>
<path d="M23.4509 35.1466C23.6459 35.182 23.8409 35.2167 24.0352 35.2521C23.9471 35.6178 23.859 35.9851 23.7843 36.3549C22.8093 40.3398 22.1126 44.4029 20.7774 48.2871C21.3239 43.8414 22.3721 39.4876 23.4266 35.1426L23.4509 35.1466Z" fill="#05B4C7"/>
<path d="M24.8125 35.3928C24.3124 38.1356 23.7148 40.8574 22.9332 43.5325C23.1487 40.7511 23.6763 38.0155 24.2063 35.2832C24.4076 35.3203 24.6096 35.3565 24.8125 35.3928Z" fill="#05B4C7"/>
<path d="M22.4369 60.0917C22.481 54.8904 23.5677 49.7762 24.4224 44.6692C24.987 41.6549 25.5602 38.6398 26.1712 35.6328C26.5415 35.6973 26.9111 35.7609 27.2822 35.8213C27.2759 35.8616 27.2696 35.9027 27.2626 35.9429C26.3858 40.4982 25.9714 45.146 24.8407 49.6481C25.0389 45.8331 25.6003 42.0625 26.2333 38.3039C26.0273 39.3181 25.8299 40.3338 25.6577 41.3544C24.3799 47.5634 23.6337 53.8674 22.4369 60.0917Z" fill="#05B4C7"/>
<path d="M25.7334 35.556C25.1209 39.5007 24.2567 43.4195 23.2659 47.2683C23.6489 43.2979 24.3786 39.3669 25.1169 35.4473C25.3229 35.4835 25.5274 35.5206 25.7334 35.556Z" fill="#05B4C7"/>
<path d="M37.5439 37.6669C37.3065 41.3175 37.0761 44.9681 36.8874 48.622C36.4612 54.3162 36.4667 60.0942 35.2841 65.695C35.7629 56.3107 36.3126 46.9256 36.9361 37.5469C37.139 37.5872 37.3419 37.6274 37.5439 37.6669Z" fill="#05B4C7"/>
<path d="M37.7928 37.7168C38.0051 37.7587 38.2174 37.8006 38.4297 37.8417C38.2999 40.2977 38.1906 42.7553 38.0601 45.2114C37.7299 50.0832 37.8258 55.0001 37.1087 59.8364C36.8398 52.7116 37.5066 45.5964 37.7519 38.4796C37.7637 38.2243 37.7802 37.9705 37.7928 37.7168Z" fill="#05B4C7"/>
<path d="M38.9233 37.9375C39.1215 37.9762 39.3212 38.014 39.5186 38.0527C39.4116 39.4164 39.307 40.7794 39.1907 42.1431C38.7708 46.6178 38.6961 51.1158 38.2683 55.5905C37.7926 50.5979 38.3241 45.5843 38.6984 40.6038C38.814 39.737 38.8761 38.8421 38.9233 37.9375Z" fill="#05B4C7"/>
<path d="M40.5605 38.2543C40.456 39.1952 40.3459 40.1368 40.2492 41.0785C39.8088 45.0271 39.8796 49.0185 39.3473 52.9567C39.0146 48.0068 39.3905 43.0544 39.9559 38.1367C40.1572 38.177 40.3592 38.2157 40.5605 38.2543Z" fill="#05B4C7"/>
<path d="M41.4619 38.4295C40.6512 45.8911 40.7393 53.4501 39.5126 60.8553C39.6793 53.3325 40.1661 45.8073 40.8863 38.3184C41.0774 38.3546 41.2701 38.3925 41.4619 38.4295Z" fill="#05B4C7"/>
<path d="M41.8427 38.502C42.0298 38.5382 42.2162 38.5745 42.4033 38.6107C42.3593 39.032 42.32 39.4517 42.2987 39.8729C41.93 44.4749 41.6414 49.0817 41.3284 53.6868C41.1059 57.0225 40.9872 60.3856 40.2598 63.6568C40.3896 57.7257 40.8787 51.8116 41.2639 45.8942C41.4448 43.4301 41.6029 40.9628 41.8427 38.502Z" fill="#05B4C7"/>
<path d="M42.0008 51.5741C42.0299 47.8574 42.2092 44.1544 42.4632 40.4466C42.5151 39.8497 42.5355 39.2464 42.5489 38.6406C42.6354 38.6575 42.7219 38.6745 42.8076 38.6906C42.9758 38.9105 43.2298 39.0514 43.5074 39.1062C43.7567 39.1554 43.9957 39.1231 44.2402 39.0796C44.09 42.1519 43.9131 45.2233 43.7991 48.2972C43.5097 54.7736 43.7779 61.2581 43.4909 67.7337C42.9979 64.7911 43.0482 61.7921 43.0309 58.8165C42.9955 54.6818 43.0639 50.547 43.24 46.4163C43.1457 47.507 43.0537 48.5969 42.9554 49.6867C42.3712 55.3407 42.2792 61.1791 41.5015 66.7131C41.2625 60.8287 41.8954 54.9532 42.4121 49.0915C42.2957 49.9236 42.1659 50.7516 42.0008 51.5741Z" fill="#05B4C7"/>
<path d="M35.9414 37.3498C35.8305 40.493 35.6292 43.6321 35.4476 46.7712C35.2951 49.9047 35.2031 53.0905 34.7045 56.1007C34.4081 49.8032 35.0356 43.5193 35.3179 37.2266C35.5254 37.2676 35.733 37.3087 35.9414 37.3498Z" fill="#05B4C7"/>
<path d="M34.2667 37.0156C34.4538 37.0527 34.641 37.0897 34.8281 37.1268C34.7896 37.5908 34.7574 38.0531 34.7408 38.5147C34.4082 42.958 34.225 47.4109 33.8751 51.8525C33.3475 47.5333 33.868 43.173 34.1197 38.8506C34.1637 38.2384 34.2156 37.6278 34.2667 37.0156Z" fill="#05B4C7"/>
<path d="M33.5635 36.877C33.7538 36.914 33.9425 36.9519 34.1328 36.9897C33.8442 41.354 33.4361 45.7184 32.4658 49.9852C32.5382 46.0615 33.2034 42.1805 33.4448 38.2665C33.499 37.8057 33.5344 37.3425 33.5635 36.877Z" fill="#05B4C7"/>
<path d="M32.4843 36.6621C32.6157 36.6887 32.747 36.7145 32.8783 36.7402C32.9404 36.7531 33.0033 36.766 33.0654 36.7773C33.0528 36.8804 33.0387 36.9827 33.0253 37.085C32.2618 42.0776 31.7594 47.1315 30.4777 52.0234C30.7686 47.2861 31.6666 42.6189 32.2823 37.9203C32.3585 37.5055 32.4238 37.085 32.4843 36.6621Z" fill="#05B4C7"/>
<path d="M31.5449 36.4764C30.7814 41.6575 30.6776 47.6401 29.1514 52.9574C29.679 47.4202 30.2546 41.8806 30.9819 36.3652C31.1691 36.4015 31.357 36.4393 31.5449 36.4764Z" fill="#05B4C7"/>
<path d="M29.5984 36.0898C29.7997 36.1301 30.0018 36.1696 30.2031 36.2099C30.0427 37.5269 29.8902 38.8447 29.7203 40.1618C28.9568 45.4581 28.518 50.8285 27.1609 56.0136C27.396 50.9485 28.5055 45.2994 29.0417 40.5935C29.2367 39.0936 29.4137 37.5913 29.5984 36.0898Z" fill="#05B4C7"/>
<path d="M28.3295 35.8398C28.5198 35.8769 28.7109 35.9156 28.9004 35.9526C28.5922 38.2798 28.2603 40.6037 27.9269 42.9276C27.0982 48.1321 26.7632 53.1231 25.6694 58.3928C25.8227 52.2338 26.9236 46.1497 27.7453 40.06C27.9568 38.5698 28.1487 37.2092 28.3295 35.8398Z" fill="#05B4C7"/>
<path d="M27.4301 35.8457C27.5213 35.861 27.6125 35.8771 27.7038 35.8916C27.8138 35.9093 27.9224 35.9061 28.0293 35.8973C27.865 37.0749 27.6951 38.2494 27.5371 39.4279C26.8302 44.4592 26.3521 49.5388 25.1718 54.4871C25.3763 49.4163 26.3088 44.6863 26.9135 39.56C27.0794 38.3211 27.2571 37.083 27.4301 35.8457Z" fill="#05B4C7"/>
<path d="M46.0923 38.7443C46.3078 38.7281 46.524 38.7024 46.7402 38.6758C46.6396 40.7258 46.5382 42.7759 46.4391 44.8267C45.9775 51.9774 46.1764 59.1586 45.5836 66.2955C44.9521 58.5182 45.6449 50.7014 45.8989 42.9193C45.9681 41.5273 46.0286 40.1354 46.0923 38.7443Z" fill="#05B4C7"/>
<path d="M47.4941 38.5566C47.4784 38.8418 47.4564 39.1277 47.4525 39.4129C47.2653 43.1787 47.1175 46.9486 47.0279 50.7192C46.9815 53.7286 46.9712 56.7518 46.3862 59.7145C46.2195 52.6968 46.4743 45.6783 46.8061 38.6686C47.0349 38.6372 47.2645 38.5993 47.4941 38.5566Z" fill="#05B4C7"/>
<path d="M48.3369 38.3809C48.2803 39.1002 48.2339 39.8163 48.226 40.5187C47.9044 45.5444 48.0287 50.5974 47.4303 55.6029C46.9892 49.92 47.4232 44.2096 47.6756 38.5258C47.8974 38.4823 48.1167 38.4324 48.3369 38.3809Z" fill="#05B4C7"/>
<path d="M49.4102 38.1016C49.212 42.7945 49.1955 47.5044 48.4744 52.1466C48.3824 47.527 48.5075 42.9009 48.7379 38.282C48.9627 38.2248 49.1868 38.1652 49.4102 38.1016Z" fill="#05B4C7"/>
<path d="M50.5899 37.7426C50.8109 37.6734 51.031 37.6033 51.248 37.5332C51.1836 38.4563 51.1167 39.3787 51.0711 40.3026C50.6504 46.3271 51.0688 52.3862 50.4814 58.397C49.861 51.9021 50.2227 45.3508 50.5144 38.8446C50.5333 38.4765 50.5632 38.11 50.5899 37.7426Z" fill="#05B4C7"/>
<path d="M52.4023 37.1484C52.3662 37.759 52.3292 38.3712 52.2938 38.9834C51.9007 44.9008 52.0446 50.8463 51.5248 56.754C50.9304 50.3083 51.5075 43.8182 51.7654 37.3667C51.9793 37.2983 52.1908 37.2217 52.4023 37.1484Z" fill="#05B4C7"/>
<path d="M53.0108 36.9403C53.2609 36.8509 53.5093 36.7575 53.7578 36.6641C53.6572 38.4555 53.5581 40.2462 53.4708 42.0385C52.9833 48.6083 53.393 55.2209 52.7293 61.773C51.9414 54.3751 52.5713 46.9087 52.8701 39.4971C52.9133 38.6448 52.9628 37.7926 53.0108 36.9403Z" fill="#05B4C7"/>
<path d="M55.2344 36.0762C55.1424 38.7706 55.0669 41.4659 55.0582 44.1628C54.9505 49.5928 55.2375 55.0349 54.8176 60.4553C54.2798 52.4331 54.3537 44.3755 54.6313 36.3275C54.8326 36.2469 55.0339 36.1599 55.2344 36.0762Z" fill="#05B4C7"/>
<path d="M56.4665 35.7217C56.5986 35.6847 56.7322 35.6501 56.8643 35.6114C56.9209 35.5969 56.9784 35.584 57.0342 35.5703C56.862 40.2721 56.6615 44.9732 56.494 49.6734C56.2754 54.3631 56.4468 59.0682 56.0222 63.7459C55.4741 57.7673 55.894 51.7557 56.0827 45.769C56.2369 42.4213 56.3556 39.0719 56.4665 35.7217Z" fill="#05B4C7"/>
<path d="M57.4642 35.4616C57.6891 35.4052 57.9116 35.344 58.1357 35.2852C58.0406 37.5495 57.947 39.8146 57.8432 42.0789C57.491 47.3768 57.763 52.7255 56.9861 57.9872C56.6905 50.7931 57.2158 43.5973 57.4288 36.4073C57.4406 36.0915 57.4524 35.7765 57.4642 35.4616Z" fill="#05B4C7"/>
<path d="M58.488 35.1942C58.7042 35.1362 58.9213 35.0839 59.1367 35.0234C59.1084 35.8322 59.0825 36.6409 59.0463 37.4481C58.7797 42.3617 58.7349 47.4132 57.9494 52.1496C57.7489 47.501 58.2152 42.862 58.3638 38.2189C58.4471 37.2451 58.4731 36.2261 58.488 35.1942Z" fill="#05B4C7"/>
<path d="M59.5531 34.9014C59.7662 34.8402 59.9793 34.7757 60.1924 34.7129C60.1027 36.6663 60.017 38.6205 59.9211 40.5747C59.5484 46.3245 59.5751 52.1234 58.6709 57.8233C58.5655 51.6409 59.1599 45.4722 59.3644 39.2955C59.4281 37.8295 59.4902 36.365 59.5531 34.9014Z" fill="#05B4C7"/>
<path d="M60.4653 34.6319C60.6918 34.5634 60.9206 34.5006 61.1455 34.4297C61.0857 36.8205 61.0283 39.2121 60.9835 41.6029C60.798 47.0619 61.1023 52.5572 60.4378 57.9872C59.9212 51.0976 60.371 44.1757 60.4017 37.274C60.4174 36.3936 60.4425 35.5131 60.4653 34.6319Z" fill="#05B4C7"/>
<path d="M61.4643 34.3258C61.8362 34.2074 62.2058 34.0858 62.5762 33.9609C62.4622 36.0295 62.3592 38.1005 62.2978 40.1731C62.091 45.8359 62.2892 51.506 61.9636 57.1648C61.7207 55.5425 61.5956 53.9105 61.5288 52.2737C61.4415 53.7969 61.3251 55.3177 61.1608 56.8362C60.737 50.7118 61.2772 44.5737 61.3597 38.4445C61.4006 37.0719 61.4313 35.6985 61.4643 34.3258Z" fill="#05B4C7"/>
<path d="M62.6739 33.928C63.0293 33.8072 63.3831 33.6823 63.7378 33.5566C63.7338 33.8474 63.7275 34.1382 63.737 34.4266C63.7118 37.4248 63.6772 40.4245 63.6693 43.4235C63.564 48.9622 64.0507 54.5228 63.4908 60.0446C63.4319 59.5532 63.3894 59.0611 63.3422 58.5689C63.38 60.5416 63.3926 62.5143 63.3304 64.4871C62.3373 57.1069 62.5441 49.6075 62.5488 42.1733C62.5677 39.4232 62.6031 36.6756 62.6739 33.928Z" fill="#05B4C7"/>
<path d="M80.4771 102.919C80.393 103.006 80.3167 103.104 80.2428 103.203C79.6279 102.456 79.0452 101.674 78.3965 100.975C76.2624 98.4984 74.1181 96.0343 72.1799 93.3906C74.7315 95.6372 76.9324 98.2544 79.1576 100.83C79.6522 101.466 80.2333 102.077 80.79 102.703C80.676 102.759 80.5683 102.826 80.4771 102.919Z" fill="#05B4C7"/>
<path d="M79.7621 103.963C79.5247 103.659 79.2872 103.355 79.0356 103.063C76.8535 100.426 74.5787 97.859 72.6098 95.0469C75.3375 97.6004 77.768 100.456 80.123 103.37C79.9957 103.56 79.8761 103.761 79.7621 103.963Z" fill="#05B4C7"/>
<path d="M79.5811 104.273C79.5465 104.331 79.5134 104.391 79.4788 104.447C79.3758 104.615 79.2728 104.782 79.169 104.948C76.9878 102.243 74.6508 99.3548 72.9005 96.3945C75.2359 98.9239 77.4297 101.58 79.5811 104.273Z" fill="#05B4C7"/>
<path d="M79.0703 105.109L78.6787 105.743C76.9701 103.458 74.8439 100.972 73.4938 98.1855C75.3597 100.488 77.2649 102.756 79.0703 105.109Z" fill="#05B4C7"/>
<path d="M78.5059 106.023L78.4225 106.159C78.314 106.334 78.2031 106.509 78.0954 106.684C76.4284 104.497 74.9108 102.202 73.5442 99.8066C75.4903 101.969 76.9324 103.948 78.5059 106.023Z" fill="#05B4C7"/>
<path d="M77.9697 106.884C77.829 107.11 77.6882 107.336 77.5483 107.56C76.1643 105.344 74.8331 103.094 73.5742 100.799C75.2444 102.668 76.6487 104.748 77.9697 106.884Z" fill="#05B4C7"/>
<path d="M76.7419 108.856L76.7309 108.836C74.8162 105.223 72.5178 101.793 71.1009 97.9277C72.0759 99.4429 73.0179 100.981 73.9434 102.528C73.6399 101.93 73.3364 101.333 73.0289 100.738C74.4663 102.467 75.6466 104.411 76.7985 106.347C77.0305 106.763 77.2853 107.169 77.54 107.575C77.2743 108.003 77.0085 108.43 76.7419 108.856Z" fill="#05B4C7"/>
<path d="M76.6748 108.965C76.593 109.096 76.512 109.227 76.4303 109.358C76.3768 109.443 76.3225 109.531 76.2683 109.618C75.6282 108.5 75.0809 107.321 74.4346 106.208C73.1301 103.847 71.7926 101.494 70.7916 98.9766C72.9477 102.175 74.8962 105.53 76.6748 108.965Z" fill="#05B4C7"/>
<path d="M61.881 96.8174C62.1555 96.4412 62.4275 96.0642 62.6791 95.676C64.1566 93.4946 65.616 91.2939 67.3105 89.2793C66.0344 91.8046 64.5687 94.2172 62.9355 96.5161C62.584 96.6144 62.2325 96.7135 61.881 96.8174Z" fill="#05B4C7"/>
<path d="M60.3423 97.2632C60.6505 96.8999 60.9579 96.5366 61.2418 96.1572C62.7122 94.2868 64.1622 92.335 65.8779 90.4082C64.6293 92.7039 63.1942 94.8869 61.5571 96.912C61.1514 97.0304 60.7464 97.1456 60.3423 97.2632Z" fill="#05B4C7"/>
<path d="M59.6401 97.4659C59.5308 97.4965 59.4207 97.5304 59.3122 97.5602C58.9757 97.6536 58.6352 97.743 58.2955 97.8332C58.6611 97.4393 59.0339 97.0527 59.3838 96.6499C61.0193 94.8085 62.7437 93.0525 64.3887 91.2207C63.2265 93.3537 61.6995 95.2435 60.06 97.0076C59.9193 97.1558 59.7801 97.3096 59.6401 97.4659Z" fill="#05B4C7"/>
<path d="M58.2091 97.8553C57.7373 97.9801 57.2663 98.1074 56.7937 98.2315C57.1342 97.9012 57.4825 97.575 57.8128 97.2342C59.3642 95.6296 60.9565 94.0645 62.6455 92.6113C61.275 94.4519 59.8163 96.2265 58.2091 97.8553Z" fill="#05B4C7"/>
<path d="M56.6254 98.2752C56.0923 98.4154 55.5615 98.562 55.03 98.7102C55.5435 98.2478 56.0727 97.8032 56.5657 97.3287C58.3089 95.7121 59.8808 94.5465 61.5596 93.2246C60.0774 95.0684 58.3687 96.6956 56.6254 98.2752Z" fill="#05B4C7"/>
<path d="M54.8852 98.7014C54.8538 98.7256 54.8184 98.753 54.7862 98.7779C54.1618 98.9551 53.5422 99.1452 52.9289 99.349C53.7065 98.6684 54.5487 98.0964 55.2045 97.5374C56.7598 96.2945 58.268 95.141 59.9971 93.8457C58.463 95.6436 56.7606 97.2837 54.8852 98.7014Z" fill="#05B4C7"/>
<path d="M63.5342 96.3612C63.5948 96.2557 63.6545 96.1493 63.7143 96.043C64.7538 94.1677 65.8735 92.3336 67.1064 90.584C66.3791 92.369 65.5291 94.3095 64.5218 96.1075C64.1916 96.1848 63.8629 96.2742 63.5342 96.3612Z" fill="#05B4C7"/>
<path d="M67.385 95.444C67.337 95.6414 67.2741 95.8299 67.1986 96.0159C67.0909 95.9281 66.9666 95.8653 66.8314 95.821C66.7473 95.2402 66.7811 94.649 66.8691 94.0593C66.7535 94.6449 66.6081 95.2161 66.3918 95.7574C66.3274 95.759 66.2637 95.7598 66.2 95.7711C66.049 95.7944 65.9004 95.8339 65.7502 95.8621C65.751 95.8444 65.7494 95.8283 65.751 95.8113C65.7431 95.8299 65.7361 95.8476 65.729 95.8645C65.4577 95.9145 65.1872 95.9692 64.9175 96.028C64.9285 95.9725 64.934 95.9161 64.9482 95.8613C65.5308 94.1625 66.2291 92.5232 67.2261 90.8066C66.9438 91.6122 66.7473 92.4483 66.5389 93.282C66.7795 92.727 67.0508 92.1873 67.3441 91.6645C67.3629 91.5574 67.3857 91.4503 67.4023 91.3447C67.4038 91.4068 67.4093 91.4736 67.4125 91.5372C67.4188 91.526 67.4243 91.5139 67.4306 91.5026C67.4243 91.5227 67.4196 91.5437 67.4133 91.5638C67.4298 91.9312 67.4604 92.3154 67.488 92.7036C67.565 92.3371 67.6413 91.9722 67.6908 91.617C67.7758 92.9268 68.1037 94.4855 67.4455 95.6543C67.4188 95.5858 67.4062 95.5141 67.385 95.444Z" fill="#05B4C7"/>
<path d="M77.7222 116.522C77.6294 117.145 77.587 117.779 77.5382 118.411C77.2709 118.646 77.009 118.886 76.744 119.124C76.755 119.001 76.7645 118.878 76.7755 118.754C76.755 118.888 76.7322 119.022 76.7102 119.155C76.4319 119.406 76.1511 119.656 75.8775 119.913C75.975 118.975 76.1826 118.045 76.3249 117.113C76.1323 118.105 75.9192 119.093 75.7061 120.081C75.1738 120.586 74.6626 121.112 74.1657 121.654C74.3112 120.627 74.5824 119.615 74.7633 118.598C75.2587 116.026 75.8122 113.465 76.5695 110.959C76.4397 112.42 76.251 113.874 76.0183 115.322C76.424 113.479 76.8816 111.651 77.5107 109.87C77.3456 111.152 77.149 112.428 76.939 113.702C77.2567 112.125 77.6294 110.56 78.1138 109.025C78.0674 109.539 78.0147 110.027 77.962 110.519C78.1138 109.788 78.2758 109.059 78.459 108.334C78.367 111.078 78.0399 113.8 77.7222 116.522Z" fill="#05B4C7"/>
<path d="M80.1141 117.15C79.6879 116.961 79.1799 117.058 78.7923 117.334C78.7962 116.89 78.8056 116.445 78.7985 116.002C78.7962 115.871 78.7993 115.736 78.7978 115.603C78.7569 116.215 78.701 116.826 78.6547 117.438C78.4038 117.654 78.153 117.876 77.9021 118.096C78.1986 114.661 78.3433 111.203 79.084 107.832C79.0824 108.423 79.0675 109.013 79.0565 109.602C79.1225 108.956 79.1996 108.309 79.2916 107.664C79.4465 109.932 79.4575 112.205 79.4834 114.478C79.5888 113.066 79.7594 111.659 79.9308 110.251C80.1148 112.31 80.1266 114.382 80.1133 116.447C80.1101 116.681 80.1125 116.917 80.1141 117.15Z" fill="#05B4C7"/>
<path d="M66.9892 121.484C66.6998 123.144 66.8075 124.993 66.4442 126.647C66.1454 126.783 65.8506 126.926 65.5494 127.057C65.4574 127.098 65.3638 127.138 65.2718 127.177C65.5494 123.917 66.1942 120.773 66.4026 117.608C66.9192 111.915 67.0599 106.187 67.8565 100.523C68.0208 104.282 67.6269 108.033 67.4279 111.782C67.6221 110.108 67.8533 108.438 68.1875 106.782C68.1529 111.704 67.5616 116.602 66.9892 121.484Z" fill="#05B4C7"/>
<path d="M66.9147 126.431C67.5304 120.425 68.0045 114.381 69.1816 108.457C69.0275 114.372 68.1649 120.243 67.5783 126.127C67.3574 126.229 67.1349 126.33 66.9147 126.431Z" fill="#05B4C7"/>
<path d="M68.3543 125.769C68.1333 125.873 67.9084 125.97 67.6875 126.074C67.8243 124.332 68.212 122.626 68.3385 120.741C68.7514 116.595 69.257 112.589 69.643 108.711C70.0574 112.552 69.3497 116.408 69.0101 120.229C68.7742 122.068 68.6476 123.936 68.3543 125.769Z" fill="#05B4C7"/>
<path d="M70.809 123.603C70.7492 123.967 70.7059 124.32 70.6643 124.666C70.0344 124.969 69.4046 125.272 68.7755 125.57C68.7803 125.507 68.7865 125.445 68.7913 125.382C69.3338 119.737 69.9597 114.081 71.1361 108.533C71.0716 112.141 70.4693 115.76 70.0651 119.106C69.8119 120.978 69.6476 122.863 69.4761 124.744C69.668 123.459 69.8976 122.217 69.9786 121.2C70.5479 117.05 70.9418 112.868 71.7494 108.755C71.8139 112.731 71.1565 116.658 70.669 120.59C70.636 120.775 70.6116 120.965 70.5825 121.152C71.1982 117.387 71.9641 113.647 72.8447 109.938C72.6403 114.554 71.405 119.038 70.809 123.603Z" fill="#05B4C7"/>
<path d="M72.6601 122.187C72.5233 122.841 72.4392 123.506 72.3432 124.169C72.0578 124.112 71.7472 124.15 71.4547 124.289C71.2644 124.382 71.0733 124.472 70.8823 124.563C71.0851 123.529 71.3352 122.499 71.4846 121.463C72.0633 118.199 72.6971 114.949 73.4339 111.721C73.3686 114.101 72.9951 116.452 72.5831 118.792C73.0368 116.466 73.5101 114.143 74.107 111.85C74.0613 112.939 73.9552 114.024 73.8144 115.104C73.9269 114.774 74.0267 114.443 74.1494 114.118C73.6808 116.812 73.1807 119.502 72.6601 122.187Z" fill="#05B4C7"/>
<path d="M65.1002 127.253C64.7487 127.406 64.3957 127.558 64.0434 127.711C64.0505 125.014 64.5616 122.305 64.6473 119.613C65.0082 114.972 65.1631 110.313 65.7584 105.693C66.0289 109.639 65.6742 113.584 65.3959 117.523C65.8401 112.995 66.0178 108.441 66.6406 103.936C66.9135 109.305 66.2341 114.654 65.745 119.991C65.4132 122.389 65.4839 124.864 65.1002 127.253Z" fill="#05B4C7"/>
<path d="M62.552 127.513C62.5535 125.76 62.8319 123.991 62.8555 122.241C63.0505 118.012 63.306 113.785 63.5592 109.561C63.9941 112.51 63.792 115.499 63.6457 118.47C63.9233 114.951 64.1152 111.422 64.528 107.914C64.9471 112.587 64.3998 117.286 64.0098 121.943C63.7314 123.918 63.733 125.955 63.5042 127.943C63.3509 128.009 63.1975 128.075 63.045 128.142C62.9506 127.888 62.7769 127.669 62.552 127.513Z" fill="#05B4C7"/>
<path d="M62.141 126.339C62.012 125.932 61.8689 125.533 61.718 125.137C61.8155 123.915 61.9704 122.691 61.9963 121.478C62.2173 117.674 62.498 113.877 62.9116 110.09C63.2992 113.724 62.8683 117.386 62.6859 121.021C62.483 122.923 62.5522 124.898 62.2778 126.797C62.2338 126.643 62.189 126.489 62.141 126.339Z" fill="#05B4C7"/>
<path d="M61.2401 123.951C61.0664 123.539 60.8721 123.135 60.6842 122.73C60.7573 122.078 60.8242 121.427 60.8564 120.777C61.2559 116.595 61.4674 112.393 62.039 108.227C62.3512 112.204 61.881 116.18 61.5602 120.141C61.3935 121.392 61.3361 122.676 61.2401 123.951Z" fill="#05B4C7"/>
<path d="M60.4813 122.287C60.2934 121.896 60.0929 121.514 59.8916 121.131C60.0143 119.935 60.1652 118.738 60.2014 117.546C60.4845 113.965 60.5686 110.367 61.0184 106.799C61.3998 110.81 61.0553 114.835 60.7463 118.839C60.6103 119.947 60.5796 121.13 60.4813 122.287Z" fill="#05B4C7"/>
<path d="M59.8223 121.001C59.6312 120.642 59.4488 120.279 59.2451 119.926C59.3395 118.987 59.4559 118.049 59.496 117.114C59.7059 113.911 59.9544 110.711 60.3004 107.521C60.6597 110.714 60.3774 113.927 60.1471 117.118C59.9922 118.391 59.9623 119.71 59.8223 121.001Z" fill="#05B4C7"/>
<path d="M58.9085 119.531C58.881 119.51 58.8511 119.495 58.8228 119.478C58.6553 119.066 58.4878 118.654 58.3219 118.241C58.329 118.116 58.3384 117.991 58.3416 117.867C58.3668 117.498 58.3935 117.128 58.4186 116.758C58.4155 116.786 58.4147 116.815 58.4116 116.843C58.366 117.286 58.3345 117.737 58.2999 118.186C58.1316 117.771 57.9602 117.357 57.7904 116.942C57.7959 116.88 57.8022 116.817 57.8061 116.754C58.0058 114.143 58.2983 111.537 58.6593 109.039C58.7481 110.748 58.7151 112.456 58.616 114.162C58.7851 112.104 59.0005 110.05 59.3622 108.016C59.5368 111.143 59.2883 114.268 59.0556 117.385C58.973 118.091 58.9415 118.81 58.9085 119.531Z" fill="#05B4C7"/>
<path d="M57.7008 116.725C57.5231 116.29 57.3431 115.86 57.1599 115.429C57.3399 113.093 57.6285 110.769 58.0358 108.465C58.1019 110.853 58.0397 113.246 57.7991 115.624C57.7638 115.985 57.7339 116.353 57.7008 116.725Z" fill="#05B4C7"/>
<path d="M56.2216 113.33C56.4472 111.58 56.8294 109.832 57.0456 108.098C57.0834 110.227 57.1235 112.462 56.7916 114.596C56.6045 114.173 56.4197 113.748 56.2216 113.33Z" fill="#05B4C7"/>
<path d="M55.6918 112.272C55.8523 111.105 56.1801 109.945 56.4727 108.834C56.3193 110.303 56.4522 111.853 56.2155 113.318C56.0496 112.965 55.868 112.62 55.6918 112.272Z" fill="#05B4C7"/>
<path d="M50.817 114.25C51.3659 109.909 51.6662 105.497 52.8095 101.264C52.6358 105.239 52.1058 109.175 51.667 113.124C51.5003 114.18 51.4862 115.27 51.4005 116.345C51.8227 112.068 52.436 107.788 53.459 103.616C53.3694 106.26 52.9416 109.542 52.5917 111.86C53.1248 108.693 53.5935 105.51 54.6338 102.466C54.0472 106.991 53.4779 111.705 52.429 116.202C52.2678 116.684 52.0374 117.141 51.8062 117.586C51.8015 117.544 51.8023 117.5 51.7999 117.458C51.7032 117.718 51.5829 118.106 51.4547 118.272C51.3965 117.87 51.3423 117.417 51.3415 116.962C51.2589 117.675 51.1237 118.379 50.8634 119.052C50.7745 119.216 50.6306 119.752 50.6071 119.334C50.3279 117.648 50.7274 115.94 50.817 114.25Z" fill="#05B4C7"/>
<path d="M52.9327 114.965C52.9311 114.912 52.9303 114.859 52.9295 114.806C52.8596 113.225 53.4587 111.737 53.8047 110.221C54.3921 107.758 55.0888 105.318 56.0937 102.997C55.6478 105.244 55.1737 107.487 54.6272 109.709C55.3608 106.866 56.8942 104.24 57.7332 101.622C57.5672 102.799 57.2653 103.948 56.9083 105.079C57.6577 103.818 58.6013 102.657 59.3923 101.44C58.9622 102.552 58.3724 103.592 57.8464 104.659C57.7339 104.883 57.6184 105.108 57.4988 105.33C58.5871 103.817 59.9962 102.518 60.9531 101.072C60.6811 101.912 60.1511 102.618 59.6785 103.346C58.9048 104.468 58.2262 105.692 57.237 106.634C56.9728 106.877 56.6826 107.106 56.3901 107.303C56.4908 107.065 56.6064 106.833 56.7212 106.602C56.538 106.86 56.3445 107.11 56.1275 107.339C56.1023 107.406 56.0787 107.475 56.0536 107.541C55.5606 108.793 55.0416 110.523 54.2907 111.405C54.3386 111.012 54.4125 110.624 54.4959 110.24C54.4322 110.494 54.3724 110.751 54.3056 111.004C53.947 112.356 53.7072 113.783 52.9327 114.965Z" fill="#05B4C7"/>
<path d="M60.9761 126.862C60.3054 125.651 59.8808 124.28 59.2997 123.025C58.0361 120.01 56.6183 117.057 55.6016 113.939C57.3504 116.758 58.7131 119.791 59.9822 122.861C60.5082 124.309 61.3181 125.675 61.7451 127.157C61.488 127.062 61.2293 126.97 60.9761 126.862Z" fill="#05B4C7"/>
<path d="M59.7887 126.319C59.1415 125.327 58.7507 124.171 58.2522 123.093C57.2339 120.847 56.4374 118.838 55.5787 116.418C56.9037 118.491 58.0163 120.695 58.9819 122.965C59.4757 124.141 60.126 125.304 60.332 126.569C60.1512 126.485 59.968 126.406 59.7887 126.319Z" fill="#05B4C7"/>
<path d="M58.2801 125.545C58.0922 125.102 57.9168 124.652 57.7281 124.211C56.8805 122.236 56.0745 120.148 55.3133 117.896C56.5196 119.841 57.5905 121.874 58.4531 124.003C58.733 124.679 59.0601 125.371 59.3047 126.076C58.9611 125.903 58.619 125.727 58.2801 125.545Z" fill="#05B4C7"/>
<path d="M57.1516 124.937C57.1288 124.925 57.1076 124.911 57.084 124.899C56.0162 122.973 55.4996 120.836 54.6826 118.451C55.7575 120.665 57.2751 122.834 57.7783 125.276C57.5699 125.162 57.3592 125.05 57.1516 124.937Z" fill="#05B4C7"/>
<path d="M55.4126 123.949C54.6192 122.199 54.2347 120.225 53.6009 118.42C54.5869 120.315 55.8442 122.324 56.2822 124.444C55.9905 124.281 55.7019 124.117 55.4126 123.949Z" fill="#05B4C7"/>
<path d="M54.7202 123.555C54.5417 123.448 54.3672 123.336 54.1918 123.224C53.6335 121.796 53.1649 120.306 53.0194 118.771C53.5565 120.311 54.6329 121.907 55.0536 123.626C55.0607 123.667 55.063 123.713 55.0693 123.754C54.9545 123.686 54.835 123.625 54.7202 123.555Z" fill="#05B4C7"/>
<path d="M53.0183 122.529C52.552 121.428 52.3743 120.174 52.0024 119.045C52.6597 120.224 53.4995 121.546 53.6953 122.912C53.4736 122.775 53.2479 122.647 53.0183 122.529Z" fill="#05B4C7"/>
<path d="M52.1233 122.162C52.043 122.141 51.9628 122.139 51.8819 122.141C51.6507 121.429 51.6491 120.61 51.6515 119.887C51.8331 120.679 52.2797 121.456 52.3945 122.265C52.3033 122.232 52.2176 122.188 52.1233 122.162Z" fill="#05B4C7"/>
<path d="M31.0824 116.651C31.1209 115.539 31.2184 114.421 31.1642 113.317C31.2019 110.339 31.1477 107.283 31.9308 104.391C31.798 106.71 31.8499 109.04 31.8601 111.368C31.9332 110.153 32.0567 108.942 32.2957 107.745C32.3547 110.819 32.4852 113.889 32.3193 116.966C32.3004 117.34 32.3004 117.732 32.2957 118.122C31.9206 117.736 31.5471 117.347 31.176 116.96C31.1587 116.852 31.1241 116.75 31.0824 116.651Z" fill="#05B4C7"/>
<path d="M32.7198 118.562C32.6805 118.521 32.642 118.48 32.6011 118.439C32.5972 118.044 32.5972 117.648 32.5807 117.258C32.4989 114.541 32.5406 111.821 32.8307 109.117C33.2042 112.307 33.2498 115.519 33.2962 118.729C33.3017 118.88 33.3049 119.031 33.3096 119.182C33.1154 118.972 32.9196 118.765 32.7198 118.562Z" fill="#05B4C7"/>
<path d="M33.8718 119.657C33.838 119.184 33.8011 118.711 33.7452 118.246C33.4976 115.298 33.2617 112.311 33.7641 109.377C33.9465 112.669 34.2642 115.956 34.5284 119.243C34.5379 119.408 34.5583 119.576 34.5732 119.742C34.3397 119.716 34.1062 119.688 33.8718 119.657Z" fill="#05B4C7"/>
<path d="M34.9357 119.786C34.6274 116.951 34.4757 114.089 34.8334 111.25C35.1094 114.122 35.3508 116.998 35.6465 119.868C35.4098 119.842 35.1731 119.813 34.9357 119.786Z" fill="#05B4C7"/>
<path d="M36.1865 119.929C35.8562 117.523 35.6172 115.107 35.548 112.676C36.1692 115.086 36.5443 117.545 36.8887 120.01C36.6543 119.983 36.4208 119.956 36.1865 119.929Z" fill="#05B4C7"/>
<path d="M37.1319 120.037C36.4903 116.854 36.0028 113.641 35.7402 110.398C36.6106 113.053 37.0447 115.824 37.5534 118.568C37.6446 119.088 37.7571 119.606 37.875 120.123C37.6273 120.095 37.3796 120.067 37.1319 120.037Z" fill="#05B4C7"/>
<path d="M38.8941 120.24C38.6471 120.211 38.4002 120.184 38.1526 120.155C37.6226 117.182 37.128 114.188 37.0116 111.164C37.8168 114.153 38.3774 117.192 38.9082 120.241C38.9027 120.24 38.8988 120.24 38.8941 120.24Z" fill="#05B4C7"/>
<path d="M39.4491 120.313C38.8932 117.962 38.4206 115.593 38.1328 113.188C38.9655 115.552 39.5922 117.979 40.1953 120.411C39.9461 120.379 39.6976 120.344 39.4491 120.313Z" fill="#05B4C7"/>
<path d="M40.4273 120.443C39.6292 117.447 38.9372 114.421 38.5236 111.342C39.534 114.019 40.2433 116.794 40.9573 119.565C41.0343 119.895 41.131 120.221 41.2246 120.549C40.9596 120.513 40.6931 120.476 40.4273 120.443Z" fill="#05B4C7"/>
<path d="M41.5601 120.592C40.7738 117.644 40.0834 114.668 39.6061 111.648C40.7848 114.58 41.5617 117.647 42.3818 120.7C42.1074 120.661 41.8338 120.63 41.5601 120.592Z" fill="#05B4C7"/>
<path d="M43.6648 120.88C43.6278 120.764 43.5901 120.649 43.5507 120.536C43.4556 120.253 43.3675 119.968 43.274 119.685C43.3825 120.078 43.4815 120.474 43.583 120.868C43.3211 120.83 43.0593 120.792 42.7974 120.755C42.7432 120.554 42.6905 120.353 42.6307 120.155C41.8043 117.183 40.8663 114.243 40.1877 111.229C40.9331 112.761 41.5653 114.343 42.1236 115.952C41.6329 114.219 41.2067 112.468 40.9048 110.686C42.1723 113.697 43.0821 116.844 44.1224 119.939C44.2246 120.292 44.3441 120.645 44.4668 120.997C44.1994 120.958 43.9313 120.92 43.6648 120.88Z" fill="#05B4C7"/>
<path d="M44.7752 121.043C44.6541 120.59 44.5291 120.139 44.3821 119.7C43.4503 116.463 42.4446 113.242 41.8533 109.916C43.2663 113.144 44.2445 116.535 45.2132 119.922C45.3131 120.324 45.4334 120.725 45.5576 121.127C45.442 121.122 45.3264 121.114 45.2109 121.107C45.0646 121.086 44.9199 121.064 44.7752 121.043Z" fill="#05B4C7"/>
<path d="M47.3906 121.244C47.3678 121.242 47.3497 121.233 47.3269 121.23C46.8669 121.207 46.4085 121.175 45.9493 121.148C44.8516 118.04 43.8546 114.879 43.0863 111.672C43.9348 113.535 44.725 115.437 45.4421 117.365C45.1087 116.308 44.7651 115.254 44.3782 114.216C45.7905 116.358 46.6554 118.792 47.3906 121.244Z" fill="#05B4C7"/>
<path d="M24.4564 116.651C24.0255 116.565 23.5994 116.464 23.185 116.321C23.4209 116.253 23.6583 116.216 23.8958 116.178C24.2929 115.222 24.8339 114.329 25.319 113.418C26.4545 111.286 27.7031 109.223 28.8826 107.117C28.1655 109.312 27.1653 111.394 26.0417 113.398C25.5306 114.29 25.0698 115.241 24.5083 116.107C24.7057 116.093 24.9039 116.075 25.102 116.075C25.2404 115.569 25.4362 115.077 25.6705 114.607C26.5127 112.623 27.6363 110.792 28.6514 108.901C28.2363 110.347 27.6135 111.733 27.1362 112.918C26.8193 113.668 26.2815 115.031 25.6792 116.1C25.7641 116.105 25.849 116.104 25.9347 116.11C26.3672 114.226 27.6929 112.527 28.5028 110.817C27.9241 112.509 27.4051 114.508 26.5866 116.104C26.423 116.109 26.2587 116.118 26.0936 116.126C27.6119 116.276 29.1327 116.716 30.6078 116.995C29.8868 116.962 29.1508 116.958 28.4116 116.952C29.1539 117.162 29.8883 117.402 30.6094 117.604C28.5681 117.363 26.3617 117.49 24.4564 116.651Z" fill="#05B4C7"/>
<path d="M27.0589 116.202C27.0565 116.202 27.0549 116.201 27.0534 116.199C27.1296 114.599 28.1943 113.178 28.8965 111.793C28.4105 113.226 28.2273 114.872 27.4088 116.151C27.2908 116.165 27.1752 116.186 27.0589 116.202Z" fill="#05B4C7"/>
<path d="M28.4911 116.048C28.3401 116.059 28.1899 116.074 28.0381 116.089C28.0319 115.986 28.0232 115.883 28.0287 115.78C28.1797 114.499 28.8323 113.344 29.1217 112.096C29.1594 113.348 28.9448 114.625 28.6019 115.823C28.5721 115.897 28.5288 115.972 28.4911 116.048Z" fill="#05B4C7"/>
<path d="M29.2633 116.006C28.933 114.952 29.4441 113.812 29.75 112.805C29.621 113.857 29.8349 115.038 29.3553 116.003C29.3246 116.005 29.2939 116.005 29.2633 116.006Z" fill="#05B4C7"/>
<path d="M7.32749 64.2517C7.62708 61.1295 7.91723 58.0009 8.6084 54.9375C8.25691 60.8951 7.82366 67.4255 6.4822 72.9917C6.61352 70.0636 7.00589 67.1605 7.32749 64.2517Z" fill="#05B4C7"/>
<path d="M8.69653 62.6016C8.80033 65.6094 8.47872 68.6704 7.8882 71.5936C7.7388 68.5648 8.07377 65.561 8.69653 62.6016Z" fill="#05B4C7"/>
<path d="M9.48926 66.5703C9.43815 68.4077 9.23921 70.2942 8.79101 72.0511C8.71709 70.196 8.93333 68.3392 9.48926 66.5703Z" fill="#05B4C7"/>
<path d="M10.2144 70.2292C10.2584 70.1059 10.2805 69.9561 10.2812 69.8184L10.2144 70.2292Z" fill="#05B4C7"/>
<path d="M15.123 64.4062C14.8392 68.011 14.1999 71.5673 13.5496 75.1181C12.9701 78.3563 12.5023 81.6863 11.6098 84.8238C12.3473 77.96 13.5465 71.1179 15.123 64.4062Z" fill="#05B4C7"/>
<path d="M14.8594 71.2598C14.7194 75.1416 14.0196 78.9952 13.0501 82.732C13.2859 78.8566 14.0503 75.0465 14.8594 71.2598Z" fill="#05B4C7"/>
<path d="M15.4751 76.4922C15.5286 78.2361 15.1779 79.9817 14.6408 81.6193C14.6581 79.8713 15.0088 78.1645 15.4751 76.4922Z" fill="#05B4C7"/>
<path d="M17.148 81.3613C17.1503 81.4024 17.1433 81.4838 17.1307 81.5015C17.1291 81.454 17.1354 81.4072 17.148 81.3613Z" fill="#05B4C7"/>
<path d="M16.2676 79.1973C16.4123 80.3484 16.3895 81.605 16.1308 82.6956C15.9987 81.5284 16.0419 80.3492 16.2676 79.1973Z" fill="#05B4C7"/>
<path d="M18.5569 80.7305C18.7094 82.2448 18.4649 83.7721 18.0419 85.2188C17.979 83.6996 18.2093 82.2014 18.5569 80.7305Z" fill="#05B4C7"/>
<path d="M21.1847 83.8644C21.1391 83.6067 21.1021 83.3497 21.1092 83.0742C21.1878 83.3239 21.2319 83.6188 21.1847 83.8644Z" fill="#05B4C7"/>
</svg>
