<svg width="24" height="24" viewBox="0 0 24 24" fill="none" xmlns="http://www.w3.org/2000/svg">
<path d="M10.3075 7.21938C10.9496 5.61869 11.2706 4.81835 11.7922 4.70742C11.9293 4.67826 12.0711 4.67826 12.2082 4.70742C12.7298 4.81835 13.0508 5.61869 13.6929 7.21938C14.058 8.12966 14.2406 8.5848 14.5822 8.89436C14.678 8.98119 14.782 9.05852 14.8928 9.12527C15.2876 9.36325 15.7805 9.40739 16.7663 9.49568C18.4351 9.64513 19.2695 9.71985 19.5243 10.1956C19.577 10.2941 19.6129 10.4008 19.6304 10.5112C19.7149 11.0442 19.1015 11.6023 17.8747 12.7184L17.534 13.0284C16.9605 13.5502 16.6737 13.8111 16.5078 14.1367C16.4083 14.332 16.3416 14.5423 16.3104 14.7593C16.2582 15.121 16.3422 15.4995 16.5102 16.2565L16.5702 16.5269C16.8714 17.8844 17.022 18.5632 16.834 18.8969C16.6651 19.1965 16.3541 19.3884 16.0105 19.4048C15.6279 19.4231 15.089 18.9839 14.011 18.1055C13.3008 17.5268 12.9457 17.2374 12.5515 17.1244C12.1912 17.0211 11.8092 17.0211 11.4489 17.1244C11.0547 17.2374 10.6996 17.5268 9.98941 18.1055C8.91144 18.9839 8.37245 19.4231 7.98993 19.4048C7.64633 19.3884 7.33528 19.1965 7.16642 18.8969C6.97842 18.5632 7.12902 17.8844 7.43022 16.5269L7.49023 16.2565C7.65818 15.4995 7.74216 15.121 7.69004 14.7593C7.65878 14.5423 7.59207 14.332 7.49257 14.1367C7.32669 13.8111 7.03992 13.5502 6.46637 13.0284L6.1257 12.7184C4.89891 11.6023 4.28552 11.0442 4.36999 10.5112C4.38749 10.4008 4.42337 10.2941 4.47614 10.1956C4.73094 9.71985 5.56532 9.64513 7.23408 9.49568C8.21986 9.40739 8.71276 9.36325 9.1076 9.12527C9.21834 9.05852 9.32236 8.98119 9.41818 8.89436C9.75979 8.5848 9.94236 8.12966 10.3075 7.21938Z" fill="#FDED01" stroke="#FDED01" stroke-width="2"/>
</svg>
