<svg width="139" height="125" viewBox="0 0 139 125" fill="none" xmlns="http://www.w3.org/2000/svg">
<path d="M110.94 93.3149C109.453 93.4478 108.211 93.9834 106.856 94.9479C106.775 95.0058 107.229 94.8331 107.636 94.817C108.61 94.7788 109.284 95.1607 110.163 95.5405C110.647 95.75 111.228 95.8444 111.744 95.7104C112.57 95.4963 112.964 94.4822 112.345 93.8334C111.996 93.4665 111.441 93.2699 110.94 93.3149Z" fill="#F58807"/>
<path d="M28.8352 95.5424C29.7135 95.1626 30.3878 94.7807 31.362 94.8189C31.7683 94.835 32.2229 95.0074 32.1416 94.9498C30.7865 93.9853 29.545 93.4497 28.0575 93.3168C27.5563 93.2721 27.0014 93.4686 26.652 93.8353C26.0338 94.4841 26.4277 95.4982 27.2532 95.7123C27.7701 95.8463 28.351 95.7516 28.8352 95.5424Z" fill="#F58807"/>
<path d="M63.8708 10.9175C64.6851 10.9134 65.5884 10.285 65.911 9.49845C66.1412 8.93681 66.0046 7.85517 65.3743 7.57461C64.7499 7.29664 64.2526 7.76544 64.3555 8.37647C64.4435 8.8988 64.7067 9.3645 64.0898 9.6417C63.6517 9.83848 63.1415 9.65876 62.8171 9.33218C62.1333 8.64358 62.0044 7.52703 62.5894 6.74534C62.9671 6.24086 63.744 5.81394 64.347 5.8111C68.0272 5.79403 68.0522 10.865 68.2536 13.464C68.5492 17.2763 68.8667 21.0854 69.0311 24.9064C69.0434 25.1953 69.1708 26.5523 69.5894 26.2611C69.8726 26.0641 69.9549 25.226 69.9686 24.907C70.1332 21.0859 70.4507 17.2763 70.746 13.464C70.9475 10.865 70.9727 5.79403 74.6526 5.8111C75.2556 5.81394 76.0328 6.24086 76.4103 6.74534C76.9953 7.52703 76.8664 8.64358 76.1826 9.33218C75.8582 9.65876 75.3483 9.83848 74.9101 9.6417C74.293 9.3645 74.5561 8.8988 74.6441 8.37647C74.747 7.76544 74.2497 7.29664 73.6253 7.57461C72.995 7.85517 72.8584 8.93707 73.0887 9.49845C73.4113 10.2853 74.3146 10.9137 75.1288 10.9175C76.6593 10.9253 78.0918 9.52172 77.9793 7.99067C77.8924 6.80921 77.2615 5.49201 76.0948 4.92339C74.7892 4.28703 73.347 4.42097 72.1805 5.35599C70.6742 6.5633 70.1497 8.49981 69.8392 10.3515C69.664 11.3951 69.5734 13.7658 69.4996 14.0275C69.4257 13.7658 69.3349 11.3951 69.16 10.3515C68.8495 8.49981 68.3246 6.5633 66.8186 5.35599C65.6522 4.42097 64.2099 4.28703 62.9043 4.92339C61.7378 5.49201 61.1068 6.80921 61.0198 7.99067C60.9079 9.52172 62.3404 10.925 63.8708 10.9175Z" fill="#F58807"/>
<path d="M69.556 6.52717C69.5557 6.88815 70.3859 3.24165 70.4773 2.83517C70.6309 2.15174 70.8145 1.31316 70.5508 0.633875C70.3039 -0.00274855 69.4724 -0.202629 68.8758 0.231785C67.7906 1.02201 68.5696 3.02057 68.8305 4.00808C68.935 4.40397 69.5557 6.73946 69.556 6.52717Z" fill="#F58807"/>
<path d="M137.64 93.4197C136.193 92.0304 133.99 91.8786 132.429 93.1762C131.504 93.9454 131.228 95.3299 131.538 96.4482C131.799 97.3892 132.426 97.9239 133.386 98.0954C134.242 98.2485 135.438 97.7502 135.495 96.7872C135.534 96.1338 135.2 95.6872 134.532 95.7635C134.011 95.823 133.811 96.4275 133.329 96.3888C132.651 96.3342 132.63 95.2525 132.802 94.7768C133.004 94.218 133.776 93.7311 134.361 93.662C135.352 93.5454 136.698 94.0752 137.102 95.0056C137.684 96.3489 137.246 98.5347 136.18 99.5292C134.441 101.15 132.382 101.32 130.129 100.999C129.296 100.88 128.477 100.696 127.661 100.492C126.708 100.254 125.762 99.9921 124.815 99.7322C121.177 98.7346 117.613 98.6467 114.127 100.215C112.88 100.776 111.788 101.596 110.414 102.28C111.003 101.037 111.403 100.727 111.941 100.017C112.613 99.1315 113.315 98.2679 114.055 97.4365C115.536 95.7718 117.171 94.2366 118.978 92.9189C120.942 91.4869 124.847 89.6297 127.071 91.5993C128.273 92.6634 128.394 95.4297 126.659 96.1359C126.11 96.3593 124.531 96.3841 124.809 95.4281C124.919 95.049 125.319 95.122 125.532 94.8892C126.294 94.0597 125.675 93.0725 124.568 93.2915C123.951 93.4133 123.381 93.9752 123.302 94.6053C123.002 97.0259 125.262 98.2011 127.373 97.1922C130.061 95.9078 130.164 91.8427 127.823 90.3328C125.257 88.6776 122.548 89.2969 120.092 90.4228C118.096 91.3379 116.447 92.8061 114.929 94.3718C112.206 97.1803 109.895 100.313 107.761 103.566C107.185 104.444 106.399 104.999 105.581 105.561C102.172 107.903 98.6344 110.047 95.0309 112.08C92.8577 113.307 90.8104 114.762 88.3975 115.571C87.6555 115.819 87.1094 115.581 86.4981 115.173C85.2915 114.369 84.2702 113.721 83.1531 113.157C89.4371 111.059 95.1947 107.503 100.014 102.66C101.03 101.638 101.989 100.575 102.889 99.4739C102.883 99.7793 102.901 100.077 102.951 100.36C103.288 99.5189 103.656 98.7273 104.059 97.9757C104.859 96.9054 105.605 95.8026 106.299 94.6707C107.274 93.5234 108.405 92.4827 109.737 91.5184C111.106 90.527 112.58 89.6946 114.011 88.7987C116.008 87.5479 118.051 86.022 119.799 84.4478C122.886 81.6673 124.62 77.944 124.458 73.6759C124.396 72.0618 124.107 70.4416 123.295 69.0323C121.882 66.5779 119.721 65.008 116.802 65.1003C115.102 65.1541 113.418 66.1168 112.44 67.6404C111.461 57.6987 107.135 48.4799 100.014 41.3221C93.6349 34.9106 85.6105 30.7542 76.898 29.2498C77.3237 28.7882 77.5949 28.1806 77.6152 27.5002C77.6394 26.7036 77.3075 25.9327 76.7027 25.4148C75.8957 24.7239 74.2499 24.7117 73.9788 25.9343C73.8501 26.5145 74.1676 27.1449 74.8594 26.9782C75.199 26.8962 75.4218 26.3033 75.7922 26.5223C76.5728 26.9839 75.9875 28.4779 75.2929 28.7011C73.3443 29.3268 72.6847 26.6842 72.5484 25.2871C72.4352 24.1271 72.4524 22.9466 72.5697 21.7877C72.9808 17.7215 76.0871 12.9608 80.536 12.943C85.8624 12.9218 87.2964 18.6147 85.2128 21.1986C84.0389 22.6545 81.4233 23.3322 79.8437 22.0848C79.032 21.4438 78.4958 20.0777 78.7402 19.0713C78.9491 18.2108 79.6896 17.0996 80.8197 17.3924C81.12 17.4702 81.4673 17.8009 81.4763 18.1278C81.4781 18.1898 81.4673 18.2519 81.4418 18.3119C81.3263 18.5841 81.0168 18.6335 80.8223 18.8249C80.4696 19.1719 80.6703 19.9549 81.0932 20.1667C81.5944 20.4177 82.2751 20.1871 82.616 19.7731C83.1441 19.1316 83.0893 18.0996 82.6764 17.418C81.0713 14.7672 77.5136 16.8716 77.5954 19.5735C77.6466 21.2672 78.4935 23.1101 80.1894 23.7195C83.3548 24.8573 87.0523 23.3772 87.5117 19.8256C87.8001 17.5964 87.441 15.4869 85.8544 13.7027C84.564 12.2515 82.9754 11.5138 81.0893 11.43C76.1251 11.2092 72.7375 15.5153 71.5697 19.8923C71.05 21.8404 70.9345 23.9251 71.2319 25.9436C71.3652 26.8481 71.7305 27.8912 72.3271 28.7127C71.3899 28.6522 70.4475 28.6186 69.5 28.6186C68.5522 28.6186 67.6099 28.6522 66.6727 28.7127C67.2693 27.8912 67.6346 26.8481 67.7678 25.9436C68.0652 23.9249 67.9497 21.8402 67.4301 19.8923C66.2623 15.5153 62.8746 11.2092 57.9104 11.43C56.0244 11.5141 54.4358 12.2518 53.1453 13.7027C51.5588 15.4869 51.1996 17.5964 51.488 19.8256C51.9478 23.3772 55.6449 24.8573 58.8103 23.7195C60.5062 23.1101 61.3532 21.2672 61.4044 19.5735C61.4862 16.8716 57.9284 14.7672 56.3234 17.418C55.9107 18.0996 55.8556 19.1316 56.3838 19.7731C56.7244 20.1868 57.4052 20.4177 57.9066 20.1667C58.3293 19.9546 58.5299 19.1719 58.1775 18.8249C57.983 18.6335 57.6735 18.5841 57.558 18.3119C57.5325 18.2519 57.5219 18.1898 57.5235 18.1278C57.5322 17.8009 57.8798 17.4702 58.18 17.3924C59.3102 17.0996 60.0506 18.2108 60.2595 19.0713C60.5039 20.0777 59.9678 21.4438 59.1561 22.0848C57.5765 23.3322 54.9609 22.6545 53.787 21.1986C51.7036 18.6147 53.1374 12.9218 58.4638 12.943C62.9127 12.9608 66.0189 17.7215 66.4303 21.7877C66.5476 22.9466 66.5649 24.1268 66.4517 25.2871C66.3153 26.6842 65.6557 29.3266 63.7071 28.7011C63.0125 28.4779 62.4272 26.9839 63.2078 26.5223C63.5783 26.3035 63.8008 26.8965 64.1406 26.9782C64.8324 27.1449 65.1499 26.5145 65.0213 25.9343C64.7501 24.712 63.1044 24.7239 62.2973 25.4148C61.6922 25.9327 61.3606 26.7036 61.3848 27.5002C61.4054 28.1806 61.6765 28.7882 62.1021 29.2498C53.3895 30.754 45.3651 34.9104 38.9862 41.3219C31.864 48.4804 27.5386 57.7006 26.5602 67.6432C25.5816 66.1179 23.897 65.1539 22.1957 65.1001C19.2768 65.0078 17.116 66.5779 15.7028 69.032C14.8914 70.4413 14.6012 72.0616 14.54 73.6756C14.3782 77.9437 16.1119 81.6673 19.1991 84.4475C20.9469 86.0218 22.9894 87.5476 24.9868 88.7984C26.4174 89.6944 27.8913 90.5267 29.2607 91.5181C30.5962 92.4852 31.7295 93.5289 32.7071 94.6801C33.3966 95.8049 34.1385 96.9013 34.9335 97.9653C35.3384 98.7201 35.7081 99.515 36.0461 100.36C36.0961 100.076 36.1141 99.7774 36.1079 99.471C37.0093 100.573 37.9692 101.638 38.9862 102.66C43.8048 107.503 49.5627 111.059 55.8466 113.157C54.7296 113.721 53.7082 114.369 52.5017 115.173C51.8904 115.581 51.3442 115.82 50.6023 115.571C48.1896 114.763 46.1423 113.307 43.9689 112.081C40.3654 110.047 36.8277 107.903 33.4184 105.561C32.6003 104.999 31.8149 104.444 31.2391 103.566C29.1048 100.313 26.7936 97.1805 24.0709 94.3721C22.553 92.8064 20.904 91.3382 18.9078 90.4231C16.452 89.2972 13.743 88.6782 11.1765 90.3331C8.83536 91.8427 8.93878 95.9078 11.6264 97.1924C13.7378 98.2014 15.9976 97.0262 15.6974 94.6056C15.6192 93.9754 15.0486 93.4138 14.4319 93.2917C13.3252 93.073 12.7054 94.06 13.4674 94.8895C13.6812 95.1222 14.0805 95.0493 14.1911 95.4284C14.4692 96.3844 12.8899 96.3595 12.3409 96.1361C10.6056 95.4297 10.727 92.6634 11.9285 91.5996C14.1523 89.63 18.0576 91.4871 20.0215 92.9191C21.8288 94.2369 23.4635 95.772 24.9448 97.4368C25.6847 98.2681 26.3868 99.1318 27.0588 100.017C27.597 100.727 27.9968 101.037 28.5857 102.281C27.2121 101.596 26.1198 100.776 24.8723 100.215C21.3869 98.6469 17.8227 98.7348 14.1852 99.7325C13.2382 99.9923 12.2917 100.254 11.3388 100.493C10.5233 100.697 9.70389 100.881 8.8706 100.999C6.61772 101.32 4.55856 101.15 2.82022 99.5295C1.75385 98.535 1.31547 96.3492 1.89792 95.0059C2.30131 94.0755 3.64784 93.5457 4.63832 93.6623C5.22334 93.7311 5.99617 94.2182 6.19786 94.777C6.36946 95.2528 6.34836 96.3342 5.67124 96.389C5.18886 96.4281 4.98871 95.8235 4.46749 95.7638C3.80014 95.6875 3.4657 96.134 3.50429 96.7875C3.5614 97.7507 4.75717 98.2487 5.61361 98.0956C6.57424 97.9239 7.2012 97.3892 7.46207 96.4485C7.77207 95.3304 7.49551 93.9457 6.57038 93.1764C5.00929 91.8789 2.80709 92.0307 1.36023 93.42C-0.187484 94.9063 -0.435488 97.7111 0.724526 99.4935C2.1045 101.614 4.01084 102.648 6.50375 102.81C10.4703 103.069 15.9071 100.59 17.6609 100.532C15.5564 101.685 15.1011 102.64 14.7859 103.668C14.2657 105.365 14.7797 107.394 16.4144 108.306C17.5222 108.923 19.0594 108.943 20.1178 108.206C21.1473 107.49 21.6385 105.683 20.9279 104.606C20.5224 103.991 19.8394 103.775 19.1216 103.903C18.1139 104.081 17.6956 105.352 18.8309 105.721C19.3794 105.899 19.8662 106.016 19.5186 106.667C18.9716 107.691 17.6169 107.465 16.9192 106.824C16.1397 106.108 15.7437 104.702 16.2423 103.773C18.8852 98.8478 24.7504 101.24 28.366 103.709C29.7825 104.677 30.9052 105.852 31.9988 107.147C39.7148 116.283 45.1418 119.558 45.9195 120.006C43.9833 121.083 42.4364 121.759 40.6793 121.949C39.2396 122.105 37.6414 122.226 36.2411 121.892C35.3551 121.68 34.4719 121.436 33.6371 121.071C31.5803 120.17 29.7053 119.116 28.3395 117.346C27.0935 115.731 25.2819 112.138 27.5252 110.451C28.0524 110.055 28.9235 109.964 29.507 110.293C30.1735 110.669 30.3364 111.965 29.481 112.199C28.5569 112.451 28.2757 113.049 28.5605 113.671C28.873 114.355 29.6256 114.596 30.4236 114.221C31.8952 113.531 32.1797 111.558 31.3523 110.248C30.8573 109.465 30.047 108.868 29.1084 108.737C27.8617 108.563 26.3897 109.206 25.6552 110.207C24.6806 111.534 24.8422 113.646 25.3858 115.095C26.3302 117.614 28.0974 119.446 30.2852 120.914C32.6821 122.522 35.5036 123.555 38.4181 123.626C39.9077 123.662 41.3106 123.401 42.7374 123.009C44.097 122.636 45.3085 121.97 46.6478 121.487C47.1166 121.318 47.6213 121.234 48.0898 121.455C53.6424 124.066 60.4831 126.092 66.1774 122.793C67.5973 121.97 68.8311 120.664 69.5005 119.17C70.1699 120.664 71.4038 121.97 72.8236 122.793C78.518 126.092 85.3584 124.066 90.9113 121.455C91.3797 121.234 91.8842 121.318 92.3532 121.487C93.6926 121.97 94.904 122.636 96.2637 123.009C97.6907 123.401 99.0936 123.662 100.583 123.626C103.497 123.555 106.319 122.522 108.716 120.914C110.904 119.446 112.671 117.614 113.615 115.095C114.159 113.646 114.32 111.534 113.346 110.207C112.611 109.206 111.139 108.563 109.892 108.737C108.954 108.868 108.143 109.465 107.648 110.248C106.821 111.558 107.106 113.531 108.577 114.221C109.375 114.596 110.128 114.354 110.44 113.671C110.725 113.049 110.444 112.451 109.52 112.199C108.665 111.965 108.827 110.669 109.494 110.293C110.077 109.964 110.948 110.055 111.476 110.451C113.719 112.138 111.907 115.731 110.661 117.346C109.295 119.116 107.421 120.17 105.364 121.071C104.529 121.436 103.646 121.68 102.76 121.892C101.359 122.226 99.7612 122.105 98.3215 121.949C96.5644 121.759 95.0175 121.083 93.0813 120.006C93.859 119.558 99.286 116.283 107.002 107.147C108.096 105.852 109.218 104.677 110.635 103.709C114.25 101.24 120.116 98.8476 122.759 103.773C123.257 104.702 122.861 106.108 122.082 106.824C121.384 107.465 120.029 107.691 119.482 106.667C119.135 106.015 119.622 105.899 120.17 105.721C121.305 105.352 120.887 104.081 119.879 103.903C119.162 103.775 118.479 103.991 118.073 104.606C117.362 105.684 117.853 107.49 118.883 108.206C119.941 108.943 121.479 108.923 122.586 108.306C124.221 107.394 124.735 105.365 124.215 103.668C123.899 102.64 123.444 101.685 121.34 100.532C123.093 100.59 128.53 103.069 132.497 102.81C134.99 102.648 136.896 101.614 138.276 99.4935C139.435 97.7109 139.188 94.9061 137.64 93.4197ZM85.6056 116.719C83.1907 117.909 77.6144 117.235 74.6471 115.057C76.7415 114.808 78.8015 114.408 80.8148 113.862C83.4104 114.776 85.0572 116.151 85.6056 116.719ZM69.5 113.7C69.3168 113.7 69.135 113.695 68.9523 113.693C68.8538 113.542 68.7673 113.388 68.7151 113.228C68.6238 112.949 68.7328 112.655 68.8545 112.403C69.0894 111.918 69.305 111.426 69.5 110.927C69.6948 111.426 69.9106 111.918 70.1455 112.403C70.2672 112.655 70.3763 112.949 70.2849 113.228C70.2327 113.388 70.1463 113.542 70.0477 113.693C69.8651 113.695 69.6829 113.7 69.5 113.7ZM62.1072 113.036C62.551 113.001 63.0087 112.981 63.4823 112.983C64.1682 112.991 64.9425 113.152 65.5587 113.51C64.3938 113.4 63.2423 113.242 62.1072 113.036ZM73.4411 113.511C74.0572 113.153 74.8316 112.991 75.5175 112.984C75.9914 112.981 76.4488 113.001 76.8928 113.036C75.7575 113.242 74.606 113.4 73.4411 113.511ZM118.503 71.3032C118.409 70.2293 117.706 68.555 116.328 68.9115C115.931 69.0142 115.626 69.2655 115.6 69.6772C115.514 71.0249 117.082 70.9122 117.063 72.0585C117.042 73.3136 115.753 73.686 114.727 73.3542C113.523 72.9648 113.103 71.4415 113.179 70.2792C113.383 67.1876 116.625 65.92 119.164 67.2696C121.321 68.4161 122.232 70.4682 122.594 73.0036C123.023 76.008 122.43 78.7239 120.702 81.192C119.628 82.7267 118.217 83.708 116.85 84.9075C115.228 86.3297 113.38 87.5484 111.55 88.6789C110.424 89.3737 109.379 90.0688 108.391 90.8283C110.981 85.4379 112.434 79.5273 112.627 73.3966C113.536 74.4335 114.915 75.0476 116.244 74.6013C117.639 74.133 118.634 72.8045 118.503 71.3032ZM27.4478 88.6789C25.6168 87.5484 23.7691 86.3295 22.1473 84.9075C20.78 83.7083 19.3694 82.727 18.2948 81.192C16.5667 78.7239 15.974 76.008 16.4031 73.0036C16.7653 70.4682 17.6766 68.4161 19.8332 67.2696C22.3719 65.92 25.614 67.1876 25.8178 70.2792C25.8944 71.4415 25.4746 72.9648 24.27 73.3542C23.2438 73.686 21.9552 73.3133 21.9343 72.0585C21.9153 70.9122 23.4833 71.0249 23.3974 69.6772C23.3712 69.2655 23.0663 69.0142 22.6693 68.9115C21.2914 68.555 20.5883 70.2293 20.4947 71.3032C20.3637 72.8045 21.3583 74.1328 22.7532 74.6013C24.083 75.0479 25.4635 74.4325 26.3724 73.394C26.5651 79.5265 28.0192 85.4392 30.6101 90.8311C29.6209 90.0706 28.5744 89.3745 27.4478 88.6789ZM28.0017 71.9899C28.0017 48.9911 46.6177 30.2802 69.4998 30.2802C92.3818 30.2802 110.998 48.9911 110.998 71.9899C110.998 91.0695 98.1857 107.197 80.7551 112.14C80.7158 112.126 80.6782 112.112 80.6384 112.098C78.386 111.316 75.3173 111.255 72.7665 111.646C72.2013 111.732 71.944 111.717 71.6971 111.2C70.3271 108.337 70.2476 105.007 71.5713 102.112C72.0102 101.153 72.641 100.288 73.4604 99.6099C74.7912 98.5081 76.9075 97.9074 78.7004 98.3395C79.7806 98.5999 80.9494 99.1431 81.6574 99.9998C83.2591 101.937 83.4642 105.034 81.7881 106.846C80.9015 107.804 79.0665 108.046 77.9281 107.379C76.9847 106.825 76.0109 105.071 77.0883 104.152C77.6577 103.667 77.9808 104.594 78.4356 104.776C79.1583 105.066 79.751 104.938 80.1555 104.41C80.5838 103.851 80.4328 103.301 80.1017 102.776C79.6111 101.998 78.7896 101.631 77.8758 101.776C76.6777 101.967 75.7132 102.761 75.2828 103.876C75.0711 104.424 74.9944 105.022 75.0392 105.607C75.2106 107.836 77.4058 109.395 79.5869 109.207C83.2854 108.888 85.6641 105.339 84.7037 101.832C83.3734 96.9747 78.5367 95.2864 74.2641 96.962C72.1123 97.806 70.4745 99.576 69.4998 101.678C68.525 99.5758 66.8872 97.806 64.7352 96.962C60.4628 95.2864 55.6262 96.9747 54.2958 101.832C53.3355 105.339 55.7139 108.888 59.4126 109.207C61.5937 109.395 63.789 107.836 63.9603 105.607C64.0051 105.022 63.9284 104.424 63.7167 103.876C63.2863 102.761 62.3218 101.967 61.1237 101.776C60.2096 101.631 59.3884 101.998 58.8978 102.776C58.5665 103.301 58.4157 103.851 58.844 104.41C59.2485 104.937 59.8412 105.066 60.5639 104.776C61.0185 104.594 61.3418 103.667 61.9112 104.152C62.9886 105.071 62.0151 106.825 61.0715 107.379C59.9333 108.046 58.0982 107.804 57.2114 106.846C55.5353 105.034 55.7404 101.937 57.3421 99.9998C58.0501 99.1431 59.2186 98.5999 60.2991 98.3395C62.0918 97.9077 64.2083 98.5083 65.5391 99.6099C66.3585 100.288 66.9896 101.153 67.4282 102.112C68.7519 105.007 68.6724 108.337 67.3024 111.2C67.0555 111.717 66.7982 111.732 66.233 111.646C63.6822 111.255 60.6133 111.316 58.3612 112.098C58.3215 112.112 58.2837 112.126 58.2444 112.14C40.8138 107.197 28.0017 91.0693 28.0017 71.9899ZM58.1849 113.862C60.1983 114.408 62.2582 114.808 64.3526 115.057C61.3853 117.236 55.8088 117.909 53.3941 116.719C53.9426 116.151 55.5894 114.776 58.1849 113.862ZM47.5328 118.487C47.0659 118.844 46.6231 118.795 46.1029 118.432C44.3358 117.201 42.7086 115.802 41.0945 114.395C39.5331 113.035 37.325 110.872 35.5239 108.833C35.65 108.904 49.4299 117.1 49.4597 117.117C48.9118 117.713 48.1557 118.011 47.5328 118.487ZM67.7156 118.408C67.0413 119.921 65.6487 121.062 64.1327 121.707C61.3933 122.872 57.8237 122.659 54.9881 122.014C53.0481 121.573 50.8804 120.974 49.0533 120.016C49.6028 119.267 50.7834 118.75 51.549 118.24C52.3867 117.682 52.8214 118.1 53.6766 118.33C57.1024 119.251 60.3066 119.295 63.5512 117.681C64.6984 117.111 65.9299 116.249 66.8461 115.279C67.1836 115.299 67.5219 115.316 67.861 115.328C67.8929 115.418 67.916 115.484 67.9214 115.502C68.1926 116.407 68.1038 117.537 67.7156 118.408ZM84.0114 122.014C81.176 122.659 77.6062 122.872 74.8668 121.707C73.3508 121.062 71.9582 119.921 71.2839 118.408C70.8959 117.537 70.8072 116.407 71.0781 115.503C71.0835 115.485 71.1066 115.418 71.1385 115.329C71.4776 115.316 71.8159 115.3 72.1535 115.279C73.0696 116.249 74.3009 117.111 75.4483 117.682C78.6929 119.296 81.8969 119.251 85.3229 118.331C86.1781 118.101 86.6129 117.682 87.4505 118.241C88.2161 118.751 89.3967 119.268 89.9462 120.016C88.1191 120.975 85.9517 121.573 84.0114 122.014ZM97.9053 114.395C96.2912 115.802 94.664 117.201 92.8968 118.432C92.3766 118.795 91.9339 118.844 91.4669 118.487C90.8441 118.011 90.088 117.713 89.5398 117.117C89.5699 117.1 103.35 108.904 103.476 108.833C101.675 110.872 99.4666 113.035 97.9053 114.395Z" fill="#F58807"/>
<path d="M69.4996 112.237C47.3899 112.237 29.4023 94.1574 29.4023 71.9348C29.4023 49.7122 47.3899 31.6328 69.4996 31.6328C91.6093 31.6328 109.597 49.7122 109.597 71.9348C109.597 94.1577 91.6096 112.237 69.4996 112.237ZM69.4996 32.7587C48.0076 32.7587 30.5225 50.333 30.5225 71.9348C30.5225 93.5366 48.0076 111.111 69.4996 111.111C90.9916 111.111 108.477 93.5368 108.477 71.9351C108.477 50.3333 90.9919 32.7587 69.4996 32.7587Z" fill="#F58807"/>
</svg>
