<svg width="25" height="24" viewBox="0 0 25 24" fill="none" xmlns="http://www.w3.org/2000/svg">
<path d="M10.543 15L10.543 12" stroke="#EF1B1B" stroke-linecap="round"/>
<path d="M14.543 15L14.543 12" stroke="#EF1B1B" stroke-linecap="round"/>
<path d="M3.54297 7H21.543V7C20.6111 7 20.1451 7 19.7776 7.15224C19.2875 7.35523 18.8982 7.74458 18.6952 8.23463C18.543 8.60218 18.543 9.06812 18.543 10V16C18.543 17.8856 18.543 18.8284 17.9572 19.4142C17.3714 20 16.4286 20 14.543 20H10.543C8.65735 20 7.71454 20 7.12876 19.4142C6.54297 18.8284 6.54297 17.8856 6.54297 16V10C6.54297 9.06812 6.54297 8.60218 6.39073 8.23463C6.18774 7.74458 5.79839 7.35523 5.30834 7.15224C4.94079 7 4.47485 7 3.54297 7V7Z" stroke="#EF1B1B" stroke-linecap="round"/>
<path d="M10.6111 3.37059C10.7251 3.26427 10.9762 3.17033 11.3254 3.10332C11.6747 3.03632 12.1027 3 12.543 3C12.9832 3 13.4112 3.03632 13.7605 3.10332C14.1098 3.17033 14.3609 3.26427 14.4748 3.37059" stroke="#EF1B1B" stroke-linecap="round"/>
</svg>
