<svg width="180" height="57" viewBox="0 0 180 57" fill="none" xmlns="http://www.w3.org/2000/svg">
<path fill-rule="evenodd" clip-rule="evenodd" d="M18.0144 2.27432V4.04808L18.6457 4.10653C19.0744 4.14599 19.4788 4.02892 19.905 3.74196L20.533 3.31915H99.4966H158.961V4.1334C158.961 5.12466 158.863 5.2579 158.387 4.90987C158.069 4.6778 166.654 4.64021 97.8083 4.63458C53.9679 4.63101 16.7918 4.6295 15.1944 4.63119L12.2902 4.63458L12.2927 8.81576C12.2942 11.1155 12.353 13.0982 12.4235 13.2219C12.8304 13.9363 13.769 11.3604 13.7722 9.52045C13.7734 8.84864 13.7813 7.83388 13.7899 7.26543L13.8054 6.23188L94.9838 6.28205L156.663 6.33223L157.304 5.85924C157.656 5.59916 158.173 5.38625 158.453 5.38625H158.961V7.45335C158.961 9.01138 159.015 9.52045 159.178 9.52045C159.297 9.52045 160.812 11.111 162.545 13.0552L165.696 16.5899V19.8648V23.1398L163.328 25.7872L160.961 28.4348L163.328 31.0388L165.696 33.6426L165.698 35.6285C165.701 37.9091 165.799 38.5018 166.164 38.4219C166.57 38.3332 167.193 36.267 167.202 34.9749L167.211 33.8391L169.658 31.1312L172.105 28.4233L169.658 25.6878L167.211 22.9521L167.214 20.5114C167.215 19.015 167.274 18.1728 167.366 18.3344C167.448 18.4795 169.472 20.7852 171.863 23.4585L176.211 28.319L167.578 37.9566L158.945 47.5942L158.995 48.8882L159.046 50.1822L159.635 50.3673L160.224 50.5524L159.467 50.6935C159.05 50.7711 142.941 50.8427 99.8367 50.8527C23.6962 50.8703 21.4541 50.8807 21.0583 51.2204L20.6507 51.57L21.5127 51.7024C21.9868 51.7752 22.4636 51.9543 22.5722 52.1003C22.7419 52.3284 14.8248 52.3658 85.2406 52.3658H167.211V48.5426C167.211 44.9385 167.191 44.6997 166.869 44.374C166.557 44.0587 166.504 44.0545 166.26 44.3265C165.87 44.7622 165.711 45.9655 165.703 48.5605L165.696 50.8625L163.381 50.8598C161.012 50.8572 160.308 50.7645 160.308 50.4549C160.308 50.3583 160.536 50.1906 160.813 50.0826C161.251 49.9121 161.318 49.7941 161.318 49.1935C161.318 48.5292 161.682 48.0954 170.152 38.6414C175.01 33.2188 179.101 28.7548 179.243 28.7214C179.385 28.6879 179.501 28.6018 179.501 28.5299C179.501 28.4581 176.736 25.317 173.356 21.5498L167.211 14.7002V9.6674V4.63458H164.789C162.627 4.63458 162.323 4.67441 161.969 5.00421L161.571 5.37366L162.15 5.38005C162.512 5.38399 162.878 5.54429 163.131 5.80906C163.462 6.1569 163.725 6.23188 164.614 6.23188H165.695L165.695 9.61178L165.696 12.9915L163.5 10.5514L161.305 8.11106L161.354 4.30553L161.403 0.5L99.4579 0.500186L18.0144 0.500376V2.27432ZM18.0144 7.53941C18.0144 8.2939 17.9388 8.38467 9.00719 18.3526C4.05324 23.8813 0 28.4686 0 28.5464C0 28.6244 0.094786 28.6885 0.210448 28.689C0.326279 28.6896 3.07255 31.6503 6.31345 35.2682L12.206 41.8465L12.2557 47.1062L12.3052 52.3658H14.129C15.4814 52.3658 16.0032 52.2982 16.1473 52.1044C16.2542 51.9607 16.6867 51.7851 17.1086 51.7145C17.8529 51.5899 17.8669 51.5754 17.5822 51.2244C17.3285 50.9115 17.0525 50.8625 15.5471 50.8625H13.8054V47.246V43.6295L15.9225 45.9925L18.0395 48.3554L18.0211 52.4278L18.0026 56.5H99.4099H161.318V55.0314V53.5628L160.706 53.237C160.032 52.8783 159.17 52.9701 159.016 53.417C158.938 53.6434 167.131 53.6812 99.3887 53.6812H20.3531L20.3835 50.4979L20.4138 47.3144L17.1125 43.5919L13.8111 39.8692L13.7817 37.3323C13.7655 35.937 13.7559 34.6898 13.7601 34.5605C13.7695 34.2794 13.5307 34.2495 13.3845 34.5136C13.3273 34.6169 13.2044 34.7015 13.1113 34.7015C12.8951 34.7015 18.1816 28.7843 18.5195 28.6481C18.6972 28.5763 18.0198 27.6904 16.2326 25.6574L13.6933 22.7687L13.7461 21.1438C13.7967 19.5951 13.7797 19.5045 13.3859 19.2165C12.9906 18.9273 12.9602 18.9353 12.6868 19.401C12.4989 19.721 12.3759 20.4128 12.3274 21.4221L12.2535 22.9566L9.83147 25.6946L7.40947 28.4325L10.0603 31.4009C11.5182 33.0333 12.6165 34.3121 12.5006 34.2424C12.3383 34.1445 12.2902 34.5701 12.2902 36.0998C12.2902 37.191 12.2491 38.084 12.1989 38.084C12.1028 38.084 3.36717 28.3557 3.36717 28.2486C3.36717 28.2142 7.19296 23.9231 11.8691 18.7125L20.3711 9.23857L20.3712 8.24242C20.3714 7.27952 20.3515 7.23705 19.7759 6.96852C19.4484 6.81574 18.9181 6.71051 18.5974 6.73475C18.0347 6.77703 18.0144 6.80503 18.0144 7.53941ZM14.9449 26.4833L16.6675 28.4126L14.811 30.4765L12.9547 32.5404L11.1587 30.5132L9.36277 28.4859L11.1181 26.5199C12.0835 25.4386 12.9518 24.5539 13.0478 24.5539C13.1438 24.5539 13.9974 25.4221 14.9449 26.4833ZM168.383 26.5199L170.138 28.4859L168.343 30.5132L166.547 32.5404L164.69 30.4765L162.834 28.4126L164.556 26.4833C165.504 25.4221 166.357 24.5539 166.453 24.5539C166.549 24.5539 167.418 25.4386 168.383 26.5199ZM13.7537 41.0401C13.711 41.223 13.6733 41.1189 13.6699 40.8088C13.6665 40.4988 13.7014 40.3492 13.7475 40.4764C13.7936 40.6036 13.7965 40.8573 13.7537 41.0401Z" fill="#F58807"/>
</svg>
