<svg width="34" height="38" viewBox="0 0 34 38" fill="none" xmlns="http://www.w3.org/2000/svg">
<g filter="url(#filter0_d_2296_12194)">
<path d="M24.7162 9.81209C22.7308 9.5552 20.4548 9.14163 19.4628 7.35185C18.4586 5.54089 18.7108 3.37423 18.2125 1.43765C18.0295 0.727662 16.7885 0.692375 16.6301 1.43765C16.2133 3.39964 15.6197 5.40255 14.6277 7.19234C13.5881 9.06823 11.6351 9.54955 9.50049 9.7895C9.33747 9.80785 9.21444 9.87561 9.12217 9.96454C8.92378 9.97301 8.73154 10.0012 8.53162 10.0012C7.8934 9.99842 7.72116 10.9399 8.38552 11.0472C11.0245 11.4734 13.439 12.2723 14.9769 14.3924C16.5501 16.5619 16.8254 19.1548 16.9607 21.6899C16.9853 22.1486 17.7666 22.294 17.8727 21.7972C18.1126 20.6736 18.534 19.5712 18.78 18.4406C19.0245 17.3213 19.1614 16.1737 19.4613 15.0657C19.7581 13.9661 20.3179 13.3183 21.4067 12.7974C22.5617 12.2455 23.7473 11.7402 24.9161 11.2137C25.5282 10.9371 25.4359 9.90525 24.7162 9.81209ZM17.9742 13.8871C17.6835 14.6041 17.5097 15.3537 17.3913 16.1159C17.1437 15.101 16.7608 14.1271 16.141 13.2477C15.3829 12.1721 14.2818 11.2448 13.0022 10.7211C12.8761 10.6703 12.7439 10.6435 12.6178 10.6011C13.7912 10.3471 14.8523 9.84596 15.6658 8.82545C16.361 7.95314 16.8362 6.90017 17.2099 5.80625C17.3744 6.87899 17.6543 7.92067 18.334 8.84944C19.1614 9.98146 20.3517 10.5404 21.6589 10.8637C20.0795 11.5299 18.5908 12.3627 17.9742 13.8871Z" fill="#05B4C7" fill-opacity="0.5" shape-rendering="crispEdges"/>
</g>
<defs>
<filter id="filter0_d_2296_12194" x="0.247911" y="0.891846" width="32.7893" height="36.6463" filterUnits="userSpaceOnUse" color-interpolation-filters="sRGB">
<feFlood flood-opacity="0" result="BackgroundImageFix"/>
<feColorMatrix in="SourceAlpha" type="matrix" values="0 0 0 0 0 0 0 0 0 0 0 0 0 0 0 0 0 0 127 0" result="hardAlpha"/>
<feOffset dy="7.71498"/>
<feGaussianBlur stdDeviation="3.85749"/>
<feComposite in2="hardAlpha" operator="out"/>
<feColorMatrix type="matrix" values="0 0 0 0 0.960784 0 0 0 0 0.533333 0 0 0 0 0.027451 0 0 0 0.5 0"/>
<feBlend mode="normal" in2="BackgroundImageFix" result="effect1_dropShadow_2296_12194"/>
<feBlend mode="normal" in="SourceGraphic" in2="effect1_dropShadow_2296_12194" result="shape"/>
</filter>
</defs>
</svg>
