<svg width="18" height="18" viewBox="0 0 18 18" fill="none" xmlns="http://www.w3.org/2000/svg">
<g clip-path="url(#clip0_2044_17077)">
<path d="M12.18 16C13.6835 15.3632 14.9508 14.2903 15.8104 12.9264C16.6701 11.5625 17.0808 9.97333 16.9868 8.37384C16.8929 6.77435 16.2989 5.24163 15.2852 3.98291C14.2715 2.72418 12.887 1.80017 11.3188 1.33579C9.75061 0.871417 8.0744 0.889071 6.5168 1.38637C4.9592 1.88367 3.59534 2.83663 2.6096 4.11641C1.62387 5.39619 1.0638 6.94107 1.00513 8.54217C0.946461 10.1433 1.39201 11.7234 2.28155 13.0689" stroke="#F58807" stroke-linecap="round"/>
<path d="M12.0683 12.6361L11.4533 16.704L15.5211 17.319" stroke="#F58807" stroke-linecap="round"/>
</g>
<defs>
<clipPath id="clip0_2044_17077">
<rect width="18" height="18" fill="white"/>
</clipPath>
</defs>
</svg>
